<svg xmlns="http://www.w3.org/2000/svg" viewBox="0 0 554.5 477"><defs><style>.cls-1{fill:#ff533d;}.cls-2{fill:#fff;}.cls-3{fill:#6374ff;}.cls-4{fill:#010101;}.cls-5{fill:none;stroke:#000;stroke-width:7px;}.cls-6{fill:#ffd240;}</style></defs><path class="cls-1" d="M261.24,286l101.89-.09s28-29.16,29.69-56.69-7.16-103-36.37-109-95.88,1.65-104.13,23.13-27.55,87-14.33,109S261.24,286,261.24,286Z"/><path class="cls-2" d="M313.69,371c-72.68,0-70.48-65.53-70.48-65.53s31.34-3.81,34.36-20A131.41,131.41,0,0,0,280,257.24s-19.94-14.63-26.4-32.68c0,0-9.48,4.62-14.42-7.31,0,0-13.26-31.12,14.54-51.69s65.19-28.06,77.08-46.15a192.9,192.9,0,0,0,35.32,43.39c22.09,19.84,20.3,47.67,18.2,60.23a13.14,13.14,0,0,1-11.31.76s-12.26,22.06-24.79,30.35c0,0-14.6,43,34.44,51.84C382.62,306,386.38,371,313.69,371Z"/><path class="cls-1" d="M403.23,160.57C383,86.37,330.65,88,330.65,88s-68.84-10.69-93.92,53.45c-21.9,56-8.54,115.06,14.41,134.15l12.74,9.15c-32.23-39.37-7.95-116.22-7.95-116.22,42.76-8.93,77.39-28.15,77.39-28.15s17,26.54,42.89,36.5c8.72,28.31,14.2,70.75-11.41,108.74l11.32-8.06C386.37,266.62,420.58,224.05,403.23,160.57Z"/><path class="cls-3" d="M479.3,405.93c-10.15-34.06-19.34-60.62-24.78-66.6-13.18-14.51-52.84-29.41-72.76-36.23,0,0-8.6,62.36-68.07,62.36s-69.32-62.39-69.32-62.39C225,309.81,184.54,325.15,171.21,340c-5.34,5.94-14.25,31.93-24.09,65.42a238.92,238.92,0,0,0,332.18.53Z"/><path class="cls-4" d="M311.18,273.62h-.37c-13.5-.18-26.25-11.6-34.69-19.16-1.93-1.74-3.6-3.23-5-4.39-12-9.63-20.09-23.93-26.36-46.36l3.24-.91c6.07,21.72,13.86,35.49,25.24,44.66,1.51,1.22,3.2,2.74,5.17,4.5,8.07,7.22,20.26,18.16,32.49,18.31,14.7.17,30.18-12.79,39.46-20.54,1.08-.91,2.08-1.74,3-2.45,10.86-8.83,18.63-22.4,24.46-42.72l3.22.93c-6,21-14.14,35.12-25.56,44.4-.88.71-1.86,1.53-2.92,2.43C342.92,260.29,327,273.62,311.18,273.62Z"/><path class="cls-4" d="M261.08,301.75l-.5-3.32c22.11-3.36,17.62-42.37,17.58-42.78l3.34-.4C281.7,257,286.37,297.91,261.08,301.75Z"/><path class="cls-4" d="M364.53,301.14c-23.93-7.23-18.22-45.69-18-47.32l3.32.51c-.06.37-5.53,37.21,15.61,43.59Z"/><path class="cls-4" d="M312.72,215.46c-3.84,0-9.34-.81-12.41-3.84a7,7,0,0,1-2.14-5.64A83.4,83.4,0,0,1,300,195.05c2-9.84,4.79-23.31.18-26.75S285,167,275.41,169.59l-.88-3.24c10.9-3,21.81-5.12,27.66-.74,6.31,4.72,3.54,18.22,1.1,30.12a85.4,85.4,0,0,0-1.77,10.46,3.68,3.68,0,0,0,1.14,3.05c2.33,2.29,7.72,3.15,11.82,2.8l.29,3.35C314.18,215.42,313.49,215.46,312.72,215.46Z"/><path class="cls-4" d="M270.74,183.42l-1.81-2.83c4.23-2.71,12.77-4.24,17.88-2.23l-1.23,3.12C281.89,180,274.54,181,270.74,183.42Z"/><path class="cls-4" d="M283.45,189a6.5,6.5,0,0,1-5.05-2.41c-1.46-1.88-1.91-5,1.5-7.9,2-1.8,5.83-.87,7-.18a5.6,5.6,0,0,1,.22,9.25A6.1,6.1,0,0,1,283.45,189Zm-1.22-7.88c-.9.72-2.2,2.09-1.17,3.41a3,3,0,0,0,4.05.55,2.25,2.25,0,0,0,1-2,2.22,2.22,0,0,0-.88-1.68A5.1,5.1,0,0,0,282.23,181.09Z"/><path class="cls-4" d="M345.25,183.25c-3.81-2.41-11.17-3.32-14.85-1.86l-1.25-3.12c5.09-2,13.65-.54,17.9,2.14Z"/><path class="cls-4" d="M332.52,188.85a6,6,0,0,1-3.66-1.23,5.6,5.6,0,0,1,.17-9.25c1.2-.7,5.06-1.65,7,.15,3.42,2.84,3,6,1.55,7.89A6.48,6.48,0,0,1,332.52,188.85Zm.49-8a6.12,6.12,0,0,0-2.28.43,2.26,2.26,0,0,0,.16,3.67,3,3,0,0,0,4-.58c1-1.34-.3-2.71-1.21-3.41A1.61,1.61,0,0,0,333,180.85Z"/><path class="cls-4" d="M309.83,237.15a28.1,28.1,0,0,1-15.93-4.63l1.91-2.76c9.28,6.36,22.77,4.3,28,.08l2.12,2.61C322.53,235.18,316.42,237.15,309.83,237.15Z"/><path class="cls-4" d="M317,249.9c-4.89-3.36-12-2.29-14.72-.08l-2.12-2.61c3.53-2.87,12.24-4.55,18.73-.09Z"/><path class="cls-4" d="M377.18,226.68a7.68,7.68,0,0,1-4.86-1.66l2.2-2.54-1.1,1.26,1.09-1.29c.28.24,2.83,2.16,6.51-.59l2,2.69A9.71,9.71,0,0,1,377.18,226.68Z"/><path class="cls-4" d="M251,226.06a12.75,12.75,0,0,1-9.29-3.41l2.35-2.41c1.85,1.8,4.52,2.63,7.91,2.43l.19,3.36Z"/><path class="cls-4" d="M347.75,167.36c-6.36-4-20.14-3.81-24.36-.63l-2-2.67c5.62-4.25,21.16-4,28.19.47Z"/><path class="cls-4" d="M261.77,290.57c-18.61-20.21-24.73-52.95-17.68-94.67a284.93,284.93,0,0,1,16.32-57.29l3.09,1.32c-.42,1-42.63,101.25.75,148.35Z"/><path class="cls-4" d="M363.13,288.16l-2.79-1.87c22.74-33.94,21.21-72.62,15.92-99.08a196.41,196.41,0,0,0-17.14-49.89l2.95-1.6a200.7,200.7,0,0,1,17.48,50.84C385,213.64,386.51,253.26,363.13,288.16Z"/><path class="cls-4" d="M375.71,278.93l-2.47-2.29c4.83-5.2,46.67-52.92,27.59-123.16-10.67-39.27-30.1-57.33-44.54-65.57-15.52-8.86-28.61-8.54-28.72-8.54a1.06,1.06,0,0,1-.31,0,103.8,103.8,0,0,0-38.21,2.76c-27.26,7.25-46.43,24.64-56.94,51.7-23.37,60.13-7.38,122.44,14.39,140.64L244.34,277c-25.48-21.31-37.46-87.61-15.37-144.43,13.64-35.08,39.8-48.6,59.34-53.76A106.06,106.06,0,0,1,327.63,76c1.68,0,14.76.09,30.33,9,15,8.56,35.15,27.23,46.11,67.61C423.64,224.58,380.67,273.57,375.71,278.93Z"/><path class="cls-4" d="M373.39,172.05c-22.28-10.17-39-31.52-43.41-37.46-6,4.92-30.12,22.72-76.84,30.43l-.55-3.32c52.23-8.61,76.31-30.6,76.54-30.82a1.63,1.63,0,0,1,1.33-.44,1.67,1.67,0,0,1,1.2.72c.18.27,18.51,26.6,43.12,37.83Z"/><path class="cls-2" d="M200.85,389.1a2.81,2.81,0,0,1-2-4.75l26.53-27.48a2.8,2.8,0,0,1,4,3.9l-26.52,27.48A2.8,2.8,0,0,1,200.85,389.1Z"/><path class="cls-2" d="M243.67,440.24a2.79,2.79,0,0,1-2-.84l-20.08-20.49a2.81,2.81,0,0,1,4-3.92l20.07,20.49a2.81,2.81,0,0,1-2,4.76Z"/><path class="cls-2" d="M278.94,424.66a2.84,2.84,0,0,1-1.53-.45,2.78,2.78,0,0,1-.81-3.87,79.68,79.68,0,0,0,11.13-26.89,2.8,2.8,0,0,1,5.48,1.16,84.77,84.77,0,0,1-11.92,28.77A2.8,2.8,0,0,1,278.94,424.66Z"/><path class="cls-2" d="M332.78,458.23a2.81,2.81,0,0,1-2.76-2.34l-4.77-28.39a2.8,2.8,0,0,1,5.52-.93L335.55,455a2.8,2.8,0,0,1-2.3,3.22A1.88,1.88,0,0,1,332.78,458.23Z"/><path class="cls-2" d="M353.76,406.14a2.75,2.75,0,0,1-1.81-.67,2.78,2.78,0,0,1-.31-3.94,80.58,80.58,0,0,1,24.56-19.29,2.8,2.8,0,0,1,2.53,5,74.85,74.85,0,0,0-22.83,17.93A2.79,2.79,0,0,1,353.76,406.14Z"/><path class="cls-2" d="M422.05,419.27a2.81,2.81,0,0,1-2.8-2.58l-1.95-24.76a2.81,2.81,0,0,1,5.6-.44l2,24.77a2.8,2.8,0,0,1-2.58,3Z"/><ellipse class="cls-5" cx="316.31" cy="238.5" rx="234.69" ry="235"/><path class="cls-6" d="M200.86,256.1c-2.9-45.74-40.1-103.38-110.24-118.82-15-3.31-36.87-3.42-54.73,5.37-30.52,15-47.34,61.15-27,92,12.43,18.79,36.79,26.13,59.28,25.88C107.74,260.09,140.89,241.3,200.86,256.1Z"/><path class="cls-4" d="M44.05,218.13a49.08,49.08,0,0,1-14.76-6.27L30.44,210a47.9,47.9,0,0,0,37,6c-.6-.73-1.16-1.48-1.67-2.24-7.45-11-9.06-25.07-4.09-35.92,5.55-12.11,19.27-19.12,31.21-16,4.73,1.23,10.29,4.62,11.66,10.43a18.15,18.15,0,0,1-.23,7.79,50.35,50.35,0,0,1-29.23,35.69c-1.24.52-2.5,1-3.77,1.41C77,222.79,85,226.65,92.7,224c5.8-2,9.61-6.81,13.64-11.92,4.35-5.51,8.85-11.21,16.11-13.15A12.73,12.73,0,0,1,133.81,201c4.09,3.26,4.41,7.83,4.71,12.25a24.4,24.4,0,0,0,1.2,7.16,10,10,0,0,0,6.33,5.71,12.56,12.56,0,0,0,10.33-.86,5.34,5.34,0,0,1,6.14.42,5.07,5.07,0,0,1,1.7,5.65l0,.11-2-.71,0-.07a3,3,0,0,0-1-3.3,3.19,3.19,0,0,0-3.7-.27,14.83,14.83,0,0,1-12.13,1.06,12.08,12.08,0,0,1-7.62-7,26.22,26.22,0,0,1-1.34-7.79c-.29-4.14-.57-8-3.91-10.72A10.74,10.74,0,0,0,123,201c-6.57,1.75-10.65,6.93-15,12.41-4,5.12-8.23,10.42-14.62,12.62-9,3.08-18.21-1.63-24.37-8.21A50.31,50.31,0,0,1,44.05,218.13Zm48-54.31c-10.73-2.61-23.42,4-28.41,14.94-4.67,10.18-3.14,23.44,3.9,33.81a31.63,31.63,0,0,0,2.17,2.82,42.12,42.12,0,0,0,4.56-1.65,48.18,48.18,0,0,0,28-34.14,16,16,0,0,0,.24-6.85c-1.16-4.89-6.17-7.83-10.11-8.85Z"/></svg>