<svg xmlns="http://www.w3.org/2000/svg" viewBox="0 0 1650.21 450.44"><defs><style>.cls-1{fill:#ffd240;}.cls-2{fill:#6374ff;}.cls-3{fill:#ebecf2;}</style></defs><path class="cls-1" d="M155.08,167.68a1.24,1.24,0,0,1-.87.48l-25.57,2.21-6,21.41a1.18,1.18,0,0,1-.87.84,1.19,1.19,0,0,1-1.16-.33l-15.14-15.58-26.12,8.76a1.22,1.22,0,0,1-1.41-.49,1.21,1.21,0,0,1,.14-1.48l19.71-20.83.1-22.54a1.18,1.18,0,0,1,.71-1.1,1.21,1.21,0,0,1,1.3.19l14,12.32a1.21,1.21,0,1,1-1.6,1.82l-12-10.56-.09,20.36a1.23,1.23,0,0,1-.33.83L83.14,181.64l22.25-7.46a1.23,1.23,0,0,1,1.26.31l14.2,14.62,5.69-20.19a1.21,1.21,0,0,1,1.06-.88L152,165.93l-12.15-18.6a1.19,1.19,0,0,1-.11-1.1l10.33-26.46-33.73,9a1.21,1.21,0,0,1-.84-.08L91.27,117.07,75.63,143.72a1.21,1.21,0,0,1-.81.58l-26.21,4.85,11.45,13.69a1.25,1.25,0,0,1,.27.93,1.19,1.19,0,0,1-.51.83L36,181.39l28.05,6.13a1.22,1.22,0,0,1,1,1.08l1.9,21.19,20.88-8.22a1.21,1.21,0,0,1,1.57.68,1.22,1.22,0,0,1-.69,1.57l-22.37,8.81a1.18,1.18,0,0,1-1.08-.1,1.24,1.24,0,0,1-.57-.92l-2-21.92-29.87-6.52A1.2,1.2,0,0,1,32.4,181l25-17.62L45.42,149.11a1.2,1.2,0,0,1-.2-1.18,1.19,1.19,0,0,1,.92-.78L73.83,142l15.92-27.13a1.2,1.2,0,0,1,1.57-.47l24.81,12,35.61-9.55a1.2,1.2,0,0,1,1.43,1.61l-11,28.11,12.91,19.77a1.21,1.21,0,0,1,.07,1.19Z"/><path class="cls-2" d="M1595.49,105.29a64.55,64.55,0,0,1-16.71,4.24c-17.12,1.77-28.69-4-37.23-11.85-16.59.12-29.24-7.62-34.6-16.13-3.86-6.11-3.52-12,.89-15.23,2.48-1.85,4.81-2.56,7.14-2.17,5,.83,8.88,6.56,13.77,13.82,3.76,5.55,8.07,12,13.8,17.36A61.7,61.7,0,0,0,1569.23,88c17.61-9.17,30.16-24.91,40.25-37.57,9.16-11.49,16.39-20.56,24.32-21.39,3.37-.35,6.59.8,9.85,3.52,6.33,5.28,8.12,13.06,5.17,22.49C1643.22,72.9,1619.88,95.76,1595.49,105.29ZM1545,97.53c8,6.65,18.55,11.22,33.54,9.66,28.65-3,61.34-31.54,68-52.87,2.68-8.58,1.18-15.32-4.45-20-2.75-2.29-5.4-3.27-8.1-3-7,.72-13.91,9.45-22.72,20.52-10.23,12.83-23,28.79-41,38.18A64.65,64.65,0,0,1,1545,97.53Zm-33.4-30.71a10.47,10.47,0,0,0-2.38,1.36c-3.38,2.53-3.5,7.06-.3,12.12,4.76,7.56,15.71,14.43,30.19,15-5-5.16-8.89-10.94-12.34-16-4.4-6.52-8.2-12.16-12.21-12.82A5.43,5.43,0,0,0,1511.62,66.82Z"/><path class="cls-3" d="M1618.1,315.25c1-1.68,1.8-1.45,2.45-1.82a4.77,4.77,0,0,1,1.3-1.61c-.35-.08.88,1.23.82,1.08-.67-1.64.88-.92.93-1.42.68.53,2.1,3.57,2.65,1.83.07.44.55.89.07,1.26-.37,0-.32-.08.16-.28-.36.67-1-.66-.86-.57-1.7,2.4,2,1.49,2.48,1.62-.08.46-.34.26.32.43.16.67-.35,0-.73.64,1.1,0,2,2.18.9,3,1.2-.07,1.48-.08.7.45a.88.88,0,0,0,1.07-.2c-1.12.49-1.14.63,0,.42-.18.45-.59,1.84-1.1,2q.38-.39.09,0c.63-.61.74-.48.31.41,1.09-.39-.17-.63,1.12-.9,1.17,1,5.85,12.2,4.39,14.18.7.31.67.34-.11.1-.91,10.4-14.23-2.28-14.65-9.7a5.29,5.29,0,0,1-.6.83c.36-1.83-1.46-2.33.72-3.32-1.12.63-1.22,0-1.51.23,0,0-.49-4.07.4-3.37C1619.32,320.62,1616.09,317.09,1618.1,315.25Zm13.06,9.88a.55.55,0,0,1,0,.12A.37.37,0,0,0,1631.16,325.13Z"/><path class="cls-3" d="M84.83,6c1-.23,2.36-1.5,2.6-.92-.13.22-.2.16-.2-.17.23.15-.89.58-.68.86,2-.87,5.33-3.52,7-1.28-.06.19,2.88-2.36,3.09-.39-.22-.18-.22-.2,0-.07-.51-.47-.34-.56.51-.26-.19-.87-.72.3-.71-.74,3.45-2.39,13.9-5.74,15.46,1,.48-.16.48-.12,0,.13C119,14.91,92,19.84,91.76,17.49,93.45,23.74,73.81,5.43,84.83,6Z"/><path class="cls-3" d="M.46,429.74c-3.1-6.32,10.49-7.45,10-5.77-.28.07-.31,0-.07-.28,0,.16-1.26-.26-1.29.05,2.18.79,11.85,6.26,10.5,7.57-.62-.33.73.28.69.27.6-.69-.9-.46,0-1.09,1.36.52,6.69,6.33,8.92,5.59,7.49,1.29,11.93,9.67,3.91,13.83-6,3.13-25.77-8.54-24.3-11C8.32,440.31,1.1,432.2.46,429.74Zm23.76,4,.14.11Z"/></svg>