<svg xmlns="http://www.w3.org/2000/svg" viewBox="0 0 1660.3 336.65"><defs><style>.cls-1{fill:#6374ff;}.cls-2{fill:#ebecf2;}</style></defs><path class="cls-1" d="M1605.59,105.47a64.55,64.55,0,0,1-16.71,4.24c-17.12,1.77-28.69-4-37.23-11.85-16.59.12-29.24-7.62-34.6-16.13-3.86-6.11-3.52-11.94.89-15.23,2.48-1.85,4.81-2.56,7.14-2.17,5,.83,8.88,6.56,13.77,13.82,3.76,5.55,8.07,11.95,13.8,17.36a61.7,61.7,0,0,0,26.68-7.38c17.61-9.17,30.16-24.91,40.25-37.57C1628.74,39.07,1636,30,1643.9,29.17c3.37-.34,6.59.8,9.85,3.52,6.33,5.28,8.12,13.06,5.17,22.49C1653.32,73.08,1630,95.94,1605.59,105.47Zm-50.47-7.75c8,6.65,18.55,11.21,33.54,9.66,28.65-3,61.34-31.55,68-52.88,2.68-8.58,1.18-15.32-4.45-20-2.75-2.29-5.4-3.27-8.1-3-6.95.72-13.91,9.46-22.72,20.52-10.23,12.83-23,28.79-41,38.18A64.84,64.84,0,0,1,1555.12,97.72ZM1521.72,67a10.17,10.17,0,0,0-2.38,1.37c-3.38,2.52-3.5,7-.3,12.11,4.76,7.56,15.71,14.44,30.19,15-5-5.15-8.89-10.93-12.34-16-4.4-6.52-8.2-12.16-12.21-12.82A5.43,5.43,0,0,0,1521.72,67Z"/><path class="cls-2" d="M1628.2,315.43c4.64-3.38,6.13-2.38,7.52-1.53-.37.52,7.88,7,3.59,8.38,11.38,16.24-4.2,21.41-9.9,1.17C1629.26,322.92,1626.51,317,1628.2,315.43Zm13.06,9.88a.71.71,0,0,1,0,.12A.37.37,0,0,0,1641.26,325.31Z"/><path class="cls-2" d="M94.93,6.13c-.35.08,17.79-7.14,19.46-6,16.33,11-5.39,23.52-16.25,17.8C97.1,17.37,88.15,5.81,94.93,6.13Z"/><path class="cls-2" d="M.56,269.92c-3.76-7.66,12.87-5.79,8.62-6.4,0,5.16,17,6.87,20.11,12.7,9.4,17.38-3.53,16.91-20.46,3.9A29,29,0,0,1,.56,269.92Zm23.76,4,.13.1A.76.76,0,0,0,24.32,273.9Z"/></svg>