<svg xmlns="http://www.w3.org/2000/svg" viewBox="0 0 350 520"><path fill="#e4e4e4" d="M150.64 121.36h.72c20.16-.59 35.85-25.72 35-56-.87-29.93-17.58-53.88-37.42-53.88h-.72c-9.87.29-18.95 6.35-25.54 17.06-6.5 10.54-9.85 24.37-9.43 39 .83 29.87 17.54 53.82 37.39 53.82zm.64-2.62c-18.72.56-34.65-22.48-35.47-51.33-.41-14.07 2.8-27.39 9-37.5 6.19-9.91 14.47-15.56 23.44-15.82 18.74-.53 34.65 22.48 35.48 51.33s-13.73 52.78-32.45 53.32zM144.83 115.91h.58c17-.5 30.14-22.76 29.36-49.64-.77-26.58-14.88-47.87-31.6-47.87h-.58c-8.34.24-16 5.62-21.52 15.15-5.43 9.33-8.21 21.58-7.84 34.49.77 26.58 14.89 47.86 31.6 47.87zm-1.65-94.91c15.31 0 28.27 20.15 29 45.31.74 25.44-11.31 46.51-26.84 47h-.51c-15.32 0-28.27-20.15-29-45.31-.36-12.43 2.3-24.19 7.49-33.1 5.07-8.72 11.95-13.65 19.36-13.86zM167.94 361.19a19.61 19.61 0 0 0 4.43-.5c7.37-1.7 13.29-7.51 16.69-16.37 3.32-8.67 3.83-19.29 1.42-29.86-5-22-21.31-37.13-36.31-33.67s-23.17 24.21-18.11 46.21c2.41 10.58 7.45 19.9 14.21 26.25 5.52 5.22 11.66 7.94 17.67 7.94zm-9.37-78.29c12.47 0 25.11 13.43 29.38 32.15 2.3 10.08 1.83 20.14-1.31 28.34-3.08 8-8.35 13.26-14.85 14.76s-13.52-.91-19.75-6.78-11.16-14.85-13.46-24.94c-4.7-20.62 2.56-40 16.17-43.1a17 17 0 0 1 3.82-.43zM160.85 340.41a8.4 8.4 0 0 0 1.93-.22c3.35-.77 6-3.47 7.46-7.61a24.79 24.79 0 0 0 .47-13.56c-2.3-10.14-9.62-17.13-16.3-15.58s-10.23 11-7.92 21.17a24.75 24.75 0 0 0 6.29 12 11.59 11.59 0 0 0 8.07 3.8zm-4.5-34.58c4.9 0 10 5.79 11.82 13.77a22 22 0 0 1-.38 12.1c-1.16 3.27-3.14 5.38-5.6 5.95s-5.15-.47-7.6-2.91a22 22 0 0 1-5.59-10.74c-2-8.74.69-16.83 6-18a7 7 0 0 1 1.35-.17zM95.24 298.64a1.31 1.31 0 0 0 1-2.17c-.18-.21-18.33-21-32.82-54-13.37-30.47-26.25-77.72-11.83-130.32a1.3 1.3 0 1 0-2.5-.69c-14.62 53.38-1.56 101.32 12 132.12 14.65 33.36 33 54.41 33.21 54.61a1.26 1.26 0 0 0 .94.45zM350 484.74a11.41 11.41 0 0 0-7.52-9.74c-7.54-3-18.29-.28-26.12 6.58a35.67 35.67 0 0 0-10.64 16.87c-24.72-2.06-50.72-13.11-53.97-35.27-.22-1.5-.38-3-.46-4.42 22.39-2.88 40.25-13.47 50.11-22.65 9.6-8.95 14.05-18.18 11.6-24.11-3.26-7.65-13.28-10.36-25.53-6.87a55.93 55.93 0 0 0-28.25 19.38 50.08 50.08 0 0 0-10.59 31.9c-16.2 1.63-34.71-.94-54.24-11.23-23.7-12.49-35.67-41.33-39.63-52.82a8 8 0 0 0 5-5.8c.55-3.28-.48-10.74-1.22-15.34a62.44 62.44 0 0 0 15.27-5.08c17.49-4.11 27.07-27.75 21.37-52.78-2.75-12.07-8.6-22.67-16.47-29.87s-17.05-10.22-25.62-8.28a42.63 42.63 0 0 0-26.55 10.42 205.37 205.37 0 0 1-25-49.82c-8.7-26-14-63.35 10.35-93.71a1.31 1.31 0 0 0-.2-1.83 1.28 1.28 0 0 0-1.83.2c-19.97 24.81-23.69 58.09-10.86 96.28a208.4 208.4 0 0 0 25.48 50.58l.12.12a46.24 46.24 0 0 0-9.8 14.55 1.32 1.32 0 0 0 .67 1.72 1.49 1.49 0 0 0 .51.1 1.32 1.32 0 0 0 1.19-.78c7-16.12 19.2-21.93 27.43-24-12.1 8.5-17.9 28.3-13.16 49.07 4.86 21.32 19.28 36.88 34.27 38.56a58.6 58.6 0 0 1-7.7 2l-.23-1.25c-.72-3.2-5.73-4.75-11.18-3.49-4.21 1-7.34 3.09-8.34 5.42-22.3-2.61-46.82-16.14-72.49-40.3-3.66-3.44-21.88-21.3-39.36-51-2.6-5.78-13.57-31.51-19.63-67.73-6.34-37.83-8.64-95.17 17.22-153.49a7.11 7.11 0 0 1 .32-.73 120.38 120.38 0 0 1 58.86-46 130 130 0 0 1 25-6.45 51 51 0 0 0-20.58 15.06c-12.19 14.44-17.83 33.84-15.89 54.61 1.85 19.74 10.5 37.66 23.13 47.93a72.44 72.44 0 0 0 17.71 10.75c-6 .94-13.54 4.41-19.35 14.67a1.31 1.31 0 0 0 .49 1.78 1.33 1.33 0 0 0 .64.17 1.29 1.29 0 0 0 1.13-.66c8.23-14.52 19.81-14.23 24.37-13.45a56.65 56.65 0 0 0 15.17 2.06 61.43 61.43 0 0 0 20.85-3.75 1.3 1.3 0 0 0-.87-2.46 56.56 56.56 0 0 1-32.31 2.16h-.05a15.25 15.25 0 0 0-1.66-.39 65.49 65.49 0 0 1-24.44-12.87c-12.11-9.83-20.4-27.08-22.18-46.13-1.93-20.13 3.5-38.82 15.23-52.72 13-15.36 30.78-20.69 54.21-16.15-21.56 3.74-37.78 30.97-36.78 63.41 1 34.08 20.53 61.35 43.76 61.35h.87c23.61-.69 42-29.33 41-63.84-.87-29.81-15.94-54.38-35.22-60.08a1.34 1.34 0 0 0-.31-.1c-14.1-4.44-26.55-5.88-37.4-4.34a1.25 1.25 0 0 0-1.12-.66c-.65 0-16.13.27-36.2 7.62a123 123 0 0 0-60.14 46.91l-.45 1c-26.4 59.11-23.99 117.34-17.55 155.67a302.85 302.85 0 0 0 18 64.08s3.35 6.35 3.36 6.35c17.22 28.66 34.78 45.93 38.4 49.37 26.12 24.58 51.16 38.37 74 41 .94 7.37 3.41 14.32 6.46 18.19a8.2 8.2 0 0 0 6.42 3 9.11 9.11 0 0 0 1.26-.09c3.95 11.74 16 41.3 41 54.43 20 10.53 38.95 13.19 55.55 11.53.1 1.47.26 3 .49 4.5 3.44 23.38 30.28 35.13 55.82 37.42a51.78 51.78 0 0 0-.48 19h2.61a49.09 49.09 0 0 1 .5-18.83 95 95 0 0 0 18.13-.47c15.96-1.98 25-7.95 24.24-15.94zm-216-157.25c-5.39-23.66 3.36-46 19.52-49.68 7.74-1.78 16.05.93 23.4 7.66s13.05 17 15.68 28.51c5.39 23.67-3.36 46-19.52 49.68s-33.72-12.5-39.08-36.17zm14.84-321.07c21.84 0 40.22 26.15 41.16 58.82.95 33.07-16.32 60.51-38.5 61.15h-.8c-21.84 0-40.22-26.14-41.16-58.81-1-33.08 16.32-60.51 38.5-61.16zm-1.66 360.05a14.4 14.4 0 0 1 3.18-.37c2.77 0 4.68.92 4.88 1.86.07.33.14.74.21 1.17a63.22 63.22 0 0 1-14.33.5 11.4 11.4 0 0 1 6.06-3.16zm6 21.07a1.29 1.29 0 1 0-2.5.66c.06.22.28 1 .68 2.35a5.63 5.63 0 0 1-4.83-2c-2.66-3.36-4.9-9.67-5.84-16.29 1.83.14 3.64.22 5.44.22a64.36 64.36 0 0 0 9.76-.75c.78 4.82 1.68 11.7 1.23 14.45a5.38 5.38 0 0 1-3.23 3.74c-.47-1.47-.7-2.32-.71-2.38zm135 20.12a34.68 34.68 0 0 1 9.31-1.4c6.43 0 11.25 2.37 13.13 6.8 2 4.7-2.39 13.19-10.92 21.13-9.55 8.87-26.79 19.12-48.45 21.95-.25-24.66 17.92-43.09 36.88-48.48zm37.31 90.45a94.17 94.17 0 0 1-17.1.51 33.14 33.14 0 0 1 9.61-15.08c5.23-4.59 11.81-7.16 17.59-7.16a16 16 0 0 1 5.87 1 8.83 8.83 0 0 1 5.89 7.58c.65 6.35-7.74 11.37-21.91 13.15zM146.39 386.62a1.3 1.3 0 0 0 1.21-.84 4.11 4.11 0 0 1 4.78-2.58 1.31 1.31 0 0 0 .52-2.56 6.7 6.7 0 0 0-7.72 4.22 1.3 1.3 0 0 0 .76 1.67 1 1 0 0 0 .45.09z"/></svg>