<svg xmlns="http://www.w3.org/2000/svg" viewBox="0 0 148.16 325.04"><path fill="#ebecf2" d="M146.88,15.69a5.23,5.23,0,0,0-1.39-2.31c0,.27,1-.3,1.25-.32,0-.05-1.58-1,.39-.1-.51-.64.24-.84-.76-1-.32.13-.2.18.36.16-.77-.37-.48.84-.47.82-.23-3.06-.11-.84,1.76-2.31-1.47-.65,0-.12-.1-.14q-.6-.45.24-.51c-1.25-.09-1.26-.21,0-.38-.54-.08-1.75-1.82-.15-2.28-2.64.41,1-1.61-2.26-.92a5.76,5.76,0,0,1,1.52-.73c-2.22,1.2-1-.06-.55-.37a1,1,0,0,1-.83.13c-.07.12,1.11-1.21,1-.89a1.43,1.43,0,0,0-1.09.48.82.82,0,0,1,.61-.76c-1.62-.39-1.3.08-2.81.24,1-.11-.09-1.22-.11-.79.73-.88.68.32,1.51-.85q-.83-1.12-1.44.15c.17,0-.81-1.82-.52-1.33a.89.89,0,0,1-.87.14c.21-.22.39-.16.14-.61-1.62-.53-2.86-1.86-3.56-.88a25,25,0,0,1-5.9-.07c-.63,0,.44.64-.71.48-.34.39-1.46.55-1.2,1-1.3-1-.69.54-1.18,1.16-.46-.79-.48-.75,0,.13-.38,0-5.44,1.07-3.39,3.18-.12-.94-2.21,3.56-2.2,3.51-.7,2.48-.91,2.92.26,6,.13.32,3.13,5.77,3.44,5.51a7.4,7.4,0,0,0,3.45.62l-1,.73c.62-.07,3.09.26,3.12.11-.51.46-.34,0,.52-1.41a10.18,10.18,0,0,1-.05,1.83c.21-.72.26-.71.15,0,.16-.07,2.24-1.9,2.42,0,.13-.25,1.5-1.47.83-1.85.24-.45.89,1,.88,1a8.5,8.5,0,0,0,.42-1c0,1.82,0-.94.33.63.3,0,.24-1.45,1.13.06,1.83-1.34,3.56-2.22,4.43-3.29.11-.42-.79-1.21-.66-1.38.64,1.85.63-.63.49-.57a2.24,2.24,0,0,1,.5.52c-.26-.24-.3-.48-.12-.71.31.5.54.51,1.18.28-.27-.27-.6-1-.87-1.26C146.1,16.73,146.49,15.5,146.88,15.69ZM140.62,1.43l.13,0C140.64,1.49,140.6,1.48,140.62,1.43Z"/><path fill="#ebecf2" d="M18,319.31a4.12,4.12,0,0,0-1.07-1.79c0-.13,1.25-.31,1.26-.31-.4-.5.2-.65-.59-.76-.24.1-.15.14.28.12-.69-.32-.42.78-.36.63.88-1.78-.28-.47,1.36-1.78-1.21-.52.07-.18-.08-.12q-.46-.35.18-.39c-1.28-.24.35.47-.87-.23,1.18-.61-.78-1.38.73-1.82-2,.32.78-1.27-1.74-.71.82-.81.9-1,.11-.76a.8.8,0,0,1,.74-.68c-.38-.63-1.4,1.12-.36-.22-.63-.16-1.66-.5-2.11,0,.31-.13.33-.15.05-.07,1-1.26-.25,1-.2-.37.39-.47.67-.09.57-.05.19-.21.39-.41.58-.61-.94-2.54-5.76-1.15-9.36-2,0,0-.22.81-.22.84-.34-.18-1.62-.23-1.26.33-1-.75-.52.4-.92.89-.35-.61-.37-.57,0,.1-.35,0-4.14.79-2.62,2.45.25,1.91-3.14,4.5-1.65,7.71,1.09,2.35,2.76,4.33,5.49,4.35l-.76.55c1.49-.15,2.47,1,2.81-1a8.31,8.31,0,0,1,0,1.41c.17-.55.21-.55.13,0,.11-.06,1.73-1.46,1.86,0,.1-.16,1.16-1.14.65-1.43.17-.35.67.8.67.78a8,8,0,0,0,.32-.75c0,1.42,0-.75.24.48.24,0,.19-1.11.88.05,1.65-1.2,2-1.42,3.42-2.53.1-.4-.66-.86-.51-1.06.47,1.43.5-.5.38-.44.2.11.3.34,1.2.07-.2-.2-.47-.79-.67-1C17.36,320.09,17.64,319.14,18,319.31Z"/></svg>