<svg xmlns="http://www.w3.org/2000/svg" viewBox="0 0 228.56 231.48"><defs><style>.cls-1{fill:#ebecf2;}.cls-2{fill:#fff;}.cls-3{fill:#6374ff;}.cls-4{fill:#010101;}</style></defs><title>audit-man</title><g id="Слой_2" data-name="Слой 2"><g id="Слой_1-2" data-name="Слой 1"><path class="cls-1" d="M114.19,228.56A114.28,114.28,0,1,0,0,114.19v.09A114.24,114.24,0,0,0,114.19,228.56Z"/><path class="cls-2" d="M111.74,231.48a114.41,114.41,0,0,1-46.66-10.36c-2.27-.81-3.65-1.35-3.91-1.45l-2.28-.91v-.57C38.67,207.93,26.47,195.52,26,195l-1.13-1.17.18-1.62c2.64-22.5,8.48-31,8.72-31.38l.11-.15c5-6.29,14.74-12.76,29.09-19.23H63c.63-.26,14.4-5.9,18.64-7.49l8.92-7.12s.69-9.47.27-13a45.14,45.14,0,0,1-6.75-10.27l-.08-.19s-.09-.28-.13-.43c-2.48-.55-5.85-2.56-8-8.9-1.82-5.45-2.57-9.37-2.24-11.68-.83-4.79-3.48-25,7.66-39,6.52-8.19,16.43-12.51,29.45-12.85l5.94-.15-1.32,2.46c6.42.15,17.37,1.83,25.41,10.54,7.71,8.35,10.95,21.1,9.62,37.91v.49c.64,2.17.77,5.92-1.34,12.24s-5.38,8.26-7.79,8.86c-.11.34-.2.57-.24.69-.91,2.63-4.57,7.82-6.4,10.33-.53,4.41.28,12.68.28,12.68l8,7.51c3.78,1.43,15.25,6.14,17.59,7.1l.16.07c14.47,6.54,24.33,13.08,29.33,19.44l.09.11c.28.39,6.19,9,8.8,31.9l.19,1.65-1.17,1.17c-.53.53-13.16,13-33.87,23.2v.24l-2.08.89s-.81.34-2.21.88A116.63,116.63,0,0,1,111.74,231.48Z"/><path class="cls-3" d="M195.9,193.07c-2.53-22.25-8.17-30.29-8.17-30.29-8.57-10.89-31.55-20.45-46.22-25.76l-5.78-5.38C127.5,142.57,112.9,153,112.9,153h-.17a169.84,169.84,0,0,1-22.22-21.43l-6.72,5.37c-15,5.43-38.23,14.93-46.82,25.86,0,0-5.56,7.92-8.12,29.8,0,0,34.51,35.46,83.3,35.46S195.9,193.07,195.9,193.07Z"/><path class="cls-2" d="M180.2,72.9c-2.85.33-5.5,2.15-7.8,3.77s-4.68,3.32-6,5.74a.73.73,0,0,0,1,1c2.34-1,4.4-2.71,6.64-3.93s5-1.88,7-3.38C182.28,75.26,182.12,72.7,180.2,72.9Z"/><path class="cls-2" d="M189.29,101.54a52.12,52.12,0,0,0-12.54,1.83c-1,.31-1.2,2,0,2.2a52.61,52.61,0,0,0,12.54-.16C191.71,105.15,191.81,101.41,189.29,101.54Z"/><path class="cls-2" d="M191.36,130a52.19,52.19,0,0,1-13.1-3.49c-.92-.42-2.16.81-1.2,1.56a28.21,28.21,0,0,0,13.15,6.09C192.94,134.53,194.14,130.42,191.36,130Z"/><path class="cls-2" d="M55.61,76a17.72,17.72,0,0,0-6.37-5.73c-2.15-1.08-5.58-2.87-7.85-1.47A1.62,1.62,0,0,0,40.86,71a1.39,1.39,0,0,0,.21.27c1.39,1.6,4.24,1.56,6.14,2.45a26.22,26.22,0,0,1,6.15,4C54.52,78.7,56.61,77.36,55.61,76Z"/><path class="cls-2" d="M49,97.43c-4.12.4-9.59.6-13.2,2.75a1.94,1.94,0,0,0,1,3.58c4.2.11,9.06-2.4,12.84-4.05A1.23,1.23,0,0,0,50,98,1.22,1.22,0,0,0,49,97.43Z"/><path class="cls-2" d="M51.7,124.36c-4.56,1.25-10.43,5.39-10.54,10.67a1.91,1.91,0,0,0,3.54.95c1.14-1.76,1.67-3.74,3-5.45a13.06,13.06,0,0,1,5-3.89C54,126,53,124,51.7,124.36Z"/><path class="cls-2" d="M132.36,136.37c-3.2-3.91-.65-23.81-.65-23.81H94.58s2.54,19.91-.65,23.81l18.56,18Z"/><path class="cls-2" d="M140.36,89.4a40.21,40.21,0,0,1-2.22,13c-1.06,3.2-5.82,7.87-9.15,12.31-4.26,5.69-12.07,9.6-16.34,9.6a19.67,19.67,0,0,1-14.2-7.11c-3.56-4.62-8.34-9.36-10.83-15A46.72,46.72,0,0,1,86,90.09S81,64.5,91.08,58.56s40.64-4.68,44.47.5C142.16,67.88,140.36,89.4,140.36,89.4Z"/><path class="cls-2" d="M138.14,99.33s5.08,2.49,8.05-6.43.86-11.12.86-11.12-5.27-3.55-8.81,1.92S138.14,99.33,138.14,99.33Z"/><path class="cls-2" d="M87.64,99.33s-5.08,2.49-8-6.43-.86-11.12-.86-11.12S84,78.23,87.54,83.7,87.64,99.33,87.64,99.33Z"/><path class="cls-4" d="M119.26,160.63l-4,7.85-4-.13-3.64-8.94,5.1-6.27Z"/><path class="cls-4" d="M124.67,199.41c-6-14.14-9.2-31.06-9.2-31.06l-5.37-.13s-6.53,20.4-5.62,38.35c0,0,4.09,6.39,7.67,11C117.13,213,124.67,199.41,124.67,199.41Z"/><path class="cls-4" d="M109.83,36.55S151.47,29.47,147.4,81c0,0-4.34-.4-7.11,2.17,0,0,.1-23.35-6.7-25.53s-7.1,8.09-21.54,7.6S97.6,54.94,90.5,59.1c-7.36,4.32-4.65,24.51-4.65,24.51-4.32-4.44-8.24-1.22-8.24-1.22S68,35,111.31,33.86Z"/><path d="M115.36,169.52h-5.59l-4.54-7.38,1.27-.78,4.11,6.66h3.9l3.7-6.24,1.29.77Z"/><path d="M104.36,206.28c-.9-17.88,5.09-37.54,5.15-37.74L111,169c-.06.19-6,19.6-5.09,37.21Z"/><path d="M123,199.34c-6-14.06-8.73-30.29-8.75-30.45l1.48-.24a151.8,151.8,0,0,0,8.65,30.1Z"/><path class="cls-3" d="M113.22,182.5a1.18,1.18,0,0,1-1.21-1c-1.06-6.79.19-9.42.21-9.54h.44s.54,2.86,1.68,9.14a1.2,1.2,0,0,1-1,1.38Z"/><path d="M63.78,213.45c-1.12-6.22-1.77-13.6-1.77-13.67l-1.5.13c0,.07.66,7.52,1.8,13.81Z"/><path d="M163.61,199.1l-1.5-.07c-.23,4.81-1.18,13.94-1.19,14l1.48.15C162.41,213.13,163.36,204,163.61,199.1Z"/><path d="M85.08,100.87a2.73,2.73,0,0,0,.64.07,2.49,2.49,0,0,0,.61-.08,49.4,49.4,0,0,0,6.73,9.84c.72,5.65,2,20.93-.51,24l1.15,1c2.85-3.48,1.72-17.18,1.11-22.88.85,1,1.67,2,2.43,3a21.22,21.22,0,0,0,15.29,7.65c4.65,0,13-4.2,17.5-10.24.35-.47.73-.94,1.11-1.42-.62,6.4-1.62,20.49,1.15,23.88l.32-.26c-7.45,8.76-18.07,16.71-20.16,18.24a169.28,169.28,0,0,1-21.75-21l-1.15,1a169.48,169.48,0,0,0,21.69,21L101,165.33c-2.3-3.29-11.63-16.81-15.64-25.88l-1.37.6c4.64,10.49,16.2,26.72,16.31,26.89l.53.73,11.61-12.07L124,167.65l.52-.69c.12-.16,11.92-15.74,16.56-26.23l-1.37-.61c-4,9.07-13.52,22.09-15.85,25.23L113.65,154.7c3-2.23,15.11-11.46,22.29-21l-1.19-.91c-.45.6-.93,1.21-1.42,1.8-2.3-3.35-1.19-18.39-.47-24.85l.89-1.07c2.51-3,4.87-5.79,5.73-8a2.79,2.79,0,0,0,.76.11,2.47,2.47,0,0,0,.54,0c2.26-.42,4.47-3.42,6.6-8.9,2-5.27,2-8.87,0-10.69a5.2,5.2,0,0,0-5.5-.55l.67,1.34a3.73,3.73,0,0,1,3.82.31c1.46,1.33,1.3,4.54-.44,9-2.5,6.47-4.48,7.77-5.44,8a1.28,1.28,0,0,1-.55,0,43.93,43.93,0,0,0,1.41-6l1,.07a8.28,8.28,0,0,1,2.2-5.38l-1-1.12a8.19,8.19,0,0,0-1.79,2.63c.06-.88.1-1.8.1-2.74h-1.5a41.06,41.06,0,0,1-2.26,13.18c-.69,2.07-3.06,4.89-5.57,7.87l-1,1.17h-.17v.26c-.9,1.08-1.78,2.17-2.59,3.24-4.13,5.51-12,9.63-16.3,9.63A19.55,19.55,0,0,1,98.37,115c-1-1.29-2.06-2.57-3.18-3.91-3-3.57-6.06-7.26-7.9-11.45a48,48,0,0,1-1.62-12.27h-1.5c0,.87,0,1.72.07,2.54a8.74,8.74,0,0,0-2-3.32l-1,1.12a8.26,8.26,0,0,1,2.2,5.37L84.51,93a48.38,48.38,0,0,0,1.2,6.55,2.81,2.81,0,0,1-.41,0c-1-.25-3-1.64-5.56-8.23-1.74-4.49-1.9-7.71-.44-9A3.75,3.75,0,0,1,83.12,82l.66-1.33a5.18,5.18,0,0,0-5.49.54c-2,1.83-2,5.43,0,10.69C80.56,97.29,82.81,100.37,85.08,100.87Zm27.35,53.73-.08-.09.08-.11.08.12Z"/><path d="M108.84,81.56a23.83,23.83,0,0,1-1.29,8.54c-.66,2.21-1.18,4,0,5.18a8.41,8.41,0,0,0,5.64,2.21,5.1,5.1,0,0,0,2.62-.63L115,95.58c-1.54.92-4.85.22-6.43-1.36-.56-.56-.27-1.65.34-3.69a25.54,25.54,0,0,0,1.35-9c-.4-7.91-9-8.79-9.13-8.8l-.14,1.5C101.36,74.21,108.51,74.93,108.84,81.56Z"/><path d="M132.12,76.33l.8-1.27a14,14,0,0,0-13.54-.71l.72,1.31A12.59,12.59,0,0,1,132.12,76.33Z"/><path d="M130.36,81.7l.62-1.37-.58-.26c-2.33-1.07-3.81-1.73-6.68-1.43h-.58A2.81,2.81,0,0,0,121,80.42a2.64,2.64,0,0,0,.47,2.73,3,3,0,0,0,2,.68,3.37,3.37,0,0,0,2.3-.87,2.53,2.53,0,0,0,.75-2.86,15,15,0,0,1,3.29,1.23Zm-5.64.25a1.93,1.93,0,0,1-2.25.22,1.26,1.26,0,0,1-.1-1.15,1.42,1.42,0,0,1,1.25-.87h.22a1.22,1.22,0,0,1,1.26.62,1,1,0,0,1-.4,1.19Z"/><path d="M94.36,81.12a16.05,16.05,0,0,1,2.45-.83,2.55,2.55,0,0,0,.78,2.78,3.37,3.37,0,0,0,2.3.87,3,3,0,0,0,2-.68,2.68,2.68,0,0,0,.48-2.74,2.84,2.84,0,0,0-2.19-1.78h-.7a11.14,11.14,0,0,0-5.72,1l-1.56.6.5,1.4C93.29,81.52,93.82,81.31,94.36,81.12ZM101,81a1.3,1.3,0,0,1-.1,1.15A1.93,1.93,0,0,1,98.61,82a1,1,0,0,1-.38-1.2,1.19,1.19,0,0,1,1.15-.63h.34a1.39,1.39,0,0,1,1.2.9Z"/><path d="M107,103.21l-.86,1.23a12.3,12.3,0,0,0,6.35,1.86,10.34,10.34,0,0,0,5.68-1.7l-.82-1.26C112.18,106.7,107.21,103.36,107,103.21Z"/><rect x="110.32" y="107.46" width="4.16" height="1.5"/><path d="M107.76,114.14s5.1-1.82,8.44.07l.73-1.3c-3.93-2.23-9.45-.26-9.68-.18Z"/></g></g></svg>