<svg xmlns="http://www.w3.org/2000/svg" viewBox="0 0 1638.48 514.41"><path fill="#f0f0f5" d="M47.37 417.89a4.4 4.4 0 0 0-.2-1.51c-.24-.05-.3-.28-.54 0 .67-1.77-1.64-1.7-1.71-3.21.11.09.85.26-.56-.53-.19.32 0 .25-.1.6a.82.82 0 0 1-.72-.11c.48.08.39-.45.36-.73 0 .1-.18.16-.24.26 0-.83-.51.54-.78-.2l.14-.13c-.26-.07-.59 0-.79-.14.12-.43.33 0 .53-.33-.36-.19-1 .32-1.15-.19.19 0 .41.05.6 0-.1-.62-.21-.53-.44-.73a6 6 0 0 0-.52-.45l.11.19c-.89.86-1.07-.19-1.84.4.76-.53.2-.37.36-.83-.14-.16-.38-.37-.27-.48-.39.32-.52-.42-1.06.1 0-.16-.35-.05-.25-.44-.46.1.09.28 0 .48-.66.47-1.68-.69-2.47.24-.58.33-.71.92-1.11 1.4l-.18.07c-.2-.17 0-.54 0-.54a.86.86 0 0 0-.94.44c0-.16-.12-.21-.32-.31-.25.19.11.57-.33.61a1.92 1.92 0 0 1-.09-.7 8.84 8.84 0 0 0-.54 1.12c-.25-.15-.11-.47-.09-.68-.28.36-.69.92-.47 1.3.09 0 .2 0 .29-.06-.09.11-.31-.22-.28-.35 0-.49.48-.23.6-.12l-.12.24c.78.51.69-.81 1.18-1a4.92 4.92 0 0 0 .14.55 8.58 8.58 0 0 0-2.57 2.64c-.2-.15-.39-.32-.59-.45.07 0 .13 0 .15-.09l-.35-.42-.08.34a1.22 1.22 0 0 0-1 0l.08.68-.39-.06.23-.38c-.42 0-.26.32-.19.58a.63.63 0 0 0-.45-.05l.29.83c-.27-.11-.34-.51-.67-.33.13.38.67.19.61.64-.42 0-.6-.21-.54.2a.37.37 0 0 1-.25-.34c0 .34-.31.62-.07 1-.5 0-.43.78-1 .34a1.34 1.34 0 0 1 0 .91c-.41-.86-.57.68-1.23 0 .42.72-.45 1.12-.47 1.83 0-.06-.09-.19 0-.21-.26.22-.49.14-.73.22.46.42.25.91.37 1.36-.72-.09-.4-.65-.94-.93.41.3-.05.84.36 1-.48 0-.31.09-.8-.13.56.55-.08.3.12.81-.57.08-.63-.39-.77.12-.33 0-.25-.49-.25-.49-.33.36.28.55.47.85-.27.55-.51-.08-.87-.14-.12.38.1.95-.11 1.14-.08-.05-.14 0-.19-.17.09.61-.76.85-.63 1.59a.42.42 0 0 1-.15-.06 2.43 2.43 0 0 1 .63.5c-.14.18 0 .57-.35.36.11-.09 0-.21 0-.34v.28c-.55-.23.08-.37-.23-.64-.16.45-.22 1.14-.57 1.29-.44-.33.44-.71-.23-.71l.53-.24c-.9-.3.27-.19-.66-.56-.6.39-.34.75-.95 1.13l.46.6c-.32 1.1-1.52-.42-1.53.6.11.39.53.94-.1 1l-.3-.57c-.52.42.34.91-.48 1.09-.07-.26.26-.51.13-.5-.67 0 0 .48-.26.72l-.42-.35c-.47.55-.81 1.37-1.36 2-.07-.15-.08-.37-.33-.37a5.31 5.31 0 0 1-2.64 1.68v.59c-.07.05-.25-.07-.24-.2-.41.09.17.25.14.51s-.4 0-.37-.24c-.28.73-1 1.84-1.88 1.84v-.19c-.56.16 0 1.15-.62 1.08v-.12c-1.09.51-2 1.61-3.11 1.49.2.62-1.25.48-.77 1.28h-.9a2.08 2.08 0 0 0-1 .35c-.26.19.07.73-.09 1.08l-.37-.32c0 .25 0 .48.05.72l-.63-.16-.12.37a.37.37 0 0 1 .46 0 1.38 1.38 0 0 1-1.28.81 11.38 11.38 0 0 0-.24 1.4c-.13-.08-.14-.22-.16-.37 0 .51-.55-.21-.39.53.14-.05.25.15.34.2-.41.19-.65.95-.64 1.53l-.31-.18a8.49 8.49 0 0 0 0 3.41.43.43 0 0 1 .8-.08l-.5.2c.35.16.16-.36.6 0 0 .4-.55.38-.76.16.08.16.18.32.28.48h-.45c.36.13-.32 1.06.35 1.2l-.14.08a9 9 0 0 0 1.34 2.36c.38-.22.51.13 1 .12a4.56 4.56 0 0 0 1.19 1.93c.58.19.37-.19.73-.25-.22.34.44.79-.06.79a5 5 0 0 0 2.31.84c0-.2-.15-.34 0-.43a.38.38 0 0 1 .27.51h-.07c1.31-.07 2.9 2.07 4.11 1.1l-.06.05a7.23 7.23 0 0 0 1.12-.54c.54 0-.28.34.16.55 1.39-.95 2.12-.49 2.82-1.37 1.3.63 2-1.34 3.15-1.19l-.21-.21c0-.36.33 0 .5-.06-.15-.17-.35-.08-.32-.28 1.43-1.37 3.56-1.94 5.34-3 .64-.39-.56-1.42.59-1.44l.12.58c.78-1.41 2.41-1.86 3.17-3.21 0 .14.11.27 0 .35.48.1.88-.71.68-1 .19-.12.22.18.44.21.39 0 .26-.87.63-.69.07 0 0 .15 0 .21 0-.28.73-.59.3-.79.55-.21.64-.84 1.14-.94-.13-.55.84-.45.44-1 .46.56 1.09-.23 1.1-.71.07.24.38 0 .49.27.28-.28.44-.63.13-.84 1.13.1.54-1.52 1.62-1a25.66 25.66 0 0 1 1.69-2.94c.5.52-.75.89-.17 1.37.48-.92.41-1.76 1.19-2.37.25-.12.14.31.17.46.45-.93 1.34-1.39 1.61-2.31v.27c.1-.15.34-.24.08-.44v.19c-.54-.1-.31-1.17-.48-1.35.53.83.74-.5 1.35.61a.42.42 0 0 0-.18-.45c.15-.1.28-.06.37.24.25-.6-.16-.65.21-1.08.12.1.09.23.2.39 0-.42-.12-.83.29-1.12.06.08.19.12.1.23.48-.67.21-1.6 1-2.13.39.63.36-.1.88.22l.15-.49h-.35c.26-.33.15-.88.51-1.06v.4l.37-.7-.44.22c0-.52-.64-.41-.17-.76 0 .13.25-.34.66-.31 0-.27-.08-.57.22-.73.2 0 .5.43.64.46-.28-.45.45-.89.15-1.4a1 1 0 0 0 .38.34l-.24-.38c.22-.09.29-.08.48.09.38-.44-.74-.27-.07-.66l.05.21c.54-.49.54-1.24 1.06-1.75.63.11-.18.6.37.65.48-1 .32-2.21.66-3.11l-.11.16c-.8-.33.61-.6.22-1.19.05.12.46.21.36.16.24-.69-.14-1.47-.57-2.4zm-2-3.28a1.56 1.56 0 0 1-.3.23l-.19-.26a.46.46 0 0 1 .49.03zm-8.81-3.56a2.41 2.41 0 0 0-.37.07.89.89 0 0 1 .19-.43l.18.36zm-2.76.47a.55.55 0 0 1 .28.33l-.4.22.12-.55zm-18.25 19l-.16.19a.83.83 0 0 1 .16-.18zm-.56.56c.13.1.2.24.12.3 0-.11-.25 0-.45 0a3.08 3.08 0 0 0 .34-.29zM834.38 475.81a4.66 4.66 0 0 0-.2-1.51c-.25-.05-.3-.29-.54 0 .67-1.77-1.63-1.71-1.7-3.22.11.09.85.27-.56-.53-.19.32 0 .25-.11.6a.8.8 0 0 1-.71-.11c.47.08.38-.45.36-.73 0 .1-.18.16-.24.26 0-.83-.51.54-.78-.2l.14-.14c-.25-.07-.59 0-.79-.14.12-.42.33 0 .53-.33-.35-.19-1 .33-1.15-.19.2 0 .42.06.6 0-.1-.62-.21-.53-.43-.72a6.26 6.26 0 0 0-.53-.46l.12.2c-.9.86-1.08-.2-1.84.39.76-.53.19-.37.35-.83-.13-.16-.38-.37-.27-.48-.39.31-.51-.42-1 .1 0-.16-.36 0-.25-.44-.46.1.09.27 0 .48-.67.46-1.68-.7-2.48.23-.58.33-.71.92-1.11 1.4l-.18.07c-.19-.18 0-.55 0-.55a.88.88 0 0 0-1 .45c0-.16-.12-.22-.32-.32-.25.19.12.58-.33.61a2.16 2.16 0 0 1-.09-.7 10.37 10.37 0 0 0-.54 1.12c-.25-.15-.1-.47-.09-.68-.28.36-.69.92-.47 1.3.09 0 .2 0 .29-.06-.09.11-.31-.22-.28-.35 0-.49.48-.23.6-.12l-.12.24c.78.51.69-.8 1.18-1 0 .18.09.36.14.54a8.62 8.62 0 0 0-2.62 2.62c-.19-.16-.39-.32-.58-.46.06 0 .12 0 .14-.09l-.34-.42-.08.35a1.18 1.18 0 0 0-1 0l.08.69-.39-.07.23-.38c-.43 0-.26.32-.2.58a.62.62 0 0 0-.45-.05l.29.83c-.27-.11-.34-.51-.67-.33.13.38.68.19.61.64-.42 0-.6-.21-.54.2a.37.37 0 0 1-.25-.34c0 .34-.32.62-.08 1-.49 0-.42.78-1 .33a1.41 1.41 0 0 1 0 .91c-.41-.85-.58.68-1.24 0 .42.73-.45 1.12-.47 1.83 0-.06-.09-.19 0-.21-.26.22-.49.14-.73.22.46.42.25.91.37 1.36-.72-.09-.41-.66-.94-.93.41.3-.05.84.36 1-.48 0-.31.09-.81-.13.56.54-.08.3.12.8-.57.08-.62-.39-.76.13-.33 0-.26-.49-.26-.49-.33.35.29.55.47.85-.27.55-.5-.09-.87-.14-.12.37.1.95-.1 1.13-.09-.05-.15 0-.2-.17.09.61-.76.85-.64 1.59a.3.3 0 0 1-.14-.06 2.63 2.63 0 0 1 .63.51c-.15.17 0 .56-.35.35.11-.09 0-.21 0-.34v.28c-.54-.23.08-.37-.22-.64-.17.45-.22 1.14-.57 1.29-.44-.34.44-.71-.23-.71l.52-.24c-.89-.3.27-.19-.65-.56l-.95 1.13.45.6c-.32 1.1-1.52-.43-1.53.59.11.4.53.95-.1 1l-.29-.57c-.53.42.32.92-.49 1.09-.07-.26.26-.51.13-.5-.67 0 0 .48-.27.72l-.41-.35c-.47.55-.81 1.37-1.36 2-.08-.15-.08-.36-.33-.37a5.19 5.19 0 0 1-2.65 1.67v.6c-.07.05-.25-.07-.24-.2-.41.09.17.25.13.51s-.39 0-.37-.24c-.27.72-1 1.84-1.87 1.83v-.19c-.56.16.06 1.16-.62 1.08v-.12c-1.09.51-2 1.6-3.11 1.48.2.63-1.25.48-.78 1.28h-.89a2.1 2.1 0 0 0-1 .35c-.26.18.07.73-.09 1.07l-.37-.32c0 .25 0 .49.05.73a4.85 4.85 0 0 0-.63-.16l-.12.37a.39.39 0 0 1 .46 0 1.38 1.38 0 0 1-1.28.81 11.42 11.42 0 0 0-.25 1.4c-.13-.08-.14-.22-.16-.37 0 .51-.54-.21-.39.53.14-.05.26.15.34.2-.41.19-.65.95-.64 1.53l-.31-.18a8.31 8.31 0 0 0 0 3.41.43.43 0 0 1 .8-.08l-.5.2c.35.16.16-.36.6 0 0 .4-.55.38-.76.15.08.17.18.33.27.49-.14.06-.25 0-.45 0 .37.13-.31 1.06.35 1.2l-.13.08a8.73 8.73 0 0 0 1.33 2.36c.38-.22.51.13 1 .13a4.41 4.41 0 0 0 1.18 1.92c.58.2.37-.19.74-.24-.23.34.43.79-.07.78a4.9 4.9 0 0 0 2.31.85c0-.19-.15-.33 0-.42a.37.37 0 0 1 .27.51h-.07c1.31-.06 2.89 2.09 4.11 1.12h-.06a8.83 8.83 0 0 0 1.12-.53c.54 0-.28.34.15.55 1.4-.94 2.13-.48 2.83-1.37 1.3.64 2-1.32 3.15-1.18l-.2-.2c0-.36.32 0 .49-.07-.14-.17-.35-.07-.32-.28 1.44-1.37 3.57-1.93 5.35-2.94.64-.39-.55-1.43.6-1.44l.11.58c.79-1.41 2.42-1.85 3.18-3.21 0 .15.11.28 0 .36.48.1.89-.71.69-1 .19-.12.22.18.43.21.39 0 .27-.87.64-.69.06 0 0 .15 0 .21 0-.27.74-.58.3-.79.55-.2.65-.84 1.15-.93-.13-.56.84-.45.44-1 .46.57 1.09-.22 1.11-.7.06.24.37 0 .48.27.28-.27.44-.62.14-.84 1.12.11.54-1.52 1.62-1a26.37 26.37 0 0 1 1.69-2.93c.51.52-.74.89-.16 1.37.48-.92.4-1.76 1.19-2.37.24-.12.14.31.17.47.45-.93 1.34-1.39 1.61-2.32.05.05 0 .17 0 .27.1-.14.34-.23.09-.43v.18c-.54-.1-.31-1.16-.48-1.34.53.83.75-.5 1.35.61a.41.41 0 0 0-.18-.45c.16-.1.29-.06.37.24.26-.6-.15-.65.21-1.08.12.1.1.23.21.39-.06-.42-.12-.83.29-1.12.06.08.19.12.1.23.48-.66.22-1.6 1-2.12.38.62.36-.1.87.22l.15-.49h-.34c.26-.33.14-.88.51-1.06v.4l.37-.71-.44.23c0-.52-.64-.41-.17-.76 0 .13.25-.34.66-.31 0-.28-.07-.57.22-.73.21.05.51.43.64.46-.28-.45.45-.89.16-1.4a.8.8 0 0 0 .38.34l-.24-.38a.36.36 0 0 1 .47.09c.39-.44-.73-.27-.07-.66l.06.21c.54-.48.54-1.24 1.06-1.75.63.12-.18.6.37.66.48-1 .32-2.21.67-3.11l-.11.16c-.8-.34.61-.6.22-1.19.05.12.45.21.36.16.24-.69-.14-1.47-.56-2.41zm-2-3.29a1.4 1.4 0 0 1-.3.23l-.19-.26a.46.46 0 0 1 .5.03zm-8.81-3.58a2.41 2.41 0 0 0-.37.07 1 1 0 0 1 .19-.43c.08.11.13.24.19.36zm-2.76.46a.57.57 0 0 1 .28.33l-.4.22.13-.55zm-18.3 19l-.16.19a1.19 1.19 0 0 1 .17-.22zm-.56.55c.13.1.2.24.12.3 0-.11-.25 0-.45 0 .11-.13.22-.25.38-.33z"/><path fill="#6374ff" d="M1638.41 371a3.61 3.61 0 0 0-.54-2.42l.24.09c.18-.43-.07-1.06-.07-1.51-.27-.06-.31-.3-.59-.06.92-1.71-1.51-1.82-1.33-3.39.08.1.86.39-.5-.59-.24.31-.08.25-.2.61a.83.83 0 0 1-.71-.18c.47.13.47-.43.5-.73l-.29.25c.16-.87-.62.49-.77-.3l.17-.13c-.25-.1-.6 0-.78-.24.2-.42.34 0 .6-.28-.34-.22-1.11.21-1.14-.33l.6.12c0-.67-.12-.58-.31-.81a6.61 6.61 0 0 0-.44-.55l.08.21c-1.11.82-1-.35-1.92.16.84-.43.26-.36.5-.82-.11-.21-.31-.45-.19-.56-.45.3-.44-.51-1.08 0 0-.17-.34-.1-.18-.49-.47 0 0 .31 0 .51-.76.38-1.53-1-2.51-.15-.74.35-.84.88-1.31 1.28h-.19c-.17-.21.11-.56.11-.56a.84.84 0 0 0-1 .29c0-.16-.1-.26-.27-.4-.27.17 0 .65-.41.58a2.05 2.05 0 0 1 0-.74 8 8 0 0 0-.72 1c-.22-.2 0-.49 0-.74-.31.34-.84.8-.66 1.26a1.51 1.51 0 0 1 .3 0c-.11.1-.28-.29-.23-.42.12-.5.53-.13.63 0l-.17.23c.72.69.75-.61 1.32-.8 0 .2 0 .4.07.61a9.06 9.06 0 0 0-3 2.14 7.81 7.81 0 0 0-.53-.6c.07 0 .13 0 .17-.05l-.29-.51-.13.33a1.29 1.29 0 0 0-1-.23v.74l-.4-.14.3-.35c-.43-.05-.32.29-.29.57a.68.68 0 0 0-.46-.13l.18.91c-.27-.17-.28-.6-.65-.45.09.42.67.3.56.76-.44-.06-.6-.31-.58.12a.41.41 0 0 1-.22-.39c0 .36-.41.59-.2 1-.52-.1-.53.75-1.07.22a1.39 1.39 0 0 1 0 1c-.36-.94-.66.65-1.3-.09.38.79-.54 1.14-.6 1.89 0-.07-.07-.21 0-.22-.27.21-.53.12-.78.18.47.48.24 1 .37 1.45-.75-.12-.42-.71-1-1l.38 1.08c-.51 0-.33.08-.86-.17.6.59-.08.32.14.85-.61.08-.67-.42-.8.12-.35 0-.29-.51-.29-.51-.34.38.32.58.53.89-.26.58-.54-.08-.92-.14-.12.41.14 1-.06 1.2-.1-.05-.16 0-.22-.17.13.63-.74.94-.55 1.69a.25.25 0 0 1-.15-.05 2.75 2.75 0 0 1 .71.5c-.14.18 0 .58-.33.38.1-.1 0-.21-.09-.35v.3c-.6-.21 0-.38-.3-.65-.15.48-.1 1.21-.45 1.38-.5-.3.36-.76-.33-.72l.51-.29c-1-.24.26-.22-.74-.53l-.86 1.28c.15.33.41.25.55.59-.18 1.16-1.64-.27-1.5.81.18.39.72.9.08 1.09l-.41-.55c-.48.51.49.89-.3 1.2-.13-.26.17-.57 0-.53-.71.06.09.5-.13.78l-.51-.28-.94 2.29c-.11-.14-.17-.37-.43-.31a6 6 0 0 1-2.23 2.39l.19.6c0 .07-.28 0-.31-.13-.38.21.26.2.31.47-.1.2-.41.08-.45-.12 0 .81-.36 2.14-1.21 2.45v-.21c-.49.35.5 1.1-.18 1.28v-.13c-.87.9-1.22 2.29-2.36 2.68.52.54-.93.87-.11 1.47-.79.33-.85.07-1.65.73-.18.2.33.66.26 1l-.46-.27.25.68-.66-.13v.34a.39.39 0 0 1 .45 0c0 .53-.91.82-1.15.69l-.23 1.34c-.17-.12-.14-.35-.17-.58.14.88-.57-.13-.42.69.14 0 .27.18.36.23a1.73 1.73 0 0 0-.73 1.49l-.32-.21a8.2 8.2 0 0 0-.23 3.45.47.47 0 0 1 .86 0l-.55.16c.36.2.19-.35.63.05 0 .41-.6.35-.81.11a3.5 3.5 0 0 0 .26.51c-.16.06-.27-.06-.48-.06.38.16-.41 1.08.29 1.26l-.15.07a8.87 8.87 0 0 0 1.23 2.46c.41-.22.52.15 1 .16a4.69 4.69 0 0 0 1 2c.56.24.4-.18.77-.2-.27.34.35.84-.16.8a5.06 5.06 0 0 0 2.22 1.06c0-.22-.1-.36 0-.45a.4.4 0 0 1 .19.57h-.07c1.41.06 2.49 2.52 3.85 1.71h-.07a9.43 9.43 0 0 0 1.18-.35c.51.1-.33.3 0 .6 1.32-.68 2.14 0 3-.66 1.16 1.15 2.6-1 4-1.11l-.23-.2c0-.42.38-.08.6-.17-.18-.15-.42 0-.39-.25l3-3.26c.4-.44.91-.93 1.53-1.67.44-.55-1.13-1.16 0-1.55l.35.52c.18-1.59 1.59-2.47 1.89-4 .06.14.2.23.12.35.5 0 .62-.91.35-1.1.15-.16.28.13.49.11.37-.11 0-.91.42-.81.07 0 .06.15.06.21 0-.27.55-.72.06-.84.49-.3.41-1 .88-1.13-.27-.53.73-.59.18-1.1.61.48 1.05-.38 1-.87.12.22.36-.1.55.21.21-.32.3-.68-.06-.87 1.16 0 .26-1.58 1.44-1.18a16.37 16.37 0 0 1 1.27-3.07c.58.5-.64.93 0 1.4.34-1 .18-1.8.92-2.44.24-.12.17.32.22.47.36-.95 1.23-1.4 1.47-2.33a.38.38 0 0 1 0 .27c.09-.15.34-.22.06-.43v.18c-.57-.12-.38-1.2-.56-1.4.58.87.75-.49 1.41.68a.51.51 0 0 0-.21-.48c.16-.07.3 0 .39.27.25-.58-.17-.66.2-1.08.13.12.11.24.22.41-.07-.42-.13-.85.29-1.11.06.08.19.14.09.23.49-.63.25-1.61 1.08-2.05.38.69.39-.06.88.33l.18-.48-.36-.06c.29-.3.2-.89.59-1v.4l.44-.65-.48.16c0-.54-.62-.52-.11-.81 0 .13.28-.3.71-.2 0-.28 0-.58.31-.69.21.08.47.53.61.59-.25-.52.56-.8.33-1.39a.87.87 0 0 0 .34.42l-.2-.43a.39.39 0 0 1 .47.19c.49-.43-.72-.4 0-.73 0 .07.05.09 0 .23.65-.45.63-1.18 1.22-1.77.66.14-.18.63.4.7.48-1 .31-2.28.68-3.18l-.12.17c-.83-.36.65-.65.24-1.21-.11.21.32.27.22.27zm-2-5.75a1.9 1.9 0 0 1-.35.21c0-.1-.1-.2-.15-.28a.5.5 0 0 1 .46.05zm-8.29-4.79h-.37a.92.92 0 0 1 .26-.4c-.01.11-.01.25.07.38zm-2.81 0a.8.8 0 0 1 .24.41 3.75 3.75 0 0 0-.43.16 3.47 3.47 0 0 1 .15-.59zm-18.84 19a2.11 2.11 0 0 0-.11.22 2.17 2.17 0 0 1 .07-.22zm-.41.69c.15.07.27.2.2.28-.07-.12-.27 0-.47.06l.21-.34z"/><path fill="#ebecf2" d="M1532.48 29.89c.22 8.34 3.5 16.67 10.12 22 12.47 10.07 30.63 11.69 45.59 7.06a51 51 0 0 0 22-13.73 4.34 4.34 0 0 0-.33-6.48c-.94-2-2.23-2.51-9.45-6.89-17.94 15.69-50.93 10.19-51.53-13.06-.13-5.14 1.23-10 2.92-14.85q-3.22-1.76-6.46-3.5c-2.19-1.17-5.63-.08-6.53 2.3-3.3 8.77-6.57 17.69-6.33 27.15z"/></svg>