<svg id="Слой_1" data-name="Слой 1" xmlns="http://www.w3.org/2000/svg" viewBox="0 0 70 70"><defs><style>.cls-1{fill:#6374ff;}</style></defs><title>stages-1</title><path d="M17.81,30.85l-.14-.32c-1.69-3.86-1.87-9.71-1.88-10V20l.56,0c3.11.24,10.49-1.3,10.56-1.32h.65l0,.54c-.15,2.66,1.06,9.21,1.07,9.28l.09.44-.43.13a45.39,45.39,0,0,1-10.09,1.71Zm-1-9.76a31,31,0,0,0,1.63,8.71,44.38,44.38,0,0,0,9.06-1.52,64.8,64.8,0,0,1-1-8.43A58.32,58.32,0,0,1,16.83,21.09Z"/><path d="M23,59.81l-.14-.32c-1.7-3.86-1.88-9.7-1.88-10l0-.56.56,0c3.11.24,10.49-1.3,10.57-1.31h.65l0,.53c-.16,2.66,1.06,9.21,1.07,9.28l.08.44-.43.13a45.22,45.22,0,0,1-10.09,1.71Zm-1-9.76a30.78,30.78,0,0,0,1.64,8.72,46.1,46.1,0,0,0,9.06-1.52,61.89,61.89,0,0,1-1-8.43A58.42,58.42,0,0,1,22,50.05Z"/><path d="M20.41,45.49a.45.45,0,0,1-.4-.25c-1.84-3.78-2.25-9.79-2.26-9.85a.45.45,0,0,1,.12-.33.47.47,0,0,1,.35-.14,25.12,25.12,0,0,0,7.39-1.36l.24-.08.28.83-.23.08a26.73,26.73,0,0,1-7.23,1.42,31.33,31.33,0,0,0,2,8.77,45.38,45.38,0,0,0,9.1-1.89,29.24,29.24,0,0,1-.94-6.45V36l.88,0v.25a30.35,30.35,0,0,0,1,6.61.44.44,0,0,1-.28.53,47.09,47.09,0,0,1-10,2.1Zm0-.38v0Z"/><path class="cls-1" d="M20.22,38.42a11,11,0,0,0,4.55,3.65s.91-2.49,5.25-7.62L27.4,33A46.34,46.34,0,0,0,24,39.3a20.78,20.78,0,0,1-2.52-2.75Z"/><path d="M61.81,60.91c-4.14-14.51-5.37-29.46-5.67-39.44A170.27,170.27,0,0,1,56.47,3.1l.1-1.1-1,.39a142.31,142.31,0,0,1-29.89,7.2l-.5.07L25.33,11l.5-.07A146.49,146.49,0,0,0,55,4.06c-.17,2.4-.52,8.93-.26,17.44.3,9.9,1.51,24.67,5.54,39.11-4,1.1-24.46,6.34-40.6,6a55.53,55.53,0,0,1-4.05-10.89c-2.09-7.4-4.87-20.5-6.22-40.88l0-.5L8,14.42l0,.5c1.36,20.51,4.17,33.73,6.29,41.2,2.32,8.18,4.35,11.49,4.36,11.52l.2.32h.38c.7,0,1.4,0,2.12,0,17.76,0,39.74-6.18,40-6.24l.66-.19Z"/><path d="M50.73,16.45a.67.67,0,0,0-.68-.15l-17.6,4.06-.53.05v.07l-.29.07.17.66.25-.06A.41.41,0,0,0,32.3,21s0,0,0-.05l.22-.05,1.33-.15h0c2.39-.31,4.79-.79,7.11-1.26l.15,0c1.5-.3,3-.62,4.5-1l4.78-.75a.62.62,0,0,0,.52-.43A.84.84,0,0,0,50.73,16.45Zm-.39.77ZM31.88,20.88a.15.15,0,0,1,0-.08.11.11,0,0,1,0-.08.13.13,0,0,1,.07-.06l0,.25A.08.08,0,0,1,31.88,20.88Z"/><path d="M34,25.16l-.45,0H33.5L33.39,25a.27.27,0,0,1-.08-.17l0-.09.14-.2.08,0,.07.24-.07-.24a11,11,0,0,1,1.38-.26h0l1.69-.24.54-.11.47-.1A8,8,0,0,1,39,23.68h0a.47.47,0,0,1,.26.09.35.35,0,0,1,.1.22.43.43,0,0,1-.26.44,8.48,8.48,0,0,1-2.12.42l-.54.07L35.9,25A13,13,0,0,1,34,25.16Z"/><path d="M37.77,32.72h.08l.59-.1c1.11-.16,2.3-.36,3.75-.63,1-.19,2.3-.44,3.62-.73l.25-.06c.54-.12,1.07-.24,1.59-.38a6.18,6.18,0,0,0,1-.34l.44-.18-.1-.35v-.13l-.45,0a7.48,7.48,0,0,0-1,.13l-1.06.23-8,1.59c-.29.06-.59.1-.93.15l-.86.13a8.31,8.31,0,0,0-1.46.37l.07.49h.44a9.49,9.49,0,0,0,1-.06Z"/><path d="M37.26,37l.2,0,0-.24h0l.2,0h0l.91-.13h0l.25,0h0l.53-.07a11.33,11.33,0,0,0,2.27-.5h0L42,36l0-.54-.25,0h0l0-.25a10.4,10.4,0,0,0-2.6.23l-.41.07c-.51.08-1,.17-1.53.28l-.21,0a2.87,2.87,0,0,0-1.18.41l.14.21h0l-.14-.21a.4.4,0,0,0-.17.4.38.38,0,0,0,.27.3.23.23,0,0,0,.11,0l0,0h0a3,3,0,0,0,.43,0A4.91,4.91,0,0,0,37.26,37Z"/><path d="M40.42,40.46l0-.25c1.09-.13,2.15-.27,3.17-.43,1.19-.19,2.37-.39,3.51-.6l1.76-.34.35-.06.46-.09a2.61,2.61,0,0,0,.78-.28.36.36,0,0,0,.15-.16l0-.13,0-.09a.39.39,0,0,0-.33-.26,2.45,2.45,0,0,0-.82.06l-.42.1-.4.09-.21,0-9.67,1.6-.21,0-.06-.25-.39.06H38a6.51,6.51,0,0,0-1.31.28h-.06l-.25-.1.1.25a.48.48,0,0,0-.1.33s0,.06,0,.09l-.12.12h.19a.37.37,0,0,0,.27.15,6.15,6.15,0,0,0,.87.06,16.53,16.53,0,0,0,2.11-.18Z"/><path d="M52.51,46.3A.47.47,0,0,0,52,46h-.08l-.41.33a7,7,0,0,0-.75.21l-.37.11-9.28,2.25-3.22,0,0,.5a8.11,8.11,0,0,0,1.21.08c.64,0,1.3-.06,1.94-.12h.16c1.35-.12,2.57-.28,3.73-.49s2.44-.5,3.66-.83c.71-.19,1.28-.36,1.81-.54l.12.22.24-.08a5.87,5.87,0,0,0,1.58-.7h0A.57.57,0,0,0,52.51,46.3Z"/><path d="M44.7,51.58l0,.25h-.06l0-.13-.72.14a11.69,11.69,0,0,0-1.65.31l-.43.09-2.94.58,0,.25-.1-.23a.38.38,0,0,0-.22.44.42.42,0,0,0,.28.31v0l.06,0h0a15.44,15.44,0,0,0,2.89-.37l.58-.12a7.79,7.79,0,0,0,2.45-.73.4.4,0,0,0,.2-.44A.45.45,0,0,0,44.7,51.58ZM41.92,53Zm-.05,0h.05l0,.23Z"/></svg>