<svg width="235" height="231" viewBox="0 0 235 231" xmlns="http://www.w3.org/2000/svg" fill="none"><path d="M210.961 7.423c-12.911-9.242-28.995-9.607-42.944-2.471-14.213 7.282-23.425 20.575-32.534 33.15-9.153 12.62-19.345 21.744-33.952 27.535-14.3 5.674-29.317 9.227-43.339 15.661-27.036 12.4-47.623 37.8-55.154 66.491-7.735 29.509-1.652 62.835 29.346 75.074 5.673 2.237 11.581 3.977 17.619 5.264 9.943 2.442 20.354 3.261 30.75 2.706 16.347-.395 32.68-3.481 47.477-8.628 23.425-8.13 44.422-21.452 61.368-39.131 24.273-21.73 38.076-50.376 42.579-82.562 4.343-30.913 7.545-72.515-21.216-93.09zm3.714 70.337c-1.316 26.351-6.887 52.584-22.679 73.89-1.783.658-3.45 1.857-4.781 3.758-3.056 4.358-6.404 8.481-9.987 12.4-18.35 16.846-41.38 28.837-64.76 36.675-9.431 3.158-19.52 5.513-29.609 6.434-6.653.249-13.335 0-19.959-.804-3.378-.41-7.018-.907-10.674-1.623-10.001-2.867-19.286-8.072-27.094-16.334-.643-.673-1.301-1.214-1.989-1.653-3.729-7.794-4.079-17.357-3.319-25.722 2.193-23.806 16.377-46.793 36.277-59.881 21.494-14.14 48.617-15.749 70.17-29.845 11.829-7.736 20.061-18.542 28.22-29.86 7.253-10.046 16.158-22.578 29.142-25.283 11.493-2.384 21.158 5.864 26.085 15.588 6.478 12.751 5.659 28.383 4.957 42.26z" fill="#EBECF2"/></svg>