<svg id="Слой_1" data-name="Слой 1" xmlns="http://www.w3.org/2000/svg" viewBox="0 0 1920 730"><path fill="#ebecf2" d="M180.26,192c.88-.74-1.57-.72-2.65-.48.21.19.26-1.18.34-1.39,0,0-1.87,1,.11-.42-.87.14-.72-.7-1.38.2,0,.37.09.28.35-.28-.74.55.56.93.57.93-3.17-1.47-.91-.36-1.44-3-1.39,1.14-.13-.05-.2,0a2.64,2.64,0,0,1-.78-.69c-.86,1.17-.54.1-2.06.41a3.4,3.4,0,0,0-.31-1.4,2.17,2.17,0,0,1-1.26.95c.21-.7-.06-1.8-.83.8a6.45,6.45,0,0,1,.06-1.86,10.09,10.09,0,0,0-.34,1.31,2.61,2.61,0,0,1-.31-1,1.13,1.13,0,0,1-.3.9c.24.38-.87-1.91-.37-1.4a1.61,1.61,0,0,0-.1,1.31.93.93,0,0,1-.42-1c-1.25,1.31-.59,1.4-1.26,2.86a11,11,0,0,0-.24-1.18,1.24,1.24,0,0,1-.58.88c-.44-1.19.66-.51,0-1.94-1.11-.18-.66,1.14-.63,1.47-.21.57-1-.74-1-.78-.23-.16.11,1.6-.26,1.34l-.25-.83a.9.9,0,0,1-.36.89c-.08-.35-3.83.83-3.44,2.07.19-.33-3.72,3.91-2.76,4.43a2.81,2.81,0,0,0-1.61.3,5,5,0,0,0,.73.79c-.85-.4-.87-.31-.06.28l-.83-.13c.05.33.26.42.64.26-.15-.27-.82,3.06-.36,4.11-1.43-.56-.18,0,.09.11,0,0-3.53,3.66.62,3.8a1.66,1.66,0,0,1-.81.54c.48,1.13,1,1.36,1.52.69.28.11-.68,2.8,1.52,2.81,1.63,2.95,3.45,2.88,7.67,3.91a1.84,1.84,0,0,1,.14-1.16c-.22,2.21,7.69.64,9.35-1.3q-.06.69-.09,1.38c.38-.61,2.51-2.63,2.35-2.79.06.76-.25.3-.91-1.39a11.88,11.88,0,0,1,1.61,1.21c-.51-.66-.47-.7.13-.13,0,.09-.08-2.54.44-2.73a2.12,2.12,0,0,0,1.1.41c-.74-1-.22-.87-.15-1.41.21.29-1.43-.31-1-.52-.29-.52,1.55-.19,1.49-.21a10.68,10.68,0,0,0-.65-1c1.71,1.16-.94-.59.77.07.25-.36-1.19-1.13.75-1.05-.15-2.46.11-4.91-.43-6.27.06,0-1.74-.35-1.69-.19,2.13.53-.24-1-.26-.81a2.33,2.33,0,0,1,.78-.18c-.39.12-.64,0-.74-.31.73,0,.86-.21.95-1-.43.12-1.29,0-1.71.09C180.13,193.19,181.46,191.6,180.26,192Zm-1.6-.2C178.14,192.46,178.06,192,178.66,191.8Zm-1-1C177.37,191.37,176.74,191.36,177.62,190.78Zm-14.43-1.15-.1.12A.32.32,0,0,1,163.19,189.63Zm-.36.33C163.36,190.63,162.43,190.24,162.83,190Zm18.32,6.67C180.09,196.88,180.79,196.43,181.15,196.63Z"/><path fill="#ebecf2" d="M1777.29,380.3a6.64,6.64,0,0,0-3.23-1c.19.28.72-1.16.89-1.35,0,0-2.31.4.27-.42-1-.16-.47-1-1.53-.26-.18.39,0,.33.47-.16-1,.31.26,1.19.25,1.15-2.89-1-1.36-.87-.65-2.44-.69.13-.57-.26.34-1.17-1.9.65-.12-.09-.21,0,.31-.71-1.47,0-1.5,0,.15-.43,0-.88.51-1.06-.62.29-1.64-.26-1.85-.33a3.78,3.78,0,0,0,.23-1.6,2.46,2.46,0,0,1-1.69.53c.34-.23.35-.56,0-1a5.6,5.6,0,0,1-1.19,1.51,7.51,7.51,0,0,1,.78-2,14.22,14.22,0,0,0-.87,1.27,3,3,0,0,1,.05-1.16,1.14,1.14,0,0,1-.65.82c-.33-1.6.34-.15.14-1.63a1.79,1.79,0,0,0-.6,1.35,1,1,0,0,1-.08-1.22c-1.67.93-1.19,1.27-2.39,2.6a10.06,10.06,0,0,0,.17-1.35,1.33,1.33,0,0,1-.94.71c0-1.43.9-.28.68-2.06-1.15-.59-1.11.94-1.2,1.35-.45.62-.85-1.77-1.17-1,.23.66.09,1-.44,1.16v-1a1.08,1.08,0,0,1-.68.87c.07-1.35.19.07-.15.14l-.23-.83c-1.83.83-4.17.8-4,2.19.27-.35-4.82,3.93-3.67,4.68a3.06,3.06,0,0,0-1.84.21,5.75,5.75,0,0,0,.77.94q-1.38-.76-.09.3l-.93-.2c0,.37.27.48.71.34.45,1-1.9-.78-.79,1.44-.51-.17-1.29-.22-.14.2-2,.17-.17,1.18-.13,2.07-1.25-1.17-.19-.08.06.16.09-.1-4.81,2.89-.78,4.26-1.74.09-.82,1.46.33,1.53.23.21-1.89,2.53.38,3.35.1,1.05,2.63,9.34,5.79,6.74.66-.53-.17,1.37-.23,1,1.54-.41,8,2,8.06,1.53a9.87,9.87,0,0,0,3.72-2.33c-.11.5-.21,1-.31,1.5a14.39,14.39,0,0,1,2.94-2.08c.06-.5.06-.58,0-.25a6.07,6.07,0,0,1-.67-1.93,11.73,11.73,0,0,1,1.48,1.74c-.42-.85-.36-.88.17-.11-.06.16.53-2.78,1.1-2.82a2.42,2.42,0,0,0,1.1.74c-.56-1.28,0-1,.19-1.55.19.26-1.52-.74-1-.86-.16-.61,1.68.21,1.66.2a11,11,0,0,0-.44-1.26c1.56,1.74-.87-.88.83.31.36-.3-1-1.55,1.1-.9,0-.19.07-2.58-.6-2.29.58-.25.6-.36,1.17-.09.15-.14.76-4.35.76-4.4-.27-.5-1.75-.41-1.77-.71,2.15,1.15.06-1.11,0-.94a3,3,0,0,1,.89.05c-.45,0-.68-.18-.7-.55.81.25,1,0,1.32-.73-.45,0-1.43-.43-1.86-.43C1777.76,382,1776.56,380.52,1777.29,380.3Zm-2.92-1.74C1773.86,379.11,1773.21,378.87,1774.37,378.56Zm-14.87-6.16.15-.09Q1759.56,372.49,1759.5,372.4Zm-.34.18C1759.56,373.38,1758.64,372.83,1759.16,372.58Zm16.46,13.24C1775.62,385.54,1777,385.93,1775.62,385.82Zm-1-5.52C1774.45,380,1775.7,379.61,1774.58,380.3Z"/><path fill="#ebecf2" d="M1631.63,683.37a4.08,4.08,0,0,0-2-.59,8.55,8.55,0,0,1,.72-1.09c-.63-.1-.29-.6-.95-.16-.1.24,0,.2.29-.1-.71.22.21.87.16.71-.55-1.91-.5-.17-.2-2.24-1.24.46-.05-.2-.13,0-.39,0-.43-.1-.13-.41-1.06.66.52.13-.8.42.47-1.26-1.51-.48-.69-1.84-1.26,1.59-.28-1.42-1.77.65.08-1.17,0-1.35-.42-.64a.79.79,0,0,1,.08-1c-.66-.2-.3,1.76-.41.08-.1,0-1.3.83-1.3.67,0,.87-.55.67-.66.54,0-.3.48-.83.39-.42l0-.84c-2.42-1.25-5,3-8.29,4.81a8.29,8.29,0,0,0,.41.77c-.38.09-1.35.91-.71,1.08-1.25.14-.13.62-.08,1.28-.68-.21-.67-.17,0,.11-.23.25-2.52,3.38-.28,3.57,1.45,1.21.72,5.45,4,6.82,2.35,1,5,1.37,7-.49-.07.31-.13.61-.18.93,1-1.12,2.55-.92,1.39-2.64a7.86,7.86,0,0,1,.92,1.07c-.25-.53-.21-.55.11-.07.05-.12.29-2.24,1.35-1.28,0-.19.09-1.62-.49-1.49-.11-.37,1,.13,1,.12a7,7,0,0,0-.26-.77c.89,1.05-.52-.52.5.19.19-.16-.61-1,.68-.55.46-2,.38-2.34.83-4.17-.13-.24-1.09-.35-1.09-.44,1.3.73,0-.71,0-.59.24-.05.45,0,.94-.75-.29,0-.87-.27-1.15-.27C1631.72,684.37,1631.28,683.47,1631.63,683.37Zm-1.8-1.07C1629.54,682.63,1629.08,682.48,1629.83,682.3Zm-9.16-3.81Zm-.21.11C1620.71,679.09,1620.16,678.77,1620.46,678.6Zm10.14,8.17C1630.6,686.59,1631.48,686.84,1630.6,686.77Zm-.64-3.4C1629.88,683.22,1630.66,682.92,1630,683.37Z"/><path fill="#6374ff" d="M1704.16,88.54,1713,83a4.66,4.66,0,0,0,2-5.3l-4-12.52a4.06,4.06,0,0,0-4.64-2.79c-2.43.14-9,.4-11.08,0-1.39-.27-3.64-2.23-4.74-3.4a1.08,1.08,0,0,0-1.33-.18l.67-.65a1.09,1.09,0,0,0-.09-1.63s-4-3.14-5.71-4.62c-.33-.44-.21-2.64.23-4.2l2.46-8.79a4.29,4.29,0,0,0-2.2-5.09L1673,28.44a4.27,4.27,0,0,0-5.31,1.57l-5.17,7.51a2.2,2.2,0,0,1-2.18,1,50.79,50.79,0,0,0-15.81-.07,1.88,1.88,0,0,1-2-1l-3.88-7.29a4,4,0,0,0-5.15-1.85l-12.19,4.92a4.66,4.66,0,0,0-2.81,4.9l1.28,9.26a2.53,2.53,0,0,1-1,2.3,59,59,0,0,0-11.09,11.45,2.21,2.21,0,0,1-2.27,1l-8.62-2.19a4.39,4.39,0,0,0-5,2.49l-5.78,12.35a4.39,4.39,0,0,0,1.28,5.43l8.4,6.1a2.15,2.15,0,0,1,.77,2.09,58.57,58.57,0,0,0-.33,14.24,2.51,2.51,0,0,1-1.12,2.38l-9.32,5.82a4.63,4.63,0,0,0-2,5.29l4,12.54a4,4,0,0,0,4.71,2.77l12-2.49a1.87,1.87,0,0,1,1.91.75,49.83,49.83,0,0,0,8.23,8.74,2.23,2.23,0,0,1,.68,2.31L1612,152.94a4.3,4.3,0,0,0,1.79,4.87,2.22,2.22,0,0,0,.41.2l11.47,5.38a4.29,4.29,0,0,0,5.32-1.57l7.78-11.31a2.18,2.18,0,0,1,2.07-1c1.26.13,2.52.22,3.77.27,0,0,.06.11.1.16a1.09,1.09,0,0,0,.77.35c2.57.06,7.29.81,9,2.54,2,2,4.8,8.43,5.71,10.75a.61.61,0,0,0,0,.12,4.15,4.15,0,0,0,1.46,1.56,4.05,4.05,0,0,0,3.69.27l12.2-5a4.65,4.65,0,0,0,2.8-4.9l-1.79-12.89a2.53,2.53,0,0,1,1-2.31,58.87,58.87,0,0,0,9.08-8.64,2.18,2.18,0,0,1,2.14-.8l11.22,2.83a4.38,4.38,0,0,0,5-2.49l5.75-12.36a4.38,4.38,0,0,0-1.28-5.42l-8.91-6.46a2.17,2.17,0,0,1-.75-2.25A59.08,59.08,0,0,0,1703,90.77,2.53,2.53,0,0,1,1704.16,88.54Zm-67.23,60.74-7.78,11.31a2.1,2.1,0,0,1-2.6.84l-11.48-5.38a2.13,2.13,0,0,1-1-2.54l3.42-12.23a4.35,4.35,0,0,0-1.37-4.55,48.82,48.82,0,0,1-7.88-8.36,4,4,0,0,0-4.1-1.59l-12,2.49a1.86,1.86,0,0,1-2.2-1.3l-4-12.54a2.48,2.48,0,0,1,1.05-2.79l9.31-5.81a4.71,4.71,0,0,0,2.13-4.44,56.22,56.22,0,0,1,.32-13.71,4.32,4.32,0,0,0-1.65-4.17l-8.4-6.1a2.23,2.23,0,0,1-.58-2.76l5.78-12.35a2.21,2.21,0,0,1,2.48-1.31l8.63,2.19a4.33,4.33,0,0,0,4.54-1.75,56.48,56.48,0,0,1,10.68-11,4.68,4.68,0,0,0,1.78-4.29l-1.28-9.27a2.5,2.5,0,0,1,1.48-2.59l12.2-4.9a1.86,1.86,0,0,1,2.42.85l3.88,7.29a4.07,4.07,0,0,0,4.25,2.1,48,48,0,0,1,15.14.06,4.38,4.38,0,0,0,4.3-1.88l5.18-7.52a2.1,2.1,0,0,1,2.6-.84l11.47,5.38a2.12,2.12,0,0,1,1,2.54l-2.46,8.79s-1.34,4.88.42,6.41c1.24,1.08,3.53,2.9,4.83,3.93l-5.1,4.92A121.39,121.39,0,0,0,1671,73.2a32,32,0,0,0-4-2.35,28.71,28.71,0,0,0-22.8-.73A31.54,31.54,0,0,0,1627,86.22c-6.74,14.27-2.23,28.94,11.5,37.41l.12.09.09,0a40.45,40.45,0,0,0,7.76,3.86,1.1,1.1,0,0,0,.51,1l.19.07a122,122,0,0,0-2.74,18.92c-1.14,0-2.29-.13-3.43-.26A4.4,4.4,0,0,0,1636.93,149.28Zm12.77-22.44a1.09,1.09,0,0,0-.83-.8c-3.36-.68-7.45-3.19-9-4.13l-.09,0-.13-.08c-12.91-8-17-21.22-10.66-34.64a29.39,29.39,0,0,1,16-15,26.57,26.57,0,0,1,21.08.66,31.47,31.47,0,0,1,3.81,2.22,1.09,1.09,0,0,0,.3.64c6.78,6.77,16.67,20.51,6.59,36.47C1670.07,122.75,1661,127.69,1649.7,126.84ZM1703,86.71a4.68,4.68,0,0,0-2.14,4.14,56.86,56.86,0,0,1-1.16,13.62,4.37,4.37,0,0,0,1.61,4.45l8.91,6.45a2.24,2.24,0,0,1,.58,2.76L1705,130.48a2.21,2.21,0,0,1-2.48,1.32L1691.34,129a4.32,4.32,0,0,0-4.33,1.49,56,56,0,0,1-8.75,8.33,4.65,4.65,0,0,0-1.81,4.32l1.79,12.9a2.49,2.49,0,0,1-1.47,2.59l-12.2,5a1.85,1.85,0,0,1-2.38-.8c-.34-.87-3.51-8.81-6.18-11.44-2.31-2.28-7.18-2.93-9.39-3.1a121.26,121.26,0,0,1,2.76-19.23c12,.94,22.13-4.45,29.22-15.69,10.51-16.65,1.05-30.93-6.14-38.39v0c1.12-1.18,2.14-2.24,3.08-3.2a1,1,0,0,0,.51-.25l7.7-7.42c.44-.35.64-.48.65-.49a1,1,0,0,0,.39-.52l4-3.82a1.07,1.07,0,0,0,.11,1.3c.35.36,3.4,3.56,5.92,4.05,2.84.54,11.34,0,11.7,0l.16,0a1.87,1.87,0,0,1,2.2,1.31l4.05,12.52a2.49,2.49,0,0,1-1,2.8Z"/></svg>