<svg xmlns="http://www.w3.org/2000/svg" viewBox="0 0 200 155"><defs><style>.cls-1{fill:#ffd240;}.cls-2{fill:#fff;}.cls-3{fill:#010101;}.cls-4{fill:#6374ff;}</style></defs><title>services-3</title><path class="cls-1" d="M149.8 31.09c-5.8 0-12-.07-18.06-.23-.46 24 .82 67.38 12.91 109.12 0 0-.38.87-7.75 2.63 11.93 1.27 21.45 1.95 30.69-1.43 0 0-4.14-46 12-110.49 0 0-7.14.22-17.34.34"/><path class="cls-2" d="M170.15 80.84l.41-3.16q-17.07 12.54-34.07 25.2l.42 2.56q16.58-12.36 33.24-24.6zM136.9 142.61l3.25.34 2.39-1.92c-1.15.4-2.92.97-5.64 1.58zM135.29 94.67l36.71-26.84c.17-1.06.35-2.14.53-3.22l-37.53 27.46c.06.87.17 1.73.29 2.6zM168 102l-27.84 20.3c.18.81.36 1.63.55 2.44l27.12-19.74c.06-.95.17-1.94.17-3zM144.49 139.45q11.3-9.06 22.66-18c0-1 0-2 .07-3q-11.76 9.22-23.41 18.58z"/><path class="cls-3" d="M147.82 143.83a111.73 111.73 0 0 1-11.69-.62l.09-.87c17.63 1.85 28.82-1 30.89-1.54-4.75-35.11 11.88-107.42 12-108.15l.85.2c-.17.73-16.87 73.4-12 108.2v.37l-.35.11c.02.03-7.21 2.3-19.79 2.3zM145.53 28.54a112.36 112.36 0 0 1-15.17-.9l.13-.86a119 119 0 0 0 18.49.84v.88c-1.18.02-2.34.04-3.45.04z"/><path class="cls-4" d="M47.77 151.11s-18.63-30.52-24-125.76c0 0 57.7-1.83 105.79-20.15 0 0-6 67.77 12 131.87-.01 0-52.91 15.26-93.79 14.04z"/><path class="cls-2" d="M62.67 40.19s-17.32 3.65-24.74 3.07c0 0 .38 13.79 4.25 22.63a105.19 105.19 0 0 0 23-3.92s-2.84-15.41-2.48-21.78zM74.53 107.29s-17.32 3.65-24.74 3.07c0 0 .38 13.79 4.25 22.63a104.63 104.63 0 0 0 23-3.92s-2.86-15.4-2.5-21.78z"/><path class="cls-3" d="M47 84.64a25.37 25.37 0 0 0 10.51 8.44s2.1-5.76 12.14-17.64l-6.07-3.44a108.65 108.65 0 0 0-7.9 14.63s-4.84-4.55-5.83-6.38z"/><path class="cls-2" d="M47.42 100.43a.45.45 0 0 1-.39-.25c-4.19-8.65-5.15-22.46-5.15-22.6a.42.42 0 0 1 .12-.34.4.4 0 0 1 .33-.13c7.26.29 17.2-3.15 17.3-3.18l.29.82c-.41.14-9.77 3.38-17.14 3.24.2 2.47 1.32 13.93 4.9 21.54a105.76 105.76 0 0 0 22.07-4.63c-.47-1.84-2.39-9.69-2.29-15.32h.87c-.12 6.25 2.33 15.37 2.36 15.47a.43.43 0 0 1-.28.52 105.94 105.94 0 0 1-22.95 4.84z"/><path class="cls-3" d="M49.67 152c-1.64 0-3.26 0-4.87-.07h-.24l-.12-.2c0-.07-4.67-7.68-10-26.4-4.84-17.27-11.3-47.78-14.44-95.21l.87-.06c3.13 47.3 9.57 77.74 14.42 94.94 4.8 17 9 24.76 9.77 26.06 39.66 1.12 90.8-12.76 95.95-14.19-9.53-33.69-12.37-68.32-13.08-91.47a411.91 411.91 0 0 1 .72-42.1c-19.49 7.27-42.65 12.84-68.86 16.55l-.12-.85c26.43-3.75 49.75-9.39 69.33-16.76l.65-.24-.06.69a396.47 396.47 0 0 0-.77 42.7c.7 23.2 3.56 57.93 13.16 91.66l.12.42-.43.12c-.53.15-51.01 14.41-92 14.41z"/><path class="cls-2" d="M74.13 44.07a187 187 0 0 0 21.16-3.46q5.24-1.05 10.43-2.2c3.63-.79 7.26-1.79 11-2.32 1.38-.2.79-2.62-.59-2.14a103.73 103.73 0 0 1-10.57 2.73q-5.19 1.2-10.4 2.3c-7 1.49-14.11 2.71-21.06 4.51-.36.08-.31.61.03.58zM90.27 50.49a40.67 40.67 0 0 0-6.17 1c-2.1.35-4.33.46-6.39 1a.69.69 0 0 0 .18 1.35 32 32 0 0 0 6.47-.51 26 26 0 0 0 6.15-1.14c.85-.33.82-1.71-.24-1.7zM114.51 64.53c-1.47.24-2.93.21-4.4.51s-2.69.6-4 .9c-2.86.62-5.71 1.24-8.59 1.8s-5.58 1-8.37 1.54c-2.64.48-5.67.65-8.13 1.76a.43.43 0 0 0 .1.78c2.57.4 5.47-.27 8-.64 2.9-.42 5.78-.92 8.66-1.47s5.58-1.07 8.34-1.7c1.43-.32 2.86-.64 4.27-1s2.88-1.12 4.37-1.64a.43.43 0 0 0-.25-.84zM96.87 77.78a28.34 28.34 0 0 0-6.8.68c-1.18.2-2.36.4-3.53.65a7.77 7.77 0 0 0-3 1 .33.33 0 0 0 .08.6 7.81 7.81 0 0 0 3.12 0c1.09-.12 2.18-.28 3.26-.44a29.59 29.59 0 0 0 7-1.52.46.46 0 0 0-.13-.97zM116.35 83.12a13.37 13.37 0 0 0-3.79.59c-1.35.28-2.69.54-4 .8q-3.8.72-7.61 1.33c-2.54.41-5.09.81-7.63 1.17-1.36.19-2.71.39-4.06.62a22.56 22.56 0 0 0-4 .78c-.36.14-.48.8 0 .87a31 31 0 0 0 7.8-.42q4-.47 7.9-1.08c2.72-.42 5.42-.89 8.13-1.39 1.35-.25 2.7-.51 4-.78a12.08 12.08 0 0 0 3.68-1 .81.81 0 0 0-.42-1.49zM120.48 102.72a19.62 19.62 0 0 0-3.77.94c-1.44.41-2.86.83-4.3 1.23-2.78.77-5.6 1.43-8.45 2s-5.69 1-8.57 1.3-5.8.3-8.52 1a.4.4 0 0 0 0 .77c2.72.63 5.77.31 8.52.07s5.77-.62 8.62-1.14 5.67-1.16 8.46-1.91c1.44-.39 2.87-.81 4.28-1.3a16.26 16.26 0 0 0 4.06-1.74c.47-.34.37-1.27-.33-1.22zM103.5 115.71c-2.26-.22-4.63.48-6.82 1a36 36 0 0 0-6.54 1.88c-.34.15-.15.68.18.68a36.45 36.45 0 0 0 6.81-.92c2.2-.43 4.6-.74 6.57-1.84a.41.41 0 0 0-.2-.8z"/></svg>