<svg xmlns="http://www.w3.org/2000/svg" viewBox="0 0 200 155"><defs><style>.cls-1{fill:#ebecf2;}.cls-2{fill:#6374ff;}.cls-3{fill:#ff533d;}.cls-4{fill:#fff;}.cls-5{fill:#ffd240;}</style></defs><title>Монтажная область 1</title><path class="cls-1" d="M184.34 151a36.56 36.56 0 0 1-4.3-5.82l.82-1.28c-1.42-1.17-3.2-3.79-3.11-5.93-.27.34-1 .55-1.11 1.25-2.47-.61.67-1.9-1-2.67.52.19 1 .34 1.41-.09q-1.92-1.36-4.11-3.14c.41-.31.54-1.65.78-2.38s0-1.72-.73-2c-.52.29-1 1-.88 1.38l-.89-.4 1.66-1.89-2.42.18 1.67-1.15c-.82-.51-3.17.64-3.42-.06-.4-3 .47-2.89 1-5.54-3.35 2-1.54-2.6-4.12-1.48 1-3.58-2.2-5.67-3.45-8.7-4.17-.78-7.6-1.58-11.16-2.4-.94 3.49-2.24 8.63-3.24 14.4a3 3 0 0 0 .35 2.37c1 1.31 2.29 1.08 3.37.26.47-.35.78-.65 1.28-1 2-1.52 4.7.09 4.21 4s-3.48 4.79-5.05 2.81c-.67-.85-2.2-3.64-4.32-1.89a3 3 0 0 0-.92 2.22 66 66 0 0 0-.09 14.79l-.28.41c4.86 1.14 9.63 2.2 14.52 3a3 3 0 0 0 2.38-.36c1.31-1 1.08-2.28.26-3.36-.36-.47-.65-.79-1-1.28-1.5-2 .05-4.7 4-4.21s4.78 3.48 2.8 5.05c-.88.7-3.64 2.2-1.89 4.31a3 3 0 0 0 2.22.93 103.5 103.5 0 0 0 14.85.45v-.24zm-15.34-21.07l-.08-.25h.48zm2.12 1.91l.37.16c-.25 0-.36 0-.39-.16zm3 6.25a3.41 3.41 0 0 1 .62.21c-.18-.07-.39-.15-.6-.21z"/><path class="cls-2" d="M63 62.09c3.39-2.42 6.47-4.66 9.37-6.83 14.91-12.14 12.56-10 16.33-13.35 1.92-1.93 3.06-2.57 4.63-2.61 3.59-.11 5 2.53 5 5.51 0 1.31-.07 2.26-.06 3.64 0 4.63 4.82 7.57 10.53 3.77a18 18 0 0 0 3.9-3.9c3.8-5.7.86-10.47-3.78-10.51-1.38 0-2.33.07-3.64 0-3 0-5.63-1.43-5.52-5 0-1.57.69-2.71 2.62-4.63a207.77 207.77 0 0 0 20.2-25.64c20.58 13.27 46.18 40.77 59.56 59v.59c-5.25 8.92-12.56 17.56-20.27 25.68-1.92 1.92-3.07 2.56-4.63 2.61-3.59.11-5-2.54-5-5.51 0-1.31.07-2.26.06-3.64-.06-5.47-6.47-8.13-12.63-2s-3.57 12.57 2 12.62c1.37 0 2.32-.08 3.64-.06 3 0 5.62 1.43 5.51 5 0 1.56-.69 2.71-2.61 4.63-9.6 8.7-18.85 15.9-25.23 20.72l.28-.53c-6.93-8.58-13.82-16.91-21.28-24.93-1.93-1.93-3.07-2.57-4.63-2.62-3.59-.11-5 2.54-5 5.52 0 1.31.07 2.26.06 3.63 0 4.64-4.82 7.58-10.53 3.78a20.93 20.93 0 0 1-2.1-1.8c-6.09-6.08-3.57-12.56 2-12.62 1.37 0 2.32.08 3.64.06 3 0 5.63-1.43 5.51-5 0-1.56-.69-2.7-2.61-4.62a228.52 228.52 0 0 0-25.32-20.96z"/><path class="cls-3" d="M167.2 58.93zM112.65 55.41h-.16a.12.12 0 0 0 .16 0zM167.13 58.94a5 5 0 0 1-.67.05 1.57 1.57 0 0 0 .67-.05zM111.25 55.27v-.15l-.14.1z"/><path class="cls-1" d="M98.18 49.44a.29.29 0 0 1 0 .43c.25.29.24.07.28-.16a30.44 30.44 0 0 1-.08-4.9c0-3-1.43-5.62-5-5.51-2.32.07-3.45 1.56-5.49 3.38.72.47-.07 2.1 1 1.8.4-.31.82-1.1 1.24-.27l-.51.64c.76.56.88-.83 1.5.19-.26.22-.71-.12-.63 0 .31.94.55-.2 1 .05l-.17.73c.88.41 2 .45 3 .85-.12.18-.36.31-.22.64a8.9 8.9 0 0 1 3.58 2.48zm-3.93-2.91l-.25-.12.3.11zm.66.31c0-.22.14-.4.25-.33-.1.1.12.36.23.62-.13-.13-.3-.19-.48-.29z"/><path class="cls-3" d="M164.52 59.47a1.09 1.09 0 0 0-.42-.36.48.48 0 0 0-.06.18z"/><path class="cls-1" d="M162.27 59.38c.71.16 1.25-.52 1.83-.27.26-.74 1.18.11 1.17-.88.08 1 1.28.58 1.63 0-.1.34.41.22.3.67.48-.14.89-.43.73-.92 1.07 1 1.61-1.4 2.36 0 1.08-.74 3.11-1.92 3.78-2.28.15 1-1.37.56-1.12 1.56 1.13-.79 1.64-1.85 2.87-2 .34 0-.08.47-.15.67a5.53 5.53 0 0 1 1.65-.72c-14.12-17.77-36.42-40.86-54.74-52.67a207.9 207.9 0 0 1-20.2 25.68c-1.92 1.92-2.56 3.06-2.61 4.63-.11 3.58 2.54 5 5.52 5 1.31 0 2.26-.07 3.64 0 4.63 0 7.58 4.81 3.78 10.51a20.93 20.93 0 0 1-1.8 2.1 20.44 20.44 0 0 1-2.11 1.8 11.18 11.18 0 0 1-1.83 1l.14.18c.42-.82 1.35 1 1.74-.26.69.94.4 1.08 1.49 1.94.31.17.65-.63 1.07-.63l-.13.66.68-.52.12.88h.41a.6.6 0 0 1-.19-.58c.63-.11 1.31.92 1.26 1.26l1.44-.19c-.06.2-.22.25-.38.32.58-.21-.1.78.63.41-.07-.18.12-.39.16-.51a1.78 1.78 0 0 0 1.63.7l-.19.44c1 .39 2.2.35 3.35.66-.38-.32-.16-1.1.19-1.09v.75c.28-.38-.31-.36.22-.78.41.19.16.89-.12 1l.56-.11c0 .22-.14.3-.22.57.28-.38.81.93 1.24.22v.22c1.16.25 1.72.12 2.67.28.1-.62.45-.4.8-.84a6.24 6.24 0 0 0 2.23 1.07c.62-.22.23-.5.53-.82 0 .57.83.64.35 1a7.4 7.4 0 0 0 2.62-.17c-.12-.26-.26-.38-.16-.56s.5.32.44.58h-.06c1.43-.6 3.15 1.94 4.36 1l1.22-.5c.54.15-.35.39 0 .79 1.33-.81 2 .28 3.11-.3.78 1.71 2.92 0 4 1.11l-.06-.4c.29-.39.34.23.56.31 0-.3-.31-.35-.14-.56 2.43-.54 5 .58 7.54.68.92 0 .43-2.08 1.62-1.22l-.29.76c1.79-1 3.76-.36 5.49-1.34-.09.19-.07.41-.25.43.43.48 1.41-.16 1.37-.6.28 0 .1.38.29.58.42.26.89-.8 1.14-.32 0 0 0 .12-.07.17.42-.11 1.17-.04.89-.55z"/><path class="cls-4" d="M102.43 92.16a.72.72 0 0 0-.85-1.15.61.61 0 0 0-.33.58.81.81 0 0 0-.19 1 .58.58 0 0 0 .79.21.61.61 0 0 0 .28-.43 1.7 1.7 0 0 0 .3-.21zM109.87 102.41a.52.52 0 0 0-.26-.79.61.61 0 0 0-.91-.14 9 9 0 0 0-1.24 1.3l1.33 1.52zM117.76 114.68c.12-.36-.29-.61-.59-.48l.53.63zM118.63 115.6c.16-.33-.21-.84-.58-.57l-.11.09.57.69.12-.21zM117.64 94.45a.59.59 0 0 0-1-.57l-.78.72a2.46 2.46 0 0 0-1.07 1.26.59.59 0 0 0 .41.72.58.58 0 0 0 .6-.2 3.24 3.24 0 0 0 1.84-1.93zM113.3 109.1a3.52 3.52 0 0 0 3-2.79.42.42 0 0 0-.61-.47 7.27 7.27 0 0 0-1.46 1 .39.39 0 0 0-.33.1 3.44 3.44 0 0 0-1 1.66.42.42 0 0 0 .4.5zM120.57 86.13c-.23-.14-.4 0-.66.06a.44.44 0 0 0-.63 0l-.79.87a1.12 1.12 0 0 0 1.1 1.28l.29-.23a.45.45 0 0 0 .59-.06 2.49 2.49 0 0 0 .61-1 .48.48 0 0 0-.1-.46.53.53 0 0 0-.41-.46zM107.88 83.34a.52.52 0 0 0 .18.49.35.35 0 0 1 0 .08c-.24.41.26 1 .68.69a5.11 5.11 0 0 0 1.66-1.8.53.53 0 0 0-.59-.75v-.06a.51.51 0 0 0-.79-.61 3.57 3.57 0 0 0-.55.55.5.5 0 0 0-.51.21l-.35.48a.49.49 0 0 0 .27.72zM108.14 92.91a2.79 2.79 0 0 0 .78.83.46.46 0 0 0 .65-.17.7.7 0 0 0 .36.14c.92.09 1.61-1.57 1.8-2.26a.52.52 0 0 0-.68-.6.39.39 0 0 0-.35 0 .41.41 0 0 0 0-.09l.18-.24c.33-.46-.42-1-.78-.6a16.06 16.06 0 0 1-1.65 1.65.66.66 0 0 0-.23 0c-.35-.15-.7.28-.63.62a1 1 0 0 0 .55.72zM142.58 92.83a.51.51 0 0 0 .5.5h.29a.48.48 0 0 0 .74-.27.91.91 0 0 0 .18-.21 1.69 1.69 0 0 0 .45-.68.41.41 0 0 0 0-.36h-1.72a1.18 1.18 0 0 0-.44 1.02zM144.43 104.65a4.09 4.09 0 0 0 .2-.42.5.5 0 0 0-.61-.62l-.13.06a.41.41 0 0 0-.17-.22c.31-.41-.14-1.09-.63-.76a5.94 5.94 0 0 0-1 .91.58.58 0 0 0-.05.63l-.17.18a.5.5 0 0 0 .38.84.43.43 0 0 0 .56.16.43.43 0 0 0 .11.12.49.49 0 0 0 .33.34l1.21-1.05a.49.49 0 0 0-.03-.17zM123.55 96.2l.78-.83h.24a.54.54 0 0 0 1 .21 3.83 3.83 0 0 0 .61-1.33.51.51 0 0 0-.49-.63h-.25c-.1-.51-.83-.62-1.26-.12a2.58 2.58 0 0 1-.79.16.52.52 0 0 0-.41.79.58.58 0 0 0-.14.34.39.39 0 0 0-.18.4c0 .22 0 .45.08.68a.5.5 0 0 0 .81.33zM124.46 101.51a2.06 2.06 0 0 0-.94.84.63.63 0 0 0 .27.85l.08.08a.59.59 0 0 0 .87.44 4.45 4.45 0 0 0 1.83-1.58.49.49 0 0 0 .09-.42c.5-1.4-1.28-1.24-2.2-.21zM124.13 80.54a.5.5 0 0 0 .38-.1.9.9 0 0 0 .33-.25l.41-.34a.48.48 0 0 0 .08-.6.5.5 0 0 0-.56-.23h-.12a.31.31 0 0 0-.11-.09.52.52 0 0 0-.69.18 1.15 1.15 0 0 0-.19.81v.08a.5.5 0 0 0 .47.54zM127.67 118.59l1.19-.92c-.23-.03-.34.06-1.19.92zM133.88 109.14l-.54.54a.58.58 0 0 0 .83.82l.53-.53a.59.59 0 0 0 0-.83.6.6 0 0 0-.82 0zM135.12 101.69c.42-.15.56-.51.77-.87l.9-1.57a.48.48 0 0 0-.13-.64.47.47 0 0 0 0-.35l.06-.11a.5.5 0 0 0-.57-.73l-1.78.44a.66.66 0 0 0-.25.1 3.24 3.24 0 0 0-.88.89.46.46 0 0 0 .16.66.55.55 0 0 0 .31.52c-.12.23-.22.47-.32.71-.2.5.45.76.8.49a.42.42 0 0 0 .32-.11.58.58 0 0 0 .17.45.49.49 0 0 0 .44.12zM125.35 113.12a2 2 0 0 0 .77-.94l.75-1a.49.49 0 0 0-.2-.73.5.5 0 0 0-.1-.41.42.42 0 0 0-.68-.44l-.34.3-1.21 1.08a.93.93 0 0 0 .25.84.51.51 0 0 0 .23.64c-.23.38.1.93.53.66zM132.12 92.37a.37.37 0 0 0 .39 0 .59.59 0 0 0 .37.2.53.53 0 0 0 .81.17 3.43 3.43 0 0 0 .9-1.1.52.52 0 0 0-.3-.73.55.55 0 0 0-.46-.6.48.48 0 0 0-.24-.2.53.53 0 0 0-.82-.17l-.5.45a5.25 5.25 0 0 0-.46.48c-.1.14-.24.27-.12.52l-.24.25a.5.5 0 0 0 .67.73zM132.36 85.24c.22-.37 0-1-.7-.88a.58.58 0 0 0-.3.08c-.49.24-.48.69-.26.89h.06a.64.64 0 0 0 .15.13.83.83 0 0 0 1.05-.22z"/><path class="cls-5" d="M71.52 138.81c-.6-2.93-1.34-5.83-2-8.73q-1.14-5-2.29-9.91c-.48-2.1-2.06-5.61-4.81-5.32-5.23.55-6 4.11-7.79 7.7-1.07 2.11-3.58 4.13-5.25 5.86-7.75 8-22.22 4.16-32.41 8.13-2 .77-5.32 2-5.84 4.34-.32 1.41.54 3 1 4.3l1.62 4.82c.08.25 16.48.37 32.42-1.82a188 188 0 0 0 26.73-6 18.6 18.6 0 0 1-1.38-3.37zM23.43 128.58c3.21-3.34 3.76-7.39 9-16.45.23-.41-.37-.75-.66-.43-2 2.23-3.24 5.11-4.5 7.81-.65 1.41-1.3 2.83-2 4.2s-1.73 2.76-2.62 4.14a.56.56 0 0 0 .78.73z"/><path class="cls-4" d="M14.78 149.23c1-2.56 1.94-5.2 2.9-7.8a52.82 52.82 0 0 0 2.69-7.86.27.27 0 0 0-.49-.2 52.21 52.21 0 0 0-3.08 7.63c-1 2.66-2.1 5.31-3 8-.23.6.74.83.98.23zM25.44 148.53q3.57-2.26 7.07-4.65c1.11-.75 2.2-1.52 3.29-2.29.77-.55 2.29-1.23 2.44-2.22a.17.17 0 0 0-.11-.2c-1-.18-1.91.84-2.67 1.36-1.16.8-2.33 1.58-3.5 2.37q-3.53 2.35-7.09 4.63c-.62.39-.06 1.4.57 1z"/><path class="cls-5" d="M23.91 112.92a13.75 13.75 0 0 0 .26-3.34c0-1.29.07-2.59.09-3.88a36.64 36.64 0 0 0-.26-7.18.22.22 0 0 0-.43 0 57.15 57.15 0 0 0-.26 7.17c-.16 6-.43 6-.21 7.23.06.44.7.39.81 0zM33.6 126.67c4.54.84 9.86 1.83 14.34.14.35-.13.35-.75-.09-.71-4.78.45-5.93 1.16-14-.46-.65-.14-.92.91-.25 1.03zM7.17 111.2a53.72 53.72 0 0 0 5-5c1.64-1.7 3.2-3.47 4.75-5.25.34-.39-.22-1-.56-.57-5.55 6.19-7.83 7.91-9.83 10.18a.43.43 0 0 0 .64.64z"/><path class="cls-4" d="M56.15 134.79c.24-2.33.71-4.64 1-7 .24-2.07.79-4.57.37-6.63 0-.2-.31-.17-.37 0-.47 1.36-.84 9.18-1.91 13.47a.47.47 0 1 0 .91.16zM51.45 142.62l7.32-3.62a48.39 48.39 0 0 0 7.23-3.74.23.23 0 0 0-.17-.42c-2.38.65-2.56 1-14.91 6.8-.67.36-.11 1.3.53.98zM44.31 146a47.37 47.37 0 0 0 .79-6.09 41 41 0 0 0-.11-6.46c0-.16-.26-.17-.26 0-.07 2.31-.4 6.88-.69 9.15a28.84 28.84 0 0 0-.48 3.3.38.38 0 0 0 .75.1z"/><path class="cls-5" d="M47 101.63c.94.37 1 .22 6.33.65 4.42.35 4.93.61 5.87.28.07 0 .13-.13 0-.19a5.29 5.29 0 0 0-2.45-.75c-1.75-.28-4.74-.53-6.48-.68a11.23 11.23 0 0 0-3.32-.13c-.43.09-.33.68.05.82zM38 117.46a9.44 9.44 0 0 0 2.9-1.76c.94-.67 1.87-1.37 2.78-2.11s1.8-1.52 2.66-2.34a7.42 7.42 0 0 0 2-2.37c.14-.36-.35-.69-.66-.5a11.55 11.55 0 0 0-2.08 2.11 33.09 33.09 0 0 1-2.6 2.42c-.91.77-1.85 1.51-2.79 2.24a9.87 9.87 0 0 0-2.39 2.06.17.17 0 0 0 .18.25z"/><path d="M142.68 149.15a71.89 71.89 0 0 1 .09-16.33l.74.07a72.32 72.32 0 0 0-.1 16.17zM144.7 123.37l-.73-.12c.49-2.83 1.1-5.82 1.81-8.87l.72.17c-.7 3.04-1.31 6.01-1.8 8.82zM151 134a3.08 3.08 0 0 1-2.41-1.25c-.1-.12-.21-.27-.33-.44-.56-.79-1.41-2-2.44-2.1a1.87 1.87 0 0 0-1.45.53c-.45.37-.71.81-.88 2.19l-.74-.09a3.58 3.58 0 0 1 1.15-2.67 2.59 2.59 0 0 1 2-.69c1.34.17 2.31 1.51 2.94 2.4l.31.41a2.25 2.25 0 0 0 2.42.89c1-.28 2.18-1.42 2.47-3.78.25-2-.29-3.59-1.45-4.26a2.29 2.29 0 0 0-2.58.26c-.27.2-.49.39-.7.56l-.71.57a3.36 3.36 0 0 1-2.47.79 2.67 2.67 0 0 1-1.75-1.15 3.53 3.53 0 0 1-.46-2.87l.74.09c-.18 1.38 0 1.87.32 2.35a1.91 1.91 0 0 0 1.26.84 2.62 2.62 0 0 0 1.91-.64c.25-.19.46-.36.68-.55s.45-.37.73-.58a3 3 0 0 1 3.4-.31c1.43.82 2.11 2.69 1.82 5s-1.41 3.95-3 4.4a3.13 3.13 0 0 1-.78.1zM184.22 154.31a72.56 72.56 0 0 1 .1-16.33l.74.07a71.14 71.14 0 0 0-.1 16.17zM186.24 128.54l-.73-.13c.85-4.9 2-10.08 3.57-15.85l.71.19c-1.54 5.75-2.7 10.91-3.55 15.79zM192.6 139.13a3.14 3.14 0 0 1-2.44-1.24l-.33-.45c-.56-.78-1.41-2-2.43-2.1a1.86 1.86 0 0 0-1.45.53c-.46.37-.72.82-.89 2.2l-.74-.09a3.59 3.59 0 0 1 1.15-2.68 2.62 2.62 0 0 1 2-.69c1.35.18 2.31 1.52 2.94 2.41l.31.41a2.34 2.34 0 0 0 2.24.92 3.42 3.42 0 0 0 2.4-2.54 9.14 9.14 0 0 0 .25-1.27 10.91 10.91 0 0 0 .07-1.32 3.43 3.43 0 0 0-1.71-3 2.32 2.32 0 0 0-2.39.36c-.27.2-.49.38-.7.56s-.44.37-.71.57a3.28 3.28 0 0 1-2.46.78 2.61 2.61 0 0 1-1.76-1.14 3.59 3.59 0 0 1-.46-2.88l.74.09c-.17 1.38 0 1.88.32 2.35a1.92 1.92 0 0 0 1.26.85 2.65 2.65 0 0 0 1.91-.64l.69-.55c.22-.18.44-.37.72-.58a3 3 0 0 1 3.15-.44 4.1 4.1 0 0 1 2.14 3.67 10.64 10.64 0 0 1-.07 1.45 9.84 9.84 0 0 1-.28 1.4 4.12 4.12 0 0 1-3 3.05 3 3 0 0 1-.47.01zM179.93 155c-3.74 0-7.61-.2-11.71-.6l.07-.74a111.59 111.59 0 0 0 16.25.49v.74c-1.49.11-3.04.11-4.61.11zM158.64 153.21c-5.56-.9-11-2.11-16-3.29l.17-.72c5 1.17 10.39 2.38 15.93 3.28zM168.21 154.4a3.61 3.61 0 0 1-2.68-1.15 2.63 2.63 0 0 1-.68-2 3.28 3.28 0 0 1 1.37-2.19c.26-.21.5-.39.73-.56l.71-.53a2.3 2.3 0 0 0 .89-2.43c-.29-1-1.43-2.17-3.78-2.47-2-.24-3.6.3-4.26 1.46a2.27 2.27 0 0 0 .25 2.58c.2.26.39.48.57.69s.37.45.57.72a3.26 3.26 0 0 1 .78 2.46 2.62 2.62 0 0 1-1.14 1.75 3.6 3.6 0 0 1-2.88.46l.09-.74c1.38.18 1.88 0 2.35-.32a1.92 1.92 0 0 0 .85-1.26 2.71 2.71 0 0 0-.64-1.91c-.19-.25-.37-.46-.55-.68s-.38-.45-.58-.73a3 3 0 0 1-.31-3.39c.82-1.43 2.68-2.11 5-1.83s3.95 1.41 4.4 3a3 3 0 0 1-1.13 3.2c-.28.22-.52.39-.75.56s-.45.33-.7.53a2.64 2.64 0 0 0-1.09 1.69 1.92 1.92 0 0 0 .52 1.43c.37.46.82.72 2.19.89zM185.16 113c-3.73 0-7.6-.2-11.7-.61l.07-.73a113 113 0 0 0 16.25.49v.74c-1.5.02-3.05.11-4.62.11zM163.88 111.15c-3.13-.5-6.37-1.13-10.2-2l.15-.72c3.82.84 7 1.46 10.16 2zM173.44 112.34a3.58 3.58 0 0 1-2.68-1.14 2.61 2.61 0 0 1-.68-2c.17-1.35 1.51-2.31 2.41-2.94l.41-.31a2.26 2.26 0 0 0 .88-2.42c-.28-1-1.42-2.18-3.78-2.47a9.89 9.89 0 0 0-1.32-.06 3.39 3.39 0 0 0-3 1.7 2.32 2.32 0 0 0 .35 2.4c.2.26.38.48.56.7s.37.44.57.71a3.33 3.33 0 0 1 .79 2.46 2.63 2.63 0 0 1-1.15 1.75 3.57 3.57 0 0 1-2.87.46l.09-.74c1.38.18 1.87 0 2.35-.32a1.91 1.91 0 0 0 .84-1.26 2.62 2.62 0 0 0-.64-1.91c-.19-.25-.36-.46-.55-.68s-.37-.44-.58-.72a3.06 3.06 0 0 1-.44-3.15 4.13 4.13 0 0 1 3.68-2.14 10.69 10.69 0 0 1 1.45.07c2.3.28 4 1.4 4.4 3a3 3 0 0 1-1.14 3.2l-.44.33c-.79.56-2 1.41-2.11 2.44a1.84 1.84 0 0 0 .53 1.44c.37.46.82.72 2.2.89zM10.85 152c-2.53-6.2-4.45-13.66-6-23.48l.73-.11c1.58 9.75 3.49 17.16 6 23.31zM2.89 114.31c-.63-7.31-.89-15.24-.89-24.12h.74c0 8.86.26 16.73.89 24.06zM72.55 143.66a155.21 155.21 0 0 1-6.07-23.42l.73-.13a152.3 152.3 0 0 0 6 23.29zM64.56 106a203.65 203.65 0 0 1-.36-24.16h.74a204.4 204.4 0 0 0 .36 24.16zM14.05 152.49h-2.49v-.74c17.37.29 44.72-2.6 61.2-8.55l.26.7c-15.79 5.68-41.5 8.59-58.97 8.59zM4.81 128.51c-.28-2.09-.13-3.13.6-4.16a3.73 3.73 0 0 1 2.47-1.65 4.74 4.74 0 0 1 3.54 1.09c.4.29.74.57 1.06.84s.66.53 1.06.82a3.64 3.64 0 0 0 3.75.51c1.5-.7 2.44-2.41 2.59-4.72a17 17 0 0 0-.11-2c-.42-3-1.85-5.18-3.85-5.72a3.57 3.57 0 0 0-3.8 1.41c-.31.39-.56.74-.8 1.08s-.49.69-.8 1.08a4.72 4.72 0 0 1-3.12 2 3.78 3.78 0 0 1-2.83-.94c-1-.79-1.4-1.76-1.68-3.84l.73-.1c.26 1.88.6 2.7 1.42 3.37a3.07 3.07 0 0 0 2.27.78 4.18 4.18 0 0 0 2.63-1.72c.29-.37.53-.7.78-1.06s.5-.7.81-1.1a4.31 4.31 0 0 1 4.59-1.67c2.29.62 3.93 3 4.38 6.34a15.31 15.31 0 0 1 .12 2.09c-.17 2.6-1.26 4.55-3 5.36a4.37 4.37 0 0 1-4.5-.58c-.42-.3-.75-.58-1.08-.85l-1-.81a4.11 4.11 0 0 0-3-1 3.06 3.06 0 0 0-2 1.36c-.61.85-.72 1.73-.47 3.62zM55.09 121.77a4.45 4.45 0 0 1-1.08-.14c-2.31-.63-3.95-3-4.4-6.35a15.31 15.31 0 0 1-.12-2.09c.16-2.6 1.26-4.55 3-5.36a4.37 4.37 0 0 1 4.5.58c.41.3.75.58 1.08.85l1 .81a4.14 4.14 0 0 0 3 1 3 3 0 0 0 2-1.35c.61-.86.73-1.74.47-3.63l.74-.1c.28 2.08.13 3.13-.61 4.16a3.72 3.72 0 0 1-2.47 1.65 4.75 4.75 0 0 1-3.54-1.09c-.4-.3-.73-.57-1.06-.84s-.65-.53-1-.83a3.66 3.66 0 0 0-3.75-.5c-1.5.69-2.45 2.41-2.59 4.72a14.62 14.62 0 0 0 .11 2c.48 3.59 2.31 5.31 3.86 5.73a3.56 3.56 0 0 0 3.77-1.49c.3-.39.55-.74.79-1.08s.49-.7.8-1.09a4.8 4.8 0 0 1 3.12-2 3.76 3.76 0 0 1 2.83.94c1 .8 1.4 1.77 1.68 3.85l-.73.1c-.26-1.89-.6-2.71-1.42-3.37a3.07 3.07 0 0 0-2.27-.78 4.12 4.12 0 0 0-2.63 1.71c-.29.38-.53.71-.78 1.06s-.5.7-.81 1.11a4.43 4.43 0 0 1-3.49 1.82zM41.2 88.2l-.13-.73a154.69 154.69 0 0 0 23.31-6l.26.69a155.19 155.19 0 0 1-23.44 6.04zM12.93 90.66c-3.23 0-6.54-.07-10.13-.18v-.74a204.74 204.74 0 0 0 24.1-.36l.06.74c-4.89.39-9.38.54-14.03.54zM34.31 105.18h-.17c-2.6-.17-4.55-1.26-5.36-3a4.37 4.37 0 0 1 .58-4.5c.31-.41.58-.75.85-1.07l.81-1a4.11 4.11 0 0 0 1-3 3 3 0 0 0-1.35-2c-.86-.62-1.74-.73-3.63-.47l-.1-.74c2.08-.28 3.13-.13 4.16.6a3.76 3.76 0 0 1 1.65 2.48 4.73 4.73 0 0 1-1.13 3.52c-.3.4-.57.74-.84 1.06s-.53.66-.83 1.06a3.65 3.65 0 0 0-.5 3.74c.69 1.5 2.41 2.44 4.72 2.59h.12a15.24 15.24 0 0 0 1.85-.11 15.36 15.36 0 0 0 2-.42c2.16-.75 3.57-2.12 3.84-3.74a3.65 3.65 0 0 0-1.47-3.49l-1.08-.79c-.35-.24-.7-.49-1.09-.8a4.72 4.72 0 0 1-2-3.12 3.7 3.7 0 0 1 .94-2.82c.79-1 1.76-1.4 3.85-1.69l.1.74c-1.89.25-2.71.6-3.38 1.41a3 3 0 0 0-.85 2.27 4.13 4.13 0 0 0 1.71 2.62c.38.29.71.53 1.06.78s.7.5 1.1.81a4.39 4.39 0 0 1 1.76 4.19c-.32 1.9-1.91 3.48-4.36 4.32a14.87 14.87 0 0 1-2.07.45 14.68 14.68 0 0 1-1.89.12zM162.26 88.91l-.54-.51c9.56-10.07 16.22-18.5 21-26.55l.64.37c-4.81 8.1-11.5 16.58-21.1 26.69zM121.85 124.62l-.44-.59c9.92-7.49 18.47-14.51 26.13-21.45l.5.54c-7.68 6.96-16.25 13.99-26.19 21.5zM100.56 27.18l-.55-.51a215.35 215.35 0 0 0 20.9-26.56l.63.4a217.25 217.25 0 0 1-20.98 26.67zM84.11 43.37l-.49-.56c.73-.64 1.48-1.3 2.21-2l.5.55c-.74.7-1.49 1.36-2.22 2.01zM59.66 62.34l-.43-.6c3.81-2.72 6.89-5 9.7-7.07l.45.59c-2.82 2.11-5.9 4.36-9.72 7.08zM85.4 84a234.08 234.08 0 0 0-26.17-21.66l.43-.6a236.34 236.34 0 0 1 26.25 21.73zM121.64 124c-6.74-8.35-14.07-17.25-22-25.83l.54-.51c8 8.6 15.34 17.52 22.08 25.87zM182.66 61.64c-14.44-19.64-40.96-47.64-61.66-61.02l.41-.62c20.75 13.38 47.35 41.52 61.83 61.21zM84.27 110.8a10 10 0 0 1-5.47-1.87 20.63 20.63 0 0 1-2.23-1.9 22.26 22.26 0 0 1-1.91-2.23c-2-3-2.42-6-1.18-8.39a6 6 0 0 1 5.4-3.1h3.77a5.89 5.89 0 0 0 4.24-1.51 4.39 4.39 0 0 0 1.11-3.25c0-1.52-.68-2.62-2.6-4.55l.52-.52c2.06 2 2.77 3.33 2.82 5a5.09 5.09 0 0 1-1.31 3.84 6.67 6.67 0 0 1-4.77 1.74h-3.78a5.26 5.26 0 0 0-4.74 2.71c-1.11 2.09-.7 4.87 1.13 7.61a21.14 21.14 0 0 0 1.82 2.13 19.56 19.56 0 0 0 2.14 1.82c2.73 1.82 5.51 2.24 7.61 1.13a5.29 5.29 0 0 0 2.71-4.74v-3.78a6.67 6.67 0 0 1 1.74-4.77 5.09 5.09 0 0 1 3.84-1.31c1.73.06 3 .77 5.06 2.82l-.53.52c-1.92-1.92-3-2.55-4.55-2.6a4.39 4.39 0 0 0-3.31 1.11 5.94 5.94 0 0 0-1.52 4.24v3.77a6 6 0 0 1-3.11 5.39 6.13 6.13 0 0 1-2.9.69zM148.05 103.11l-.53-.52c1.93-1.92 2.56-3 2.61-4.55a4.4 4.4 0 0 0-1.13-3.31 5.9 5.9 0 0 0-4.25-1.51h-3.77a5.89 5.89 0 0 1-5.63-3.6c-1.23-3 0-6.8 3.32-10.11s7.1-4.55 10.14-3.31a5.86 5.86 0 0 1 3.58 5.61v3.77a5.92 5.92 0 0 0 1.52 4.25 4.38 4.38 0 0 0 3.31 1.1c1.52 0 2.62-.67 4.55-2.6l.52.53c-2.05 2-3.33 2.76-5.05 2.81a5.05 5.05 0 0 1-3.84-1.31 6.66 6.66 0 0 1-1.75-4.77v-3.7699999999999996a5.15 5.15 0 0 0-3.12-4.94c-2.75-1.12-6.24.06-9.33 3.15s-4.28 6.57-3.16 9.31a5.17 5.17 0 0 0 4.96 3.2h3.7699999999999996a6.6 6.6 0 0 1 4.77 1.74 5.1 5.1 0 0 1 1.32 3.84c-.05 1.66-.76 2.94-2.81 4.99zM101.67 54a6.13 6.13 0 0 1-2.91-.7 6 6 0 0 1-3.1-5.39v-3.77a5.85 5.85 0 0 0-1.52-4.24 4.39 4.39 0 0 0-3.3-1.11c-1.53 0-2.63.68-4.56 2.6l-.52-.52c2.05-2.06 3.33-2.77 5.05-2.82a5.13 5.13 0 0 1 3.85 1.31 6.72 6.72 0 0 1 1.74 4.77v3.7699999999999996a5.26 5.26 0 0 0 2.71 4.74c2.1 1.11 4.88.7 7.62-1.13a20.85 20.85 0 0 0 2.13-1.82 20 20 0 0 0 1.82-2.13c1.82-2.73 2.24-5.51 1.13-7.61a5.29 5.29 0 0 0-4.75-2.71h-3.7699999999999996a6.66 6.66 0 0 1-4.77-1.75 5.1 5.1 0 0 1-1.32-3.84c.06-1.72.77-3 2.82-5.05l.53.53c-1.93 1.92-2.56 3-2.61 4.55a4.38 4.38 0 0 0 1.11 3.32 5.91 5.91 0 0 0 4.25 1.52h3.77a6 6 0 0 1 5.4 3.1c1.24 2.34.81 5.4-1.17 8.37a23.68 23.68 0 0 1-1.91 2.24 21.48 21.48 0 0 1-2.23 1.9 10.12 10.12 0 0 1-5.49 1.87z"/></svg>