<svg xmlns="http://www.w3.org/2000/svg" viewBox="0 0 200 155"><defs><style>.cls-1{fill:#fff;}.cls-2{fill:#6374ff;}.cls-2,.cls-5{stroke:#000;}.cls-3{fill:#ffd240;}.cls-4{fill:#292929;}.cls-6{mask:url(#mask);}</style><mask id="mask" x="50.61" y="81.49" width="28.42" height="19.76" maskUnits="userSpaceOnUse"><path class="cls-1" d="M58.1 94.25a.5.5 0 0 1-.17-1l13.44-4.77a.5.5 0 1 1 .34.94l-13.44 4.8z" id="path-12-inside-1"/></mask></defs><title>services-5</title><path d="M121.56 81.85a2.06 2.06 0 0 0 1.75-.41c6.41-4.69 9.91-47.46 10.05-49.27a.37.37 0 0 0-.27-.39c-12.62-3.69-24.56-2.71-34.56 2.82-10.86 6-18.88 17.09-23.17 32a.36.36 0 0 0 .23.45c.22.09 19.15 7.19 35.87 12.08 3.54 1.03 6.96 1.98 10.1 2.72zm-22.68-46.6c9.74-5.4 21.39-6.38 33.71-2.84-.34 3.92-3.86 44.13-9.73 48.42a1.31 1.31 0 0 1-1.13.29c-16.88-4-42.41-13.47-45.57-14.65 4.26-14.54 12.12-25.33 22.72-31.22zM105.51 138.06a50.9 50.9 0 0 1-13.37-6.12 51.83 51.83 0 0 1-21.34-28.82.38.38 0 0 1 .25-.47.37.37 0 0 1 .46.25c7.24 23.69 29.13 38.56 53.31 36.27-.16-2.34-1-15.52-1.34-28.14-.08-3.2-.07-6.17-.07-8.79 0-9.37 0-15-3.93-15.91-21.43-4.74-41.89-13.9-44.89-15.27-2.5 7.15-5.27 15.23-4.5 23.18a.37.37 0 1 1-.74.07c-.8-8.26 2.23-16.92 4.67-23.88a.38.38 0 0 1 .2-.23.42.42 0 0 1 .31 0c.22.1 22.11 10.31 45.11 15.39 4.55 1 4.54 6.9 4.51 16.64 0 2.61 0 5.58.07 8.77.38 13.82 1.35 28.32 1.36 28.47a.38.38 0 0 1-.34.4 52 52 0 0 1-19.73-1.81zM132.83 139.3a.37.37 0 0 1-.26-.28c-.37-1.87-9.23-45.75-3-54.5a3.42 3.42 0 0 1 2.34-1.52c16.61-2.21 33.26-4.25 33.43-4.26a.37.37 0 0 1 .41.33.37.37 0 0 1-.33.41c-.17 0-16.82 2-33.42 4.27a2.69 2.69 0 0 0-1.87 1.25c-5.74 8.09 2.28 49.44 3.1 53.58a49 49 0 0 0 9.32-1.91c13.46-4.07 24.43-12 30.89-22.38 6.72-10.78 8.28-23.34 4.51-36.33l-8.54 1.04a.37.37 0 1 1-.09-.74l8.84-1.16a.36.36 0 0 1 .4.26c3.95 13.32 2.4 26.2-4.5 37.25-6.55 10.51-17.68 18.57-31.3 22.7a50.42 50.42 0 0 1-9.79 2 .36.36 0 0 1-.14-.01z"/><path class="cls-2" d="M150.62 14.82l-.08.24c-.16.45-.38 1.11-.67 2-.58 1.67-1.4 4.07-2.37 7-1.95 5.77-4.49 13.47-6.92 21.2s-4.72 15.51-6.16 21.42a63.53 63.53 0 0 0-1.42 7.2 9.13 9.13 0 0 0-.06 2 1.31 1.31 0 0 0 .11.46c3.51 1.12 8.66.89 14.62-.19a147 147 0 0 0 19.17-5.15c6.51-2.14 12.83-4.52 18.07-6.55l5-1.93c2.61-1 4.73-1.86 6.17-2.37-6.95-22.75-22.77-38.55-45.46-45.33zm-17.54 61.5z"/><path class="cls-3" d="M4.52 45.48c-5.49 12.41 12.17 52.9 20.82 69 4.91 9.16 17.21 27.09 22.93 28.89 5.3 1.67 60.55-20.4 60.45-27.22-.09-5.9-17.45-62.85-22.67-94.76-2.67-16.3-76.27 12.2-81.53 24.09z"/><path class="cls-4" d="M49 144a2.72 2.72 0 0 1-.83-.1c-6-1.89-18.31-20-23.22-29.13-8.9-16.53-26.44-56.95-20.89-69.49 4.4-10 56.05-31.55 75.26-29.08 4.32.55 6.75 2.29 7.22 5.16 3.11 19.06 10.61 47.23 16.09 67.79 3.8 14.28 6.55 24.61 6.59 27 0 1.16-1.14 2.59-3.53 4.37-11.39 8.48-49.32 23.48-56.69 23.48zm-44-98.32c-5.4 12.21 12 52.23 20.81 68.61 4.89 9.13 17.21 26.94 22.64 28.65a2 2 0 0 0 .6.07c6.33 0 44.12-14.36 56.06-23.25 2.74-2 3.13-3.1 3.13-3.56 0-2.31-2.91-13.12-6.55-26.8-5.48-20.58-13-48.78-16.11-67.89-.39-2.38-2.53-3.84-6.36-4.33-18.99-2.42-69.92 18.74-74.22 28.5z"/><path class="cls-3" d="M27.31 75.67l10.24-12.89 21.5 11.67s16-34.17 15.8-33.71z"/><path class="cls-5" d="M27.31 76.17a.51.51 0 0 1-.31-.11.5.5 0 0 1-.08-.7l10.24-12.89a.51.51 0 0 1 .63-.13l21 11.42c.89-1.9 4.27-9.15 7.66-16.39 2-4.22 3.94-8.43 5.43-11.59 1.39-3 2.06-4.38 2.44-5a.45.45 0 0 1 0-.16h.06c.29-.45.4-.41.6-.33a.51.51 0 0 1 .29.63.34.34 0 0 1-.06.12c-.53 1-10.5 22.39-15.76 33.65a.5.5 0 0 1-.69.22l-21.08-11.49-9.98 12.58a.52.52 0 0 1-.39.17zM76.66 46.25a.5.5 0 0 1-.5-.5v-8.18l-6.31 5.37a.51.51 0 0 1-.71-.06.49.49 0 0 1 .06-.7l7.14-6.07a.5.5 0 0 1 .82.38v9.26a.5.5 0 0 1-.5.5z"/><path d="M39 101a.5.5 0 0 1-.17-1l5.65-2a.51.51 0 0 1 .64.3.5.5 0 0 1-.3.64l-5.65 2a.51.51 0 0 1-.17.06z"/><path d="M57.63 93.92l-6.63 2.29zm.3-.64l2.29 6.61h.06zm13.44-4.77l2.35 6.6zm.34.94l-2.29-6.61zm-13.44 4.77l2.22 6.64h.13zm-.17-7a6.5 6.5 0 0 1 6.14 4.36l-13.24 4.65a7.49 7.49 0 0 0 7.07 5zm6.15 4.38a6.5 6.5 0 0 1-4 8.26l-4.61-13.19a7.5 7.5 0 0 0-4.64 9.54zm-4 8.25l13.44-4.77-4.69-13.17-13.41 4.77zm13.49-4.75a6.49 6.49 0 0 1-8.34-4l13.23-4.58a7.51 7.51 0 0 0-9.63-4.6zm-8.34-4a6.5 6.5 0 0 1 4-8.26l4.6 13.22a7.5 7.5 0 0 0 4.63-9.54zm4-8.25l-13.47 4.77 4.69 13.2 13.44-4.77zm-13.34 4.73a6.54 6.54 0 0 1 2-.33v14a7.66 7.66 0 0 0 2.39-.39z" class="cls-6"/><path d="M85 84.7a.5.5 0 0 1-.17-1l5.65-2a.51.51 0 0 1 .64.3.5.5 0 0 1-.3.64l-5.65 2a.51.51 0 0 1-.17.06zM45.84 122.94a.5.5 0 0 1-.21-1l5.45-2.52a.5.5 0 1 1 .42.9l-5.45 2.52a.41.41 0 0 1-.21.1zM63.5 114.79a.5.5 0 0 1-.21-1l12.21-5.59a.5.5 0 0 1 .42.9l-12.21 5.64a.54.54 0 0 1-.21.05zM87.92 103.51a.5.5 0 0 1-.21-1l5.45-2.51a.5.5 0 0 1 .42.9l-5.45 2.52a.54.54 0 0 1-.21.09z"/></svg>