<svg xmlns="http://www.w3.org/2000/svg" viewBox="0 0 24 30"><path fill="#ddd" d="M23.42,14a12.64,12.64,0,0,0-7.21-8l-.35-1.14a.86.86,0,0,0-1.08-.58l-.24.08a.85.85,0,0,0-.58,1A11.4,11.4,0,0,0,9.8,5.26L9,2.61l1.48-.46A1,1,0,0,0,11.09.94L11,.68A1,1,0,0,0,9.81,0L4,1.84A1,1,0,0,0,3.38,3l.09.27a1,1,0,0,0,1.2.63L6.08,3.5,6.9,6.15A12.35,12.35,0,0,0,.58,21.08a12.21,12.21,0,0,0,15.1,8.4A12.25,12.25,0,0,0,23.42,14Z"/><path fill="#ddd" d="M12.9,18.67a2.18,2.18,0,1,0-3.07-.27A2.2,2.2,0,0,0,12.9,18.67Z"/><path d="M11.5,19.33a2.33,2.33,0,0,1-1.74-3.89,2.33,2.33,0,0,1,3.29-.19.15.15,0,0,1,0,.21.16.16,0,0,1-.22,0,2,2,0,0,0-2.85.16,2,2,0,0,0,.17,2.87A2,2,0,0,0,13,18.34a.14.14,0,0,1,.21,0,.16.16,0,0,1,0,.22A2.35,2.35,0,0,1,11.5,19.33Z"/><path d="M9.46,10.31a.27.27,0,0,1-.25-.18l-1-3.33a.26.26,0,0,1,.17-.32.25.25,0,0,1,.31.17L9.7,10a.26.26,0,0,1-.17.32Z"/><path d="M14.6,27.33a.26.26,0,0,1-.24-.18l-1-3.32a.25.25,0,1,1,.48-.15l1,3.32a.26.26,0,0,1-.17.32Z"/><path d="M1.92,20.22a.25.25,0,0,1-.07-.49l3.31-1a.26.26,0,0,1,.32.16.26.26,0,0,1-.17.32L2,20.21Z"/><path d="M17.75,15.31a.25.25,0,0,1-.24-.18.25.25,0,0,1,.17-.32l3.31-1a.26.26,0,0,1,.32.17.27.27,0,0,1-.17.32l-3.31,1Z"/><path d="M15,10a.27.27,0,0,1-.12,0,.26.26,0,0,1-.11-.34l1-1.83a.26.26,0,0,1,.35-.11.26.26,0,0,1,.1.35l-1,1.83A.25.25,0,0,1,15,10Z"/><path d="M7,26.06a.27.27,0,0,1-.12,0,.26.26,0,0,1-.1-.35l1-1.83a.25.25,0,0,1,.34-.1.25.25,0,0,1,.11.34l-1,1.83A.27.27,0,0,1,7,26.06Z"/><path d="M4.55,13.22a.27.27,0,0,1-.12,0l-1.82-1a.26.26,0,0,1-.11-.35.25.25,0,0,1,.34-.1l1.83,1a.26.26,0,0,1-.12.48Z"/><path d="M20.19,22a.27.27,0,0,1-.12,0l-1.82-1a.26.26,0,0,1-.11-.35.25.25,0,0,1,.34-.1l1.82,1a.25.25,0,0,1,.11.35A.26.26,0,0,1,20.19,22Z"/><path fill="#fff" d="M18.25,18.12h0l-6.74-.87a.26.26,0,0,1-.22-.29.25.25,0,0,1,.28-.22l6.75.88a.25.25,0,0,1,.22.28A.26.26,0,0,1,18.25,18.12Z"/></g></g></svg>