<svg width="49" height="54" viewBox="0 0 49 54" fill="none" xmlns="http://www.w3.org/2000/svg">
<path d="M0 52.6019H36.8768V53.9983H0V52.6019ZM42.3114 12.501C44.2231 16.034 39.9769 19.432 36.905 17.2489L30.5874 22.7974L29.1689 21.2101C25.7964 17.4351 25.4441 12.0309 27.9336 7.92073C26.4446 9.33578 17.802 17.5514 15.4957 19.7392C16.8015 21.9502 16.0828 24.7431 13.9128 26.0929L19.8828 43.5902C21.3483 43.7066 22.7809 43.9905 24.1571 44.4281L24.6597 43.3947C25.1623 42.3614 26.4211 41.9238 27.4686 42.4219C28.6898 43.0084 29.4319 43.2085 29.7842 44.2047C30.1365 45.2008 29.6715 45.8431 29.1736 46.8672C30.6485 47.8819 31.9919 49.1061 33.152 50.5258L32.0576 51.4056C24.9697 42.7431 11.6629 42.757 4.58905 51.4102L3.49463 50.5305C6.48668 46.8718 10.6718 44.4979 15.2749 43.7625L9.32841 26.3443C4.73936 24.1333 6.43031 17.2396 11.5595 17.4071L25.9091 3.76402C26.1534 2.20933 27.478 1.03632 29.0844 0.999085C30.7753 0.966502 31.4752 1.93935 33.0487 3.43353C37.464 1.48318 42.8327 2.4793 46.2052 6.25432L47.6238 7.8416L42.3114 12.501ZM27.8631 5.61662L28.8871 6.58481C29.7232 5.57472 30.672 4.76945 31.7382 4.12244L30.4653 2.9122C30.1036 2.56774 29.6198 2.39086 29.1219 2.39552C28.6193 2.40948 28.1496 2.61429 27.8021 2.97271C27.0834 3.72212 27.1116 4.90444 27.8631 5.61662ZM13.2223 17.7609C13.739 17.975 14.2087 18.2776 14.6126 18.65C17.1068 16.2807 26.0266 7.7997 27.0787 6.80358C26.656 6.40793 26.3647 6.09606 26.1205 5.5049L13.2223 17.7609ZM25.4958 44.9029C26.3507 45.2473 27.1773 45.6569 27.9758 46.1224C28.3422 45.373 28.5959 45.0704 28.4549 44.6701C28.3093 44.2559 27.8913 44.1767 26.8579 43.6833C26.1017 43.3202 25.8387 44.1953 25.4958 44.9029ZM12.6211 26.6562C12.0104 26.8191 11.4891 26.8424 10.9724 26.8005L16.7028 43.5995C17.29 43.5483 17.7973 43.5251 18.375 43.5251L12.6211 26.6562ZM14.7395 22.1085C14.7395 20.2791 13.2411 18.7943 11.3951 18.7943C9.54918 18.7943 8.05081 20.2791 8.05081 22.1085C8.05081 23.9378 9.54918 25.4227 11.3951 25.4227C13.2411 25.4227 14.7395 23.9331 14.7395 22.1085ZM28.516 17.584L42.8703 5.30009C34.6081 0.324144 24.7489 8.75859 28.516 17.584ZM30.7095 20.8237L45.6369 7.72057C45.0732 7.08752 44.8102 6.76169 44.0493 6.13795L29.1783 18.8594C29.7373 19.7718 30.1506 20.2 30.7095 20.8237ZM41.2122 13.4646L38.0088 16.276C39.8736 17.2349 41.9262 15.4242 41.2122 13.4646ZM46.3086 14.591V15.9874H49V14.591H46.3086ZM40.0521 21.387H38.6429V24.0542H40.0521V21.387ZM43.3118 19.6461L45.2141 21.5313L46.2099 20.5445L44.3076 18.6593L43.3118 19.6461ZM39.3475 53.9983H41.9074V52.6019H39.3475V53.9983ZM10.5121 22.1085C10.5121 23.2675 12.2829 23.2675 12.2829 22.1085C12.2829 20.9494 10.5074 20.9494 10.5121 22.1085Z" fill="black"/>
</svg>
