<svg width="43" height="47" viewBox="0 0 43 47" fill="none" xmlns="http://www.w3.org/2000/svg">
<path d="M35.4392 42.995C34.2933 42.995 33.226 42.5387 32.4277 41.714L30.7192 39.9474C29.9332 39.1353 29.5071 38.0594 29.5196 36.9207C29.532 35.7821 29.9829 34.7146 30.7854 33.9192L30.8805 33.8229C31.6748 33.0401 32.7172 32.6089 33.83 32.6089C34.9759 32.6089 36.0431 33.0652 36.8415 33.8899L38.55 35.6565C39.336 36.4686 39.762 37.5445 39.7496 38.6873C39.7372 39.826 39.2863 40.8935 38.4838 41.6889L38.3887 41.7852C37.5944 42.5638 36.5478 42.995 35.4392 42.995ZM33.8259 33.8648C33.044 33.8648 32.3036 34.1704 31.7451 34.7229L31.65 34.8192C31.0832 35.3802 30.7647 36.1337 30.7564 36.9375C30.7482 37.7412 31.0501 38.4989 31.6045 39.0725L33.3129 40.8391C33.8755 41.421 34.6325 41.7433 35.4392 41.7433C36.221 41.7433 36.9615 41.4377 37.5199 40.8851L37.6151 40.7888C38.1818 40.2279 38.5003 39.4743 38.5086 38.6706C38.5169 37.8668 38.2149 37.1049 37.6606 36.5356L35.9521 34.769C35.3895 34.1871 34.6325 33.8648 33.8259 33.8648Z" fill="black"/>
<path d="M35.4392 46.1095C35.4102 46.1095 35.3854 46.1095 35.3606 46.1095C33.4122 46.0885 31.592 45.3015 30.231 43.8949L28.5226 42.1283C26.2681 39.7966 25.8048 36.3011 27.3229 33.467L23.5751 29.557L24.4645 28.6821L28.8783 33.2911L28.6177 33.7098C27.1161 36.1169 27.4429 39.2189 29.4078 41.2492L31.1163 43.0158C32.2456 44.1838 33.7596 44.8368 35.373 44.8536C36.9821 44.8661 38.5127 44.2508 39.6669 43.1079L39.7661 43.0116C42.1489 40.6506 42.1903 36.7699 39.8572 34.3586L38.1487 32.592C36.2169 30.5952 33.1971 30.1766 30.806 31.579L30.3882 31.8218L24.0177 25.2368L24.903 24.3577L30.6116 30.2603C33.4204 28.8579 36.8208 29.423 39.034 31.7129L40.7424 33.4795C43.5554 36.3848 43.5057 41.065 40.6307 43.9117L40.5314 44.008C39.1622 45.3643 37.3544 46.1095 35.4392 46.1095Z" fill="black"/>
<path d="M19.1199 24.9939L18.5821 24.4372L15.1693 22.3943C13.7463 21.5403 12.5177 20.3472 11.62 18.9406L0.996948 2.30022L2.31242 0.998291L22.33 21.6952L21.4447 22.5743L3.71063 4.24264L12.6625 18.2624C13.4567 19.5057 14.5405 20.5607 15.8022 21.3142L19.3557 23.4408L20.0093 24.1148L19.1199 24.9939Z" fill="black"/>
<path d="M8.55884 42.9948C7.4502 42.9948 6.40361 42.5636 5.6135 41.7808L5.51836 41.6845C4.71583 40.8891 4.26493 39.8216 4.25252 38.6829C4.24011 37.5443 4.66619 36.4684 5.45217 35.6521L7.16063 33.8855C7.95901 33.0608 9.03042 32.6045 10.1722 32.6045C11.2808 32.6045 12.3274 33.0357 13.1175 33.8185L13.2126 33.9148C14.0152 34.7102 14.4661 35.7777 14.4785 36.9163C14.4909 38.055 14.0648 39.1309 13.2788 39.943L11.5704 41.7096C10.772 42.5427 9.70057 42.9948 8.55884 42.9948ZM10.168 33.8646C9.36136 33.8646 8.60434 34.1869 8.04175 34.7688L6.33329 36.5354C5.77897 37.1089 5.47699 37.8666 5.48526 38.6704C5.49353 39.4741 5.81206 40.2277 6.37879 40.7886L6.47393 40.8849C7.03239 41.4375 7.76872 41.7431 8.55056 41.7431C9.35722 41.7431 10.1142 41.4207 10.6768 40.8389L12.3853 39.0723C12.9396 38.4987 13.2416 37.741 13.2333 36.9373C13.225 36.1335 12.9065 35.38 12.3398 34.819L12.2446 34.7227C11.6903 34.1702 10.954 33.8646 10.168 33.8646Z" fill="black"/>
<path d="M8.55882 46.1052C6.71799 46.1052 4.87715 45.4061 3.4624 44.0037L3.36725 43.9074C0.496378 41.0608 0.446738 36.3847 3.25556 33.4753L4.14082 34.3544C1.80772 36.7657 1.84908 40.6505 4.23183 43.0116L4.32697 43.1079C6.70972 45.4689 10.5486 45.427 12.8775 43.0158L14.586 41.2492C16.5509 39.2146 16.8777 36.1168 15.3761 33.7097L15.1155 33.2911L24.6382 23.445L28.1916 21.3184C29.4492 20.5649 30.5372 19.5099 31.3314 18.2666L40.2832 4.24264L37.2221 7.40745L36.3368 6.52834L41.6814 0.998291L42.9969 2.30022L32.3739 18.9448C31.4762 20.3514 30.2476 21.5444 28.8246 22.3984L25.4118 24.4413L16.6792 33.4711C18.1974 36.3052 17.7299 39.7965 15.4754 42.1283L13.7669 43.8949C12.3439 45.3684 10.4493 46.1052 8.55882 46.1052Z" fill="black"/>
<path d="M26.8927 18.0866L26.0074 17.2075L27.1657 16.0102L28.051 16.8893L26.8927 18.0866ZM29.2093 15.692L28.3199 14.8129L29.4781 13.6157L30.3634 14.4948L29.2093 15.692ZM31.5217 13.3017L30.6364 12.4226L31.7947 11.2253L32.68 12.1044L31.5217 13.3017ZM33.8382 10.9071L32.953 10.028L34.1113 8.83076L34.9965 9.70988L33.8382 10.9071ZM36.1507 8.51261L35.2654 7.63349L36.3327 6.52832L37.2179 7.40743L36.1507 8.51261Z" fill="black"/>
<path d="M5.84516 32.592L4.9599 31.7129C7.17304 29.423 10.5734 28.8578 13.3822 30.2602L26.0033 17.2117L26.8886 18.0908L13.6098 31.8217L13.192 31.5789C10.7968 30.1765 7.777 30.5951 5.84516 32.592Z" fill="black"/>
</svg>
