<svg width="24" height="15" viewBox="0 0 24 15" fill="none" xmlns="http://www.w3.org/2000/svg">
<path d="M19.9157 9.02361C19.5277 8.53361 19.6387 8.31561 19.9157 7.87761C19.9207 7.87261 23.1238 3.44661 23.4538 1.94561L23.4558 1.94461C23.6198 1.39761 23.4558 0.995605 22.6628 0.995605H20.0387C19.3707 0.995605 19.0627 1.34061 18.8977 1.72661C18.8977 1.72661 17.5616 4.92461 15.6715 6.99761C15.0615 7.59661 14.7795 7.78861 14.4465 7.78861C14.2825 7.78861 14.0275 7.59661 14.0275 7.04961V1.94461C14.0275 1.28861 13.8405 0.995605 13.2875 0.995605H9.16132C8.7423 0.995605 8.49329 1.30161 8.49329 1.58661C8.49329 2.20861 9.43833 2.35161 9.53633 4.10161V7.89861C9.53633 8.73061 9.38533 8.88361 9.05031 8.88361C8.15828 8.88361 5.99321 5.67261 4.71016 1.99761C4.45115 1.28461 4.19815 0.996605 3.52512 0.996605H0.900031C0.151005 0.996605 0 1.34161 0 1.72761C0 2.40961 0.892031 5.80061 4.14814 10.2806C6.31822 13.3386 9.37433 14.9956 12.1544 14.9956C13.8255 14.9956 14.0295 14.6276 14.0295 13.9946C14.0295 11.0726 13.8785 10.7966 14.7155 10.7966C15.1035 10.7966 15.7715 10.9886 17.3316 12.4636C19.1147 14.2126 19.4077 14.9956 20.4057 14.9956H23.0298C23.7778 14.9956 24.1568 14.6276 23.9388 13.9016C23.4398 12.3746 20.0677 9.23361 19.9157 9.02361Z" fill="#DDDDDD"/>
</svg>
