<svg xmlns="http://www.w3.org/2000/svg"><symbol id="icon_arrow-right" viewBox="0 0 21.6 6.15"><path d="M17.12 0l-.79 1.02 2.35 1.7L0 2.65v1l18.66.07-2.21 1.41.57 1.02 4.58-2.92L17.12 0z"/></symbol><symbol id="icon_clock" viewBox="0 0 24 30"><path fill="#ddd" d="M23.42 14a12.64 12.64 0 00-7.21-8l-.35-1.14a.86.86 0 00-1.08-.58l-.24.08a.85.85 0 00-.58 1 11.4 11.4 0 00-4.16-.1L9 2.61l1.48-.46a1 1 0 00.61-1.21L11 .68A1 1 0 009.81 0L4 1.84A1 1 0 003.38 3l.09.27a1 1 0 001.2.63l1.41-.4.82 2.65A12.35 12.35 0 00.58 21.08a12.21 12.21 0 0015.1 8.4A12.25 12.25 0 0023.42 14z"/><path fill="#ddd" d="M12.9 18.67a2.18 2.18 0 10-3.07-.27 2.2 2.2 0 003.07.27z"/><path d="M11.5 19.33a2.33 2.33 0 01-1.74-3.89 2.33 2.33 0 013.29-.19.15.15 0 010 .21.16.16 0 01-.22 0 2 2 0 00-2.85.16 2 2 0 00.17 2.87 2 2 0 002.85-.15.14.14 0 01.21 0 .16.16 0 010 .22 2.35 2.35 0 01-1.71.77zm-2.04-9.02a.27.27 0 01-.25-.18l-1-3.33a.26.26 0 01.17-.32.25.25 0 01.31.17L9.7 10a.26.26 0 01-.17.32zm5.14 17.02a.26.26 0 01-.24-.18l-1-3.32a.25.25 0 11.48-.15l1 3.32a.26.26 0 01-.17.32zM1.92 20.22a.25.25 0 01-.07-.49l3.31-1a.26.26 0 01.32.16.26.26 0 01-.17.32l-3.31 1zm15.83-4.91a.25.25 0 01-.24-.18.25.25 0 01.17-.32l3.31-1a.26.26 0 01.32.17.27.27 0 01-.17.32l-3.31 1zM15 10a.27.27 0 01-.12 0 .26.26 0 01-.11-.34l1-1.83a.26.26 0 01.35-.11.26.26 0 01.1.35l-1 1.83a.25.25 0 01-.22.1zM7 26.06a.27.27 0 01-.12 0 .26.26 0 01-.1-.35l1-1.83a.25.25 0 01.34-.1.25.25 0 01.11.34l-1 1.83a.27.27 0 01-.23.11zM4.55 13.22a.27.27 0 01-.12 0l-1.82-1a.26.26 0 01-.11-.35.25.25 0 01.34-.1l1.83 1a.26.26 0 01-.12.48zM20.19 22a.27.27 0 01-.12 0l-1.82-1a.26.26 0 01-.11-.35.25.25 0 01.34-.1l1.82 1a.25.25 0 01.11.35.26.26 0 01-.22.1z"/><path fill="#fff" d="M18.25 18.12l-6.74-.87a.26.26 0 01-.22-.29.25.25 0 01.28-.22l6.75.88a.25.25 0 01.22.28.26.26 0 01-.29.22z"/></symbol><symbol id="icon_close" viewBox="0 0 24 24"><path d="M24 2.42L21.58 0 12 9.58 2.42 0 0 2.42 9.58 12 0 21.58 2.42 24 12 14.42 21.58 24 24 21.58 14.42 12z"/></symbol><symbol id="icon_letter" viewBox="0 0 21 17"><path d="M20.206.996H0V16.87h20.206V.996z" fill="#DDD"/><path d="M10.05 10.521L.779 2.441l.663-.912 8.626 7.516 9.069-7.524.642.928-9.73 8.072z" stroke="#DDD" stroke-width=".5"/></symbol><symbol id="icon_result-1" viewBox="0 0 49 54"><path d="M0 52.602h36.877v1.396H0v-1.396zM42.311 12.5c1.912 3.533-2.334 6.931-5.406 4.748l-6.318 5.548-1.418-1.587a11.218 11.218 0 01-1.235-13.29c-1.49 1.416-10.132 9.631-12.438 11.82 1.306 2.21.587 5.003-1.583 6.353l5.97 17.497a19.1 19.1 0 014.274.838l.503-1.033a2.117 2.117 0 012.809-.973c1.22.586 1.963.787 2.315 1.783.353.996-.112 1.638-.61 2.662a19.144 19.144 0 013.978 3.659l-1.094.88c-7.088-8.663-20.395-8.649-27.469.004l-1.094-.88a19.062 19.062 0 0111.78-6.767L9.328 26.344c-4.589-2.21-2.898-9.104 2.232-8.937L25.91 3.764A3.28 3.28 0 0129.083.999c1.691-.032 2.391.94 3.965 2.435 4.415-1.95 9.784-.955 13.156 2.82l1.419 1.588L42.31 12.5zM27.863 5.617l1.024.968a11.204 11.204 0 012.851-2.463l-1.273-1.21a1.913 1.913 0 00-1.343-.516 1.902 1.902 0 00-1.32.577c-.719.75-.69 1.931.061 2.644zM13.223 17.76c.516.214.986.517 1.39.889C17.107 16.28 26.027 7.8 27.079 6.804c-.423-.396-.714-.708-.959-1.3L13.223 17.762zm12.273 27.142a19 19 0 012.48 1.22c.366-.75.62-1.053.479-1.453-.146-.414-.564-.493-1.597-.987-.756-.363-1.02.512-1.362 1.22zM12.62 26.656a4.687 4.687 0 01-1.649.145l5.73 16.799a18.42 18.42 0 011.673-.075L12.62 26.656zm2.118-4.547c0-1.83-1.498-3.315-3.344-3.315-1.846 0-3.344 1.485-3.344 3.314 0 1.83 1.498 3.315 3.344 3.315 1.846 0 3.345-1.49 3.345-3.314zm13.777-4.525L42.87 5.3C34.608.324 24.75 8.76 28.516 17.584zm2.194 3.24L45.636 7.72c-.564-.633-.827-.96-1.588-1.583L29.18 18.859c.558.913.972 1.341 1.53 1.965zm10.502-7.36l-3.203 2.812c1.865.959 3.917-.852 3.203-2.811zm5.097 1.127v1.396H49v-1.396h-2.691zm-6.257 6.796h-1.41v2.667h1.41v-2.667zm3.26-1.74l1.902 1.884.996-.986-1.902-1.886-.996.987zm-3.965 34.351h2.56v-1.396h-2.56v1.396zm-28.835-31.89c0 1.16 1.77 1.16 1.77 0 0-1.159-1.775-1.159-1.77 0z"/></symbol><symbol id="icon_result-2" viewBox="0 0 43 47"><path d="M35.44 42.995a4.157 4.157 0 01-3.012-1.281l-1.709-1.767a4.258 4.258 0 01-1.2-3.026 4.268 4.268 0 011.266-3.002l.096-.096a4.171 4.171 0 012.949-1.214 4.16 4.16 0 013.012 1.28l1.708 1.767a4.26 4.26 0 011.2 3.031 4.268 4.268 0 01-1.266 3.002l-.095.096a4.192 4.192 0 01-2.95 1.21zm-1.614-9.13a2.94 2.94 0 00-2.08.858l-.096.096a3.007 3.007 0 00-.894 2.118 3.008 3.008 0 00.849 2.136l1.708 1.766a2.94 2.94 0 002.126.904c.782 0 1.523-.305 2.08-.858l.096-.096a3.01 3.01 0 00.894-2.118 3 3 0 00-.848-2.135l-1.709-1.767a2.938 2.938 0 00-2.126-.904z"/><path d="M35.44 46.11h-.08a7.197 7.197 0 01-5.129-2.215l-1.708-1.767a7.41 7.41 0 01-1.2-8.661l-3.748-3.91.89-.875 4.413 4.61-.26.418a6.147 6.147 0 00.79 7.54l1.708 1.766a6 6 0 008.55.092l.1-.096c2.383-2.361 2.424-6.242.091-8.653l-1.708-1.767a5.982 5.982 0 00-7.343-1.013l-.418.243-6.37-6.585.885-.88 5.709 5.903a7.212 7.212 0 018.422 1.453l1.708 1.767c2.813 2.905 2.764 7.585-.111 10.432l-.1.096a7.193 7.193 0 01-5.092 2.101zM19.12 24.994l-.538-.557-3.413-2.043a10.866 10.866 0 01-3.549-3.453L.997 2.3 2.312.997 22.33 21.695l-.885.88L3.71 4.242l8.951 14.02a9.565 9.565 0 003.14 3.051l3.554 2.127.653.674-.89.879zM8.559 42.995a4.161 4.161 0 01-2.945-1.214l-.096-.096a4.268 4.268 0 01-1.265-3.002 4.275 4.275 0 011.2-3.03l1.708-1.767a4.164 4.164 0 013.011-1.282 4.16 4.16 0 012.945 1.215l.096.096a4.268 4.268 0 011.266 3.001 4.258 4.258 0 01-1.2 3.027L11.57 41.71a4.135 4.135 0 01-3.011 1.285zm1.609-9.13c-.807 0-1.564.322-2.126.904l-1.709 1.766a3.008 3.008 0 00-.848 2.135c.009.804.327 1.558.894 2.119l.095.096a2.935 2.935 0 002.077.858 2.94 2.94 0 002.126-.904l1.708-1.767a3.008 3.008 0 00.848-2.135 3.008 3.008 0 00-.893-2.118l-.095-.096a2.921 2.921 0 00-2.077-.858z"/><path d="M8.559 46.105a7.217 7.217 0 01-5.097-2.101l-.095-.097c-2.87-2.846-2.92-7.522-.111-10.432l.885.88c-2.333 2.41-2.292 6.296.09 8.657l.096.096a6.002 6.002 0 008.55-.092l1.709-1.767a6.148 6.148 0 00.79-7.54l-.26-.418 9.522-9.846 3.554-2.127a9.605 9.605 0 003.14-3.051l8.951-14.024-3.06 3.164-.886-.879L41.68.998 42.997 2.3 32.374 18.945a10.866 10.866 0 01-3.55 3.453l-3.412 2.043-8.733 9.03a7.405 7.405 0 01-1.204 8.657l-1.708 1.767a7.219 7.219 0 01-5.208 2.21z"/><path d="M26.893 18.087l-.886-.88 1.159-1.197.885.88-1.158 1.197zm2.316-2.395l-.89-.88 1.16-1.196.884.879-1.154 1.197zm2.313-2.39l-.886-.88 1.159-1.197.885.88-1.158 1.197zm2.316-2.395l-.885-.879 1.158-1.197.886.879-1.159 1.197zm2.313-2.394l-.886-.88 1.068-1.105.885.88-1.067 1.105zM5.845 32.592l-.885-.88a7.212 7.212 0 018.422-1.452l12.621-13.048.886.879-13.28 13.73-.417-.242a5.987 5.987 0 00-7.347 1.013z"/></symbol><symbol id="icon_right-arrow" viewBox="0 0 8.99 16.01"><g id="Слой_2"><path d="M.93 0a1 1 0 00-.66.27.93.93 0 000 1.31L6.74 8 .27 14.43a.93.93 0 000 1.31.94.94 0 001.32 0l7.13-7.08a.93.93 0 000-1.31L1.59.27A.93.93 0 00.93 0z" id="Слой_1-2"/></g></symbol><symbol id="icon_vk" viewBox="0 0 24 15"><path d="M19.916 9.024c-.388-.49-.277-.708 0-1.146.005-.005 3.208-4.431 3.538-5.932l.002-.001c.164-.547 0-.95-.793-.95h-2.624c-.668 0-.976.346-1.141.732 0 0-1.336 3.198-3.226 5.27-.61.6-.893.792-1.226.792-.163 0-.418-.192-.418-.74V1.946c0-.656-.188-.95-.74-.95H9.16c-.419 0-.668.307-.668.592 0 .622.945.765 1.043 2.515V7.9c0 .832-.15.985-.486.985-.892 0-3.057-3.211-4.34-6.886C4.451 1.285 4.198.997 3.525.997H.9c-.749 0-.9.345-.9.73 0 .683.892 4.074 4.148 8.554 2.17 3.058 5.226 4.715 8.006 4.715 1.671 0 1.876-.368 1.876-1.001 0-2.922-.151-3.198.686-3.198.388 0 1.056.192 2.616 1.667 1.783 1.749 2.076 2.532 3.074 2.532h2.624c.748 0 1.127-.368.909-1.094-.5-1.527-3.871-4.668-4.023-4.878z" fill="#DDD"/></symbol></svg>