<svg xmlns="http://www.w3.org/2000/svg" viewBox="0 0 360.59 240"><defs><style>.cls-1{fill:#6374ff;}.cls-1,.cls-4{stroke:#000;}.cls-2{fill:#ffd240;}.cls-3{fill:#292929;}</style></defs><path d="M217.12,130.59a3.89,3.89,0,0,0,3.32-.5c12.69-7.81,25.67-87.42,26.2-90.8a.7.7,0,0,0-.43-.77c-23-8.84-45.49-8.83-65,0C160,48.15,143.37,67.67,133.1,95a.73.73,0,0,0,.36.9c.41.19,34.7,16.39,65.19,28.1C205.08,126.42,211.36,128.71,217.12,130.59ZM181.78,39.8c19-8.63,40.91-8.69,63.38-.18-1.21,7.3-13.85,82.1-25.46,89.25a2.47,2.47,0,0,1-2.15.37c-30.94-10.13-77.2-31.72-82.93-34.41C144.78,68.23,161.08,49.21,181.78,39.8Z"/><path d="M178.66,233.45a95.29,95.29,0,0,1-24-13.51c-18.1-14-30.39-33.81-35.52-57.25a.7.7,0,1,1,1.36-.31c10,45.5,48.61,76.71,94.12,76.1.06-4.4.48-29.22,1.74-52.93.32-6,.79-11.58,1.18-16.49,1.45-17.55,2.32-28.15-4.94-30.41-39.31-12.15-76.16-32.44-81.55-35.46-5.75,13-12.14,27.73-11.89,42.74a.71.71,0,0,1-.69.72.7.7,0,0,1-.71-.7c-.26-15.59,6.71-31.36,12.31-44a.72.72,0,0,1,.42-.38.67.67,0,0,1,.57.06c.4.23,39.75,22.69,81.94,35.72,8.37,2.58,7.45,13.62,5.93,31.87-.41,4.9-.88,10.46-1.19,16.44-1.38,26-1.75,53.28-1.75,53.56a.73.73,0,0,1-.69.71A97.1,97.1,0,0,1,178.66,233.45Z"/><path d="M229.52,240a.7.7,0,0,1-.44-.58c-.43-3.55-10.36-87.13,2.54-102.57a6.41,6.41,0,0,1,4.67-2.57c31.35-1.6,62.77-2.88,63.09-2.88a.7.7,0,0,1,0,1.4c-.32,0-31.74,1.28-63.08,2.89a5.07,5.07,0,0,0-3.68,2.07c-11.93,14.28-3.2,93-2.29,100.86a91.56,91.56,0,0,0,17.71-2.14c25.75-5.58,47.45-18.8,61.07-37.23,14.18-19.17,19-42.46,13.9-67.38l-16.11.8a.71.71,0,0,1-.08-1.42l16.7-.82a.69.69,0,0,1,.71.56c5.37,25.55.53,49.44-14,69.1-13.83,18.71-35.82,32.11-61.9,37.76A93.09,93.09,0,0,1,229.76,240,.51.51,0,0,1,229.52,240Z"/><path class="cls-1" d="M281.28,8.87c-.09.21-.2.48-.35.81l-1.55,3.55c-1.33,3.05-3.23,7.42-5.48,12.68-4.5,10.5-10.42,24.54-16.12,38.67S246.62,92.94,243,103.8a118.68,118.68,0,0,0-3.75,13.33,18.05,18.05,0,0,0-.43,3.89,3.28,3.28,0,0,0,.17,1c.09.21.18.28.25.31,6.49,2.68,16.25,3,27.58,1.92a276.66,276.66,0,0,0,36.58-6.66c12.49-3,24.68-6.5,34.78-9.51,3.44-1,6.65-2,9.54-2.87,5.26-1.59,9.49-2.87,12.25-3.6C350.56,57.44,323.11,25.1,281.28,8.87Z"/><path class="cls-2" d="M4,44.56C-8.16,67,18.73,145.54,32.45,177.1c7.8,17.92,28.07,53.39,38.49,57.64,9.64,3.94,116.18-29,117-41.78.72-11.06-23.12-120.43-28.07-181C157.37-19.08,15.58,23.08,4,44.56Z"/><path class="cls-3" d="M72.12,235.93a4.81,4.81,0,0,1-1.54-.32c-10.92-4.45-31.19-40.21-39-58.12C17.55,145.18-9.12,66.77,3.14,44.12c9.71-18,109.46-50.56,145-43,8,1.69,12.26,5.32,12.71,10.77,2.94,36.19,12.7,90.12,19.84,129.48,5,27.34,8.53,47.11,8.24,51.67-.14,2.18-2.52,4.68-7.26,7.65C159.09,214.84,86,237.06,72.12,235.93ZM4.79,45C-7.13,67.06,19.4,144.71,33.33,176.74c7.76,17.86,28.09,53.11,38,57.14a3.33,3.33,0,0,0,1.11.22c11.82,1,84.58-20.17,108.22-35,5.43-3.4,6.32-5.33,6.39-6.19.27-4.34-3.46-25-8.2-51.22C171.69,102.29,161.91,48.31,159,12c-.37-4.52-4.15-7.58-11.23-9.08C112.66-4.49,14.33,27.38,4.79,45Z"/><path class="cls-4" d="M41.91,105.55a1,1,0,0,1-.56-.26.92.92,0,0,1,0-1.32L62.38,81.38a.94.94,0,0,1,1.19-.15l37.57,24.61c2-3.42,9.35-16.49,16.78-29.54,4.31-7.61,8.63-15.19,11.89-20.89,3-5.33,4.51-7.89,5.32-9.07a.63.63,0,0,1,.08-.29l.11,0c.61-.8.8-.7,1.17-.52a1,1,0,0,1,.44,1.22.64.64,0,0,1-.13.22c-1.15,1.88-23,40.35-34.51,60.64a.86.86,0,0,1-.6.44A.87.87,0,0,1,101,108L63.21,83.24l-20.54,22A1,1,0,0,1,41.91,105.55Z"/><path class="cls-4" d="M138.61,57a.93.93,0,0,1-.86-1L139,40.68l-12.59,9.1a1,1,0,0,1-1.32-.22.94.94,0,0,1,.22-1.31L139.54,38a.91.91,0,0,1,1,0,.92.92,0,0,1,.48.89l-1.4,17.35A1,1,0,0,1,138.61,57Z"/><path d="M60,153.91a.91.91,0,0,1-.82-.69.93.93,0,0,1,.65-1.15l10.86-2.9a1,1,0,0,1,1.15.66.94.94,0,0,1-.66,1.15l-10.85,2.9A.93.93,0,0,1,60,153.91Z"/><path d="M148.36,130.34a.94.94,0,0,1-.17-1.85l10.86-2.9a1,1,0,0,1,1.15.66.94.94,0,0,1-.66,1.15l-10.86,2.91A1.73,1.73,0,0,1,148.36,130.34Z"/><path d="M69.48,196a.94.94,0,0,1-.8-.61.93.93,0,0,1,.55-1.2l10.56-3.89a.93.93,0,0,1,.65,1.75L69.88,196A.82.82,0,0,1,69.48,196Z"/><path d="M103.7,183.44a1,1,0,0,1-.8-.62.93.93,0,0,1,.55-1.2l23.66-8.7a.93.93,0,1,1,.65,1.75l-23.66,8.71A1.14,1.14,0,0,1,103.7,183.44Z"/><path d="M97.05,144.41a.94.94,0,0,1-.1-1.83l24.29-6.75a.93.93,0,1,1,.5,1.79l-24.28,6.76A1.15,1.15,0,0,1,97.05,144.41Z"/><path d="M151,166a.94.94,0,0,1-.25-1.81l10.56-3.89a.91.91,0,0,1,1.2.55.93.93,0,0,1-.55,1.2L151.42,166A1.14,1.14,0,0,1,151,166Z"/></svg>