<svg xmlns="http://www.w3.org/2000/svg" viewBox="0 0 200 155"><defs><style>.cls-1{fill:#010101;}.cls-2{fill:#ebecf2;}.cls-3{fill:#6374ff;}.cls-4{fill:#fff;}.cls-5{fill:#ffd240;}.cls-6{fill:#ff533d;}</style></defs><title>services-4</title><path class="cls-1" d="M58.71 103.85l-.56.1c-2.71-15.47-5.18-27.11-7-35.61-2-9.63-3.17-14.94-2.7-16.75.57-2.25 6.17-3.17 9.18-3.66l.38-.06c8-1.31 14.74-2.45 20.18-3.37 14-2.36 21.05-3.54 24.84-3.74s4.43.59 5 2.45a21.9 21.9 0 0 1 .76 3.2l-.55.09a20.55 20.55 0 0 0-.75-3.12c-.46-1.45-.72-2.25-4.45-2.06s-10.74 1.38-24.74 3.74c-5.44.92-12.22 2.06-20.17 3.37l-.39.06c-2.46.4-8.24 1.34-8.73 3.24-.43 1.69.75 7.26 2.71 16.5 1.8 8.49 4.28 20.14 6.99 35.62zM118.51 145.94l-1.47.24-.38.07c-8 1.31-14.73 2.45-20.18 3.36-14 2.36-21 3.55-24.84 3.75s-4.42-.6-5-2.45c-.48-1.5-.57-2-1.42-6.9-.42-2.47-1.07-6.2-2.07-11.8l.55-.1c1 5.6 1.65 9.33 2.08 11.81.84 4.84.93 5.35 1.4 6.81s.71 2.26 4.44 2.06 10.79-1.38 24.78-3.74c5.45-.91 12.22-2.05 20.18-3.36l.38-.07c2.47-.4 8.25-1.34 8.73-3.24.43-1.68-.75-7.25-2.7-16.49l-.16-.75.55-.11.16.75c2 9.63 3.16 14.93 2.7 16.74s-4.65 2.88-7.73 3.42zM78.72 51.61a1.75 1.75 0 0 1-.56 0 1.53 1.53 0 0 1-.73-.3 1.45 1.45 0 0 1-.55-1.3 2.26 2.26 0 0 1 .59-1.14 1.69 1.69 0 0 1 1.06-.59 1.51 1.51 0 0 1 1.22.37 1.47 1.47 0 0 1 .42.81 1.86 1.86 0 0 1-.45 1.6 1.79 1.79 0 0 1-1 .55zm-.1-2.78a1.17 1.17 0 0 0-.72.41 1.6 1.6 0 0 0-.45.84.85.85 0 0 0 .33.78 1 1 0 0 0 .47.2 1.28 1.28 0 0 0 1.07-.39 1.32 1.32 0 0 0 .32-1.11 1 1 0 0 0-.26-.51 1 1 0 0 0-.76-.22zM98 144.18l-3.57.63.1.56 3.57-.63z"/><path class="cls-2" d="M120.78 9.49l-20.48-2.9a32.92 32.92 0 0 0 2 4.77c-.63 1.81-1.45 3.73-2.06 5.52l-.2.55a18.55 18.55 0 0 1 5.1-1.07s-.1-.18 2.06 3.59c11.19-8.56 15.3-10 15.53-10.18zm-2.66.2c-4.23.33-12.34 1-15.39 1.28a38.59 38.59 0 0 1-1.59-3.69zm-16.61 6.69c.81-.71 1.65-1.25 2.5-2 .26.48.53 1 .81 1.45-.71.08-2.11.27-3.31.55zM107.64 48.45a4.91 4.91 0 0 1 .94-.21c-.07.07.28.11.74 0 .55-.25.68-.21 1.21-.41.36.14-.26.32-.78.46 0 0 .19-.09 0-.11a7.92 7.92 0 0 1-2.11.27zm8.3-.57h-.4.38zm-19.82 3.7zm20.07-3.65h.38a2.21 2.21 0 0 0-.38 0zm-36.85 21.32a1 1 0 0 1 .28-.28c-.15.03.38-1.03-.28.28zm36.6-21.25a.34.34 0 0 1 .25 0h-.27.02zm12.53 36.71c0-.41-.07-.83-.1-1.24l.1 1.21zm-30.55 33.43a1.2 1.2 0 0 0 .28.1zm29.82-38.35a3.49 3.49 0 0 0 0-.71.76.76 0 0 0-.07-.13c0 .28.03.56.07.84zm11.33 24.75l-.16-.37v-.07a2 2 0 0 1-.21-.39c.15.38.3.91.37.83zm-37.47 13.34c0 .12.09.26.16.42l-.16-.42zm24.48-43.56a.67.67 0 0 0-.06-.12 1.34 1.34 0 0 1 .06.12zm-24.32 44a1.19 1.19 0 0 0 .08.2l-.08-.22zm48-34.54c-.15.54-.06-1.29-.24-.82a39.48 39.48 0 0 1-.1 4.81 2.89 2.89 0 0 0 0-.35c-.25 1.67.2-.17 0 1.24-.07-.08-.1 0-.21.44l.08.43c0 .07-.13 0-.14-.17.12.92-.39 2.34-.31 3-.06.11-.14-.27-.24-.09a9.15 9.15 0 0 0-.36 1.74c-.33.71-.61 1.68-.55 1.44-.47 1.27 0 .24-.21 1.24l.22-.5.19-.5c-.16.62-.39 1.21-.6 1.81l.19-.74c-.35.76-.44 1.38-1 2.63l.28-.4c-.14.37-.27.74-.42 1.1-.23 0-.71 1.32-.63.64-2.21 4.15-.72 1.45-1.94 3.66a13.28 13.28 0 0 1-.74 1.18c.2-.28.09-.2.1-.27a11.31 11.31 0 0 0-.82 1.18 1.88 1.88 0 0 1-.17.27l-.69 1a5.67 5.67 0 0 0 .34-.63 23.58 23.58 0 0 0-1.42 2c-.08-.23-.2-.58-.38-1.15.25.56.2.23 0-.36 0 .18-.21-.3-.36-.74.43.77.24 0 .13-.51s-.24-.93 0-.68c-.11-.15-.9-2-.92-1.55a30.07 30.07 0 0 0-2.8-5.89c.2.2.66.87.4.37l-.23-.38-.07-.09a6.16 6.16 0 0 0-4.37-2.36c0-.07.14-.07.37 0a8.33 8.33 0 0 1 .85.19c.57.17 1.11.5 1.21.42a5.62 5.62 0 0 0-.78-.38l-.41-.13-.44-.11-.94-.2-.58-.13h-.30000000000000004l-.19-.34a15.68 15.68 0 0 1-1.53-4 2.23 2.23 0 0 0 0-.37 1.21 1.21 0 0 0 0-.19.31.31 0 0 0 0-.1 1 1 0 0 0 0-.17v-.19a2 2 0 0 1 0-.26l-.12-.57c0-.21-.08-.42-.11-.64v-.33a.58.58 0 0 1 0-.1v-.8800000000000001a5.38 5.38 0 0 1 .07-.69c-.14.19-.24-1.43-.25-1.59.12.31.06-.66.15-.4-.17-.79-.53-3.07-.31-3-.24-.15-.31-1.69-.62-2.32a31.63 31.63 0 0 0-1-3.31c0 .23-.11-.06-.26-.46s-.29-.75-.41-1l.11.17a15.54 15.54 0 0 0-.91-2c-.09-.31.17 0-.06-.46a16 16 0 0 1-1.44-2.17 1.67 1.67 0 0 0 .37.38c-1.85-2.43-5-5.37-8-6.11h.62a2.76 2.76 0 0 0-1.61-.41l-.48.07h-1.6400000000000001a5.58 5.58 0 0 0-.81.09l-.39.08h-.29a.82.82 0 0 1-.22 0h-.98a21.53 21.53 0 0 0-3.49.47 12.24 12.24 0 0 0-3.24 1.15 9.19 9.19 0 0 0-2.57 2.12c-.17.28.17-.1.27-.09-.33.29-.53.33-.72.72h.14c-1.99 1.77-2.83 5.23-3.55 6.46-.19 1-.35 1.77-.45 2.65a11.33 11.33 0 0 0 .08 3c0 .77-.22-.87-.17.16.1.75.22 1.49.36 2.24v-.12a35.5 35.5 0 0 1 .34 8.59c0-.07-.2.5-.26 1 0 .17.1-.13.19-.4a11.62 11.62 0 0 1-1.67 4.88c.34-.8-.46.65-.63.65-.19.49.27-.18-.26.84-.41.7-.81 1.35-1.22 2a10.56 10.56 0 0 0-1 1.81c0 .26-.11.55-.16.79s-.05.41 0 .45a7.78 7.78 0 0 0 .25 4.59v.06c.32.41.67 1.52 1.1 1.81l-.25-.08a5.23 5.23 0 0 0 .68.65c-.19-.13-.34-.22-.4-.2s0 .16.28.43c.71.45-.1-.21.26 0 0 .1 0 .2.08.29.51.36.76.31.2-.18a8.76 8.76 0 0 0 3.53 1.57v-.1a15.13 15.13 0 0 0 2.5.13 2.28 2.28 0 0 1 0 .26 1.11 1.11 0 0 0-.09-.19h-.17.14c.27 2.69.41 2.84.48 3.66 0 0 .16.27.16.09a2.43 2.43 0 0 1 .19.66.66.66 0 0 0 0 .38 5.32 5.32 0 0 0 .18.56 5.92 5.92 0 0 0-.36-.88c.28.89.65 1.86 1 2.86l-1.65-.57c-.07-.08-3.11-1.49-3.15-1.51s.21.22.48.36l-.7-.28-.44-.41c-.35-.09-.69-.24-1-.35l.06-.15c-.71-.35-1.1-.31-1.65-.65a18.44 18.44 0 0 1-2.83-2.35c-.38.16-2.16-1.69-2.6-1.79l-.62-.66a43.55 43.55 0 0 1-5-5.78l.17.18c-.67-1.21-1-.91-1.72-2.26l.22.27c-.87-1.54-2.33-4.27-3.1-5.78.19.3.19.11 0-.4s0 .5-.33-.42c.11.21.11 0 0-.19l-.46-.83a60.4 60.4 0 0 1-1.61-7.7c0-.47.1-.14.17 0a35.52 35.52 0 0 1-.39-5.81l.19-.17a2.12 2.12 0 0 0-.08-.76 2 2 0 0 1 .08-1c.06-.25-.07.76 0 1.08a5.82 5.82 0 0 0 .09-1.4 3.38 3.38 0 0 1 0-.82c0-.15 0-.32.07-.53l.13.46a3.82 3.82 0 0 0 .09-2c.14-1.85.61-1.2 1.1-3.64l-.16-.33a34.24 34.24 0 0 1 1.24-3.53c.64-.75-.35.83.31 0-.19.4-.4.79-.57 1.21.54-1-.32 1-.09.89l1.09-3.12c.11 0-.51 1.21-.14.8l.18-.55a1.5 1.5 0 0 1-.13.52c.18-.13.26-.58.51-1.11 0-.07-.15-.08-.31 0a.37.37 0 0 0 .1-.11 31.25 31.25 0 0 1 1.74-3.62h.08c.23-.37.76-1.52 1.08-2.06.38-.35.08.4.91-.81.07-.28-.48.11.24-.83-.1.16-.51.84-.15.47.69-1 .28-.28 1.07-1.06.28-.61.83-.87.72-1.15.4-.17.27-.14.88-.62l.76-1.2c.35-.09-.74 1.08.1.51a10.55 10.55 0 0 1 .79-1c.26-.32.47-.6.44-.71.42-.32.67-.4 1.3-.91a1 1 0 0 0-.25.27c.92-1 2.94-2.24 3.39-2.82 0 .2.62-.19 1.19-.53s1.07-.6.66-.22a12.28 12.28 0 0 0 1.45-1c.05.24 1.43-.64 2-.74a12 12 0 0 1 1.87-.93c-.27.13-.4.22-.28.24.66-.34.52-.19 1.15-.3.91-.4-.24-.12.3-.41.85-.21.17.1.35.14l1.16-.61a1.09 1.09 0 0 1 .57 0 3.67 3.67 0 0 1 1.41-.42l-1.07.28h.44c.4-.15.18-.09 1.25-.44a2.87 2.87 0 0 1 1.33 0l.7-.16-.3.22a1.77 1.77 0 0 1-.34 0 .67.67 0 0 1-.12.26 36.09 36.09 0 0 1 9-.48l.4-.14c-1.21-.12-3 .2-3.52-.09h.58s-.4-.23-1.19-.09c-.19 0-.33.12-.22.15h-.44a11.9 11.9 0 0 1 2.69-.27c-.3.06-1 .11-.79.2.82-.06 1.61-.11 2.41-.11a3.09 3.09 0 0 0-.69.17 2 2 0 0 0 .75 0 1.77 1.77 0 0 1 .59 0c.25.09.42.14.25.17a9.2 9.2 0 0 1 2.38.31s-.78 0-.61.06c1.69.25 2.37.13 3.85.44.26 0 .51.08.76.13a6.38 6.38 0 0 1 .72.19c1.64.53 2.87 1.16 3.64 1.37.1 0-.94-.52-.07-.2-.19.06.49.29.5.36a16.76 16.76 0 0 1 2 .85c-.17 0 .33.28.65.51-.18.08.94.57-.45.09a8 8 0 0 1 1 .41 14.17 14.17 0 0 0 2.48 1.41l-.29-.26 1.21.91h-.05a7.31 7.31 0 0 1 1.22 1.08c-.32-.19-.76-.51-1.09-.7.54.56 1.28.8 2.1 1.46-.1.06-.74-.55-.63-.28.48.42 1 .68 1.41 1h-.11c1.05 1.14.72.18 1.36 1.11h.11c.26.35.88 1.12.12.49a11.48 11.48 0 0 0 1.1.94c-.25-.4-.36-.46-.39-.66 1.85 1.8 1.82 2 1.17 1.25 1.44 2.19 3.43 3.81 4.56 6.71-.06-.33.19.15.39.36a26.49 26.49 0 0 1 1.32 3l-.17-.23a25 25 0 0 1 1.88 4.82c.05.06-.1 0-.19-.24.45 1.17.28 2.4.61 2.64l-.06-.4a40.08 40.08 0 0 1 .96 6.76zm-8-21.39l.48.63.07-.1c-.31-.39-.44-.53-.52-.55zm-19.48-12.97l.89.25-.26-.21a3.63 3.63 0 0 0-.63-.04zm-6.48-1.1l1.15.11s-.07-.11-.22-.16zm-39.12 41.68c.06.38.1.74.16 1 0-.36-.07-.93 0-.8-.06-.2-.12-.29-.16-.2zm35-41.9zm-27.9 13.46zm12 55.58l-.2-.07zm42.74-58.89a.72.72 0 0 0-.1-.15.58.58 0 0 0 .06.15zm-4.38-3.67l-.64-.49zm-3.71-2.36a.13.13 0 0 0-.1 0h.06zm8.31 51.49l-.06-.16c-.2-.36-.1-.11.02.16zm9.51-9.71a5 5 0 0 1-.11.66c.13-.35.19-.66.11-.66zm-19.77-9.18a.66.66 0 0 1 0-.14zm19.66 9.84c-.1.29-.22.62-.29.92a6.35 6.35 0 0 0 .29-.92zm-36.35-46.89h.24zm0 0h-.23a.9.9 0 0 0 .21.03zm-.73.09l.5-.06a1.46 1.46 0 0 0-.56.09zm6.8.25h.07a.07.07 0 0 0-.09.03zm.13-.08h-.06c.28 0 1.27.32 1.68.3a13.7 13.7 0 0 0-1.61-.27zm31.69 37.05l.1-.59c0-.1-.08-.19-.13-.29l.01.91z"/><path class="cls-3" d="M108.82 98.83c-6.72 6.37-12.15 10-6.59 22.93 0 0 15.56 3.89 26.8-2.44l11.66-9.79s-1.81-12.2-7.95-13.78a65.76 65.76 0 0 0-8.17-1.75s1.86 5.89-3 9.86a31.62 31.62 0 0 1-12.75-5.03z"/><path class="cls-4" d="M135.84 98.34c-1.08.34-1 1.58-.24 1.82a1 1 0 0 0 1.53.48 1.34 1.34 0 0 0-1.29-2.3zM127 103.35l-.05.05h-.06.07a.85.85 0 0 0-.27.18l-.09.06a1 1 0 0 0-.34.93.92.92 0 0 0 .61.79 1 1 0 0 0 1-.21 1 1 0 0 0 .33-.9.84.84 0 0 0 0-.27v.06-.14a.49.49 0 0 0 0-.12.7.7 0 0 0-1.2-.43zM120.2 108.92a1 1 0 0 0-.72-.71.93.93 0 0 0-.92 1.5.84.84 0 0 0 1.36.65 1.33 1.33 0 0 0 .39-.76 1.24 1.24 0 0 0-.11-.68zM114.1 116.57a.14.14 0 0 0 0-.07 1 1 0 0 0-.3-.35.92.92 0 0 0-1.1 0 1 1 0 0 0-.3.52 1.16 1.16 0 0 0 0 .18 1.06 1.06 0 0 0 .09.53 1 1 0 0 0 1 .53.93.93 0 0 0 .62-1.39zM104.47 112a1 1 0 0 0-.11 1.32.89.89 0 0 0 .3.22v.1a.69.69 0 0 0 1.27-.06 1.23 1.23 0 0 0 .07-.58.83.83 0 0 0 0-.15.94.94 0 0 0-1.53-.85zM112.3 106.47a1 1 0 0 0-.73-.14 1.2 1.2 0 0 0-1 1.71.9.9 0 0 0 .45.45 1 1 0 0 0 1 0 .72.72 0 0 0 .43-.16 1.13 1.13 0 0 0-.15-1.86zM102.89 104.82a1 1 0 0 0 .44 1.81 1 1 0 0 0 1-.64 1 1 0 0 0-1.44-1.17zM126.89 95.25a1.32 1.32 0 0 0 .46 2.6 1.32 1.32 0 0 0-.46-2.6zM133.32 108.44a.61.61 0 0 0-.25-.38.76.76 0 0 0-.8-.12.73.73 0 0 0 0 1.32.72.72 0 0 0 1-.28c.06 0 .06-.08.06-.13a.84.84 0 0 0-.01-.41zM122.25 117h-.13a.85.85 0 0 0-.79.37.86.86 0 0 0-.15.64.89.89 0 0 0 .36.56.85.85 0 0 0 .87.07l.12-.06a.82.82 0 0 0-.28-1.55zM85.76 81c-.42.19-.13.81.29.71 3.58-.81 6.63-3 11-5.4.07-.44.16-.89.26-1.38a2.12 2.12 0 0 1 .11-.21c-2.7 1.47-5.61 3.48-11.66 6.28zM77.53 74.88c4.16-.59 7.39-.31 8.5-.76a.17.17 0 0 0 0-.31 9.34 9.34 0 0 0-3.34-.21c-1.14 0-2.29.05-3.43.12-.57 0-1.14.09-1.71.16-.01.35.36-.44-.02 1zM87.13 85.75a14 14 0 0 0-2.13 2.55c-.77 1-1.53 2-2.28 3.08a35.5 35.5 0 0 0-3.85 5.94c-.08.19.2.4.35.25a58.88 58.88 0 0 0 4.28-5.64c.72-1 1.45-1.93 2.18-2.88a16.75 16.75 0 0 0 2.08-2.83c.24-.4-.32-.72-.63-.47zM129.64 51.73a3.6 3.6 0 0 1-.82-.37c-1.68 1.15-3.33 2.34-5 3.5a52.35 52.35 0 0 0-6.63 4.81.26.26 0 0 0 .28.43 50.6 50.6 0 0 0 6.79-4.37c1.87-1.26 3.76-2.49 5.61-3.78-.19-.14-.33-.24-.23-.22zM130.46 59.62c-.07-.19-.33-.11-.36.06-.23 1.4.69 9.08.36 13.39-.05.65 1 .65.93 0-.26-4.07.08-10.85-.93-13.45zM83.82 61.76c3.58 1.94 5.18 2.51 10.18 7.79.47.49 1.29-.2.81-.68-2.88-2.93-6.2-6.31-10.18-7.8-.63.53-.41.13-.81.69zM83.78 61.56zM115.32 55.6c.72 0 .84-1.09.11-1.12-4-.19-8.16-.29-12.3-.26-.93 0-2.54-.31-3.22.41a.15.15 0 0 0 0 .22c.68.69 2 .4 2.92.41 4.91.06 8.78.19 12.49.34zM110 48.26c.43-.12.78-.26.49-.38a5.93 5.93 0 0 1-.67.21.37.37 0 0 0 .18.17zM83.7 61.69l.08-.13-.09.13z"/><path class="cls-5" d="M84.57 122.17c-5.51-10.68-20.57-20.6-39.14-16.93-4 .79-9.27 3.06-12.66 7.05-5.8 6.82-5 19.67 3.17 24.93 5 3.2 11.63 2.4 17 0 9.55-4.29 15.58-12.29 31.63-15.05z"/><path class="cls-1" d="M42.68 129.55a12.72 12.72 0 0 1-4.22 0l.09-.56a12.67 12.67 0 0 0 9.57-2.46c-.22-.11-.43-.23-.64-.36a9.83 9.83 0 0 1-4.76-8.2 7.37 7.37 0 0 1 5.85-7.13 4.07 4.07 0 0 1 3.92 1.28 4.76 4.76 0 0 1 .76 1.89 13.19 13.19 0 0 1-3.31 11.65c-.25.25-.5.5-.76.73 2 .77 4.29.85 5.88-.6 1.19-1.08 1.6-2.64 2-4.29s1-3.63 2.51-4.86a3.39 3.39 0 0 1 3-.69c1.34.35 1.89 1.42 2.43 2.44a6.52 6.52 0 0 0 1 1.6 2.65 2.65 0 0 0 2.13.7 3.31 3.31 0 0 0 2.4-1.29 1.42 1.42 0 0 1 1.53-.55 1.32 1.32 0 0 1 1 1.18h-.57a.75.75 0 0 0-.59-.68.83.83 0 0 0-.92.32 3.92 3.92 0 0 1-2.82 1.53 3.17 3.17 0 0 1-2.58-.87 6.92 6.92 0 0 1-1.14-1.73c-.5-1-1-1.87-2.07-2.16a2.85 2.85 0 0 0-2.47.59c-1.4 1.11-1.84 2.79-2.31 4.56s-.89 3.37-2.21 4.57c-1.85 1.68-4.57 1.52-6.75.59a13.25 13.25 0 0 1-5.95 2.8zm5.9-18.09a6.9 6.9 0 0 0-5.3 6.58 9.25 9.25 0 0 0 4.5 7.7 8.13 8.13 0 0 0 .82.45 9.57 9.57 0 0 0 .93-.87 12.6 12.6 0 0 0 3.17-11.14 4.27 4.27 0 0 0-.66-1.67 3.61 3.61 0 0 0-3.38-1.07zM88.07 28.89l7.44-28.4.27.06c4.31 1.09 8.94 2.07 13.84 3.12 7.31 1.55 14.86 3.15 21.37 5.14l.29.09-7.7 20.46-.25-.08c-.15-.05-15.47-4.7-23.36-7.27zm7.84-27.72l-6.91 26.55 10.9-6.32h.12c7.3 2.37 21.17 6.6 23.22 7.23l7.3-19.4c-6.42-1.95-13.85-3.52-21-5-4.84-1.03-9.38-2-13.63-3.06zM107.06 20.15l-.16-.29-.76-1.31c-.74-1.29-1.76-3.05-2.59-4.59l.5-.27c.82 1.54 1.84 3.3 2.58 4.58l.6 1c1.47-1.12 8.84-6.65 13.42-9l-19.65-2.79c.36.95 1.19 3 1.88 4.32l-.5.25a44 44 0 0 1-2.07-4.83l-.14-.43 22.4 3.21-.86.4c-4.87 2.29-14.3 9.51-14.39 9.58zM99.9 17.63l.19-.55c.32-.92.69-1.89 1.06-2.83s.73-1.89 1-2.8l.54.18c-.32.92-.69 1.89-1.06 2.83-.29.75-.59 1.52-.86 2.27a32.77 32.77 0 0 1 4.33-.76l.06.56a30 30 0 0 0-4.75.9zM63.08 36.5a3.68 3.68 0 0 1-2.59-.5c-.93-.59-2.48-2.17-2.33-6a18.88 18.88 0 0 1 2.91-9.44 17 17 0 0 0-4-2c-9.13-3.22-20.92.72-30 10l-.4-.4a39.28 39.28 0 0 1 14.74-9.72 23.66 23.66 0 0 1 15.86-.45 17.11 17.11 0 0 1 4.11 2.01 19.36 19.36 0 0 1 4.86-4.95 19 19 0 0 1 16.76-2.66l-.17.54a18.45 18.45 0 0 0-16.23 2.6 18.83 18.83 0 0 0-4.73 4.82 12.83 12.83 0 0 1 4.53 6 9.52 9.52 0 0 1-.84 8.27 4.26 4.26 0 0 1-1.63 1.6 3 3 0 0 1-.85.28zm-1.55-15.68a18.45 18.45 0 0 0-2.81 9.18c-.13 3.57 1.25 5 2.08 5.53a2.94 2.94 0 0 0 2.84.25 3.9 3.9 0 0 0 1.41-1.4 9 9 0 0 0 .78-7.79 12.23 12.23 0 0 0-4.3-5.77zM36.9 100.06a21.8 21.8 0 0 1-2.6-2.39l.42-.38a22.32 22.32 0 0 0 2.53 2.33zM29.19 92.67l-.39.41 2.87 2.66.38-.41zM26.71 90a23.19 23.19 0 0 1-2.52-2.82l.45-.34a22.16 22.16 0 0 0 2.46 2.75zM22.44 84.13a16.72 16.72 0 0 1-1.78-3.2h-.21l.09-.56.52.09.06.15a16.74 16.74 0 0 0 1.78 3.24zM18.9 77.32a10.36 10.36 0 0 1-1.39-3.76c-.05-.31-.14-.52-.24-.52v-.56c.41 0 .66.36.76 1a9.58 9.58 0 0 0 1.35 3.52zM16.47 69.47l-.56.08a26.24 26.24 0 0 0-.82-3.82l.54-.15a25.92 25.92 0 0 1 .84 3.89zM14.41 58.8l.53 3.9.56-.07-.5-3.91zM14.61 55.35l-.56-.08a31.44 31.44 0 0 0 .3-4.11h.56a32.54 32.54 0 0 1-.3 4.19zM16.73 42.94l-1.52 4.32.53.19 1.53-4.32zM19 39.13l-.46-.34a31 31 0 0 0 2.26-3.52l.5.27a33.65 33.65 0 0 1-2.3 3.59zM25.17 30.21l-2.41 2.65.42.38 2.4-2.65z"/><path class="cls-5" d="M189.11 108l-22.11-13.77-10.77 17.38 22.16 13.74z"/><path class="cls-4" d="M172.28 110.42l-5.71-15.9 1.08-.38 5.41 15.06 16.45-1.52.1 1.14z"/><path class="cls-6" d="M38.28 49.59l-15.16 2.67 2.09 11.88 15.16-2.67z"/><path class="cls-4" d="M31.86 57.43l-8.86-4.79.43-.8 8.23 4.46 6.58-7.06.66.61z"/><path class="cls-1" d="M119.79 88.73a5.64 5.64 0 0 1-3-.49l-.64-.23a16.56 16.56 0 0 1-3.72-1.73l.31-.47a15.65 15.65 0 0 0 3.6 1.66l.65.24c3.53 1.4 4.24-.36 5-2.22.14-.33.27-.67.42-1a8.76 8.76 0 0 0 .73-6.75c-.08-.26-.19-.53-.3-.82a8.37 8.37 0 0 1-.75-3.2h.57a7.75 7.75 0 0 0 .7 3c.12.3.23.58.32.86a9.29 9.29 0 0 1-.76 7.16c-.14.3-.26.61-.4 1-.52 1.26-1.1 2.7-2.73 2.99zM113 78.86l-.3-.48.89-.57a2.35 2.35 0 0 1 1.56-.61v.57c-.44 0-.62.1-1.22.5-.29.16-.58.36-.93.59zM115 79a.94.94 0 0 1-.72-.14.86.86 0 0 1-.19-1.25 1.14 1.14 0 0 1 1-.4.89.89 0 0 1 .52 1.37 1 1 0 0 1-.61.42zm-.41-1.13c-.11.17-.19.4 0 .52a.44.44 0 0 0 .58-.12.32.32 0 0 0 0-.32.33.33 0 0 0-.2-.19.89.89 0 0 0-.37.11zM119.53 77l-.21-.52a1.81 1.81 0 0 0 .53-.38 2.23 2.23 0 0 1 .73-.49 1.67 1.67 0 0 1 1.08 0l-.24.51a1.18 1.18 0 0 0-.66.07 1.63 1.63 0 0 0-.54.37 2.3 2.3 0 0 1-.69.44zM121.34 77.27a.91.91 0 0 1-.33 0 .9.9 0 0 1-.76-.93.85.85 0 0 1 .74-.85 1.75 1.75 0 0 1 .7.07.77.77 0 0 1 .44 1 1.06 1.06 0 0 1-.79.71zm-.29-1.22a.3.3 0 0 0-.24.31.33.33 0 0 0 .3.35.46.46 0 0 0 .5-.34c.06-.21-.07-.27-.12-.29a1.45 1.45 0 0 0-.43 0zM111.66 77.87l-.5-.26a6 6 0 0 1 1.57-2 10.54 10.54 0 0 1 2.9-1l.09.56a9.37 9.37 0 0 0-2.71.92 5.72 5.72 0 0 0-1.35 1.78zM118.57 80.56l-.15-.54a5.3 5.3 0 0 1 .6-.12 1.82 1.82 0 0 0 .42-.09.58.58 0 0 0 .21-.47.67.67 0 0 0-.37-.56 5.12 5.12 0 0 1-1.77-3.6l.56-.05a4.64 4.64 0 0 0 1.53 3.19 1.23 1.23 0 0 1 .62 1 1.16 1.16 0 0 1-.44.94 1.56 1.56 0 0 1-.67.2 3.64 3.64 0 0 0-.54.1zM118.11 83.88l-.41-.38c.15-.17 1-1 1.54-1a.69.69 0 0 1 .35.13c.27-.51.82-.39 1.31-.29a4.86 4.86 0 0 0 .55.1l-.06.56a4.94 4.94 0 0 1-.6-.11c-.48-.09-.64-.11-.7 0a.71.71 0 0 1-.16.24.49.49 0 0 1-.61-.05.28.28 0 0 0-.09 0 2.85 2.85 0 0 0-1.12.8zM120.06 85.12a1.73 1.73 0 0 1-1.43-.52l.38-.42a1.1 1.1 0 0 0 1 .37.89.89 0 0 0 .58-.67l.54.16a1.45 1.45 0 0 1-1 1.06zM112.18 98.92l-.46-.33a4.23 4.23 0 0 0-.87-6.26 11.35 11.35 0 0 1-3.21-4.55c-2.09-5.13-.67-8.45.89-10.32l.92-1.09c2.43-2.87 4.53-5.35 3.65-7.66l.53-.2c1 2.62-1.2 5.22-3.75 8.22-.3.36-.61.72-.91 1.09-2.1 2.51-2.38 5.89-.8 9.74a10.49 10.49 0 0 0 3 4.32 4.78 4.78 0 0 1 1.01 7.04zM123.77 75.66c-1.46-2.7-4.11-3.43-6.44-4.07-1.94-.54-3.61-1-4.09-2.49l.54-.18c.39 1.21 1.92 1.63 3.7 2.12 2.32.65 5.22 1.44 6.78 4.35zM113.2 68.86a7.39 7.39 0 0 0-1.67-3.09l.42-.38a8.2 8.2 0 0 1 1.8 3.33zM109.53 82.47l-.56.1c-.12-.72-1-1.18-1-1.18l.25-.51a2.58 2.58 0 0 1 1.31 1.59zM112.23 93l-.56-.11c.57-2.82-1.13-7.25-1.53-8.22a3.69 3.69 0 0 1-3.5-2.58l.54-.19a3.07 3.07 0 0 0 3.09 2.18h.22l.09.2c.1.22 2.32 5.41 1.65 8.72zM123.74 93.77a9.07 9.07 0 0 1-1.93-.88 4.66 4.66 0 0 1-1.92-3.48h.57a4 4 0 0 0 1.66 3 8.12 8.12 0 0 0 1.8.81z"/><path class="cls-4" d="M127 115.6h-.47a11.57 11.57 0 0 0-2.63-6.38 15 15 0 0 1-2.8-5.69l.46-.11a14.74 14.74 0 0 0 2.72 5.53 11.81 11.81 0 0 1 2.72 6.65z"/><path class="cls-1" d="M111.1 120.16a4.83 4.83 0 0 1-1.35-3.41l.56.06h-.28.28a4.44 4.44 0 0 0 1.22 3zM135.67 109.14a31.29 31.29 0 0 0-1.43-3.26l.5-.26a31.72 31.72 0 0 1 1.47 3.33zM119 74.61l-.21-.52a7.61 7.61 0 0 1 2.21-.59v.57a7.13 7.13 0 0 0-2 .54zM110.4 84.66l-.16-.54a2.52 2.52 0 0 0 .78-.41l.36.43a3 3 0 0 1-.98.52zM120.53 123.26a38.34 38.34 0 1 1 31.21-44.41 38.43 38.43 0 0 1-31.21 44.41zm-13.18-75a37.78 37.78 0 1 0 43.84 30.74 37.86 37.86 0 0 0-43.84-30.7z"/></svg>