<svg id="Слой_1" data-name="Слой 1" xmlns="http://www.w3.org/2000/svg" viewBox="0 0 200 155"><defs><style>.cls-1{fill:#010101;}.cls-2{fill:#6374ff;}.cls-3{fill:#fff;}.cls-4{fill:#ebecf2;}.cls-5{fill:#ffd240;}.cls-6{fill:#ff533d;}</style></defs><title>services-2</title><path class="cls-1" d="M148.67,143.05a37.23,37.23,0,0,1-8.22-1.27c-7.24-1.75-13.44-3.24-18-4.33l.14-.56c4.59,1.09,10.8,2.57,18,4.32,6.13,1.48,9.88,1.66,11.13.54s2.36-6.59,3.71-14c.4-2.18.85-4.65,1.36-7.24L176.6,31.32c.3-1.24,1.13-5.16,1.24-6.34.16-1.75.25-2.72-3.78-4.18s-12-3.35-27.72-7.1c-6.14-1.46-13.77-3.28-22.73-5.45l-.43-.1c-2.78-.68-9.28-2.27-10.65-.47-1.23,1.61-2.64,8.74-5,20.55-.81,4.11-1.73,8.76-2.8,14l-.57-.12c1.07-5.23,2-9.88,2.8-14,2.43-12.3,3.76-19.07,5.07-20.79,1.6-2.1,7.89-.57,11.26.26l.43.1c8.95,2.17,16.59,4,22.72,5.45,15.79,3.76,23.71,5.64,27.79,7.12s4.37,2.53,4.16,4.78c-.12,1.23-.94,5.14-1.26,6.42l-19.81,89.2c-.51,2.58-1,5-1.36,7.22-1.43,7.78-2.37,12.92-3.9,14.3A5.12,5.12,0,0,1,148.67,143.05Z"/><path class="cls-1" d="M140.32,17.88l-.12.57,6.86,1.43.12-.57Z"/><path class="cls-2" d="M120.08,87.65s.24-8,3.25-12.14A31.88,31.88,0,0,1,120.57,62a36.23,36.23,0,1,1,36.14,36.24c-11.83,0-22.72-7.13-28.48-13.76A15.08,15.08,0,0,0,120.08,87.65Z"/><path class="cls-3" d="M164.89,71c-3.64-.75-2.18-9.07-2.18-9.07h-11.6s1.18,8.4-2.58,8.82l8.17,8.63Z"/><path class="cls-3" d="M165.66,54.67a11.83,11.83,0,0,1-.93,4.25c-.34,1-1.82,2.4-2.86,3.76a7.88,7.88,0,0,1-5.1,2.93,6.18,6.18,0,0,1-4.43-2.17c-1.11-1.41-2.61-2.86-3.38-4.59a13.64,13.64,0,0,1-.51-3.7s-1.58-7.8,1.58-9.61,12.69-2.09,13.89-.51C166,47.74,165.66,54.67,165.66,54.67Z"/><path class="cls-3" d="M164.71,58.28s1.59.78,2.52-2,.27-3.46.27-3.46a1.92,1.92,0,0,0-2.75.6C163.64,55.12,164.71,58.28,164.71,58.28Z"/><path class="cls-3" d="M149,58.28s-1.58.78-2.51-2-.27-3.46-.27-3.46a1.92,1.92,0,0,1,2.75.6C150,55.12,149,58.28,149,58.28Z"/><path class="cls-4" d="M182.75,87.47C182,80.54,180.2,78,180.2,78c-2.68-3.39-9.85-6.37-14.43-8l-9,8.9-9-8.93c-4.69,1.69-11.93,4.65-14.62,8.05,0,0-1.73,2.47-2.53,9.28,0,0,10.77,11,26,11S182.75,87.47,182.75,87.47Z"/><path class="cls-1" d="M167.92,53.14s-1.36-.72-2.25.1c0,0,.28-6.05-4.12-8.72-4.58,3.61-12,3.86-12.68,4.95s-.74,3.92-.74,3.92c-1.4-1.43-2.36-.17-2.36-.17s-3.39-15.46,10.56-15.82C156.33,37.4,169.23,36.59,167.92,53.14Z"/><path d="M141,93.91c-.36-2-.56-4.28-.56-4.3l.57,0s.21,2.31.56,4.25Z"/><path d="M172.35,93.75l-.58-.06s.3-2.87.37-4.36l.58,0C172.65,90.86,172.35,93.72,172.35,93.75Z"/><path d="M148.35,58.84l-.21,0c-.73-.16-1.44-1.13-2.13-2.89s-.64-2.8,0-3.39a1.68,1.68,0,0,1,1.78-.17l-.26.51a1.13,1.13,0,0,0-1.13.09c-.43.4-.38,1.37.16,2.75.82,2.13,1.47,2.48,1.71,2.53a.25.25,0,0,0,.25,0l.4.42A.81.81,0,0,1,148.35,58.84Z"/><path d="M165.37,58.76a.84.84,0,0,1-.63-.26l.42-.39-.21.19.21-.2a.31.31,0,0,0,.29.07c.24-.05.86-.39,1.66-2.45.53-1.38.59-2.35.15-2.75a1.11,1.11,0,0,0-1.13-.09l-.26-.51a1.68,1.68,0,0,1,1.78.17c.65.59.64,1.73,0,3.39s-1.38,2.68-2.1,2.81Z"/><path d="M156.94,57.77a2.7,2.7,0,0,1-1.8-.7c-.41-.41-.24-1,0-1.67a7.15,7.15,0,0,0,.4-2.64c-.1-2-2.28-2.24-2.37-2.25h0a4.31,4.31,0,0,0-2.71.62l-.3-.49a4.85,4.85,0,0,1,3.1-.71,3.05,3.05,0,0,1,2.89,2.79,7.87,7.87,0,0,1-.42,2.84c-.18.6-.27.94-.12,1.1a1.92,1.92,0,0,0,1.94.41l.3.5A1.75,1.75,0,0,1,156.94,57.77Z"/><path class="cls-1" d="M162.81,51.17a3.83,3.83,0,0,0-3.7-.2l-.28-.51a4.4,4.4,0,0,1,4.29.22Z"/><path class="cls-1" d="M162.26,52.85l-.19-.08a2.9,2.9,0,0,0-2-.39l-.08-.57a3.43,3.43,0,0,1,2.3.43l.18.08Z"/><path class="cls-1" d="M160.11,53.55a1,1,0,0,1-.66-.23.9.9,0,0,1-.16-.91,1,1,0,0,1,.89-.62.92.92,0,0,1,.94.51.83.83,0,0,1-.25,1A1.1,1.1,0,0,1,160.11,53.55Zm-.26-.65a.56.56,0,0,0,.63-.07.27.27,0,0,0,.11-.31.33.33,0,0,0-.36-.15.37.37,0,0,0-.38.53Z"/><path class="cls-1" d="M150.55,52.86l-.2-.55.49-.18a3.42,3.42,0,0,1,2-.32l-.08.57a2.9,2.9,0,0,0-1.73.29Z"/><path class="cls-1" d="M152.77,53.55a1.12,1.12,0,0,1-.76-.29.83.83,0,0,1-.25-1,.92.92,0,0,1,.94-.51,1,1,0,0,1,.89.62.88.88,0,0,1-.16.91A1,1,0,0,1,152.77,53.55Zm-.16-1.19a.34.34,0,0,0-.32.16.27.27,0,0,0,.11.31.54.54,0,0,0,.62.07.35.35,0,0,0,0-.3.4.4,0,0,0-.39-.23Z"/><path class="cls-1" d="M156.69,60.52a3.77,3.77,0,0,1-2-.6l.33-.47a3,3,0,0,0,3.17,0l.32.49A3.31,3.31,0,0,1,156.69,60.52Z"/><path class="cls-1" d="M157.84,62.79a3.64,3.64,0,0,0-2.59,0l-.2-.55a4.29,4.29,0,0,1,3.07.06Z"/><path class="cls-1" d="M166.11,56.38l-.58,0a3.07,3.07,0,0,1,.86-2l.39.44A2.4,2.4,0,0,0,166.11,56.38Z"/><path class="cls-1" d="M147.59,56.3a2.48,2.48,0,0,0-.67-1.63l.38-.43a3,3,0,0,1,.86,2Z"/><path class="cls-1" d="M148.49,71l-.16-.56c3.82-1.1,2.27-8.54,2.26-8.62l.57-.12C151.23,62.05,152.83,69.77,148.49,71Z"/><path class="cls-1" d="M164.68,71.22c-3.61-1.64-2.17-9.52-2.11-9.85l.57.11c0,.07-1.42,7.76,1.78,9.22Z"/><path d="M156.72,65.85a6.68,6.68,0,0,1-4.82-2.4c-.3-.4-.63-.79-1-1.21a15.94,15.94,0,0,1-2.55-3.7v0a15.19,15.19,0,0,1-.53-4h.58a14.84,14.84,0,0,0,.5,3.8,15.78,15.78,0,0,0,2.46,3.55l1,1.22a6,6,0,0,0,4.35,2.18,7.81,7.81,0,0,0,5-3c.37-.48.78-1,1.19-1.45a10.15,10.15,0,0,0,1.73-2.43,12.83,12.83,0,0,0,.7-4.08H166a13.11,13.11,0,0,1-.74,4.28,10.12,10.12,0,0,1-1.83,2.61c-.4.47-.8,1-1.16,1.42A8.4,8.4,0,0,1,156.72,65.85Z"/><path class="cls-3" d="M183.87,70.6c-.33,0-.65,0-1,0a.54.54,0,0,1-.39-.14.64.64,0,0,1-.16-.32,16.09,16.09,0,0,1-.35-3.86v-.36l.25,0a31.93,31.93,0,0,1,3.79-.05h.21l0,.21a19.07,19.07,0,0,1,.32,3.77.68.68,0,0,1-.14.47.75.75,0,0,1-.44.19A19.24,19.24,0,0,1,183.87,70.6Zm-1-.56h0a16.28,16.28,0,0,0,3-.1l.11,0v-.11a18.32,18.32,0,0,0-.27-3.47,32.63,32.63,0,0,0-3.28,0,15.7,15.7,0,0,0,.34,3.62S182.87,70,182.87,70Z"/><path class="cls-3" d="M140.31,44.73h-.43a.4.4,0,0,1-.27-.11.42.42,0,0,1-.11-.21,7,7,0,0,1-.16-1.71v0a.27.27,0,0,1,.25-.27,15.32,15.32,0,0,1,1.66,0,.27.27,0,0,1,.25.22,9.34,9.34,0,0,1,.15,1.67.44.44,0,0,1-.11.3.41.41,0,0,1-.28.13A7.46,7.46,0,0,1,140.31,44.73Zm-.31-.54a6,6,0,0,0,1.12,0,8,8,0,0,0-.1-1.28c-.38,0-.77,0-1.15,0A6.37,6.37,0,0,0,140,44.19Z"/><path class="cls-3" d="M172.26,62.58h-.43a.41.41,0,0,1-.27-.1.42.42,0,0,1-.11-.21,7.11,7.11,0,0,1-.15-1.72v0a.25.25,0,0,1,.24-.26,13.3,13.3,0,0,1,1.67,0,.26.26,0,0,1,.25.21,8.56,8.56,0,0,1,.14,1.67.42.42,0,0,1-.1.3.4.4,0,0,1-.29.13A7.46,7.46,0,0,1,172.26,62.58Zm-.31-.53a8.33,8.33,0,0,0,1.12,0,7.79,7.79,0,0,0-.09-1.28c-.39,0-.77,0-1.15,0A6.39,6.39,0,0,0,172,62.05Z"/><path class="cls-3" d="M179.29,46.61h-.58a.61.61,0,0,1-.35-.14.55.55,0,0,1-.15-.28,9.64,9.64,0,0,1-.2-2.27v-.07a.36.36,0,0,1,.33-.35,18,18,0,0,1,2.2,0,.35.35,0,0,1,.33.28,11.82,11.82,0,0,1,.19,2.22.61.61,0,0,1-.13.39.63.63,0,0,1-.38.17A8.88,8.88,0,0,1,179.29,46.61Zm-.42-.71a9.24,9.24,0,0,0,1.49,0,12,12,0,0,0-.13-1.69c-.51,0-1,0-1.52,0A9.05,9.05,0,0,0,178.87,45.9Z"/><path class="cls-3" d="M135.38,65.81a.78.78,0,0,1-.5-.21,20.23,20.23,0,0,1-2.71-2.52.62.62,0,0,1-.08-.87A19.14,19.14,0,0,1,135,58.69l.1-.1a.34.34,0,0,1,.45,0,39.52,39.52,0,0,1,3.21,3.13.33.33,0,0,1,0,.41,22.6,22.6,0,0,1-2.9,3.43.78.78,0,0,1-.51.27Zm-2.75-3.21,0,0a20.15,20.15,0,0,0,2.62,2.44.37.37,0,0,0,.1.07l.09-.08A21.4,21.4,0,0,0,138.13,62a36.59,36.59,0,0,0-2.75-2.68,18.41,18.41,0,0,0-2.74,3.3Z"/><path class="cls-1" d="M47.49,153.2c-3.88,0-4.6-1-5.28-3.24-.61-2-.87-3.64-2-10.66-.59-3.64-1.39-8.62-2.58-15.84l-3-18.52.57-.1,3,18.53c1.19,7.21,2,12.2,2.58,15.84,1.12,7,1.39,8.65,2,10.58s.92,3,5.84,2.81,14.06-1.61,32.31-4.44c7.1-1.1,15.94-2.47,26.33-4,7.12-1.08,11.15-2.51,12-4.25.93-1.92-.35-8-2.11-16.36-.52-2.47-1.11-5.27-1.7-8.22L97.77,12.64c-.22-1.43-1-5.93-1.44-7.23-.59-1.93-.91-3-5.83-2.81S76.43,4.22,58.18,7c-7.1,1.1-15.94,2.47-26.32,4.05l-.5.07c-3.23.48-10.8,1.61-11.48,4.12-.33,1.24,0,4.32,1.05,10.32l-.57.11c-1.1-6.17-1.4-9.24-1-10.58.77-2.87,8.05-4,12-4.55l.5-.07C42.15,8.94,51,7.57,58.09,6.47,76.36,3.64,85.54,2.22,90.47,2s5.67.78,6.42,3.22c.41,1.35,1.23,5.83,1.45,7.31L116,115.18c.59,2.95,1.18,5.74,1.69,8.21,1.86,8.81,3.08,14.63,2.07,16.73-.94,1.95-5,3.45-12.43,4.57-10.38,1.57-19.22,2.94-26.32,4-18.27,2.83-27.45,4.25-32.38,4.45Z"/><path class="cls-1" d="M58.45,16.84a2.12,2.12,0,0,1-1.26-.42,1.84,1.84,0,0,1-.66-1.64,2.82,2.82,0,0,1,.76-1.43,2.18,2.18,0,0,1,1.34-.73h0a1.9,1.9,0,0,1,1.52.49,1.81,1.81,0,0,1,.51,1,2.39,2.39,0,0,1-.59,2A2.31,2.31,0,0,1,58.45,16.84Zm.27-3.65a1.65,1.65,0,0,0-1,.54,2.33,2.33,0,0,0-.62,1.13,1.23,1.23,0,0,0,.45,1.1,1.37,1.37,0,0,0,.64.27,1.7,1.7,0,0,0,1.48-.5,1.76,1.76,0,0,0,.44-1.51,1.32,1.32,0,0,0-.34-.71A1.38,1.38,0,0,0,58.72,13.19Z"/><path class="cls-1" d="M83.08,141.84l-4.66.75.1.58,4.65-.76Z"/><path class="cls-5" d="M90.79,90.34s-.71-7.84-4.14-12.55a36.39,36.39,0,0,0,3.14-15.35,41.22,41.22,0,1,0-8.22,24.78A15.78,15.78,0,0,1,90.79,90.34Z"/><path class="cls-6" d="M39.48,71.53l17.61,0s4.84-5,5.13-9.78S61,44,55.93,42.9s-16.57.29-18,4-4.76,15-2.47,18.82A45.25,45.25,0,0,0,39.48,71.53Z"/><path class="cls-3" d="M48.54,86.16C36,86.16,36.36,74.84,36.36,74.84s5.42-.65,5.94-3.45a22.9,22.9,0,0,0,.41-4.87S39.27,64,38.15,60.88c0,0-1.64.8-2.49-1.26,0,0-2.3-5.37,2.51-8.92s11.27-4.84,13.32-8a33.2,33.2,0,0,0,6.11,7.49c3.81,3.43,3.51,8.23,3.14,10.4a2.27,2.27,0,0,1-2,.13S56.67,64.56,54.5,66c0,0-2.52,7.43,6,9C60.46,74.94,61.11,86.16,48.54,86.16Z"/><path class="cls-6" d="M64,49.84C60.51,37,51.47,37.32,51.47,37.32s-11.9-1.85-16.23,9.22c-3.79,9.67-1.48,19.87,2.49,23.16l2.2,1.58c-5.57-6.8-1.37-20.06-1.37-20.06a53.18,53.18,0,0,0,13.37-4.86s3,4.58,7.42,6.3c1.5,4.89,2.45,12.21-2,18.77L59.33,70A21.19,21.19,0,0,0,64,49.84Z"/><path class="cls-2" d="M77.17,92.19c-1.76-5.88-3.35-10.46-4.29-11.5-2.27-2.5-9.13-5.07-12.57-6.25,0,0-1.49,10.77-11.77,10.77s-12-10.78-12-10.78c-3.35,1.17-10.34,3.82-12.64,6.38-.93,1-2.47,5.51-4.17,11.29a41.34,41.34,0,0,0,57.42.09Z"/><path class="cls-1" d="M48.11,69.42H48c-2.33,0-4.53-2-6-3.31-.34-.3-.62-.56-.87-.76-2.07-1.66-3.47-4.13-4.56-8l.56-.16c1,3.75,2.4,6.13,4.36,7.71q.39.31.9.78c1.39,1.24,3.5,3.13,5.61,3.16,2.54,0,5.22-2.21,6.82-3.55l.52-.42c1.87-1.53,3.22-3.87,4.22-7.38l.56.16c-1,3.63-2.44,6.07-4.42,7.67l-.5.42C53.59,67.11,50.83,69.42,48.11,69.42Z"/><path class="cls-1" d="M39.45,74.21l-.09-.58c3.82-.58,3-7.31,3-7.38l.58-.07C43,66.48,43.82,73.55,39.45,74.21Z"/><path class="cls-1" d="M57.33,74.1c-4.14-1.25-3.15-7.88-3.11-8.17l.58.09c0,.07-1,6.42,2.7,7.53Z"/><path class="cls-1" d="M48.37,59.31a3.22,3.22,0,0,1-2.14-.66,1.18,1.18,0,0,1-.37-1,14.83,14.83,0,0,1,.31-1.89c.35-1.7.83-4,0-4.62s-2.62-.23-4.28.22l-.16-.55c1.89-.52,3.77-.89,4.78-.13s.62,3.14.19,5.2a15.47,15.47,0,0,0-.3,1.8.65.65,0,0,0,.19.53,3,3,0,0,0,2,.48l0,.58Z"/><path class="cls-1" d="M41.12,53.78l-.32-.49a4.11,4.11,0,0,1,3.1-.38l-.22.54A3.48,3.48,0,0,0,41.12,53.78Z"/><path class="cls-1" d="M43.31,54.74a1.14,1.14,0,0,1-.87-.42A.94.94,0,0,1,42.7,53a1.24,1.24,0,0,1,1.22,0,1,1,0,0,1,0,1.6A1.09,1.09,0,0,1,43.31,54.74Zm-.21-1.36c-.15.12-.38.36-.2.59a.52.52,0,0,0,.7.09.37.37,0,0,0,.18-.34.39.39,0,0,0-.16-.29A.86.86,0,0,0,43.1,53.38Z"/><path class="cls-1" d="M54,53.75a3.55,3.55,0,0,0-2.57-.32l-.22-.54a4.11,4.11,0,0,1,3.1.37Z"/><path class="cls-1" d="M51.8,54.72a1,1,0,0,1-.64-.21,1,1,0,0,1,0-1.6,1.24,1.24,0,0,1,1.22,0,.94.94,0,0,1,.26,1.36A1.11,1.11,0,0,1,51.8,54.72Zm.08-1.38a1,1,0,0,0-.39.07.4.4,0,0,0-.15.29.37.37,0,0,0,.17.34.52.52,0,0,0,.7-.09c.18-.24-.05-.47-.21-.59S51.93,53.34,51.88,53.34Z"/><path class="cls-1" d="M47.87,63.06a4.88,4.88,0,0,1-2.75-.8l.33-.48a4.57,4.57,0,0,0,4.84,0l.36.45A4.59,4.59,0,0,1,47.87,63.06Z"/><path class="cls-1" d="M49.12,65.26a2.42,2.42,0,0,0-2.55,0l-.36-.45a3,3,0,0,1,3.24,0Z"/><path class="cls-1" d="M59.51,61.25a1.25,1.25,0,0,1-.83-.29l.38-.44-.19.22.18-.22a.89.89,0,0,0,1.13-.1l.35.46A1.73,1.73,0,0,1,59.51,61.25Z"/><path class="cls-1" d="M37.71,61.14a2.17,2.17,0,0,1-1.61-.59l.41-.41a1.76,1.76,0,0,0,1.37.42l0,.58Z"/><path class="cls-1" d="M54.43,51a5,5,0,0,0-4.21-.11l-.35-.46c1-.73,3.66-.69,4.87.08Z"/><path class="cls-1" d="M39.57,72.28c-3.22-3.49-4.28-9.14-3.06-16.34a49.19,49.19,0,0,1,2.82-9.89l.54.22c-.08.18-7.37,17.48.13,25.61Z"/><path class="cls-1" d="M57.09,71.86l-.49-.32c3.94-5.86,3.67-12.54,2.76-17.1a34.12,34.12,0,0,0-3-8.62l.51-.27a34.58,34.58,0,0,1,3,8.77C60.86,59,61.13,65.84,57.09,71.86Z"/><path class="cls-1" d="M59.26,70.27l-.43-.4A23,23,0,0,0,63.6,48.61c-1.84-6.77-5.2-9.89-7.69-11.31a10.53,10.53,0,0,0-5-1.48h0a18,18,0,0,0-6.61.47,14,14,0,0,0-9.84,8.93c-4,10.38-1.27,21.13,2.49,24.27l-.38.45C32.15,66.26,30.08,54.82,33.9,45a14.7,14.7,0,0,1,10.26-9.28A18.18,18.18,0,0,1,51,35.24a10.94,10.94,0,0,1,5.24,1.55c2.59,1.48,6.08,4.7,8,11.67A23.57,23.57,0,0,1,59.26,70.27Z"/><path class="cls-1" d="M58.86,51.82a21.5,21.5,0,0,1-7.5-6.47c-1,.85-5.21,3.93-13.28,5.26L38,50c9-1.48,13.19-5.28,13.23-5.32a.28.28,0,0,1,.23-.07.3.3,0,0,1,.21.12c0,.05,3.2,4.59,7.45,6.53Z"/><path class="cls-3" d="M29,89.28a.5.5,0,0,1-.34-.13.49.49,0,0,1,0-.69l4.59-4.74a.48.48,0,1,1,.69.68l-4.58,4.74A.49.49,0,0,1,29,89.28Z"/><path class="cls-3" d="M36.44,98.11a.52.52,0,0,1-.35-.14l-3.47-3.54a.49.49,0,0,1,.7-.68l3.47,3.54a.48.48,0,0,1-.35.82Z"/><path class="cls-3" d="M42.54,95.42a.52.52,0,0,1-.27-.07.49.49,0,0,1-.14-.67A13.51,13.51,0,0,0,44.05,90a.5.5,0,0,1,.58-.38.48.48,0,0,1,.37.58,14.51,14.51,0,0,1-2.06,5A.46.46,0,0,1,42.54,95.42Z"/><path class="cls-3" d="M51.84,101.22a.47.47,0,0,1-.47-.41l-.83-4.9a.48.48,0,0,1,.4-.55.48.48,0,0,1,.56.39l.82,4.9a.48.48,0,0,1-.4.56Z"/><path class="cls-3" d="M55.47,92.23a.51.51,0,0,1-.32-.12.49.49,0,0,1,0-.68,13.93,13.93,0,0,1,4.25-3.33.49.49,0,0,1,.65.21.48.48,0,0,1-.22.65,13,13,0,0,0-3.94,3.1A.5.5,0,0,1,55.47,92.23Z"/><path class="cls-3" d="M67.27,94.48a.48.48,0,0,1-.48-.45l-.34-4.27a.48.48,0,0,1,.45-.52.49.49,0,0,1,.52.44L67.75,94a.47.47,0,0,1-.44.52Z"/><path class="cls-1" d="M76.94,135.9a15,15,0,0,1-13.24-8.38c-3.72-7.32-1.16-16.11,5.72-19.6s15.51-.36,19.23,7,1.16,16.11-5.72,19.6A13.18,13.18,0,0,1,76.94,135.9Zm-1.52-28.83a12.62,12.62,0,0,0-5.74,1.37c-6.59,3.34-9,11.78-5.46,18.82s11.86,10,18.45,6.7,9-11.79,5.46-18.82A14.48,14.48,0,0,0,75.42,107.07Z"/><path class="cls-2" d="M84.75,124.92c-.76,1.31-3.3,4.81-6,4.68-2.29-.1-4.24-1.59-5.83-3.23q-1.94-2-3.67-4.15c-1-1.28-2-2.72-2-4.36,0-2.29,1.95-4,3.73-5.47l3.31,3.69-.42.36a4.5,4.5,0,0,0-.39,6.29l.49.54A4.53,4.53,0,0,0,81,122.4a.43.43,0,0,1,0-.07Z"/><path class="cls-1" d="M47.54,104A42.42,42.42,0,0,1,5,61.81,41.9,41.9,0,0,1,17.39,31.86,42.36,42.36,0,0,1,47.44,19.4h.1A42.29,42.29,0,0,1,87.83,75.3c4.62,8.26,3.25,15,3.24,15.1l-.09.42-.36-.24a16.88,16.88,0,0,0-9.41-3A42.94,42.94,0,0,1,66.7,99.5,42.28,42.28,0,0,1,47.64,104Zm0-84h-.1a41.74,41.74,0,1,0,.1,83.47h.1a41.79,41.79,0,0,0,33.2-16.34l.09-.12h.15a17.31,17.31,0,0,1,9.49,2.85,23.85,23.85,0,0,0-3.3-14.38l-.07-.11,0-.12A41.74,41.74,0,0,0,47.54,20Z"/><path class="cls-1" d="M156.6,98.8a37.19,37.19,0,0,1-28.75-13.46,14.65,14.65,0,0,0-8.13,2.89l-.35.26-.11-.42c-.05-.24-1.41-6,2.4-13.35a37.39,37.39,0,1,1,36.13,24.07ZM128.11,84.74l.1.11a36.54,36.54,0,1,0-8.33-22.08,36.09,36.09,0,0,0,2.37,11.87l0,.12-.06.12a20.8,20.8,0,0,0-2.48,12.62A15.35,15.35,0,0,1,128,84.75Z"/><path class="cls-5" d="M122.32,112.9c.58,1,2.49,3.64,4.58,3.55a6.89,6.89,0,0,0,4.4-2.45c1-1,1.9-2,2.77-3.13a5.49,5.49,0,0,0,1.55-3.3c0-1.73-1.47-3-2.82-4.13l-2.5,2.79.32.27a3.41,3.41,0,0,1,.29,4.76c-.12.13-.24.27-.37.4a3.41,3.41,0,0,1-5.39-.66l0,0Z"/><path class="cls-1" d="M129.79,123.27a12.69,12.69,0,0,1-6.71-1.91l.3-.49a12.19,12.19,0,0,0,6.41,1.82A12.39,12.39,0,1,0,118.67,105l-.53-.24a12.89,12.89,0,1,1,11.65,18.47Z"/></svg>