<svg xmlns="http://www.w3.org/2000/svg" viewBox="0 0 517.01 373.99"><defs><style>.cls-1{fill:#ff533d;}.cls-2{fill:#6374ff;}.cls-3{fill:#fff;}.cls-4{fill:#ebecf2;}.cls-5{fill:#010101;}.cls-6{fill:#ffd240;}</style></defs><title>audit-img</title><g id="Слой_2" data-name="Слой 2"><g id="Слой_1-2" data-name="Слой 1"><path class="cls-1" d="M425.08,122.2a.61.61,0,0,1-.07-.79c2.32-3.45,4.76-7,8.4-9.16a11,11,0,0,1,9.12-1.28,13,13,0,0,1,7.14,5.65,10.16,10.16,0,0,1,1.69,3.69,9.43,9.43,0,0,1-.7,5.39,42,42,0,0,1-6.19,10.53.65.65,0,0,1-.91.11l-.09,0a58.72,58.72,0,0,1-5.24-2.82c-2.31.73-4.55.71-6.25-.51-1.91-1.36-2.71-3.67-2.71-6.27a52.63,52.63,0,0,1-4-4.15A.51.51,0,0,1,425.08,122.2Z"/><path class="cls-1" d="M436,138.81a7.72,7.72,0,0,1-10.76-7.17v-.51c-5.77-.59-9.81.17-13.37,2.45q-1.31,6.71-2.27,13.45a45.1,45.1,0,0,0,24.7,14.14l.18-.24C439.47,153.17,440,147,436,138.81Z"/><path class="cls-2" d="M414.26,31.55s-28.13,86-25.85,172.7c0,0-43,.76-71.08-6.09,0,0,2.05-32.92-12.74-66.76-8-18.25-22.42-33.85-22.42-33.85C287.11,47.33,301,17.09,301,17.09S349.06,34.4,414.26,31.55Z"/><path class="cls-1" d="M375.53,23.6s.7-16.15-18.24-19-23.28,12-23.28,12c-6.67.35-15.3-2.9-15.3-2.9s-2.46,11.58-1.4,15.44c0,0,24.59,11.23,69.13,9.83l1.4-14.4A57.3,57.3,0,0,1,375.53,23.6Zm-35.08.7s3.74-10.06,14-8.66,11.93,11.7,11.93,11.7C355,28.27,340.45,24.3,340.45,24.3Z"/><path class="cls-3" d="M322.43,54.69a.69.69,0,0,0-.21.15h.06A.41.41,0,0,1,322.43,54.69Z"/><path class="cls-3" d="M318.43,58.15l.1,0,.11-.13Z"/><path class="cls-3" d="M308.46,85c.14-.62.36,1,.48,0C308.87,85.12,308.51,84.23,308.46,85Z"/><path class="cls-3" d="M326.8,51.65a.44.44,0,0,0,.17,0S326.91,51.64,326.8,51.65Z"/><path class="cls-3" d="M339.73,47.86h0C339.91,47.83,339.83,47.84,339.73,47.86Z"/><path class="cls-3" d="M336.38,48.74l-.25,0Z"/><path class="cls-3" d="M326.48,112.1a5.77,5.77,0,0,0,.58.22l-.25-.14Z"/><path class="cls-3" d="M359.76,53.15l.15-.15C359.54,52.81,359.86,53.07,359.76,53.15Z"/><path class="cls-3" d="M375.07,73.59c-.07-1.27-.11.3-.42-1,.08.32.13.65.19,1C374.89,73.41,374.94,73.16,375.07,73.59Z"/><path class="cls-3" d="M374,69.66c-.2-.28-.25-.35-.17,0S373.9,69.66,374,69.66Z"/><path class="cls-3" d="M319,57.33l.26.09C319.41,57.21,319.26,57,319,57.33Z"/><path class="cls-3" d="M354,50l-.67-.16.49.13Z"/><path class="cls-3" d="M310.51,70.86a1.08,1.08,0,0,0-.36.84C310.28,71.36,310.48,71,310.51,70.86Z"/><path class="cls-3" d="M348.7,48.94c.14,0,.21,0,.22,0C348.78,48.92,348.67,48.91,348.7,48.94Z"/><path class="cls-3" d="M375.63,78.46l.05.17A1.09,1.09,0,0,0,375.63,78.46Z"/><path class="cls-3" d="M373.52,68.78c0-.14-.27-.1-.38-.11a.52.52,0,0,1,.26.23A.27.27,0,0,0,373.52,68.78Z"/><path class="cls-3" d="M375.41,86v.1l.12,0Z"/><path class="cls-3" d="M370.49,63.27l.08.12.16,0Z"/><path class="cls-3" d="M375.68,86c0,.22-.16.56-.29.55v-.5l-.06,0s0,0,0-.08a33.44,33.44,0,0,0,.18-5.9l.07.06-.07-.18c0-.25,0-.51,0-.76,0,0,.1.08.13.23.12-.57-.17-.48,0-1,0-.06,0,0,.06,0l-.16-.53c.08.1.22-.12.21.22a2.6,2.6,0,0,0-.18-1.19c-.1-.31-.18-.54-.09-.74l0,.08c-.26-1-.27-.55-.46-.65s-.08-.42-.13-.62l.3-.55-.26-.07c0-.14-.08-.41,0-.39-.29-.46-.08.11-.31-.14a3.68,3.68,0,0,0-.23-1.18c-.13-.38-.21-.7-.05-.83-.24-.17.06.66-.27,0,.16-.16.08-.35,0-.59a1.77,1.77,0,0,1-.32-.81c.26.11.36.69.32.05a.91.91,0,0,1-.37-.73,3.47,3.47,0,0,0-.25-.89c-.14,0-.28-.21-.43-.56a11.94,11.94,0,0,0-.6-1.18,13.9,13.9,0,0,0-.95-2.29h.05c-.34,0-.7-.74-1.1-1.21.16-.07.28,0,.53.22l-.33-.48a1.49,1.49,0,0,1-.53-.48h.26a7.06,7.06,0,0,0-.78-.9,6.26,6.26,0,0,1-.82-1.07c-.13.06-.06.47-.24.51l-.33-.4c.06,0,.14,0,.25.07a1.2,1.2,0,0,1-.35-.36l.41.21c-.23-.4-.27-.09-.48-.37.12-.1-.09-.28,0-.32s.15.29.29.35a3.24,3.24,0,0,1-.51-1c0,.09-.15.14-.36-.07-.53-.56,0-.32-.29-.71-.2-.07-.47-.48-.64-.34-.16-.15-.11-.26-.13-.36-.18-.1-.51-.44-.79-.66s-.5-.36-.42-.12l.06.08-.05,0a5.05,5.05,0,0,1-.78-.6l-.75-.68a10.11,10.11,0,0,0-1.53-1.27l.05-.06-1-.62a3.88,3.88,0,0,0-.95-.46c-.2-.11-.39-.4-.26-.42a4.89,4.89,0,0,1-1.31-.74c.59.16-.12-.2.58.2a3.75,3.75,0,0,0-1.56-.81c.35-.05-.41-.47-.77-.58l.43.36a8.83,8.83,0,0,1-1-.49l.28-.16a3.71,3.71,0,0,0-1-.5,6.47,6.47,0,0,0-1-.25,3.65,3.65,0,0,1-1.76-.69c-.46,0,.78.37.35.47a13,13,0,0,1-1.51-.9c-.93-.38-1,.13-2-.19.11.11.17.38-.6.32s-.79-.56-.33-.54c.17,0,.25.07.23.1.24,0,.55,0,.29-.12l-.11.07a7.54,7.54,0,0,0-.76-.25c-.25-.07-.43-.13-.31-.19-.56,0-.25.11.14.22a20.55,20.55,0,0,0-2.39-.41c.15.07.28.19.13.18-1.39-.24-.63.09-1.58.09-.53-.17.21-.33-.75-.26-.58-.12-.11-.25.12-.32a2.77,2.77,0,0,1-.64,0,3.68,3.68,0,0,1-.58,0c-.36,0-.68-.13-.93-.15l.46-.07a6.56,6.56,0,0,1-.73,0c.09.05.18.12.27.18-.28,0-.51,0-.5-.1-.28.14.22.3-.32.5-.37-.07-1.09.15-1.23-.07,1.14,0-.15-.25.81-.34a2.46,2.46,0,0,1-.69,0s0-.05.11-.07c-1.11-.11-.48.33-1.59.44.12-.16-.3-.24-.48-.17.46-.07.25.2-.15.36-.73,0-.76.2-1.13.25l.43,0c-.12.16-.48.19-1,.35-.06-.1.43-.17.25-.18-.49.36-1.29,0-2,.36-.38,0-.1-.25-.43-.23-.8.38-1,.07-1.81.48.31.1.34,0-.22.41l1.4-.57-.84.55c.43-.13.88-.41,1.15-.44-.4.27-.36.22-.12.3-.67-.08-1.12.51-1.85.56l-.13-.44a4.28,4.28,0,0,0-1.44.56,9.52,9.52,0,0,1-1.6.8c.15,0,.29-.09.44-.12-.1.24-.77.4-1.15.66,0-.16-.31-.09-.53-.09.08.09-.91.48-.88.81-.21,0-.43.07-.64.12-1,.52-.89,1-1.81,1.59.18-.32-.3-.14.24-.64-.3.2-.59.36-.54.45a1.52,1.52,0,0,0-.49.39,1.44,1.44,0,0,1-.57.44c-.08.14,0,.3-.35.53a0,0,0,0,1-.05-.06c0,.06-.44.47-.05.39-1.18.31-2.36,2-3.3,2.41-.54.58-1.13,1.33-1.61,1.87,0-.07-.06-.06,0-.15-.75.67,0,.75-.89,1.52-.27.15-.21,0-.11-.14s.23-.3.08-.19c-.26-.11-.44.18-.66.54a3.1,3.1,0,0,1-.79,1l.08-.17c-.46.39-.66,1.28-1.16,2.07,0,0,0-.06-.07,0a19.76,19.76,0,0,1-1,2.63c-.06-.35.08-.42-.17-.36-.15.38.33,0,0,.8-.21.19-.56.67-.78.66.09-.24.21-.47.32-.7a1,1,0,0,0-.4.58,3.4,3.4,0,0,1-.22.68l-.09-.09c-.43,1.11-.13,1.24-.58,2.41l.13-.09c.06.75-.34.5-.33,1.22l-.36.11c0,.23-.08.64-.11,1.09s-.1.93-.15,1.34a9,9,0,0,1,0-2.07,5.91,5.91,0,0,0-.28,1.77,1.62,1.62,0,0,1,.09-.59,6.14,6.14,0,0,1-.11,2.21c-.57-.26-.5,2.28-1,2.89,0,.21,0,.41,0,.61s0,.4,0,.6c0,.41-.06.81-.09,1.23a17.52,17.52,0,0,0,0,2.63c.43-.69.05.55.52.4a2.13,2.13,0,0,1,.05.63V85s0,.06,0,.09c0,.44-.1.89-.14,1.34,0,.17-.09.07-.13-.07s-.07-.3-.12-.28c.08,1-.15.43-.18,1.08.15-.15.29.3.31.85l.1-.8a2.22,2.22,0,0,1,.14,1.25,2,2,0,0,0,.19,1.24l-.24-.38c.22.66.63,2.5,1.22,3,0,.13-.09.33-.21.05.46,1.61,1.66,3.3,2,4.54l-.16-.06c.17.26.42.39.51.78-.06,0-.17-.06-.1.07a3.86,3.86,0,0,1,.7,1l-.28-.24a5.85,5.85,0,0,0,1.13,1.67c.42.43.83.81,1.26,1.33-.28.19.37,1.3.74,1.82l-.05,0a18.67,18.67,0,0,0,3.67,3.32,3.9,3.9,0,0,0,.65.84c.3.31.66.62,1,.94.77.64,1.63,1.29,2.3,1.85-.18-.2.19-.2.46,0s1.08.39.86.63l-.12-.08c.1.42.86.8,1.43,1.11l.3-.32a3.59,3.59,0,0,0,1.17.86,11.23,11.23,0,0,0,1.43.62c.49.16.94.33,1.33.48a2.2,2.2,0,0,1,.88.52c.42,0,.91.2,1.32.22l-.08.21a14.16,14.16,0,0,0,1.4.46,14.43,14.43,0,0,0,1.63.36l-.32.1c.79.17,1.12-.42,1.83-.31l.17.36c.69.1,1.37.28,2.06.37a8.93,8.93,0,0,0,1,.1,6,6,0,0,0,1-.08s-.07.14-.29.15c.65.07,2.54.26,2.29-.2,0,.32,1.44,0,2.17-.21l-.1.23a3.3,3.3,0,0,1,1.48-.59c.18,0,.2.12,0,.13.58,0,.45-.28,1.25-.29l-.29.19a1.46,1.46,0,0,0,1-.39,2.17,2.17,0,0,1,1.48,0,1.15,1.15,0,0,1,.82-.44c.08.06-.06.14-.13.18a4.11,4.11,0,0,0,1.37-.42,2.77,2.77,0,0,1,1.1-.34.17.17,0,0,0,.18.07c-.91.3-1.64.5-1.58.47.06.19.81,0,.3.45.27-.17.64-.41,1-.62a4.57,4.57,0,0,1,1.16-.53.53.53,0,0,1,.12,0l-.07,0a1.3,1.3,0,0,0,.43-.19,4.71,4.71,0,0,0,.6-.18c.15.11.86-.25,1.21-.42-.12-.19.35-.37-.15-.33.06,0-.06.06-.28.17a.87.87,0,0,0-.14.08v0l-.87.38a1.54,1.54,0,0,1,.93-.48c.12-.2.25-.43.33-.55.6.06,1.58-.23,1.79-.14.49-.34,1.09-.67,1.6-1.06a7.17,7.17,0,0,0,.7-.57,2.22,2.22,0,0,0,.44-.58c.24-.23.38-.11.52-.12-.14.14-.33.26-.38.37.24-.24.65-.5,1-.79s.58-.54.56-.7c.74-.4-.21.5.67-.24l-.07.17a5.19,5.19,0,0,0,1.27-.92c.34-.36.63-.73.93-1.11a8.8,8.8,0,0,1,2.19-2.29c-.14.1-.21.15-.27.15l.38-.37.37-.4c.24-.27.47-.54.7-.82.43-.59.88-1.17,1.26-1.79.81-1.22,1.49-2.49,2.34-3.63a2.29,2.29,0,0,0,.38-1.34l.29-.06c0-.29.06-.58.08-.87a2.8,2.8,0,0,1,.33-.77c.13-.23.28-.46.44-.7a4.66,4.66,0,0,0,.42-.77,3.28,3.28,0,0,0,.21-1l-.21.14c.09-.25.2-.66.29-1s.16-.59.24-.52a.37.37,0,0,1,0-.4l.13,0,0-.67,0-.66c.28-1,.47.26.75-1.21C376,86.87,375.79,85.82,375.68,86ZM356,113s0,0,0,0a.2.2,0,0,1-.05.14c-.22.13-.32.12-.37.09ZM338.64,62.9c4.34-3.34,11-2.23,14.25,1.46s-2.69,17-9.75,15.89S334.3,66.24,338.64,62.9Zm18.51,42.26c-11.95,2.51-27.9-.25-36.5-5.72v-.3c1.61-7.23,7.3-13.53,14.94-16.6a46.45,46.45,0,0,0,5.69,6.73,35.86,35.86,0,0,0,6.79-4.75c6.35,5.27,9.82,13,9.12,20.4Zm18.24-26.84,0-.31.06.23A.34.34,0,0,1,375.39,78.32Z"/><path class="cls-3" d="M356.24,112.7l.09,0h-.16a.93.93,0,0,0-.05.1Z"/><path class="cls-3" d="M365,57.23l.12.15A.53.53,0,0,0,365,57.23Z"/><path class="cls-3" d="M365,57.23l-.31-.4C364.61,56.87,364.84,57.05,365,57.23Z"/><path class="cls-3" d="M345.59,48.21l.19,0A.27.27,0,0,0,345.59,48.21Z"/><path class="cls-3" d="M365.12,57.38a.13.13,0,0,1,0,.07s0,0,0,0Z"/><path class="cls-3" d="M367.77,59.67a.19.19,0,0,0,0-.1S367.77,59.63,367.77,59.67Z"/><path class="cls-4" d="M180.83,302.86A114.28,114.28,0,1,0,66.64,188.58,114.24,114.24,0,0,0,180.83,302.86Z"/><path class="cls-3" d="M178.38,305.78a114.32,114.32,0,0,1-46.66-10.36c-2.27-.81-3.65-1.35-3.91-1.45l-2.28-.91,0-.57c-20.22-10.26-32.42-22.67-32.94-23.21l-1.13-1.17.18-1.62c2.64-22.5,8.48-31,8.72-31.38l.11-.15c5-6.29,14.74-12.76,29.09-19.23l.08,0c.63-.26,14.4-5.9,18.64-7.49l8.92-7.12s.69-9.47.27-13a45.33,45.33,0,0,1-6.75-10.27l-.08-.19s-.09-.28-.13-.43c-2.48-.55-5.85-2.56-8-8.9-1.82-5.45-2.57-9.37-2.24-11.68-.83-4.79-3.48-25,7.66-39,6.52-8.19,16.43-12.51,29.45-12.85l5.94-.15L182,107.11c6.42.15,17.37,1.83,25.41,10.54,7.71,8.35,10.95,21.1,9.62,37.91l0,.49c.64,2.17.77,5.92-1.34,12.24s-5.38,8.26-7.79,8.86c-.11.34-.2.57-.24.69-.91,2.63-4.57,7.82-6.4,10.33-.53,4.41.28,12.68.28,12.68l8,7.51c3.78,1.43,15.25,6.14,17.59,7.1l.16.07c14.47,6.54,24.33,13.08,29.33,19.44l.09.11c.28.39,6.19,9,8.8,31.9l.19,1.65-1.17,1.17c-.53.53-13.16,13-33.87,23.2v.24l-2.08.89s-.81.34-2.21.88C210.5,302.15,194.35,305.78,178.38,305.78Z"/><path class="cls-3" d="M320.06,136.71a265.33,265.33,0,0,0,50.71,4.6,1.75,1.75,0,0,0,0-3.5,457.2,457.2,0,0,1-50.44-3.08C319.2,134.6,319,136.5,320.06,136.71Z"/><path class="cls-3" d="M326.58,155.12a156.72,156.72,0,0,0,18.7,2.39c6.46.47,13,1,19.52.86a1.64,1.64,0,0,0,0-3.28c-6.33-.34-12.69-.29-19-.64s-12.65-.74-19-.89A.8.8,0,0,0,326.58,155.12Z"/><path class="cls-3" d="M334.51,172.57c2.09,1.74,5.21,2.16,7.82,2.63s5.93,1.26,8.6.37c.89-.3,1.32-1.77.29-2.22-2.45-1.09-5.36-1-8-1.27s-5.71-1.27-8.39-.74A.73.73,0,0,0,334.51,172.57Z"/><path class="cls-2" d="M262.54,267.37c-2.53-22.25-8.17-30.29-8.17-30.29-8.57-10.89-31.55-20.45-46.22-25.76l-5.78-5.38c-8.23,10.93-22.83,21.34-22.83,21.34h-.17a169.34,169.34,0,0,1-22.22-21.43l-6.72,5.37c-15,5.43-38.23,14.93-46.82,25.86,0,0-5.56,7.92-8.12,29.8,0,0,34.51,35.46,83.3,35.46S262.54,267.37,262.54,267.37Z"/><path class="cls-3" d="M246.84,147.2c-2.85.33-5.5,2.15-7.8,3.77s-4.68,3.32-6,5.74c-.4.73.38,1.33,1,1,2.34-1,4.4-2.71,6.64-3.93s5-1.88,7-3.38C248.92,149.56,248.76,147,246.84,147.2Z"/><path class="cls-3" d="M255.93,175.84a52.4,52.4,0,0,0-12.54,1.83c-1,.31-1.2,2,0,2.2a52.62,52.62,0,0,0,12.54-.16C258.35,179.45,258.45,175.71,255.93,175.84Z"/><path class="cls-3" d="M258,204.27a52.3,52.3,0,0,1-13.1-3.49c-.92-.42-2.16.81-1.2,1.56a28.17,28.17,0,0,0,13.15,6.09C259.58,208.83,260.78,204.72,258,204.27Z"/><path class="cls-3" d="M122.25,150.3a17.63,17.63,0,0,0-6.37-5.73c-2.15-1.08-5.58-2.87-7.85-1.47a1.62,1.62,0,0,0-.32,2.5c1.39,1.6,4.24,1.56,6.14,2.45A26.37,26.37,0,0,1,120,152C121.16,153,123.25,151.66,122.25,150.3Z"/><path class="cls-3" d="M115.61,171.73c-4.12.4-9.59.6-13.2,2.75a1.94,1.94,0,0,0,1,3.58c4.2.11,9.06-2.4,12.84-4.05A1.23,1.23,0,0,0,115.61,171.73Z"/><path class="cls-3" d="M118.34,198.66c-4.56,1.25-10.43,5.39-10.54,10.67a1.91,1.91,0,0,0,3.54.95c1.14-1.76,1.67-3.74,3-5.45a13.12,13.12,0,0,1,5-3.89C120.61,200.34,119.68,198.29,118.34,198.66Z"/><path class="cls-3" d="M199,210.67c-3.2-3.91-.65-23.81-.65-23.81H161.22s2.54,19.91-.65,23.81l18.56,18.05Z"/><path class="cls-3" d="M207,163.7a40.39,40.39,0,0,1-2.22,13c-1.06,3.2-5.82,7.87-9.15,12.31-4.26,5.69-12.07,9.6-16.34,9.6a19.65,19.65,0,0,1-14.2-7.11c-3.56-4.62-8.34-9.36-10.83-15a46.51,46.51,0,0,1-1.6-12.11s-5.07-25.59,5.06-31.53,40.64-4.68,44.47.5C208.8,142.18,207,163.7,207,163.7Z"/><path class="cls-3" d="M204.78,173.63s5.08,2.49,8.05-6.43.86-11.12.86-11.12-5.27-3.55-8.81,1.92S204.78,173.63,204.78,173.63Z"/><path class="cls-3" d="M154.28,173.63s-5.08,2.49-8.05-6.43-.86-11.12-.86-11.12,5.26-3.55,8.81,1.92S154.28,173.63,154.28,173.63Z"/><path class="cls-5" d="M185.9,234.93l-4,7.85-4-.13-3.64-8.94,5.1-6.27Z"/><path class="cls-5" d="M191.31,273.71c-6-14.14-9.2-31.06-9.2-31.06l-5.37-.13s-6.53,20.4-5.62,38.35c0,0,4.09,6.39,7.67,11C183.77,287.26,191.31,273.71,191.31,273.71Z"/><path class="cls-5" d="M176.47,110.85s41.64-7.08,37.57,44.44c0,0-4.34-.4-7.11,2.17,0,0,.1-23.35-6.7-25.53s-7.1,8.09-21.54,7.6-14.45-10.29-21.55-6.13c-7.36,4.32-4.65,24.51-4.65,24.51-4.32-4.44-8.24-1.22-8.24-1.22s-9.61-47.42,33.7-48.53Z"/><path d="M182,243.82h-5.59l-4.54-7.38,1.27-.78,4.11,6.66h3.9l3.7-6.24,1.29.77Z"/><path d="M171,280.58c-.9-17.88,5.09-37.54,5.15-37.74l1.44.45c-.06.19-6,19.6-5.09,37.21Z"/><path d="M189.62,273.64c-6-14.06-8.73-30.29-8.75-30.45l1.48-.24c0,.16,2.74,16.21,8.65,30.1Z"/><path class="cls-2" d="M179.86,256.8a1.18,1.18,0,0,1-1.21-1c-1.06-6.79.19-9.42.21-9.54h.44s.54,2.86,1.68,9.14A1.2,1.2,0,0,1,179.86,256.8Z"/><path class="cls-6" d="M250.88,312.84l16.79,15s33.63-21.55,58-65.09l-18.25-16.3S295.21,279.65,250.88,312.84Z"/><path class="cls-5" d="M320.93,280.67c-16.24,24.66-38.81,43.13-38.81,43.13L345,374,371.61,330Zm.75,15.86,4.09-2.17a1.19,1.19,0,0,1,1.4,1.89,1.27,1.27,0,0,1-.29.21l-4.09,2.18a1.17,1.17,0,0,1-1.6-.5A1.19,1.19,0,0,1,321.68,296.53Zm-7.85,8.64a1.19,1.19,0,0,1,.49-1.61l4.09-2.17a1.19,1.19,0,0,1,1.4,1.89,1.27,1.27,0,0,1-.29.21l-4.08,2.18A1.2,1.2,0,0,1,313.83,305.17Zm9.75,9.25a1.27,1.27,0,0,1-.29.21l-4.09,2.18a1.19,1.19,0,0,1-1.11-2.1l4.09-2.18a1.19,1.19,0,0,1,1.4,1.89Zm1.57-5.2a1.19,1.19,0,0,1,.49-1.61l4.09-2.17a1.19,1.19,0,0,1,1.4,1.89,1.27,1.27,0,0,1-.29.21l-4.09,2.18A1.19,1.19,0,0,1,325.15,309.22Zm3.44,11.26a1.18,1.18,0,0,1,.49-1.61l4.09-2.17a1.19,1.19,0,0,1,1.4,1.89,1.27,1.27,0,0,1-.29.21L330.19,321A1.18,1.18,0,0,1,328.59,320.48Zm8.89,9.51a1.27,1.27,0,0,1-.29.21l-4.09,2.17a1.19,1.19,0,0,1-1.11-2.1l4.09-2.18a1.18,1.18,0,0,1,1.61.5A1.2,1.2,0,0,1,337.48,330Zm-1.22-16.65a1.18,1.18,0,0,1,.49-1.6l4.09-2.18a1.19,1.19,0,0,1,1.4,1.9,1.27,1.27,0,0,1-.29.21l-4.08,2.17A1.2,1.2,0,0,1,336.26,313.34Zm3.13,11.34a1.18,1.18,0,0,1,.49-1.6L344,320.9a1.19,1.19,0,0,1,1.4,1.9,1.27,1.27,0,0,1-.29.21L341,325.18A1.18,1.18,0,0,1,339.39,324.68Zm8.6,9.59a1.27,1.27,0,0,1-.29.21l-4.09,2.17a1.19,1.19,0,1,1-1.11-2.1l4.09-2.18a1.19,1.19,0,0,1,1.4,1.9Zm-.8-16.75a1.19,1.19,0,0,1,.49-1.61l4.09-2.17a1.19,1.19,0,0,1,1.4,1.89,1.27,1.27,0,0,1-.29.21L348.79,318A1.19,1.19,0,0,1,347.19,317.52ZM350,328.94a1.18,1.18,0,0,1,.5-1.61l4.09-2.18a1.18,1.18,0,0,1,1.6.5,1.19,1.19,0,0,1-.21,1.4,1.21,1.21,0,0,1-.28.21l-4.09,2.18A1.2,1.2,0,0,1,350,328.94Zm8.33,9.64a1.27,1.27,0,0,1-.29.21L354,341a1.19,1.19,0,0,1-1.12-2.11l4.09-2.18a1.19,1.19,0,0,1,1.4,1.9Zm7.86-7-4.09,2.18a1.19,1.19,0,1,1-1.11-2.1l4.08-2.18a1.19,1.19,0,0,1,1.4,1.89A1.21,1.21,0,0,1,366.21,331.54Z"/><path class="cls-4" d="M15.41,49.79S24.65,68,43,78.05c0,0,8.16-16,41.62-46.87l-16.44-12S50.1,40.67,40,58.78c0,0-12.47-14.92-14.71-20.59Z"/><path d="M516.58,129.6C481.58,113,446.7,81.83,429,64.69l-1,1.07c17.59,17,52.13,48,87,64.74-7.57,7.5-69.07,69.57-100.41,136.24-5.53-1.7-47.06-14.92-75.18-37.88l-.95,1.16c30.26,24.7,75.87,38.21,76.33,38.34l.21,0a.76.76,0,0,0,.68-.43c33.05-70.73,100.46-136.49,101.14-137.14a.75.75,0,0,0,.22-.66A.78.78,0,0,0,516.58,129.6Z"/><path d="M436.21,184.55c-14.5-6.14-21.38-12.36-21.45-12.42l-1,1.11c.28.26,7.11,6.43,21.88,12.68Z"/><path d="M409.55,192.06c.22.2,5.52,5,17,9.84l.58-1.38c-11.17-4.73-16.48-9.51-16.53-9.56Z"/><path d="M284.64,10.11c2.9,1.05,13.63,4.78,29.45,8.75-.44,3.44-.69,7.11-.15,9.1l1.44-.4c-.91-3.35.8-12.68,1.36-15.54,2.47.85,9.94,3.22,16.06,2.9a.76.76,0,0,0,.68-.54c0-.16,4.75-15.43,24.41-12.51S377,21,377,21.64a.76.76,0,0,0,.6.76,65.59,65.59,0,0,0,12.67,1.2l-1.44,14.73,1.5.15.66-6.77a334.53,334.53,0,0,0,44.19-.82c-1.7,4.64-8.31,23.45-14.91,52.8A675.06,675.06,0,0,0,404.39,224.9c-5.3.72-43,5.32-82.74-2.37l-.28,1.48a261.75,261.75,0,0,0,49,4.41,260.29,260.29,0,0,0,34.86-2.13.73.73,0,0,0,.64-.73,674.43,674.43,0,0,1,15.85-141.5c7.6-33.8,15.2-53.56,15.27-53.76a.72.72,0,0,0-.1-.72.74.74,0,0,0-.66-.3,329.37,329.37,0,0,1-45.1.93l.72-7.33a.76.76,0,0,0-.21-.59.77.77,0,0,0-.59-.22,60.24,60.24,0,0,1-12.56-1c-.12-3.29-1.73-17.89-20.4-20.66s-24.81,10.25-25.88,13.05c-6.89.17-15.68-3.09-15.77-3.12a.81.81,0,0,0-.63,0,.78.78,0,0,0-.37.5c-.05.25-.65,3.11-1.15,6.51a300.87,300.87,0,0,1-29.92-9,.76.76,0,0,0-.61,0,.71.71,0,0,0-.38.48,558.19,558.19,0,0,0-11.84,60.33l1.49.18A556.44,556.44,0,0,1,284.64,10.11Z"/><path d="M130.42,287.75c-1.12-6.22-1.77-13.6-1.77-13.67l-1.5.13c0,.07.66,7.52,1.8,13.81Z"/><path d="M230.25,273.4l-1.5-.07c-.23,4.81-1.18,13.94-1.19,14l1.48.15C229.05,287.43,230,278.25,230.25,273.4Z"/><path d="M151.72,175.17a3,3,0,0,0,.64.07,2.73,2.73,0,0,0,.61-.08A49.08,49.08,0,0,0,159.7,185c.72,5.65,2,20.93-.51,24l1.15,1c2.85-3.48,1.72-17.18,1.11-22.88.85,1,1.67,2,2.43,3a21.21,21.21,0,0,0,15.29,7.65c4.65,0,13-4.2,17.5-10.24.35-.47.73-.94,1.11-1.42-.62,6.4-1.62,20.49,1.15,23.88l.32-.26c-7.45,8.76-18.07,16.71-20.16,18.24a169.12,169.12,0,0,1-21.75-21l-1.15,1a170.39,170.39,0,0,0,21.69,21l-10.25,10.66c-2.3-3.29-11.63-16.81-15.64-25.88l-1.37.6c4.64,10.49,16.2,26.72,16.31,26.89l.53.73,11.61-12.07,11.6,12.05.52-.69c.12-.16,11.92-15.74,16.56-26.23l-1.37-.61c-4,9.07-13.52,22.09-15.85,25.23l-10.24-10.65c3-2.23,15.11-11.46,22.29-21l-1.19-.91c-.45.6-.93,1.21-1.42,1.8-2.3-3.35-1.19-18.39-.47-24.85l.89-1.07c2.51-3,4.87-5.79,5.73-8a3,3,0,0,0,.76.11,2.47,2.47,0,0,0,.54-.05c2.26-.42,4.47-3.42,6.6-8.9,2-5.27,2-8.87,0-10.69a5.2,5.2,0,0,0-5.5-.55l.67,1.34a3.73,3.73,0,0,1,3.82.31c1.46,1.33,1.3,4.54-.44,9-2.5,6.47-4.48,7.77-5.44,8a1.26,1.26,0,0,1-.55,0,44.2,44.2,0,0,0,1.41-6l1,.07a8.31,8.31,0,0,1,2.2-5.38l-1-1.12a8.19,8.19,0,0,0-1.79,2.63c.06-.88.1-1.8.1-2.74h-1.5a41,41,0,0,1-2.26,13.18c-.69,2.07-3.06,4.89-5.57,7.87l-1,1.17-.17,0c0,.07,0,.16,0,.26-.9,1.08-1.78,2.17-2.59,3.24-4.13,5.51-12,9.63-16.3,9.63a19.56,19.56,0,0,1-14.1-7.06c-1-1.29-2.06-2.57-3.18-3.91-3-3.57-6.06-7.26-7.9-11.45a47.83,47.83,0,0,1-1.62-12.27h-1.5c0,.87,0,1.72.07,2.54a8.75,8.75,0,0,0-2.05-3.32l-1,1.12a8.27,8.27,0,0,1,2.2,5.37l1.12-.07a47.6,47.6,0,0,0,1.2,6.55,2.1,2.1,0,0,1-.41,0c-1-.25-3-1.64-5.56-8.23-1.74-4.49-1.9-7.71-.44-9a3.75,3.75,0,0,1,3.82-.32l.66-1.33a5.2,5.2,0,0,0-5.49.54c-2,1.83-2,5.43,0,10.69C147.2,171.59,149.45,174.67,151.72,175.17Zm27.35,53.73-.08-.09.08-.11.08.12Z"/><path d="M175.48,155.86a23.83,23.83,0,0,1-1.29,8.54c-.66,2.21-1.18,4,0,5.18a8.38,8.38,0,0,0,5.64,2.21,5.09,5.09,0,0,0,2.62-.63l-.77-1.28c-1.54.92-4.85.22-6.43-1.36-.56-.56-.27-1.65.34-3.69a25.67,25.67,0,0,0,1.35-9.05c-.4-7.91-9-8.79-9.13-8.8l-.14,1.5C168,148.51,175.15,149.23,175.48,155.86Z"/><path d="M198.76,150.63l.8-1.27a13.94,13.94,0,0,0-13.54-.71l.72,1.31A12.58,12.58,0,0,1,198.76,150.63Z"/><path d="M197,156l.62-1.37-.58-.26c-2.33-1.07-3.81-1.73-6.68-1.43h-.14c-.15,0-.28,0-.44,0v0a2.79,2.79,0,0,0-2.18,1.78,2.66,2.66,0,0,0,.47,2.73,3,3,0,0,0,2,.68,3.37,3.37,0,0,0,2.3-.87,2.53,2.53,0,0,0,.75-2.86,15.09,15.09,0,0,1,3.29,1.23Zm-5.64.25a1.94,1.94,0,0,1-2.25.22,1.26,1.26,0,0,1-.1-1.15,1.43,1.43,0,0,1,1.25-.87l.22,0a1.23,1.23,0,0,1,1.26.62A1,1,0,0,1,191.34,156.26Z"/><path d="M161,155.42a16.11,16.11,0,0,1,2.45-.83,2.55,2.55,0,0,0,.78,2.78,3.4,3.4,0,0,0,2.3.87,3,3,0,0,0,2-.68,2.68,2.68,0,0,0,.48-2.74,2.84,2.84,0,0,0-2.19-1.78v0l-.34,0-.18,0h-.18A11.19,11.19,0,0,0,160.4,154l-1.56.6.5,1.4C159.93,155.82,160.46,155.61,161,155.42Zm6.6-.09a1.3,1.3,0,0,1-.1,1.15,1.94,1.94,0,0,1-2.25-.22,1,1,0,0,1-.38-1.2,1.19,1.19,0,0,1,1.15-.63l.34,0A1.39,1.39,0,0,1,167.56,155.33Z"/><path d="M173.64,177.51l-.86,1.23a12.32,12.32,0,0,0,6.35,1.86,10.35,10.35,0,0,0,5.68-1.7l-.82-1.26C178.82,181,173.85,177.66,173.64,177.51Z"/><rect x="176.96" y="181.76" width="4.16" height="1.5"/><path d="M174.4,188.44s5.1-1.82,8.44.07l.73-1.3c-3.93-2.23-9.45-.26-9.68-.18Z"/><path d="M282.4,279.85A140.58,140.58,0,0,0,271.08,81.46C269.5,80.09,255.57,68,252.92,67.38l-.36,1.45c1.73.43,11.68,8.67,17.53,13.75,57.16,51,62.18,139.07,11.19,196.27A138.35,138.35,0,0,1,96.23,299l-.88,1.21a139.78,139.78,0,0,0,82.19,26.64,140.5,140.5,0,0,0,104.86-47Z"/><path d="M177.47,304.52c2.28,0,4.59-.07,6.89-.2a117.71,117.71,0,1,0-6.89.2ZM90.6,108.64A116.65,116.65,0,1,1,100,273.41,116.32,116.32,0,0,1,90.6,108.64Z"/><path d="M329,260.54a.77.77,0,0,0-.12-.91l-6.69-6-10.73-9.57c-.82-.73-1.64-1.46-2.45-2.2s-1.79.42-1.06,1.06l6.69,6,10.73,9.57,2,1.82a203.54,203.54,0,0,1-15.1,23.42,205.56,205.56,0,0,1-15.74,18.63c-4.46,4.69-9.14,9.18-14,13.41-3.32,2.87-6.71,5.61-10.23,8.19-1,.75-2.08,1.5-3.14,2.22-.32.22-.71.42-1.05.65q-8.89-7.95-17.8-15.89c-.73-.65-1.79.41-1.07,1.06l18.28,16.32a.77.77,0,0,0,.91.12c1.28-.8,2.51-1.68,3.73-2.55,3.4-2.44,6.68-5,9.87-7.74q7.17-6.07,13.75-12.82a208.93,208.93,0,0,0,15.75-18.13,205.1,205.1,0,0,0,15.62-23.35C327.8,262.75,328.41,261.65,329,260.54Z"/><rect x="348.75" y="267.32" width="1.5" height="69.75" transform="translate(-111.12 338.34) rotate(-45.34)"/><path d="M49.55,250.24A144.52,144.52,0,0,0,59.49,266l1.22-.88a140,140,0,0,1-9.84-15.63Z"/><path d="M35.88,217.22c1.62,5.39,3,10.91,4.12,16.42l1.47-.3c-1.13-5.55-2.52-11.12-4.16-16.55Z"/><path d="M30.42,174.33l-1.5-.07a181.21,181.21,0,0,0,.32,22.23l1.49-.11A180.27,180.27,0,0,1,30.42,174.33Z"/><path d="M37.8,144.11a119.74,119.74,0,0,0-5.53,17.11l1.45.35a120.21,120.21,0,0,1,5.47-16.9Z"/><path d="M57.8,109.17a73.94,73.94,0,0,0-12.07,18.46l1.36.63a72.19,72.19,0,0,1,11.83-18.09Z"/><path d="M119.42,57.77l-.63-1.36a183.74,183.74,0,0,0-22,12.22l.82,1.26A180.62,180.62,0,0,1,119.42,57.77Z"/><path d="M163.55,46.36l.08-1.5c-7.47-.41-20.33,2-26,4.27l.56,1.39C143.68,48.32,156.46,46,163.55,46.36Z"/><path d="M210.09,48.94a179.14,179.14,0,0,0-23.17-3.48L186.8,47a180,180,0,0,1,23,3.45Z"/><path d="M243.86,61.45a64.45,64.45,0,0,0-15.81-8l-.48,1.42A62.84,62.84,0,0,1,243,62.68Z"/><rect x="77.58" y="278.32" width="1.5" height="15.9" transform="translate(-184.35 148.13) rotate(-46.96)"/><path d="M82.52,89.29C82.48,89,78.3,59.5,81.07,40l-1.48-.21C77,57.82,80.33,84.22,81,88.81,48.5,95.81,13.59,95,9,94.88.21,68.84,1.44,30.6,1.71,24.51c23,3.46,55-3.35,55.35-3.42l-.32-1.47c-.33.07-32.86,7-55.62,3.28a.74.74,0,0,0-.59.16.76.76,0,0,0-.28.54c0,.43-2.32,43.75,7.46,72.25a.77.77,0,0,0,.68.51c.11,0,3.07.11,8.05.11,13.1,0,40.11-.77,65.5-6.34A.75.75,0,0,0,82.52,89.29Z"/><path d="M363.92,26.62c-11.55,0-24.23-3.44-24.37-3.48a.74.74,0,0,1-.5-1c0-.11,4.4-11.45,16-9.86s13.54,13.19,13.56,13.3a.71.71,0,0,1-.15.58.75.75,0,0,1-.53.29C366.63,26.58,365.28,26.62,363.92,26.62Zm-23.13-4.7c3.31.83,15.81,3.75,26.18,3.12-.63-2.52-3.24-10-12.11-11.25S341.92,19.53,340.79,21.92Z"/></g></g></svg>