<svg xmlns="http://www.w3.org/2000/svg" viewBox="0 0 517.04 373.97"><defs><style>.cls-1{fill:#ff533d;}.cls-2{fill:#6374ff;}.cls-3{fill:#fff;}.cls-4{fill:#ffd240;}.cls-5{fill:#010101;}.cls-6{fill:#ebecf2;}</style></defs><title>audit-img</title><g id="Слой_2" data-name="Слой 2"><g id="Слой_1-2" data-name="Слой 1"><path class="cls-1" d="M425.07,122.17a.62.62,0,0,1-.07-.79c2.32-3.45,4.76-7,8.4-9.16a11,11,0,0,1,9.12-1.28,13.06,13.06,0,0,1,7.14,5.65,10.16,10.16,0,0,1,1.69,3.69,9.4,9.4,0,0,1-.7,5.39,41.77,41.77,0,0,1-6.19,10.53.65.65,0,0,1-.91.11h-.09a58.72,58.72,0,0,1-5.24-2.82c-2.31.73-4.55.71-6.25-.51-1.91-1.36-2.71-3.67-2.71-6.27a50.6,50.6,0,0,1-4-4.15A.48.48,0,0,1,425.07,122.17Z"/><path class="cls-1" d="M436,138.78a7.71,7.71,0,0,1-10.76-7.17v-.51c-5.77-.59-9.81.17-13.37,2.45q-1.31,6.72-2.27,13.45a45.06,45.06,0,0,0,24.7,14.14l.18-.24C439.46,153.14,440,147,436,138.78Z"/><path class="cls-2" d="M414.25,31.52s-28.13,86-25.85,172.7c0,0-43,.76-71.08-6.09,0,0,2.05-32.92-12.74-66.76-8-18.25-22.42-33.85-22.42-33.85C287.1,47.3,301,17.06,301,17.06S349.05,34.37,414.25,31.52Z"/><path class="cls-1" d="M375.52,23.57s.7-16.15-18.24-19-23.28,12-23.28,12c-6.67.35-15.3-2.9-15.3-2.9s-2.46,11.58-1.4,15.44c0,0,24.59,11.23,69.13,9.83l1.4-14.4A56.47,56.47,0,0,1,375.52,23.57Zm-35.08.7s3.74-10.06,14-8.66,11.93,11.7,11.93,11.7C355,28.24,340.44,24.27,340.44,24.27Z"/><path class="cls-3" d="M322.42,54.66a.8.8,0,0,0-.21.15h.06A.54.54,0,0,1,322.42,54.66Z"/><path class="cls-3" d="M318.42,58.12h.1l.11-.13Z"/><path class="cls-3" d="M308.45,85c.14-.62.36,1,.48,0C308.86,85.09,308.5,84.2,308.45,85Z"/><path class="cls-3" d="M326.79,51.62a.25.25,0,0,0,.17,0Z"/><path class="cls-3" d="M339.72,47.83Z"/><path class="cls-3" d="M336.37,48.71h0Z"/><path class="cls-3" d="M326.47,112.07a4.07,4.07,0,0,0,.58.22l-.25-.14Z"/><path class="cls-3" d="M359.75,53.12l.15-.15C359.53,52.78,359.85,53,359.75,53.12Z"/><path class="cls-3" d="M375.06,73.56c-.07-1.27-.11.3-.42-1,.08.32.13.65.19,1C374.88,73.38,374.93,73.13,375.06,73.56Z"/><path class="cls-3" d="M374,69.63c-.2-.28-.25-.35-.17,0S373.89,69.63,374,69.63Z"/><path class="cls-3" d="M319,57.3l.26.09C319.4,57.18,319.25,57,319,57.3Z"/><path class="cls-3" d="M354,50l-.67-.16.49.13Z"/><path class="cls-3" d="M310.5,70.83a1.08,1.08,0,0,0-.36.84C310.27,71.33,310.47,71,310.5,70.83Z"/><path class="cls-3" d="M348.69,48.91h.22C348.77,48.89,348.66,48.88,348.69,48.91Z"/><path class="cls-3" d="M375.62,78.43l.05.17A1.54,1.54,0,0,0,375.62,78.43Z"/><path class="cls-3" d="M373.51,68.75c0-.14-.27-.1-.38-.11a.58.58,0,0,1,.26.23A.23.23,0,0,0,373.51,68.75Z"/><path class="cls-3" d="M375.4,86v.1h.12Z"/><path class="cls-3" d="M370.48,63.24l.08.12h.16Z"/><path class="cls-3" d="M375.67,86c0,.22-.16.56-.29.55V86h-.06v-.08a34.18,34.18,0,0,0,.18-5.9l.07.06-.07-.18v-.76a.42.42,0,0,1,.13.23c.12-.57-.17-.48,0-1,0-.06,0,0,.06,0l-.16-.53c.08.1.22-.12.21.22a2.7,2.7,0,0,0-.18-1.19c-.1-.31-.18-.54-.09-.74v.08c-.26-1-.27-.55-.46-.65s-.08-.42-.13-.62l.3-.55-.26-.07c0-.14-.08-.41,0-.39-.29-.46-.08.11-.31-.14a3.69,3.69,0,0,0-.23-1.18c-.13-.38-.21-.7-.05-.83-.24-.17.06.66-.27,0,.16-.16.08-.35,0-.59a1.75,1.75,0,0,1-.32-.81c.26.11.36.69.32,0a.91.91,0,0,1-.37-.73,3.59,3.59,0,0,0-.25-.89c-.14,0-.28-.21-.43-.56s-.38-.79-.6-1.18a14.74,14.74,0,0,0-1-2.29h.05c-.34,0-.7-.74-1.1-1.21.16-.07.28,0,.53.22l-.33-.48a1.52,1.52,0,0,1-.53-.48h.26a6.62,6.62,0,0,0-.78-.9,5.73,5.73,0,0,1-.82-1.07c-.13.06-.06.47-.24.51l-.33-.4a.41.41,0,0,1,.25.07,1.1,1.1,0,0,1-.35-.36l.41.21c-.23-.4-.27-.09-.48-.37.12-.1-.09-.28,0-.32s.15.29.29.35a3.16,3.16,0,0,1-.51-1c0,.09-.15.14-.36-.07-.53-.56,0-.32-.29-.71-.2-.07-.47-.48-.64-.34-.16-.15-.11-.26-.13-.36-.18-.1-.51-.44-.79-.66s-.5-.36-.42-.12l.06.08h0a4.5,4.5,0,0,1-.78-.6l-.75-.68a11,11,0,0,0-1.53-1.27l0-.06-1-.62a4,4,0,0,0-.95-.46c-.2-.11-.39-.4-.26-.42a4.6,4.6,0,0,1-1.31-.74c.59.16-.12-.2.58.2a3.82,3.82,0,0,0-1.56-.81c.35,0-.41-.47-.77-.58l.43.36a7.71,7.71,0,0,1-1-.49l.28-.16a4.07,4.07,0,0,0-1-.5,7,7,0,0,0-1-.25,3.65,3.65,0,0,1-1.76-.69c-.46,0,.78.37.35.47a11.56,11.56,0,0,1-1.51-.9c-.93-.38-1,.13-2-.19.11.11.17.38-.6.32s-.79-.56-.33-.54c.17,0,.25.07.23.1.24,0,.55,0,.29-.12l-.11.07c-.25-.09-.5-.18-.76-.25s-.43-.13-.31-.19c-.56,0-.25.11.14.22a21.7,21.7,0,0,0-2.39-.41c.15.07.28.19.13.18-1.39-.24-.63.09-1.58.09-.53-.17.21-.33-.75-.26-.58-.12-.11-.25.12-.32a2.29,2.29,0,0,1-.64,0,2.81,2.81,0,0,1-.58,0,7.89,7.89,0,0,1-.93-.15l.46-.07a4.45,4.45,0,0,1-.73,0c.09,0,.18.12.27.18-.28,0-.51,0-.5-.1-.28.14.22.3-.32.5-.37-.07-1.09.15-1.23-.07,1.14,0-.15-.25.81-.34a2,2,0,0,1-.69,0s0-.05.11-.07c-1.11-.11-.48.33-1.59.44.12-.16-.3-.24-.48-.17.46-.07.25.2-.15.36-.73,0-.76.2-1.13.25h.43c-.12.16-.48.19-1,.35-.06-.1.43-.17.25-.18-.49.36-1.29,0-2,.36-.38,0-.1-.25-.43-.23-.8.38-1,.07-1.81.48.31.1.34,0-.22.41l1.4-.57-.84.55c.43-.13.88-.41,1.15-.44-.4.27-.36.22-.12.3-.67-.08-1.12.51-1.85.56l-.13-.44a4.36,4.36,0,0,0-1.44.56,8.86,8.86,0,0,1-1.6.8,2.4,2.4,0,0,0,.44-.12c-.1.24-.77.4-1.15.66,0-.16-.31-.09-.53-.09.08.09-.91.48-.88.81a2.88,2.88,0,0,0-.64.12c-1,.52-.89,1-1.81,1.59.18-.32-.3-.14.24-.64-.3.2-.59.36-.54.45a1.57,1.57,0,0,0-.49.39,1.36,1.36,0,0,1-.57.44c-.08.14,0,.3-.35.53m-.05-.06c0,.06-.44.47-.05.39-1.18.31-2.36,2-3.3,2.41-.54.58-1.13,1.33-1.61,1.87,0-.07-.06-.06,0-.15-.75.67,0,.75-.89,1.52-.27.15-.21,0-.11-.14s.23-.3.08-.19c-.26-.11-.44.18-.66.54a3,3,0,0,1-.79,1l.08-.17c-.46.39-.66,1.28-1.16,2.07,0,0,0-.06-.07,0a19,19,0,0,1-1,2.63c-.06-.35.08-.42-.17-.36-.15.38.33,0,0,.8-.21.19-.56.67-.78.66.09-.24.21-.47.32-.7a1,1,0,0,0-.4.58,3,3,0,0,1-.22.68l-.09-.09c-.43,1.11-.13,1.24-.58,2.41l.13-.09c.06.75-.34.5-.33,1.22l-.36.11c0,.23-.08.64-.11,1.09s-.1.93-.15,1.34a9,9,0,0,1,0-2.07,6,6,0,0,0-.28,1.77,1.49,1.49,0,0,1,.09-.59,6.08,6.08,0,0,1-.11,2.21c-.57-.26-.5,2.28-1,2.89v1.21c0,.41-.06.81-.09,1.23a16.49,16.49,0,0,0,0,2.63c.43-.69.05.55.52.4a2.24,2.24,0,0,1,.05.63h0v.09c0,.44-.1.89-.14,1.34,0,.17-.09.07-.13-.07s-.07-.3-.12-.28c.08,1-.15.43-.18,1.08.15-.15.29.3.31.85l.1-.8a2.24,2.24,0,0,1,.14,1.25,2,2,0,0,0,.19,1.24l-.24-.38c.22.66.63,2.5,1.22,3,0,.13-.09.33-.21,0,.46,1.61,1.66,3.3,2,4.54l-.16-.06c.17.26.42.39.51.78-.06,0-.17-.06-.1.07a4,4,0,0,1,.7,1l-.28-.24a5.79,5.79,0,0,0,1.13,1.67c.42.43.83.81,1.26,1.33-.28.19.37,1.3.74,1.82h0a18.09,18.09,0,0,0,3.67,3.32,3.85,3.85,0,0,0,.65.84c.3.31.66.62,1,.94.77.64,1.63,1.29,2.3,1.85-.18-.2.19-.2.46,0s1.08.39.86.63l-.12-.08c.1.42.86.8,1.43,1.11l.3-.32a3.51,3.51,0,0,0,1.17.86,10.65,10.65,0,0,0,1.43.62c.49.16.94.33,1.33.48a2.31,2.31,0,0,1,.88.52c.42,0,.91.2,1.32.22l-.08.21a12.05,12.05,0,0,0,1.4.46,11.59,11.59,0,0,0,1.63.36l-.32.1c.79.17,1.12-.42,1.83-.31l.17.36c.69.1,1.37.28,2.06.37a6.78,6.78,0,0,0,1,.1,4.77,4.77,0,0,0,1-.08.33.33,0,0,1-.29.15c.65.07,2.54.26,2.29-.2,0,.32,1.44,0,2.17-.21l-.1.23a3.47,3.47,0,0,1,1.48-.59c.18,0,.2.12,0,.13.58,0,.45-.28,1.25-.29l-.29.19a1.39,1.39,0,0,0,1-.39,2.21,2.21,0,0,1,1.48,0,1.2,1.2,0,0,1,.82-.44c.08.06-.06.14-.13.18a3.9,3.9,0,0,0,1.37-.42,3,3,0,0,1,1.1-.34.16.16,0,0,0,.18.07c-.91.3-1.64.5-1.58.47.06.19.81,0,.3.45.27-.17.64-.41,1-.62a4.87,4.87,0,0,1,1.16-.53h.05a1.18,1.18,0,0,0,.43-.19,3.42,3.42,0,0,0,.6-.18c.15.11.86-.25,1.21-.42-.12-.19.35-.37-.15-.33.06,0-.06.06-.28.17l-.14.08h0l-.87.38a1.56,1.56,0,0,1,.93-.48c.12-.2.25-.43.33-.55.6.06,1.58-.23,1.79-.14.49-.34,1.09-.67,1.6-1.06a5.45,5.45,0,0,0,.7-.57,1.94,1.94,0,0,0,.44-.58c.24-.23.38-.11.52-.12-.14.14-.33.26-.38.37.24-.24.65-.5,1-.79s.58-.54.56-.7c.74-.4-.21.5.67-.24l-.07.17a5,5,0,0,0,1.27-.92c.34-.36.63-.73.93-1.11a9,9,0,0,1,2.19-2.29c-.14.1-.21.15-.27.15l.38-.37.37-.4c.24-.27.47-.54.7-.82.43-.59.88-1.17,1.26-1.79.81-1.22,1.49-2.49,2.34-3.63a2.26,2.26,0,0,0,.38-1.34l.29-.06c0-.29.06-.58.08-.87a2.76,2.76,0,0,1,.33-.77c.13-.23.28-.46.44-.7a5.19,5.19,0,0,0,.42-.77,3.36,3.36,0,0,0,.21-1l-.21.14c.09-.25.2-.66.29-1s.16-.59.24-.52a.36.36,0,0,1,0-.4h.13V88.67c.28-1,.47.26.75-1.21.41-.62.2-1.67.09-1.49ZM356,113h0a.2.2,0,0,1-.05.14c-.22.13-.32.12-.37.09Zm-17.36-50.1c4.34-3.34,11-2.23,14.25,1.46s-2.69,17-9.75,15.89S334.29,66.21,338.63,62.87Zm18.51,42.26c-11.95,2.51-27.9-.25-36.5-5.72v-.3c1.61-7.23,7.3-13.53,14.94-16.6a45.75,45.75,0,0,0,5.69,6.73,35.53,35.53,0,0,0,6.79-4.75c6.35,5.27,9.82,13,9.12,20.4Zm18.24-26.84V78l.06.23Z"/><path class="cls-3" d="M356.23,112.67h-.07a.93.93,0,0,0-.05.1Z"/><path class="cls-3" d="M365,57.2l.12.15A.79.79,0,0,0,365,57.2Z"/><path class="cls-3" d="M365,57.2l-.31-.4C364.6,56.84,364.83,57,365,57.2Z"/><path class="cls-3" d="M345.58,48.18h.19A.31.31,0,0,0,345.58,48.18Z"/><path class="cls-3" d="M365.11,57.35a.08.08,0,0,1,0,.07h0Z"/><path class="cls-3" d="M367.76,59.64a.17.17,0,0,0,0-.1Z"/><path class="cls-3" d="M320.05,136.68a264.67,264.67,0,0,0,50.71,4.6,1.75,1.75,0,0,0,0-3.5,454.62,454.62,0,0,1-50.44-3.08C319.19,134.57,319,136.47,320.05,136.68Z"/><path class="cls-3" d="M326.57,155.09a154.69,154.69,0,0,0,18.7,2.39c6.46.47,13,1,19.52.86a1.63,1.63,0,0,0,1.64-1.64,1.65,1.65,0,0,0-1.64-1.64c-6.33-.34-12.69-.29-19-.64s-12.65-.74-19-.89a.8.8,0,0,0-.77.83A.78.78,0,0,0,326.57,155.09Z"/><path class="cls-3" d="M334.5,172.54c2.09,1.74,5.21,2.16,7.82,2.63s5.93,1.26,8.6.37c.89-.3,1.32-1.77.29-2.22-2.45-1.09-5.36-1-8-1.27s-5.71-1.27-8.39-.74a.74.74,0,0,0-.52.9A.7.7,0,0,0,334.5,172.54Z"/><path class="cls-4" d="M250.87,312.81l16.79,15s33.63-21.55,58-65.09l-18.25-16.3S295.2,279.62,250.87,312.81Z"/><path class="cls-5" d="M320.92,280.64c-16.24,24.66-38.81,43.13-38.81,43.13L345,374l26.61-44Zm.75,15.86,4.09-2.17a1.19,1.19,0,0,1,1.4,1.89,1,1,0,0,1-.29.21l-4.09,2.18a1.17,1.17,0,0,1-1.59-.47v0A1.19,1.19,0,0,1,321.67,296.5Zm-7.85,8.64a1.19,1.19,0,0,1,.49-1.61l4.09-2.17a1.19,1.19,0,0,1,1.4,1.89,1,1,0,0,1-.29.21l-4.08,2.18A1.19,1.19,0,0,1,313.82,305.14Zm9.75,9.25a1,1,0,0,1-.29.21l-4.09,2.18a1.18,1.18,0,0,1-1.57-.59,1.19,1.19,0,0,1,.46-1.51l4.09-2.18a1.19,1.19,0,0,1,1.4,1.89Zm1.57-5.2a1.19,1.19,0,0,1,.49-1.61l4.09-2.17a1.19,1.19,0,0,1,1.4,1.89,1,1,0,0,1-.29.21l-4.09,2.18A1.18,1.18,0,0,1,325.14,309.19Zm3.44,11.26a1.18,1.18,0,0,1,.47-1.6h0l4.09-2.17a1.19,1.19,0,0,1,1.4,1.89,1,1,0,0,1-.29.21l-4.09,2.2a1.18,1.18,0,0,1-1.59-.5Zm8.89,9.51a1,1,0,0,1-.29.21l-4.09,2.17a1.18,1.18,0,0,1-1.57-.59,1.19,1.19,0,0,1,.46-1.51l4.09-2.18a1.19,1.19,0,0,1,1.6.48v0a1.2,1.2,0,0,1-.21,1.41Zm-1.22-16.65a1.17,1.17,0,0,1,.48-1.59h0l4.09-2.18a1.2,1.2,0,0,1,1.62.47,1.18,1.18,0,0,1-.22,1.43,1,1,0,0,1-.29.21l-4.08,2.17a1.19,1.19,0,0,1-1.61-.5Zm3.13,11.34a1.17,1.17,0,0,1,.48-1.59h0l4.12-2.18a1.2,1.2,0,0,1,1.62.47,1.18,1.18,0,0,1-.22,1.43,1,1,0,0,1-.29.21L341,325.15a1.18,1.18,0,0,1-1.6-.47v0Zm8.6,9.59a1,1,0,0,1-.29.21l-4.09,2.17a1.19,1.19,0,1,1-1.24-2l.13-.07,4.09-2.18a1.2,1.2,0,0,1,1.62.47A1.18,1.18,0,0,1,348,334.24Zm-.8-16.75a1.19,1.19,0,0,1,.49-1.61l4.09-2.17a1.2,1.2,0,0,1,1.61.5,1.18,1.18,0,0,1-.21,1.39,1,1,0,0,1-.29.21L348.78,318a1.19,1.19,0,0,1-1.6-.48ZM350,328.91a1.17,1.17,0,0,1,.48-1.59l0,0,4.09-2.18a1.2,1.2,0,0,1,1.6.49h0A1.18,1.18,0,0,1,356,327a.94.94,0,0,1-.28.21l-4.09,2.18A1.19,1.19,0,0,1,350,328.91Zm8.33,9.64a1,1,0,0,1-.29.21L354,341a1.19,1.19,0,0,1-1.61-.49,1.2,1.2,0,0,1,.49-1.62h0l4.09-2.18a1.2,1.2,0,0,1,1.62.47,1.18,1.18,0,0,1-.22,1.43Zm7.86-7-4.09,2.18a1.19,1.19,0,1,1-1.24-2l.13-.07,4.08-2.18a1.19,1.19,0,0,1,1.4,1.89,1.06,1.06,0,0,1-.26.17Z"/><path class="cls-6" d="M15.4,49.76S24.64,68,43,78c0,0,8.16-16,41.62-46.87l-16.44-12S50.09,40.64,40,58.75c0,0-12.47-14.92-14.71-20.59Z"/><path d="M516.57,129.57C481.57,113,446.69,81.8,429,64.66l-1,1.07c17.59,17,52.13,48,87,64.74C507.42,138,445.92,200,414.58,266.71c-5.53-1.7-47.06-14.92-75.18-37.88l-.95,1.16c30.26,24.7,75.87,38.21,76.33,38.34H415a.75.75,0,0,0,.68-.43c33.05-70.73,100.46-136.49,101.14-137.14a.73.73,0,0,0,.22-.66A.79.79,0,0,0,516.57,129.57Z"/><path d="M436.2,184.52c-14.5-6.14-21.38-12.36-21.45-12.42l-1,1.11c.28.26,7.11,6.43,21.88,12.68Z"/><path d="M409.54,192c.22.2,5.52,5,17,9.84l.58-1.38c-11.17-4.73-16.48-9.51-16.53-9.56Z"/><path d="M284.63,10.08c2.9,1.05,13.63,4.78,29.45,8.75-.44,3.44-.69,7.11-.15,9.1l1.44-.4c-.91-3.35.8-12.68,1.36-15.54,2.47.85,9.94,3.22,16.06,2.9a.75.75,0,0,0,.68-.54c0-.16,4.75-15.43,24.41-12.51S377,21,377,21.61a.75.75,0,0,0,.6.76,64.9,64.9,0,0,0,12.67,1.2L388.82,38.3l1.5.15.66-6.77a332.55,332.55,0,0,0,44.19-.82c-1.7,4.64-8.31,23.45-14.91,52.8a674.84,674.84,0,0,0-15.88,141.21c-5.3.72-43,5.32-82.74-2.37l-.28,1.48a260.62,260.62,0,0,0,49,4.41,258.84,258.84,0,0,0,34.86-2.13.73.73,0,0,0,.64-.73A674.87,674.87,0,0,1,421.71,84c7.6-33.8,15.2-53.56,15.27-53.76a.72.72,0,0,0-.1-.72.76.76,0,0,0-.66-.3,328,328,0,0,1-45.1.93l.72-7.33a.77.77,0,0,0-.21-.59A.81.81,0,0,0,391,22a59.44,59.44,0,0,1-12.56-1c-.12-3.29-1.73-17.89-20.4-20.66S333.27,10.63,332.2,13.43c-6.89.17-15.68-3.09-15.77-3.12a.86.86,0,0,0-.63,0,.78.78,0,0,0-.37.5c-.05.25-.65,3.11-1.15,6.51a300.05,300.05,0,0,1-29.92-9,.81.81,0,0,0-.61,0,.76.76,0,0,0-.38.48,560,560,0,0,0-11.84,60.33l1.49.18A557.72,557.72,0,0,1,284.63,10.08Z"/><path d="M282.39,279.82A140.58,140.58,0,0,0,271.07,81.43c-1.58-1.37-15.51-13.46-18.16-14.08l-.36,1.45c1.73.43,11.68,8.67,17.53,13.75,57.16,51,62.18,139.07,11.19,196.27A138.34,138.34,0,0,1,96.22,299l-.88,1.21a140.32,140.32,0,0,0,187-20.36Z"/><path d="M177.46,304.49c2.28,0,4.59-.07,6.89-.2a117.71,117.71,0,1,0-6.89.2ZM90.59,108.61a116.15,116.15,0,1,1-.51.57Z"/><path d="M329,260.51a.76.76,0,0,0-.12-.91l-6.69-6L311.45,244c-.82-.73-1.64-1.46-2.45-2.2a.75.75,0,1,0-1.06,1.06l6.69,6,10.73,9.57,2,1.82a202.94,202.94,0,0,1-30.84,42.05c-4.46,4.69-9.14,9.18-14,13.41-3.32,2.87-6.71,5.61-10.23,8.19-1,.75-2.08,1.5-3.14,2.22-.32.22-.71.42-1,.65l-17.8-15.89c-.73-.65-1.79.41-1.07,1.06l18.28,16.32a.76.76,0,0,0,.91.12c1.28-.8,2.51-1.68,3.73-2.55,3.4-2.44,6.68-5,9.87-7.74q7.17-6.06,13.75-12.82a208.93,208.93,0,0,0,15.75-18.13,204.66,204.66,0,0,0,15.62-23.35C327.79,262.72,328.4,261.62,329,260.51Z"/><rect x="348.73" y="267.26" width="1.5" height="69.75" transform="translate(-111.07 338.35) rotate(-45.34)"/><path d="M49.54,250.21A143,143,0,0,0,59.48,266l1.22-.88a138.2,138.2,0,0,1-9.84-15.63Z"/><path d="M35.87,217.19c1.62,5.39,3,10.91,4.12,16.42l1.47-.3c-1.13-5.55-2.52-11.12-4.16-16.55Z"/><path d="M30.41,174.3l-1.5-.07a181.19,181.19,0,0,0,.32,22.23l1.49-.11A180.24,180.24,0,0,1,30.41,174.3Z"/><path d="M37.79,144.08a119.74,119.74,0,0,0-5.53,17.11l1.45.35a119.37,119.37,0,0,1,5.47-16.9Z"/><path d="M57.79,109.14A74.23,74.23,0,0,0,45.72,127.6l1.36.63a72.2,72.2,0,0,1,11.83-18.09Z"/><path d="M119.41,57.74l-.63-1.36a185.19,185.19,0,0,0-22,12.22l.82,1.26A182.67,182.67,0,0,1,119.41,57.74Z"/><path d="M163.54,46.33l.08-1.5c-7.47-.41-20.33,2-26,4.27l.56,1.39C143.67,48.29,156.45,46,163.54,46.33Z"/><path d="M210.08,48.91a181.15,181.15,0,0,0-23.17-3.48L186.79,47a182,182,0,0,1,23,3.45Z"/><path d="M243.85,61.42a64.77,64.77,0,0,0-15.81-8l-.48,1.42A62.92,62.92,0,0,1,243,62.65Z"/><rect x="77.58" y="278.29" width="1.5" height="15.9" transform="translate(-184.33 148.13) rotate(-46.96)"/><path d="M82.51,89.26c0-.29-4.22-29.79-1.45-49.29l-1.48-.21c-2.59,18,.74,44.43,1.41,49-32.5,7-67.41,6.19-72,6.07C.2,68.81,1.43,30.57,1.7,24.48c23,3.46,55-3.35,55.35-3.42l-.32-1.47c-.33.07-32.86,7-55.62,3.28A.78.78,0,0,0,.52,23a.78.78,0,0,0-.28.54C.24,24-2.08,67.32,7.7,95.82a.74.74,0,0,0,.68.51c.11,0,3.07.11,8,.11,13.1,0,40.11-.77,65.5-6.34A.75.75,0,0,0,82.51,89.26Z"/><path d="M363.91,26.59c-11.55,0-24.23-3.44-24.37-3.48a.73.73,0,0,1-.53-.9l0-.1c0-.11,4.4-11.45,16-9.86s13.54,13.19,13.56,13.3a.76.76,0,0,1-.68.87C366.62,26.55,365.27,26.59,363.91,26.59Zm-23.13-4.7c3.31.83,15.81,3.75,26.18,3.12-.63-2.52-3.24-10-12.11-11.25S341.91,19.5,340.78,21.89Z"/></g></g></svg>