<svg xmlns="http://www.w3.org/2000/svg" viewBox="0 0 60 60"><path fill="#6374ff" d="M1.84 23.73c1.89-.81 3.62-1.56 5.24-2.3 8.48-4.28 7.12-3.48 9.3-4.71a3.26 3.26 0 0 1 2.51-.72c1.74.32 2.14 1.74 1.84 3.18l-.41 1.74c-.47 2.19 1.53 4.08 4.68 2.88a9 9 0 0 0 2.3-1.47c2.44-2.34 1.52-4.95-.72-5.46l-1.76-.35c-1.43-.33-2.57-1.28-2.14-3 .19-.74.62-1.22 1.76-1.95a103.36 103.36 0 0 0 12.46-10.23c8.53 8.55 18 24.47 22.53 34.63v.29a72.18 72.18 0 0 1-12.54 10.22 3.26 3.26 0 0 1-2.51.77c-1.75-.32-2.14-1.74-1.85-3.18l.47-1.74c.55-2.64-2.27-4.59-5.89-2.28s-3.05 5.67-.38 6.28l1.77.35c1.43.33 2.56 1.28 2.13 3-.19.74-.62 1.22-1.75 2-5.55 3.17-10.78 5.67-14.37 7.31l.2-.22c-2.45-4.86-4.89-9.59-7.65-14.23-.73-1.13-1.21-1.56-2-1.75-1.72-.43-2.67.7-3 2.13l-.35 1.75c-.51 2.23-3.13 3.14-5.48.71a11.18 11.18 0 0 1-.83-1.08c-2.3-3.57-.39-6.42 2.29-5.87l1.75.41c1.44.3 2.87-.09 3.19-1.83a3.17 3.17 0 0 0-.77-2.5 112.84 112.84 0 0 0-10-12.73z"/><path fill="#ff533d" d="M52.49 33.17zm-26-7.44zm25.93 7.43h-.33a.86.86 0 0 0 .36 0zm-26.56-7.64v-.07h-.07z"/><path fill="#ebecf2" d="M20.17 21.34a.16.16 0 0 1-.07.21c.09.16.11.05.15-.06a16.43 16.43 0 0 1 .48-2.36c.3-1.43-.1-2.86-1.84-3.18-1.13-.21-1.83.39-3 1.05.3.31-.25 1 .29 1 .22-.1.51-.44.63 0l-.32.25c.31.36.51-.3.71.26-.15.07-.34-.14-.31-.05.05.48.28 0 .46.12l-.17.34c.39.29.92.42 1.36.72-.08.07-.21.11-.18.28a4.54 4.54 0 0 1 1.47 1.57zm-1.59-1.81l-.13-.09.13.09zm.28.22c0-.11.11-.18.16-.13v.32l-.2-.19z"/><path fill="#ff533d" d="M51.13 33.14a.46.46 0 0 0-.16-.21v.07z"/><path fill="#ebecf2" d="M50.06 32.86c.32.15.66-.12.91.07.2-.34.56.17.65-.3-.06.49.56.41.79.18-.08.15.18.14.08.35.24 0 .47-.11.45-.36.41.57.92-.51 1.14.23.6-.24 1.7-.6 2.06-.69 0 .49-.72.12-.7.63.62-.27 1-.72 1.6-.67.15.05-.1.22-.15.31a2.53 2.53 0 0 1 .87-.17c-4.94-10.03-13.27-23.44-20.87-31.09a102.72 102.72 0 0 1-12.46 10.22c-1.13.73-1.56 1.21-1.75 2-.43 1.71.7 2.66 2.14 3l1.76.35c2.23.51 3.15 3.12.72 5.46a9.75 9.75 0 0 1-1.09.82 10.52 10.52 0 0 1-1.21.6 6.34 6.34 0 0 1-1 .29v.1c.3-.35.56.6.88.06.23.52.07.56.51 1.09.13.11.38-.24.58-.19l-.13.3.39-.18v.44h.2a.29.29 0 0 1 0-.3c.32 0 .54.58.48.74l.72.1a.27.27 0 0 1-.22.11c.31 0-.13.37.27.26 0-.09.1-.17.13-.23a.87.87 0 0 0 .71.51l-.14.19c.45.3 1 .4 1.55.68-.15-.2 0-.55.21-.51l-.07.36c.18-.15-.11-.2.19-.35.18.14 0 .44-.17.49h.28l-.16.25c.18-.15.29.53.57.24v.1c.53.25.82.24 1.26.42.11-.29.26-.15.47-.32.29.23.56.63 1 .75.32 0 .16-.22.34-.34-.07.27.33.39.07.51a3.6 3.6 0 0 0 1.28.19c0-.14-.09-.21 0-.29s.21.21.15.33c.75-.14 1.32 1.26 2 1l.65-.11c.24.13-.21.15-.07.38.73-.24 1 .35 1.54.19.19.9 1.4.31 1.81.95v-.2c.18-.15.14.15.23.21 0-.15-.11-.2 0-.28 1.22 0 2.36.8 3.57 1.12.44.11.42-1 .9-.42l-.21.33c1-.27 1.85.23 2.79-.06-.06.08-.08.19-.17.18.16.27.7.07.73-.15.13 0 0 .2.08.31s.51-.29.58 0l-.05.08c.17-.08.52 0 .44-.24z"/><path class="cls-4" d="M17.71 42.34a.38.38 0 0 0 .12-.5.36.36 0 0 0-.41-.14.29.29 0 0 0-.22.24.41.41 0 0 0-.2.47.29.29 0 0 0 .36.19.32.32 0 0 0 .18-.18l.17-.08zm2.51 5.72a.26.26 0 0 0 0-.41.31.31 0 0 0-.43-.17 4.49 4.49 0 0 0-.79.52l.48.87.72-.79zm2.51 6.73c.1-.16-.07-.33-.23-.3l.19.36zm.32.53c.12-.14 0-.43-.21-.33h-.07l.2.39zm1.76-10.32c.14-.24-.19-.55-.41-.37l-.45.26a1.22 1.22 0 0 0-.65.49.29.29 0 0 0 .12.39.27.27 0 0 0 .31 0 1.6 1.6 0 0 0 1.08-.77zm-3.64 6.59a1.75 1.75 0 0 0 1.76-1 .21.21 0 0 0-.25-.29 4 4 0 0 0-.81.31.23.23 0 0 0-.16 0 1.62 1.62 0 0 0-.68.69.2.2 0 0 0 .14.29zm5.93-10.24c-.09-.09-.19-.07-.32 0a.22.22 0 0 0-.31-.05l-.47.3a.24.24 0 0 0 .05.43v.08a.25.25 0 0 0 .32.22l.17-.08a.22.22 0 0 0 .29 0 1.21 1.21 0 0 0 .4-.41.27.27 0 0 0 0-.23.27.27 0 0 0-.15-.29zm-5.83-2.68a.23.23 0 0 0 0 .25.25.25 0 0 0 .26.4 2.54 2.54 0 0 0 1-.69.26.26 0 0 0-.2-.42.24.24 0 0 0-.31-.37 2.63 2.63 0 0 0-.33.2.27.27 0 0 0-.27.05l-.22.2a.24.24 0 0 0 .06.37zm-.88 4.63a1.17 1.17 0 0 0 .28.48.23.23 0 0 0 .34 0 .39.39 0 0 0 .15.11c.44.14.95-.59 1.11-.9a.25.25 0 0 0-.26-.36.22.22 0 0 0-.17 0l.12-.1c.21-.18-.09-.54-.32-.37a7.48 7.48 0 0 1-1 .62h-.12c-.15-.11-.37.06-.37.24a.5.5 0 0 0 .21.4zm16.61 3.58a.26.26 0 0 0 .19.3h.1a.25.25 0 0 0 .39-.05l.11-.08a.93.93 0 0 0 .28-.28.19.19 0 0 0 0-.18l-.83-.16a.59.59 0 0 0-.3.42zm-.35 5.89l.14-.19c.1-.14-.06-.38-.23-.36h-.07l-.06-.13c.19-.16 0-.54-.22-.43a3.08 3.08 0 0 0-.59.33.27.27 0 0 0-.09.3l-.1.07a.25.25 0 0 0 .09.45.22.22 0 0 0 .25.13v.07a.3.3 0 0 0 .13.2l.69-.38v-.08zm-9.19-6.26l.46-.32h.12a.27.27 0 0 0 .44.21 1.9 1.9 0 0 0 .44-.58.25.25 0 0 0-.17-.35h-.12c0-.25-.34-.39-.6-.19a1.08 1.08 0 0 1-.4 0 .26.26 0 0 0-.28.34.25.25 0 0 0-.1.15.19.19 0 0 0-.13.17v.34c0 .19.19.39.38.26zm-.12 2.65a1 1 0 0 0-.54.3.31.31 0 0 0 0 .44.29.29 0 0 0 .37.31 2.26 2.26 0 0 0 1-.57.25.25 0 0 0 .09-.2c.39-.61-.49-.72-1-.32zm2.07-10.16a.28.28 0 0 0 .2 0l.18-.09.24-.12a.26.26 0 0 0 .1-.28.25.25 0 0 0-.25-.17h-.06v-.06a.25.25 0 0 0-.35 0 .53.53 0 0 0-.18.37.25.25 0 0 0 .18.29zm-2.31 18.71l.68-.32c-.11-.04-.18 0-.68.32zm4-3.89l-.31.2a.29.29 0 0 0-.09.4.3.3 0 0 0 .4.08l.31-.2a.28.28 0 0 0 .09-.39.29.29 0 0 0-.4-.09zm1.39-3.46c.21 0 .32-.18.46-.34l.6-.65a.24.24 0 0 0 0-.33.25.25 0 0 0 0-.17.25.25 0 0 0-.2-.41h-1.04a1.58 1.58 0 0 0-.52.33.24.24 0 0 0 0 .34.27.27 0 0 0 .09.28l-.22.31c-.15.22.13.41.33.32a.21.21 0 0 0 .17 0 .27.27 0 0 0 0 .23.23.23 0 0 0 .23.11zm-5.93 4.47a.87.87 0 0 0 .47-.37l.47-.38a.24.24 0 0 0 0-.37.22.22 0 0 0 0-.21.2.2 0 0 0-.28-.28l-.19.11-.7.39a.19.19 0 0 0 0 .32v.11a.25.25 0 0 0 0 .33c-.14.14 0 .44.19.35zm5.44-9.26a.21.21 0 0 0 .19 0 .3.3 0 0 0 .16.13.26.26 0 0 0 .37.17 1.94 1.94 0 0 0 .55-.44.26.26 0 0 0-.07-.38.27.27 0 0 0-.15-.34l-.1-.12a.27.27 0 0 0-.38-.17l-.29.17a2.37 2.37 0 0 0-.27.18c-.06.06-.15.11-.12.24l-.14.09a.25.25 0 0 0 .25.43zm.87-3.41c.14-.15.11-.46-.25-.5h-.15c-.26.06-.3.28-.22.4l.06.08a.42.42 0 0 0 .58.02z"/><path d="M46.94 47.07l-.21-.3a74.1 74.1 0 0 0 12.92-10.57l.27.24a74.33 74.33 0 0 1-12.98 10.63zm-23.28 12.93l-.15-.33c5.58-2.56 10.45-5 14.88-7.58l.18.32c-4.44 2.54-9.32 5-14.91 7.59zm0-49.12l-.21-.3a106.34 106.34 0 0 0 12.89-10.58l.26.26a106.39 106.39 0 0 1-12.94 10.62zm-9.66 6.06l-.18-.32 1.28-.71.18.31zm-13.79 6.56l-.15-.34c2.13-.9 3.85-1.66 5.43-2.38l.16.33c-1.59.72-3.31 1.48-5.44 2.39zm10.14 13.13a116.87 116.87 0 0 0-10.35-13.18l.27-.24a115.79 115.79 0 0 1 10.38 13.22l-.3.2zm13.27 23.06c-2.37-4.73-5-9.78-7.92-14.75l.32-.18c2.95 5 5.55 10 7.93 14.76l-.33.17zm36-23.59c-4.86-10.97-14.7-27.25-23.28-35.84l.27-.26c8.6 8.62 18.47 25 23.39 36l-.33.14zm-52.62 13.3a5 5 0 0 1-2.44-1.47 10.8 10.8 0 0 1-.88-1.16 9.85 9.85 0 0 1-.68-1.27 4 4 0 0 1 .31-4.16 3 3 0 0 1 2.93-.92c.35.07.64.15.93.22l.89.21a2.9 2.9 0 0 0 2.21-.29 2.14 2.14 0 0 0 .88-1.47 3.17 3.17 0 0 0-.77-2.46l.31-.2a3.51 3.51 0 0 1 .82 2.73 2.54 2.54 0 0 1-1 1.71 3.35 3.35 0 0 1-2.51.33l-.95-.2-.91-.21a2.62 2.62 0 0 0-2.58.8 3.67 3.67 0 0 0-.25 3.78 9.67 9.67 0 0 0 .69 1.2 11.45 11.45 0 0 0 .84 1.11 3.73 3.73 0 0 0 3.52 1.32 2.58 2.58 0 0 0 1.8-2c.08-.33.14-.63.19-.91l.18-.91a3.29 3.29 0 0 1 1.35-2.11 2.53 2.53 0 0 1 2-.23c.83.21 1.37.69 2.14 1.89l-.3.2c-.73-1.13-1.2-1.55-1.93-1.73a2.15 2.15 0 0 0-1.71.18 2.89 2.89 0 0 0-1.18 1.88c-.08.33-.13.61-.18.9s-.11.58-.19.92a3 3 0 0 1-2.07 2.27 3.08 3.08 0 0 1-1.46.05zm31.61 3l-.2-.31c1.13-.72 1.55-1.19 1.74-1.91a2.18 2.18 0 0 0-.19-1.71 2.93 2.93 0 0 0-1.96-1.17l-.9-.18c-.29 0-.58-.1-.93-.18a2.89 2.89 0 0 1-2.33-2.33c-.28-1.58.72-3.27 2.66-4.51s3.91-1.45 5.25-.53a2.9 2.9 0 0 1 1.14 3.08l-.22.92s-.14.56-.21.88a2.94 2.94 0 0 0 .28 2.21 2.19 2.19 0 0 0 1.48.88 3.25 3.25 0 0 0 2.48-.78l.19.31a3.56 3.56 0 0 1-2.73.83 2.56 2.56 0 0 1-1.72-1 3.28 3.28 0 0 1-.34-2.48c.07-.33.14-.62.22-.9s.14-.57.21-.91a2.53 2.53 0 0 0-1-2.7c-1.21-.83-3-.63-4.84.53s-2.75 2.71-2.5 4.15a2.54 2.54 0 0 0 2.06 2c.33.08.63.13.91.18s.58.11.91.19a3.27 3.27 0 0 1 2.12 1.34 2.46 2.46 0 0 1 .23 2c-.21.83-.68 1.36-1.89 2.14zm-17.24-28.5a3.07 3.07 0 0 1-1.37-.65 2.93 2.93 0 0 1-.93-2.91c.07-.35.15-.64.22-.92l.21-.89a2.87 2.87 0 0 0-.29-2.2 2.16 2.16 0 0 0-1.48-.88 3.2 3.2 0 0 0-2.47.77l-.2-.31a3.54 3.54 0 0 1 2.74-.82 2.49 2.49 0 0 1 1.71 1 3.24 3.24 0 0 1 .34 2.48c-.06.33-.14.62-.21.91s-.14.56-.21.9a2.61 2.61 0 0 0 .8 2.57 3.73 3.73 0 0 0 3.8.25 9.43 9.43 0 0 0 1.22-.65 9.61 9.61 0 0 0 1.11-.84 3.65 3.65 0 0 0 1.34-3.54 2.62 2.62 0 0 0-2-1.8l-.92-.18-.87-.19a3.33 3.33 0 0 1-2.12-1.34 2.53 2.53 0 0 1-.23-2c.21-.82.69-1.36 1.9-2.13l.19.3c-1.13.73-1.55 1.19-1.73 1.92a2.15 2.15 0 0 0 .18 1.71 2.92 2.92 0 0 0 1.9 1.22c.33.08.61.13.9.18s.59.11.93.19a3 3 0 0 1 2.28 2.06 4 4 0 0 1-1.46 3.89 11.42 11.42 0 0 1-1.16.87 11.53 11.53 0 0 1-1.27.68 5 5 0 0 1-2.85.33z"/></svg>