<svg xmlns="http://www.w3.org/2000/svg" viewBox="0 0 1532.37 321.23"><defs><style>.cls-1{fill:#ebecf2;}.cls-2{fill:#6374ff;}</style></defs><path class="cls-1" d="M1372.91 18.56c-1.68-1.49-2.61-17.47-6.22-14.54-.71.13-1.07.67-1.51.48.11-.53.59 0 1.1.47.88 1.1-3-.43-2.64-.43.53-1.27 1.09-1.32.65-2.74-.19.15-5.61-2.32-6.37.28-.3-.77-.59-2.05-1.54-2.08.49 0-2.8 1.91-2.24 3.27.06-.51 0-.55-.05-.12.15-1.26-.1-1.25-.73 0-1.19-2.87 1.79 1.29 0-2-4.68-.54-16.16 16.33-10.45 17.74-1.92 17.74 30.39 8.66 26.92 5.87 2.74 2.88 3.59-6.58 3.08-6.2zm-23.86-13.8l-.11.14zM1524.42 295.14v-.12.12zM1529 298.25a.18.18 0 0 1 .09.06l-.09-.06zM1518 295.45a4.38 4.38 0 0 1 .23.54c-.23-.43.08-.65-.23-.54zM1524.13 321.22h-.39a.74.74 0 0 0 .39 0zM1507.2 305.27v-.1s-.06.06 0 .1zM1527.37 298.69v-.06.06zM1506.67 306.29l-.11-.11a1.14 1.14 0 0 1 .11.11zM1531 300.53c.77-.68-4.76-.45-2.21-2.29-1.19.19-.2.66-1.37.39 0-.17.62.11.91.46-.94-1.38-5.72-6.81-6.88-2.88-.18-.58-.65-2.1-1.26-2 .44 0-2.42 1.62-1.94 3v-.13c-.53-1.2.26-.06-.62-1.93-7.44-1.21-13.26 14.75-9.77 19.17 6.72 8.52 23.39 4.06 21 1.63 3.14 4.05 4.93-16.36 2.14-15.42zm-17.08-2.37l-.1.12a.32.32 0 0 1 .06-.12zM1531.71 302.26l.12-.28a1.24 1.24 0 0 0-.12.28zM1531.44 301.15a2.65 2.65 0 0 0-.24.12zM1529.7 317.67a.08.08 0 0 0 0 .05c-.01.16.02.08 0-.05zM1531.47 312.6a2 2 0 0 1 .21.27c.08-.06.12-.12-.21-.27zM1524.18 321.23zM1531.58 313.08c.15 0 .16-.11.1-.21-.07.05-.16.13-.1.21zM1528.05 297.55h-.09.09zM1528 297.58s-.08-.06-.2.08zM1529.2 298.62l.16-.17a1.42 1.42 0 0 0-.16.17zM24.31 7.1l-.07.11.07-.11zM17.31 5.1a3.49 3.49 0 0 1 .05.65c.01-.51.38-.67-.05-.65zM16.54 36l-.4-.09a.71.71 0 0 0 .4.09zM3.46 13.81v-.12s-.07.06 0 .12zM25.9 12.05v-.07.07zM29.59 14.76c-1.21-.76-4.89-1.85-2.07-2.76-.43-.06-1.43-.87-1.6 0 .34-.43.57.1.79.78-.68-2.91-.86-.32-.31-3.61-.8.27-.51 0-.42-.72-1.22.72-3.33-4-5.27-1.25.06-1 .47-2-.54-2.66.47.12-3.17.83-3.17 2.46.23-.49.23-.54 0-.15.57-1.2.35-1.28-.65-.23-.14-3.33 1.19 2 .68-2.06-4.55-2.34-17.26 10-14 13.07-13.66 15.24 23.37 19.73 19.26 13.29 2.76 5.6 8.49-16.5 7.3-16.16zm-17.79-7.9l.14-.09c-.07.12-.12.15-.14.09zM2.83 14.92l-.13-.15zM29.28 17.21l.21-.27a2 2 0 0 0-.21.27zM29.36 16l-.3.06zM22.92 33.09a.08.08 0 0 0 0 .06v-.06zM26 28.12a2 2 0 0 1 .16.34c.12-.04.18-.09-.16-.34zM16.59 36zM26 28.65c.17 0 .21-.06.17-.19-.08.04-.17.06-.17.19zM27.05 11.08h-.05.05zM26.72 11.09h.22s-.05-.09-.22 0zM28.07 12.48a1 1 0 0 0-.23.12zM741.93 29.83c-2-1.33-2.13-2.35-1.77-1.24-1.19-3.15-2-3.57-4.06-5.08.29.08-2 .51-2 1.52-.42-.14.13-.57 0-1.49-3.82-2-10.31 7.45-9.92 9.37 1.95 9.72 14.18 8.46 13.16 6.87 1.74 3.42 5.28-10.16 4.59-9.95z"/><path class="cls-2" d="M50.68 224.67l.07.08-.07-.08zM57.11 221.64a.35.35 0 0 1 .13 0 .12.12 0 0 0-.13 0zM45.51 230.53a4.66 4.66 0 0 1 .5.25c-.36-.23-.24-.63-.5-.25zM59.27 247.2l-.25.26a.63.63 0 0 0 .25-.26zM37.11 246.84v-.12s-.11.08 0 .12zM36.46 248.16a1.13 1.13 0 0 1 .1.13.5.5 0 0 0-.1-.13zM65.71 224.55c.74-.88-8.71-3.37-8.8-2.75-.51.61-.44 1.35-.81 1.5-.31-.33.54-.61 1.27-.67.17 1.36-10.57.36-8.25 5.52-.49-.21-2-.84-2.43-.34.59-.61-1.1 3.27 0 3.92-.5.5-.59-.64-1.71-1.16-4.11 2.49-10.86 21.49-7.87 24.56 13.13 13.45 28.15-10.92 24.44-15.28 2.45 3.31 12.05-11.56 4.16-15.3zm-22.95 11.45a1.71 1.71 0 0 0 0 .18zM56.17 223.33h-.07.07zM63.89 223l-.14-.33a1 1 0 0 0 .14.33zM62.62 222a1.29 1.29 0 0 0-.12.23 2.53 2.53 0 0 1 .12-.23zM62.42 241.61a.11.11 0 0 0 0 .06v-.06zM66 236.38a1.69 1.69 0 0 1 .06.36c.08-.06.16-.13-.06-.36zM59.3 247.18zM65.78 237c.18 0 .23-.1.24-.24-.1.03-.23.07-.24.24zM55.55 222.21v.1-.1zM55.43 222.54l.08-.23s-.13.06-.08.23zM57.75 221.61v-.22a.36.36 0 0 0 0 .22z"/></svg>