<svg id="Слой_1" data-name="Слой 1" xmlns="http://www.w3.org/2000/svg" viewBox="0 0 70 70"><defs><style>.cls-1{fill:#6374ff;fill-rule:evenodd;}.cls-2{fill:#231f20;}</style></defs><title>stages-5</title><path class="cls-1" d="M45,44.82c-2.44.38-2.7,6.34-5.89,6.91-2.81.5-17.71-13.68-18-23.64.08-3,5.66-1.8,6.62-4.28S25.78,10.15,23.92,9s-9.15,1.49-10.73,4c-8.49,8,2.07,27.83,7.27,34.56C34.79,66,43.72,66.33,50.48,64,53.87,62.79,59,56.55,58,53.18,57.38,50.89,50.42,43.16,45,44.82Z"/><path class="cls-2" d="M53.39,12.34A21.33,21.33,0,0,0,37.1,5a1,1,0,0,0,0,2,19.08,19.08,0,0,1,14.79,6.66c4.81,5.5,6.93,13.84,5.82,22.88a1,1,0,0,0,.87,1.12h.13a1,1,0,0,0,1-.89C60.87,27.18,58.57,18.27,53.39,12.34Z"/><path class="cls-2" d="M47.38,19.67c-3.27-2.84-7.81-4-12.78-3.17a1,1,0,0,0,.31,2c4.38-.7,8.35.26,11.17,2.71s4.54,6.61,4.54,11.7a1,1,0,0,0,1,1,1,1,0,0,0,1-1C52.62,27.21,50.81,22.63,47.38,19.67Z"/><path class="cls-2" d="M36,26.06a1,1,0,0,0-.07,2,4.64,4.64,0,0,1,4,2.14,3.34,3.34,0,0,1-.1,3.37A1,1,0,0,0,40.15,35a1,1,0,0,0,.49.13,1,1,0,0,0,.87-.52,5.46,5.46,0,0,0,.1-5.35A6.65,6.65,0,0,0,36,26.06Z"/></svg>