<svg id="Слой_1" data-name="Слой 1" xmlns="http://www.w3.org/2000/svg" viewBox="0 0 70 70"><title>stages-3</title><path d="M67.35,54.32a117.59,117.59,0,0,1-9.44-16c-4.43-8.93-10-22.71-11.17-37.63a.81.81,0,0,0-.32-.57A.82.82,0,0,0,45.79,0L3.19,6.66A.81.81,0,0,0,2.66,7a.8.8,0,0,0-.15.61c2.43,13.07,25.3,53.1,27.91,57.57a.91.91,0,0,0,.13.26l3.25,4.27a.79.79,0,0,0,.39.28h0a.78.78,0,0,0,.26,0,.84.84,0,0,0,.35-.07L67,55.51a.84.84,0,0,0,.44-.5A.81.81,0,0,0,67.35,54.32ZM45.18,1.71C46.54,16.57,52,30.2,56.44,39.06a124.61,124.61,0,0,0,9,15.4L34.72,68.21,32,64.64C31.55,63.87,7.42,22.11,4.29,8.09Z"/><path d="M29.68,21.14a5.79,5.79,0,0,0,2.76-1.9,5.54,5.54,0,0,1,1.73-1.4.88.88,0,0,0,.44-.47.81.81,0,0,0,0-.61.84.84,0,0,0-1.09-.37,7.39,7.39,0,0,0-2.25,1.78,4.38,4.38,0,0,1-2,1.44c-1,.25-3-.5-4.82-1.17-2-.73-3.84-1.42-5.2-1.23-3.07.43-4.66,4.69-4.83,5.18a.78.78,0,0,0,.52,1h0a.73.73,0,0,0,.25,0,.82.82,0,0,0,.78-.54s1.37-3.81,3.5-4.11c.94-.14,2.77.55,4.39,1.15C26,20.72,28.18,21.54,29.68,21.14Z"/><path d="M32,29.73a1.79,1.79,0,0,0,.87-1.3c.08-.33.08-.33.3-.38a3.39,3.39,0,0,1,1.57.61,4.7,4.7,0,0,0,3.52.83,3.91,3.91,0,0,0,2.26-2.17c.73-.2,3.13.57,5,1.42a.84.84,0,0,0,1.08-.36.79.79,0,0,0,.05-.62.81.81,0,0,0-.43-.46c-1.05-.49-4.6-2-6.23-1.48a1.49,1.49,0,0,0-.88.72c-.41.82-.85,1.3-1.3,1.43-.62.19-1.45-.26-2.24-.7a4.08,4.08,0,0,0-2.73-.77,1.83,1.83,0,0,0-1.54,1.58l-.07.27c-.23.12-1.2.27-5.45-1a2.39,2.39,0,0,0-1.92.24c-2,1.21-2.68,5.48-2.69,5.51a.79.79,0,0,0,.55.87l.15,0H22a.81.81,0,0,0,.81-.67c.24-1.49,1-3.84,1.93-4.39a.66.66,0,0,1,.58-.08C29.77,30.21,31.18,30.19,32,29.73Z"/><path d="M32.31,50.36h.09a.82.82,0,0,0,.82-.69c.19-1.41.84-3.68,1.63-4.1a.43.43,0,0,1,.4,0c2.93,1.25,4.49,1.5,5.4.86s.73-1.73.6-2.63c-.1-.73-.14-1.19,0-1.24s.8.46,1.16.77a3.8,3.8,0,0,0,3,1.32c1.13-.19,2.14-1.17,3.18-3.07a.25.25,0,0,1,.18-.12c.87-.18,3.08,1,4.29,1.88a.85.85,0,0,0,1.14-.15.8.8,0,0,0,.16-.6.78.78,0,0,0-.32-.53c-.85-.61-3.77-2.55-5.63-2.15a1.81,1.81,0,0,0-1.26.93c-1,1.82-1.69,2.19-2,2.24-.49.08-1.08-.43-1.65-.93s-1.64-1.44-2.74-1.1c-1.53.46-1.3,2-1.16,3a3.89,3.89,0,0,1,.07,1.12s-.6.33-3.78-1a2.07,2.07,0,0,0-1.85,0c-1.8,1-2.38,4.57-2.47,5.27a.78.78,0,0,0,.54.86Z"/><path d="M50.33,49.4c-1.51.47-2.1,1.67-2.68,2.83a5.33,5.33,0,0,1-3.8,3.41,7.57,7.57,0,0,1-2,0c-1.92-.18-4.32-.41-6.17,1-1.4,1.09-2.18,2.91-2.4,5.55a.81.81,0,0,0,.55.81L34,63h0a.82.82,0,0,0,.83-.73c.18-2.18.77-3.63,1.79-4.44,1.33-1,3.35-.85,5-.69a8.46,8.46,0,0,0,2.62,0,6.92,6.92,0,0,0,4.86-4.26c.48-1,.86-1.74,1.7-2,1.31-.41,5.4.22,7.39.6a.81.81,0,0,0,1-.61.75.75,0,0,0-.11-.6.77.77,0,0,0-.52-.34C57.52,49.76,52.32,48.79,50.33,49.4Z"/><path d="M34.87,37.44a9.82,9.82,0,0,0,3.07.14,8.93,8.93,0,0,0,3.38-2,9.41,9.41,0,0,1,2.13-1.47c.93-.36,3.27.27,4.63.83a.83.83,0,0,0,1.07-.4.75.75,0,0,0,0-.62.79.79,0,0,0-.44-.44c-.4-.17-4-1.59-5.88-.85a10.64,10.64,0,0,0-2.59,1.73A7.83,7.83,0,0,1,37.58,36a9.65,9.65,0,0,1-2.5-.17c-3-.41-8.12-1.1-9.23,3.72a.79.79,0,0,0,.54.92l.1,0a.44.44,0,0,0,.16,0,.83.83,0,0,0,.81-.62C28.18,36.79,31.1,36.93,34.87,37.44Z"/><path d="M37.23,21.52a.8.8,0,0,0,.37.42l.15.07a1.09,1.09,0,0,0,.25,0,.81.81,0,0,0,.31-.06l5.21-2.08A.79.79,0,0,0,44,19L41.58,9.57a.82.82,0,0,0-1-.58l-6.52,1.47a.84.84,0,0,0-.53.39.8.8,0,0,0-.06.66Zm2.94-10.8,2.06,8-3.75,1.5-3.14-8.39Z"/></svg>