<svg id="Слой_1" data-name="Слой 1" xmlns="http://www.w3.org/2000/svg" viewBox="0 0 70 70"><defs><style>.cls-1{fill:#ffd240;}.cls-2{fill:#231f20;}.cls-3{fill:#fff;}</style></defs><title>stages-6</title><path class="cls-1" d="M27.71,51c-3.77,5.84-3.32,13.79,2.78,17.39s14.66,1,18.43-4.88a12.11,12.11,0,0,0-4.23-17.1C38.58,42.77,31.48,45.13,27.71,51Z"/><path class="cls-2" d="M67.49,28.07c-.08,0-4.06-2.53-8.85-5.54l3.17-5.11a1.09,1.09,0,0,0-.36-1.5,1.11,1.11,0,0,0-1.51.36l-3.15,5.08c-3.81-2.4-7.86-5-10.73-6.84-2.49-1.62-5.86-3.9-9.18-6.18l2-3.29a1.09,1.09,0,0,0-.36-1.5,1.11,1.11,0,0,0-1.51.36l-2,3.19C29.85,3.5,25.23.25,25.15.2A1.15,1.15,0,0,0,24.29,0a1.09,1.09,0,0,0-.72.5L17,11a1.09,1.09,0,0,0,.31,1.48l2,1.37L2.16,41.59a1.09,1.09,0,0,0,.3,1.46L24.75,58.76a1.1,1.1,0,0,0,.64.2,1.12,1.12,0,0,0,.9-.46A1.09,1.09,0,0,0,26,57L4.58,41.87l16.6-26.76C25.6,18.11,32.9,23,38,26.1c6.22,3.82,14.34,8.37,19,10.95L51.37,46a1.09,1.09,0,0,0,.36,1.51,1,1,0,0,0,.57.17,1.12,1.12,0,0,0,.94-.52l5.65-9,1.81,1a1.25,1.25,0,0,0,.53.13,1.13,1.13,0,0,0,.94-.53l5.67-9.14A1.1,1.1,0,0,0,67.49,28.07Zm-6.65,8.61C57.67,35,46.89,29,39.11,24.23c-6.46-4-16.65-10.88-19.65-12.93l5.36-8.64C26.47,3.81,30,6.29,33.92,9l-1.26,2a1.09,1.09,0,0,0,.36,1.5,1.1,1.1,0,0,0,.58.16,1.07,1.07,0,0,0,.93-.52l1.19-1.92c3.3,2.26,6.65,4.53,9.13,6.14,2.89,1.88,7,4.46,10.78,6.87l-.83,1.35a1.08,1.08,0,0,0,.35,1.5,1.16,1.16,0,0,0,.58.16,1.07,1.07,0,0,0,.93-.52l.83-1.32,7.9,5Z"/><path class="cls-3" d="M45.54,58.64l-7.7-.1a1.09,1.09,0,0,1-1.08-1.07l-.17-7.08a1.1,1.1,0,0,1,2.19,0l.14,6,6.62.09a1.1,1.1,0,0,1,1.09,1.11A1.08,1.08,0,0,1,45.54,58.64Z"/><path class="cls-2" d="M25.64,38.27a1.1,1.1,0,0,1-.57-.16l-7.38-4.53a1.09,1.09,0,0,1-.36-1.5l5-8a1.09,1.09,0,0,1,.74-.51,1.07,1.07,0,0,1,.86.21l7,5.2a1.08,1.08,0,0,1,.27,1.45l-4.55,7.33A1.09,1.09,0,0,1,25.64,38.27Zm-5.86-6,5.5,3.38,3.46-5.56-5.2-3.88Z"/></svg>