<svg id="Слой_1" data-name="Слой 1" xmlns="http://www.w3.org/2000/svg" viewBox="0 0 70 70"><title>stages-4</title><path d="M70,43.9a1.92,1.92,0,0,0-1.29-1.52l-21.9-7.19L44.45,24.84a3.47,3.47,0,0,0-2.05-2.45l-.23-.08L3.1,10.54a7.7,7.7,0,0,1-.74-.29l-.09,0a3.37,3.37,0,0,0-.42-.17,1.75,1.75,0,0,0-1.29.21l.09.24h0L.5,10.29a.63.63,0,0,0-.26.16.82.82,0,0,0-.18.29.56.56,0,0,0,0,.12v0a1,1,0,0,0,0,.37L9.86,45.19l.15.29h0l.08.08a.56.56,0,0,0,.25.16L50.91,59.82l.1,0,.09.05a1.05,1.05,0,0,0,.24.06h.22a.74.74,0,0,0,.54-.23.78.78,0,0,0,.17-.26l17-13.72A2,2,0,0,0,70,43.9ZM47.78,46.77l-1.26,1.31-3.09-1.27,1.36-1.45,2.89,1Zm.93,4.09.7,3.1-2.64-1.27,1.87-1.86Zm-1.52-6.58-1-.4.72-.77Zm-4.48-4.54a.23.23,0,0,0-.2,0l-2.08,1.58a.18.18,0,0,0-.07.17.21.21,0,0,0,.12.14l4.09,1.61,0,0a.22.22,0,0,0,.16,0l1.78-1.61.24,1-1.07,1.15a.19.19,0,0,0,0,.18.16.16,0,0,0,.11.13l1.5.6.28,1.18L44.8,45a.19.19,0,0,0-.19,0L43,46.75a.23.23,0,0,0,0,.18.2.2,0,0,0,.12.13l3.45,1.42h0a.17.17,0,0,0,.15-.05l1.2-1.23.72,3.2a.22.22,0,0,0-.16.05L46.29,52.6a.2.2,0,0,0-.06.18.18.18,0,0,0,.11.14l3.19,1.54.77,3.43L12.45,44.73,30.23,31.45,45.31,36.4l1.11,4.67Zm3.54,1.65-1.66,1.5-3.66-1.44,1.75-1.33ZM30.71,29.9a1.66,1.66,0,0,0-1.48.25L11.09,43.75,1.93,12.24,41.72,23.86a1.25,1.25,0,0,1,.81.9l2.34,9.8ZM50.52,51.46l1.67.57L51,53.33Zm-.61-2.55,1-1.11,3.28,1.12-1.55,1.59-2.6-1Zm-1.42-6.18,2.35.8-1.56,1.6L49,45ZM51.08,53.8l1.61-1.73a.18.18,0,0,0,.05-.18.24.24,0,0,0-.13-.15L50.41,51l-.25-1.07,2.47,1,0,0a.22.22,0,0,0,.15-.06L54.67,49a.17.17,0,0,0,0-.18.19.19,0,0,0-.12-.14L50.93,47.4a.19.19,0,0,0-.19.05l-.94,1-.4-1.7-.3-1.31.16.07h0a.23.23,0,0,0,.16-.06l1.85-1.9a.22.22,0,0,0,0-.18.2.2,0,0,0-.12-.13l-2.85-1L47.2,37l21,6.91a.3.3,0,0,1,.21.25.32.32,0,0,1-.12.33L52,57.66ZM.59,10.52Z"/><path d="M57.38,45.23l-4.55-.89a.21.21,0,0,0-.2.06l-1.58,1.91a.17.17,0,0,0,0,.17.17.17,0,0,0,.13.13l4,1.33h0a.2.2,0,0,0,.18-.07l2.1-2.34a.21.21,0,0,0,0-.19A.22.22,0,0,0,57.38,45.23Zm-2.2,2.31-3.63-1.19,1.34-1.62,4.08.8Z"/><path d="M42.38,48,41,49.67a.29.29,0,0,0,0,.16.19.19,0,0,0,.09.12L44,51.46H44a.14.14,0,0,0,.13,0l1.6-1.74a.18.18,0,0,0,0-.16.16.16,0,0,0-.09-.12L42.56,48A.16.16,0,0,0,42.38,48ZM44,51.09l-2.64-1.36,1.16-1.38,2.83,1.27Z"/><path d="M40.21,42l-1.75,2.21a.29.29,0,0,0-.05.2.23.23,0,0,0,.1.16L42,46.25h0a.17.17,0,0,0,.15-.07L44,43.94a.3.3,0,0,0,.05-.21.18.18,0,0,0-.11-.15L40.4,41.93A.16.16,0,0,0,40.21,42Zm3.38,1.89L42,45.78,38.9,44.26l1.47-1.86Z"/><path d="M41.26,47.25a.18.18,0,0,0-.11-.13l-3.66-1.44a.2.2,0,0,0-.2,0l-1.61,1.59a.17.17,0,0,0,0,.15.17.17,0,0,0,.1.13l3.44,1.6.06,0a.27.27,0,0,0,.15-.05l1.83-1.75A.18.18,0,0,0,41.26,47.25Zm-2,1.57-3.09-1.44,1.35-1.32,3.28,1.28Z"/><path d="M38.18,41.63h0a.15.15,0,0,0,.14-.07l1.38-1.82a.28.28,0,0,0,.05-.2.19.19,0,0,0-.1-.15l-3.13-1.27a.12.12,0,0,0-.15,0L35,39.86a.28.28,0,0,0,0,.2.17.17,0,0,0,.09.16Zm-1.65-3.06,2.79,1.14L38.2,41.18l-2.82-1.25Z"/><path d="M32.22,42.51a.16.16,0,0,0,.11.1l3.42,1.19h.06a.25.25,0,0,0,.15,0l1.84-1.37a.13.13,0,0,0,0-.14.14.14,0,0,0-.13-.1L33.9,41.09a.2.2,0,0,0-.2,0l-1.45,1.25A.11.11,0,0,0,32.22,42.51Zm1.69-1.12,3.4,1L35.77,43.5l-3.06-1.06Z"/><path d="M31.52,43.27a.2.2,0,0,0-.21,0l-1.77,1.63a.17.17,0,0,0-.05.15.19.19,0,0,0,.11.14L33,46.75h.06a.18.18,0,0,0,.16,0L35.08,45a.16.16,0,0,0-.07-.28ZM33,46.37,30,45l1.49-1.37,3.12,1.26Z"/><path d="M32,38.35l0,0a.24.24,0,0,0,.16,0L33.64,37a.12.12,0,0,0,0-.14.19.19,0,0,0-.12-.11l-3.7-1.09a.2.2,0,0,0-.17,0l-1.57,1.14a.14.14,0,0,0-.05.14.2.2,0,0,0,.12.12Zm-2.1-2.41,3.32,1L32,38l-3.38-1.18Z"/><path d="M31.7,39.69a.17.17,0,0,0,.05-.15.24.24,0,0,0-.13-.13l-4.18-1.62a.23.23,0,0,0-.24,0l-1.82,1.63a.14.14,0,0,0,0,.15.18.18,0,0,0,.12.12l3.95,1.6.07,0a.25.25,0,0,0,.17,0ZM29.45,41l-3.57-1.45,1.54-1.38,3.76,1.46Z"/><path d="M25.38,40a.16.16,0,0,0-.22.07l-1.78,2.61a.31.31,0,0,0-.05.21.23.23,0,0,0,.1.17l3.47,2.07.06,0a.16.16,0,0,0,.16-.09L29,42.47a.33.33,0,0,0,.05-.22.22.22,0,0,0-.1-.17ZM27,44.61l-3.12-1.86,1.51-2.21,3.17,1.86Z"/></svg>