<svg id="Слой_1" data-name="Слой 1" xmlns="http://www.w3.org/2000/svg" viewBox="0 0 70 70"><defs><style>.cls-1{fill:#231f20;}</style></defs><title>stages-2</title><path class="cls-1" d="M32.89,65a2.24,2.24,0,0,1-2.17-1.94l-.85-5.19a.41.41,0,0,0-.27-.34A20.55,20.55,0,0,1,25,55.68a.18.18,0,0,0-.24,0l-3.91,3.06A2.11,2.11,0,0,1,18,58.49l-3.59-4a2.48,2.48,0,0,1-.26-2.92l2.37-3.83a.6.6,0,0,0,0-.58,24.67,24.67,0,0,1-2.36-5.5c-.05-.15-.15-.28-.25-.29l-4.08-.8A2.32,2.32,0,0,1,8,38.29V32.63a2.32,2.32,0,0,1,1.78-2.31l3.49-.71a.44.44,0,0,0,.26-.35,24.87,24.87,0,0,1,2.09-6.38.59.59,0,0,0,0-.55l-2-3.24a2.5,2.5,0,0,1,.23-2.93l3.57-4a2.1,2.1,0,0,1,2.87-.28l2.65,2a.2.2,0,0,0,.27,0A20.64,20.64,0,0,1,29,11.05a.41.41,0,0,0,.26-.34L29.87,7A2.25,2.25,0,0,1,32,5L37.1,5a2.24,2.24,0,0,1,2.17,1.94l.61,3.73a4.34,4.34,0,0,0,.42,1.24c.53.15,1.07.26,1.59.36a10.2,10.2,0,0,1,3.91,1.37.2.2,0,0,0,.27,0l3.06-2.4A2.12,2.12,0,0,1,52,11.5l3.59,4a2.5,2.5,0,0,1,.26,2.93L53.6,22.06a.59.59,0,0,0,0,.55,25.41,25.41,0,0,1,2,5.62c0,.17.14.31.25.33l4.32.84A2.32,2.32,0,0,1,62,31.71l0,5.64a2.32,2.32,0,0,1-1.78,2.32l-4.54.92c-.1,0-.2.15-.25.31a26,26,0,0,1-1.85,4.94.59.59,0,0,0,0,.55l2.85,4.52a2.48,2.48,0,0,1-.23,2.92l-3.57,4a2.09,2.09,0,0,1-2.87.28L45.72,55a.19.19,0,0,0-.26,0,20.66,20.66,0,0,1-4.2,2.05.4.4,0,0,0-.25.34L40.13,63A2.23,2.23,0,0,1,38,65l-5.06,0Zm-8-11.27a2.18,2.18,0,0,1,1,.27,17.92,17.92,0,0,0,4.15,1.69,2.31,2.31,0,0,1,1.65,1.87l.85,5.19a.4.4,0,0,0,.3.34l5.06,0c.13,0,.26-.15.29-.34l.88-5.62a2.28,2.28,0,0,1,1.49-1.83,19,19,0,0,0,3.81-1.87,2.09,2.09,0,0,1,2.43.09l4,3.12a.22.22,0,0,0,.31,0l3.56-4a.56.56,0,0,0,0-.64L52,47.41a2.43,2.43,0,0,1-.1-2.42,24.37,24.37,0,0,0,1.71-4.57,2.24,2.24,0,0,1,1.7-1.69l4.53-.93a.41.41,0,0,0,.27-.43l0-5.65a.41.41,0,0,0-.27-.43l-4.31-.85a2.29,2.29,0,0,1-1.74-1.77,23.76,23.76,0,0,0-1.86-5.19A2.51,2.51,0,0,1,52,21.06l2.27-3.65a.57.57,0,0,0-.05-.64l-3.6-4a.21.21,0,0,0-.31,0l-3.06,2.41a2.1,2.1,0,0,1-2.49.08,8.31,8.31,0,0,0-3.22-1.09c-.61-.13-1.24-.25-1.9-.44-1.15-.34-1.54-2.34-1.6-2.73l-.62-3.73c0-.19-.16-.34-.29-.34L32,6.93c-.13,0-.26.15-.29.34L31.17,11a2.31,2.31,0,0,1-1.6,1.87,18.4,18.4,0,0,0-5.33,2.59,2.08,2.08,0,0,1-2.51,0l-2.65-2a.21.21,0,0,0-.31,0l-3.56,4a.56.56,0,0,0,0,.63l2,3.25a2.49,2.49,0,0,1,.12,2.4,23.87,23.87,0,0,0-1.93,5.9,2.29,2.29,0,0,1-1.75,1.87l-3.49.71a.43.43,0,0,0-.26.44l0,5.65a.42.42,0,0,0,.26.43l4.08.79A2.27,2.27,0,0,1,16,41.12a23.46,23.46,0,0,0,2.18,5.09,2.5,2.5,0,0,1,0,2.55l-2.37,3.83a.56.56,0,0,0,.05.63l3.59,4a.22.22,0,0,0,.32,0l3.91-3.06A2,2,0,0,1,24.9,53.73ZM35,48.64h-.07c-6.59-.48-12-6.31-12.49-13.56-.36-5,1.79-11.6,4.69-14.53a.93.93,0,0,1,1.34,0,1,1,0,0,1,0,1.35c-2.52,2.54-4.46,8.64-4.14,13,.46,6.31,5.08,11.38,10.73,11.79A1,1,0,0,1,35,48.64Zm.76-4.89a13.74,13.74,0,0,1-2.33-.2c-3.68-.66-6.17-3.72-6.83-8.42-.5-3.62,1.91-11.7,6.67-13.68A1,1,0,0,1,34,23.21c-3.84,1.59-5.93,8.71-5.52,11.65.32,2.25,1.42,6.12,5.28,6.81,2.54.45,6.74.12,7.87-2.65a.95.95,0,1,1,1.75.73C42.2,42.61,38.94,43.75,35.75,43.75Z"/></svg>