<svg xmlns="http://www.w3.org/2000/svg" viewBox="0 0 240.74 308.49"><defs><style>.cls-1{fill:#ebecf2;}</style></defs><title>blog-bg</title><g id="Слой_2" data-name="Слой 2"><g id="Слой_1-2" data-name="Слой 1"><path class="cls-1" d="M2.52,258.87c-3.21,7.71-3.6,16.66.26,24.24,7.28,14.28,23.21,23.16,38.75,25a51.11,51.11,0,0,0,25.68-3.58,4.36,4.36,0,0,0,2.34-6.05c0-2.25-1-3.21-5.83-10.15-22.78,7-50.66-11.45-41.73-32.92,2-4.75,5.21-8.68,8.71-12.38l-4.48-5.82c-1.52-2-5.11-2.37-6.9-.57C12.77,243.32,6.15,250.14,2.52,258.87Z"/><path class="cls-1" d="M239.54,18.56s.14,0,.22.12c.3-.46-.3-1,0-1.37.9-.1.19.4,1,.29a2.84,2.84,0,0,0-.55-1c-.23-.33-.42-.64-.32-.95l-.1.12c-1.24,0,.58-.52-.06-.77a1.41,1.41,0,0,0,.57,0,.72.72,0,0,0-.23-.67c-.09-.11-.21-.22-.33-.34l-.41-.36h.34c.22-.31,0-.68.06-1-.33,0-.32-.15-.74.09.76-.67.35-1,0-1.25s-.84-.43-.32-1.1c0,.08.35.07.32,0l-.56-.43c-.46.3-.25.23-.57.54-.32.08-.62.06-.69-.07.45,0,.78-.43,1-.69-.14.1-.32.16-.46.25.69-.77-1,.51-.64-.18l.26-.13c-.21-.06-.61,0-.64-.16.49-.41.34,0,.79-.3-.17-.19-1.26.27-.86-.27.21,0,.29.11.49.09.48-.62.3-.54.3-.76s0-.35,0-.53l-.09.21c-.77.37-.92.31-1,.18s-.18-.32-.71-.12c1-.37.49-.34,1.05-.79.08-.21.14-.49.32-.59-.56.22.08-.58-.74-.21.16-.17-.15-.17.3-.55-.33-.06-.23.34-.46.52-.43.13-.43-.2-.48-.53s-.19-.67-.77-.43c-.63,0-1.12.51-1.64.64L233,6a1.29,1.29,0,0,1,.55-.51c0-.44-.22-.47-.55-.37a1.16,1.16,0,0,0,.27-.58c-.2,0-.54.65-.58.23a6,6,0,0,1,.64-.7c-.31.06-.72.32-1,.39.14-.39.42-.47.62-.65a1.19,1.19,0,0,0-1.15.53l0,.21a1.38,1.38,0,0,1,.34-.52c.44-.35.18.35.08.56l-.21,0c-.51,1.28.64.13.9.38l-.5.61a13.24,13.24,0,0,0-2.1-1h0c.14-.33.29-.67.42-1,0,.07,0,.12.07.11l.38-.7-.28.11a2.05,2.05,0,0,0,0-1.27c-.2.16-.4.33-.59.51l0-.56.33.09c0-.55-.29-.17-.5.08a1.14,1.14,0,0,0,0-.61c-.24.3-.46.61-.68.91.07-.43.41-.78.2-1.08-.3.42-.08,1-.44,1.21-.06-.53.08-.92-.23-.55a.79.79,0,0,1,.24-.56c-.28.29-.56,0-.78.59-.07-.66-.68,0-.49-1-.1.24-.47.76-.65.78.48-1.2-.67-.16-.46-1.47-.35,1.09-1,.42-1.42,1.05,0-.08.08-.27.11-.21-.24-.09-.32-.43-.48-.66,0,.93-.4,1.16-.57,1.75-.34-.89.13-1.11,0-2,0,.75-.5.78-.35,1.4a2.39,2.39,0,0,1-.4-1c.06,1.18-.2.23-.31,1-.39-.53-.21-1.07-.54-.68C222.72.45,223,0,223,0c-.4,0-.07.88-.08,1.38-.4.32-.3-.6-.52-1-.25.28-.32,1.1-.52,1.11a.7.7,0,0,1-.09-.37c-.14.75-.86.21-1,1.16a.75.75,0,0,1-.1-.2,7.21,7.21,0,0,1,.35,1.15c-.14,0-.12.61-.33.07.1,0,0-.23,0-.41l-.09.29c-.37-.75.14-.34,0-.92-.25.34-.4,1.1-.7,1-.31-.75.47-.45-.07-1,.16.05.32.12.47.18-.66-1.13.26,0-.4-1.21-.6-.07-.45.58-1.05.53,0,.46.27.61.31,1.07-.36,1-1.3-1.67-1.41-.45.08.55.46,1.49-.11,1.17l-.27-.89c-.51.15.32,1.3-.43,1-.08-.36.22-.46.1-.52-.64-.47,0,.58-.21.7l-.43-.68a2.55,2.55,0,0,0-.54.8,5.29,5.29,0,0,1-.5.85c-.11-.22-.17-.49-.43-.61-.41.77-1.38.9-2.28,1.09l.26.7c-.06,0-.31-.13-.36-.29-.39,0,.3.33.39.63-.08.15-.43-.13-.51-.35,0,.8-.05,1.91-1,1.88l-.1-.21c-.49.19.86,1.23.11,1.16l0-.13a3.62,3.62,0,0,0-.8,1.14,1.6,1.6,0,0,1-.42.51,1.47,1.47,0,0,1-.71.33c.43.27.23.42.09.61s-.23.39.42.65c-.83.26-1,0-1.68.67-.12.2.75.52.85.79l-.72-.15c.22.17.45.33.68.49l-.89,0,.14.27a.7.7,0,0,1,.57-.09c.24.39-.63.8-1,.79a10,10,0,0,0,.55.94.77.77,0,0,1-.44-.22c.37.34-.85,0-.23.42a1.85,1.85,0,0,1,.58.06.71.71,0,0,0-.25,1.07l-.5-.05c-.1.7.36,1.38.48,2.13.17-.32,1.05-.39,1.17-.2l-.74.22c.5.05.24-.27.88-.11,0,.28-.82.37-1.11.25l.34.29c-.22.06-.36,0-.65.06.25,0,.09.21,0,.41s-.15.41.28.4l-.21.08c.22.8.63,1.05.92,1.63.61-.28.59,0,1.15-.07,0,.49-.17,1.2.2,1.65.5.12.53-.24,1-.34-.48.38-.09.79-.61.84a2.85,2.85,0,0,0,.63.5,3.26,3.26,0,0,0,1,.33c.11-.24.12-.39.3-.5s.05.4-.15.61l-.07,0c.63,0,.73.61.92,1.25a2.29,2.29,0,0,0,.38.8.56.56,0,0,0,.73,0l-.07,0a10,10,0,0,0,1-.23c.26.24-.38.32-.32.77a1,1,0,0,1,1.13.06.74.74,0,0,0,.92.16c0,1,.46,1,.93,1,.08,0,0,0,.07,0l0,0s0,0,.06,0a.65.65,0,0,1,0,.45l.18-.4c.25-.33,0,.27-.06.38.15-.29.12-.38.27-.56a.57.57,0,0,1,.26,0l.1.07.24.16a5.87,5.87,0,0,1,.87.86A10.49,10.49,0,0,0,222,31.57c.55.31,1-1.95,1.36-.81l-.41.71a2.84,2.84,0,0,1,1.84,0,5.08,5.08,0,0,0,.86.12,1.7,1.7,0,0,0,.87-.27c-.08.18-.09.41-.2.4.21.58.89.09.89-.39.17,0,0,.41.15.65s.58-.75.73-.19a.29.29,0,0,1-.1.23c.14-.28.75,0,.54-.61.45.26.76-.39,1.14-.06.09-.74.78.22.63-.82.19,1.06.93.67,1,.12,0,.34.31.25.35.71.29-.12.5-.4.27-.9.48.51.67.17.82-.12s.27-.54.76.14c.31-.47.59-.87.84-1.27s.52-.72.75-1.07c.61.91-.67.58,0,1.5a3.86,3.86,0,0,0,.38-1.24c.09-.38.21-.69.58-.82s.22.42.28.61a2.43,2.43,0,0,1,.7-.91,1.18,1.18,0,0,0,.49-1,.54.54,0,0,1,.13.3c0-.12.32-.14-.07-.44l0,.19c-.65-.31-.81-1.34-1.11-1.57,1,1,.66-.26,1.86,1.06a.89.89,0,0,0-.41-.53c.15,0,.33,0,.56.35,0-.54-.48-.7-.26-1,.2.13.23.25.44.44-.27-.43-.56-.85-.2-1,.11.09.29.15.23.23.28-.55-.6-1.45.06-1.8.85.59.4-.06,1.23.26l-.09-.43-.46,0c.15-.27-.4-.76,0-.89l.27.33,0-.59-.42.19c-.34-.42-1.07-.33-.72-.6.06.09.09-.26.64-.26-.22-.2-.48-.41-.22-.56.29,0,.94.27,1.13.28-.69-.31-.06-.74-.8-1.05a2.62,2.62,0,0,0,.72.17l-.57-.22a.82.82,0,0,1,.67,0C240.3,18.61,239,19,239.54,18.56Zm-1.37-7-.51.22c0-.07,0-.13-.08-.19A.77.77,0,0,1,238.17,11.54ZM234.32,6.3c-.09.16-.2.31-.29.47l-.19-.15A1.9,1.9,0,0,1,234.32,6.3ZM233,5.22a1.88,1.88,0,0,1-.29.56l-.24-.16Zm-17.3-.46-.11.14Zm-.42.4c.16.17.27.38.21.41-.05-.15-.27-.16-.47-.25A.8.8,0,0,0,215.26,5.16Z"/></g></g></svg>