<svg xmlns="http://www.w3.org/2000/svg" viewBox="0 0 60 60"><path fill="#ffd240" d="M58.54 48.44c-.5-2.46-1.12-4.91-1.69-7.37l-1.92-8.37c-.41-1.77-1.74-4.73-4-4.48-4.41.46-5 3.46-6.56 6.5-.91 1.78-3 3.48-4.43 4.94-6.53 6.77-18.71 3.52-27.29 6.87-1.66.65-4.48 1.7-4.92 3.66-.27 1.19.46 2.54.83 3.64l1.38 4.06c.07.22 13.89.32 27.31-1.53a158.62 158.62 0 0 0 22.51-5.09 15.82 15.82 0 0 1-1.17-2.83zm-40.49-8.63c2.7-2.82 3.16-6.25 7.55-13.9.19-.33-.32-.63-.56-.36a25.62 25.62 0 0 0-3.79 6.6c-.55 1.19-1.1 2.39-1.72 3.54s-1.46 2.33-2.21 3.5a.48.48 0 0 0 .73.62z"/><path fill="#fff" d="M10.76 57.25c.88-2.17 1.64-4.39 2.44-6.59a44.82 44.82 0 0 0 2.27-6.66.23.23 0 0 0-.41-.17 43.77 43.77 0 0 0-2.6 6.42c-.85 2.24-1.76 4.48-2.53 6.75-.19.56.63.75.83.25zm9-.59q3-1.92 6-3.93c.94-.64 1.86-1.28 2.78-1.94.65-.46 1.92-1 2.05-1.87 0-.07 0-.15-.09-.16-.82-.16-1.61.7-2.25 1.14l-2.95 2q-3 2-6 3.91c-.52.33-.05 1.18.48.85z"/><path fill="#ffd240" d="M18.45 26.59a12.07 12.07 0 0 0 .22-2.82c0-1.1.06-2.19.07-3.28a30 30 0 0 0-.23-6.07.19.19 0 0 0-.36 0 49 49 0 0 0-.22 6.06c-.13 5-.36 5-.17 6.1.06.42.6.33.69.01zm8.17 11.6c3.82.71 8.3 1.55 12.07.12.29-.11.3-.63-.08-.6-4 .38-5 1-11.76-.39-.57-.11-.85.77-.23.87zm-22.26-13.06a46.56 46.56 0 0 0 4.24-4.19c1.4-1.44 2.7-2.94 4-4.44.28-.33-.18-.81-.48-.48-4.67 5.23-6.58 6.68-8.27 8.6a.36.36 0 0 0 .51.51z"/><path fill="#fff" d="M45.61 45.05c.2-2 .59-3.91.82-5.88.2-1.75.66-3.86.31-5.6a.16.16 0 0 0-.31 0c-.4 1.16-.71 7.76-1.61 11.39-.14.54.72.68.79.09zm-4 6.61l6.16-3a40.38 40.38 0 0 0 6.08-3.18c.16-.12.08-.42-.15-.36-2 .55-2.16.85-12.56 5.75-.55.25-.08 1.09.47.82zm-6 2.86a40.13 40.13 0 0 0 .65-5.14 34.21 34.21 0 0 0-.09-5.45.11.11 0 0 0-.22 0c0 2-.33 5.81-.57 7.73a23.89 23.89 0 0 0-.38 2.78.33.33 0 0 0 .64.08z"/><path fill="#ffd240" d="M37.88 17.05c.79.31.85.19 5.33.55 3.72.29 4.15.52 4.95.24a.1.1 0 0 0 0-.16 4.49 4.49 0 0 0-2.03-.68c-1.47-.24-4-.45-5.46-.57a10.06 10.06 0 0 0-2.79-.12c-.38.08-.31.58 0 .7zm-7.57 13.37a8 8 0 0 0 2.44-1.49c.79-.57 1.58-1.16 2.34-1.78s1.52-1.28 2.24-2a6.55 6.55 0 0 0 1.68-2c.12-.31-.29-.59-.55-.43a9.28 9.28 0 0 0-1.76 1.78 26.19 26.19 0 0 1-2.18 2c-.77.66-1.57 1.28-2.36 1.89a8.44 8.44 0 0 0-2 1.75.14.14 0 0 0 .16.21z"/><path d="M7.46 59.58a89.93 89.93 0 0 1-5.09-19.83l.61-.1a89.74 89.74 0 0 0 5.02 19.69l-.58.24zm-6.71-31.82c-.53-6.21-.75-12.87-.75-20.37h.63c0 7.48.21 14.12.74 20.32zm58.67 24.78a131.15 131.15 0 0 1-5.12-19.77l.62-.11a130.21 130.21 0 0 0 5.08 19.67zm-6.73-31.77a172.57 172.57 0 0 1-.31-20.41h.63a169.09 169.09 0 0 0 .3 20.33l-.62.06zm-42.54 39.23h-2.1v-.62c14.62.25 37.66-2.19 51.54-7.22l.21.59c-13.29 4.79-34.94 7.25-49.65 7.25zm-7.79-20.25c-.23-1.76-.1-2.65.51-3.51a3.16 3.16 0 0 1 2.13-1.4 4 4 0 0 1 3 .92c.33.25.62.48.89.71s.55.45.89.7a3.08 3.08 0 0 0 3.16.43c1.26-.59 2-2 2.18-4a13.07 13.07 0 0 0-.12-1.6c-.34-2.57-1.55-4.38-3.23-4.83a3 3 0 0 0-3.21 1.19c-.26.33-.46.62-.67.9s-.42.59-.67.92a4 4 0 0 1-2.63 1.68 3.11 3.11 0 0 1-2.42-.86c-.82-.65-1.17-1.47-1.42-3.23l.62-.08c.21 1.59.5 2.28 1.19 2.84a2.57 2.57 0 0 0 1.92.66 3.46 3.46 0 0 0 2.21-1.44c.25-.32.44-.6.66-.9s.42-.59.68-.93a3.61 3.61 0 0 1 3.86-1.41c1.93.52 3.31 2.52 3.69 5.35a12.52 12.52 0 0 1 .1 1.77c-.14 2.19-1.06 3.84-2.54 4.52a3.68 3.68 0 0 1-3.79-.48c-.35-.26-.63-.5-.91-.72s-.55-.45-.87-.69a3.46 3.46 0 0 0-2.51-.81 2.57 2.57 0 0 0-1.68 1.15c-.51.72-.61 1.46-.39 3.06l-.62.08zm42.35-5.69a3.61 3.61 0 0 1-.91-.12c-1.94-.53-3.33-2.53-3.71-5.36a14.57 14.57 0 0 1-.1-1.77c.14-2.2 1.07-3.84 2.54-4.53a3.72 3.72 0 0 1 3.8.49c.35.26.63.5.91.72s.54.45.87.69a3.45 3.45 0 0 0 2.51.81 2.59 2.59 0 0 0 1.67-1.15c.52-.72.62-1.46.4-3.06l.62-.08c.23 1.76.11 2.64-.51 3.51a3.14 3.14 0 0 1-2.08 1.39 4 4 0 0 1-3-.92c-.34-.25-.62-.48-.9-.7s-.55-.45-.89-.7a3.07 3.07 0 0 0-3.15-.43c-1.27.59-2.06 2-2.19 4a13.18 13.18 0 0 0 .1 1.67c.41 3 1.95 4.48 3.25 4.83a3 3 0 0 0 3.19-1.19c.26-.33.46-.63.67-.91s.41-.59.67-.92a4.05 4.05 0 0 1 2.63-1.68 3.19 3.19 0 0 1 2.38.79c.82.68 1.18 1.5 1.42 3.25l-.62.09c-.21-1.6-.51-2.29-1.19-2.85a2.58 2.58 0 0 0-1.92-.66 3.48 3.48 0 0 0-2.17 1.43c-.25.32-.45.6-.66.89s-.42.59-.68.93a3.71 3.71 0 0 1-2.93 1.54zm-11.71-28.35l-.11-.62a129.57 129.57 0 0 0 19.65-5.09l.21.59a130.56 130.56 0 0 1-19.75 5.12zm-23.79 2.08c-2.73 0-5.51-.06-8.54-.16l.02-.63a170.65 170.65 0 0 0 20.31-.3l.05.63c-4.14.33-7.92.46-11.84.46zm18 12.26h-.14c-2.19-.14-3.83-1.07-4.52-2.55a3.7 3.7 0 0 1 .45-3.8c.26-.35.49-.63.72-.91s.44-.55.68-.87a3.49 3.49 0 0 0 .81-2.52 2.59 2.59 0 0 0-1.14-1.68c-.72-.51-1.47-.61-3.06-.39l-.01-.62c1.76-.24 2.64-.11 3.5.51a3.16 3.16 0 0 1 1.4 2.08 4.06 4.06 0 0 1-.92 3c-.25.34-.48.62-.71.9l-.7.88a3.12 3.12 0 0 0-.42 3.17c.58 1.26 2 2.06 4 2.18h.1a13.8 13.8 0 0 0 1.56-.09 10.47 10.47 0 0 0 1.58-.34c1.83-.63 3-1.78 3.25-3.16a3.1 3.1 0 0 0-1.25-2.94l-.91-.67c-.29-.2-.59-.41-.91-.67a4 4 0 0 1-1.68-2.64 3.15 3.15 0 0 1 .79-2.38c.67-.83 1.49-1.18 3.24-1.42l.09.62c-1.6.21-2.28.5-2.84 1.19a2.57 2.57 0 0 0-.66 1.92 3.43 3.43 0 0 0 1.49 2.15c.32.25.6.45.89.66s.59.42.93.69a3.69 3.69 0 0 1 1.48 3.54c-.26 1.6-1.6 2.93-3.66 3.65a13.54 13.54 0 0 1-1.75.37 13.18 13.18 0 0 1-1.62.11z"/></svg>