<svg xmlns="http://www.w3.org/2000/svg" viewBox="0 0 60 60"><path fill="#ebecf2" d="M46.6 55.62a39.73 39.73 0 0 1-4.76-6.37l.91-1.41c-1.57-1.27-3.55-4.14-3.45-6.49-.3.37-1.13.6-1.23 1.37-2.74-.67.74-2.08-1.11-2.92.57.21 1.08.37 1.56-.1-1.43-1-2.94-2.15-4.56-3.44.46-.35.61-1.81.86-2.62s0-1.88-.8-2.19a1.91 1.91 0 0 0-1.02 1.55l-1-.44 1.84-2.07-2.69.2 1.85-1.26c-.9-.57-3.51.7-3.78-.07-.44-3.24.53-3.16 1.14-6.07-3.7 2.15-1.7-2.85-4.57-1.62 1.21-3.97-2.37-6.25-3.79-9.58-4.62-.85-8.42-1.73-12.36-2.62-1 3.82-2.48 9.45-3.59 15.77a3.24 3.24 0 0 0 .39 2.61c1.1 1.43 2.56 1.15 3.77.28l1.42-1.13c2.21-1.67 5.2.1 4.66 4.33s-3.85 5.24-5.59 3.07c-.75-.93-2.44-4-4.78-2.07a3.24 3.24 0 0 0-1 2.43 72.15 72.15 0 0 0-.13 16.24l-.31.45c5.38 1.25 10.67 2.41 16.09 3.27a3.33 3.33 0 0 0 2.63-.38c1.45-1.05 1.19-2.51.29-3.69l-1.14-1.4c-1.67-2.16 0-5.15 4.37-4.62s5.3 3.81 3.11 5.54c-1 .77-4 2.41-2.09 4.72a3.3 3.3 0 0 0 2.46 1 115.45 115.45 0 0 0 16.44.49v-.26l-.06-.49zm-17-23.09l-.09-.27h.53l-.44.3zm2.34 2.09l.42.18c-.26.05-.36-.03-.43-.18zm3.37 6.85a3.21 3.21 0 0 1 .69.24 5.1 5.1 0 0 0-.7-.24z"/><path d="M.46 53.59a78.18 78.18 0 0 1 .11-17.89l.82.08a77.18 77.18 0 0 0-.11 17.71zm2.24-28.24l-.81-.14c.55-3.1 1.22-6.37 2-9.71l.8.18c-.78 3.33-1.46 6.58-2 9.67zm7.01 11.65a3.42 3.42 0 0 1-2.71-1.41l-.36-.48c-.58-.86-1.53-2.11-2.64-2.31a2.15 2.15 0 0 0-1.61.58c-.5.41-.79.9-1 2.41l-.81-.1c.19-1.57.52-2.32 1.27-2.93a2.92 2.92 0 0 1 2.23-.76c1.49.19 2.56 1.66 3.26 2.64l.34.45a2.54 2.54 0 0 0 2.69 1c1.11-.31 2.41-1.56 2.73-4.14.28-2.19-.32-3.94-1.61-4.67a2.55 2.55 0 0 0-2.86.29l-.77.61c-.24.2-.49.41-.79.63a3.7 3.7 0 0 1-2.73.85 2.92 2.92 0 0 1-1.94-1.28c-.58-.78-.71-1.57-.51-3.15l.82.1c-.19 1.51 0 2.05.35 2.57a2.11 2.11 0 0 0 1.4.93 3 3 0 0 0 2.12-.7c.28-.21.51-.4.76-.6s.49-.41.8-.64a3.36 3.36 0 0 1 3.76-.34c1.58.9 2.34 2.95 2 5.47s-1.56 4.33-3.33 4.82a3.39 3.39 0 0 1-.88.12zm36.76 22.25a77.7 77.7 0 0 1 .11-17.9l.81.08a77.75 77.75 0 0 0-.11 17.71l-.81.11zm2.24-28.25l-.81-.14c.94-5.37 2.23-11 4-17.37l.79.21c-1.71 6.3-3 12-3.94 17.3zm7 11.6a3.48 3.48 0 0 1-2.71-1.35l-.36-.49c-.62-.86-1.56-2.15-2.7-2.3a2.05 2.05 0 0 0-1.6.58c-.5.41-.79.9-1 2.41l-.82-.1c.2-1.58.52-2.32 1.27-2.94a2.93 2.93 0 0 1 2.24-.75c1.49.19 2.55 1.66 3.26 2.63l.34.46a2.6 2.6 0 0 0 2.47 1 3.76 3.76 0 0 0 2.72-2.75 11.42 11.42 0 0 0 .29-1.4 10 10 0 0 0 .06-1.45 3.72 3.72 0 0 0-1.88-3.32 2.63 2.63 0 0 0-2.66.38l-.77.62c-.24.2-.49.41-.78.63a3.72 3.72 0 0 1-2.73.85 2.94 2.94 0 0 1-2-1.25c-.57-.78-.7-1.58-.5-3.15l.81.1c-.19 1.51 0 2.05.36 2.57a2.11 2.11 0 0 0 1.4.93 3 3 0 0 0 2.11-.7c.28-.21.51-.4.76-.6s.49-.41.8-.64a3.43 3.43 0 0 1 3.49-.48 4.5 4.5 0 0 1 2.37 4 11.74 11.74 0 0 1-.08 1.59 10.71 10.71 0 0 1-.31 1.53 4.54 4.54 0 0 1-3.3 3.35 3.66 3.66 0 0 1-.57 0zm-14 17.4c-4.13 0-8.42-.22-13-.66l.08-.81a126 126 0 0 0 18 .54v.81c-1.69.08-3.41.12-5.15.12zm-23.57-2c-6.14-.95-12.14-2.28-17.7-3.57l.19-.79c5.54 1.29 11.51 2.61 17.64 3.6l-.13.8zm10.6 1.3c-1.59-.2-2.34-.51-3-1.26a2.88 2.88 0 0 1-.74-2.13 3.62 3.62 0 0 1 1.51-2.4c.29-.23.55-.42.81-.61s.5-.36.79-.58a2.49 2.49 0 0 0 1-2.66c-.31-1.1-1.58-2.38-4.18-2.71-2.22-.27-4 .33-4.72 1.6a2.45 2.45 0 0 0 .28 2.82l.62.77c.21.24.41.48.64.78a3.61 3.61 0 0 1 .87 2.69 2.93 2.93 0 0 1-1.27 1.93c-.79.57-1.6.69-3.19.5l.1-.81c1.53.19 2.08 0 2.61-.35a2.09 2.09 0 0 0 .93-1.39 2.79 2.79 0 0 0-.71-2.08c-.21-.28-.4-.51-.61-.76s-.41-.48-.64-.79a3.25 3.25 0 0 1-.34-3.72c.91-1.56 3-2.31 5.53-2s4.38 1.55 4.87 3.3a3.25 3.25 0 0 1-1.26 3.56c-.3.24-.56.42-.82.61s-.5.36-.77.58a2.84 2.84 0 0 0-1.21 1.81 2.08 2.08 0 0 0 .57 1.57c.41.5.91.78 2.43 1l-.1.81zm18.77-45.38c-4.14 0-8.42-.22-13-.66l.08-.81a126 126 0 0 0 18 .55v.81c-1.7.07-3.41.11-5.15.11zm-23.57-1.92c-3.47-.55-7.06-1.24-11.3-2.16l.18-.84c4.22.91 7.8 1.6 11.25 2.15zm10.59 1.3c-1.59-.19-2.34-.51-3-1.25a2.85 2.85 0 0 1-.73-2.25c.2-1.48 1.68-2.53 2.67-3.23l.46-.33a2.5 2.5 0 0 0 1-2.66c-.33-1.09-1.6-2.38-4.21-2.7a10.13 10.13 0 0 0-1.46-.06 3.77 3.77 0 0 0-3.36 1.86 2.52 2.52 0 0 0 .39 2.62c.22.29.42.53.62.77s.41.48.64.78a3.6 3.6 0 0 1 .86 2.69 2.88 2.88 0 0 1-1.26 1.93c-.79.57-1.6.69-3.19.5l.1-.81c1.53.19 2.08 0 2.6-.35a2.11 2.11 0 0 0 .94-1.39 2.87 2.87 0 0 0-.71-2.08c-.21-.28-.41-.51-.61-.75s-.41-.49-.64-.8a3.32 3.32 0 0 1-.49-3.44 4.57 4.57 0 0 1 4.07-2.35 13.15 13.15 0 0 1 1.61.07c2.55.32 4.37 1.55 4.87 3.3a3.28 3.28 0 0 1-1.26 3.51l-.44.35c-.87.62-2.18 1.55-2.33 2.67a2 2 0 0 0 .58 1.59c.42.5.91.78 2.44 1l-.11.81z"/></svg>