<svg xmlns="http://www.w3.org/2000/svg" preserveAspectRatio="none" viewBox="0 0 494.15 20.86"><defs><style>.cls-1{fill:none;}.cls-2{fill:#6374ff;}</style></defs><path class="cls-1" d="M105.31 15.31v.54l2.68.22c.42-.08.85-.14 1.27-.19v-.76zM172.65 15.15v.61l4 .28h2.22l-.06-.89zM163.87 15.17a.73.73 0 0 0 .24.07s0-.12.07-.18a1 1 0 0 0-.18-.06l-.13.17zM117.84 14.88a.75.75 0 0 1-.39-.12l-1.87-.11v1.14l2.63-.23v-.7zM213.48 15.68h.69l.23-.27-.57-.45zM273.14 15.56h.13-.13zM207.88 15.78l.19.03-.07-.2-.12.17zM210.68 15.68h.5c0-.15.1-.29.16-.44l-.32-.12zM6.37 15.1l.24 1.24h.07l4.19-.81a6 6 0 0 0-.31-1.11c-1.4.18-2.8.44-4.19.68zM100.18 15.41v.56h1.21l-.51-.74zM60.19 15.44c.18.09.44.3.52.25a2.84 2.84 0 0 0 .56-.63l-.71-.3zM399.71 2.74zM92.72 14.91c0 .35.07.7.1 1h.36l2.42-.37-.93-.67zM86.56 15c.18.32.37.65.58 1h2.76v-1.16zM81.62 15.1l-2.28.31c0 .26.07.51.1.76l3-.32v-.66zM170.91 15.17l.03-.17-.19.06.16.11zM458.78 15c.2.2.37.53.59.56s.44-.24.87-.5a4 4 0 0 0-1-.44c-.13 0-.31.26-.46.38zM484.11 15.13c.06.07.13.19.19.19l.22-.17-.2-.21zM461.15 15.36c-.06.1.09.32.14.49l.52-.2-.18-.54c-.16.08-.4.12-.48.25zM312.27 15.08c0 .3.05.6.07.9l2.45-.14c0-.1 0-.19.07-.28l-1.34-.48zM489 15.79h.22l.05-.25h-.36c0 .12 0 .22.09.25zM406.62 15.54l2.91.55c.05-.38.09-.76.15-1.14h-3l-.06.59zM434 15.45q.09.3.21.6l1.29-.82.21.1-.15-.14zM370.36 11.19l.11-.16-.18-.03.07.19zM425.05 15.48c0 .18.07.37.1.55l2.49-.2-.13-.86z"/><path class="cls-2" d="M67.82 7.84c-3.07-2.36-12.64-2.08-16.56.79 5.95.94 11.2.93 16.56-.79zM92.37.42h-18.71c3.77 2.92 15.96 2.7 18.71 0zM148.24 9h2.2l-.64-2.12-.73.26a1.57 1.57 0 0 0-1.07-.74c-2.7.09-5.39.31-8.69.52 2.56 2.85 6.62 3.56 8.93 2.08zM212.44 9.52a45.43 45.43 0 0 0 5.94-1c-1.92-3.08-4.31-2.56-6.5-2.2-.69.11-1.22 1.18-1.82 1.82.79.5 1.6 1.4 2.38 1.38zM353.87 11.39l3.91-3.71c-1.16-.89-2.17-2.17-2.73-2a11.44 11.44 0 0 0-3.17 2.05h-.14v.09l-.32.23zM21.93 9.1c.54 0 1.08-.83 1.62-1.27-.62-.51-1.27-1.46-1.87-1.44-2.28.09-4.53.5-6.79.8l-.12 1.5c2.39.16 4.77.4 7.16.41zM61 2c0-.35.09-.72.14-1.06h-10.74c3.43 2.61 7.07.77 10.6 1.06zM182.18 7.84c1.79 1.29 5.25 1.46 9.19.21-2.79-2.7-6-.61-8.73-1.18 0-.1.08-.19.11-.29l-.82.07a3.78 3.78 0 0 1-1-.58 2.93 2.93 0 0 0 .23.63l-5.32.43c2.57 2.7 5.03 2.87 6.34.71zM288.06 1.73v-.94h-8v.94zM106.86 8.33c1.44.23 2.88.53 4.33.65.4 0 .85-.5 1.28-.77v-1.08c-1.77-.13-3.47-.2-5.23-.13-.13 0-.24.85-.38 1.33zM159.72 1.54c.09.28.28.57.48.62s.68-.21 1.38-.47l-.2-.15h7.92v-.77h-9.55v.45s-.06.08 0 .11v.15zM327.56 2.09l6.32-.29c0-.5-.06-1-.08-1.52l-3.71.38h-18.8v1.26h16.26a1 1 0 0 1 .01.17zM208.05 1.9l-.05-1.09h-5.21c0 .47 0 .94.06 1.42zM83 8.11v-1.27l-5.39.32v1.13c1.79-.12 3.64 1.71 5.39-.18zM345.64 11.1c.06-.77.13-1.53.22-2.58l.25-2.36-9.91.46c2.3 3 4.78 2.08 7.12 1.94l-.42.34zM8.13 1.71v-.76h-5.23v.76zM62.39 1c0 .32 0 .65-.07 1h4c-1.09-2.44-2.54-1.38-3.93-1zM66.32 2zM41 7.52h-5v.59l4.83.64c0-.41.07-.82.17-1.23zM263.83 7.05l-2.2.28c-2.36-.28-4.71-.64-7.07-.73-.63 0-1.3.89-1.95 1.37.6.55 1.23 1.61 1.79 1.58 2.57-.16 5.1-.63 7.65-1a1.21 1.21 0 0 0 0-.19l1.95-.36c0-.35-.11-.65-.17-.95zM330.85 7.81l.24 1.13 3-.52c-.09-.44-.19-.89-.29-1.34zM163.27 8h4.23v-1l-4.21.31c-.03.26-.03.5-.02.69zM194.54 1.89c0-.39 0-.78-.07-1.16l-2.39.27c0 .3 0 .6.07.9zM26.9 1.51v-.51h-2v.56zM203.47 8.69a1.79 1.79 0 0 0 1.07-.88c.11-.33-.24-.82-.47-1.47-.87 1-1.35 1.26-1.35 1.55s.59.85.75.8zM95.49 1.68v-.76l-2.21-.19c0 .32 0 .63.07 1zM336.08 2l1.7-.61c0-.08 0-.17-.07-.26 2.93 1.52 9 1.75 12.83.74h5.71v-.88h-3.55a3.56 3.56 0 0 0 .47-.34h-16.25l.17.11-1.22.21.21 1.03zM274.38 1.4c0-.19 0-.38-.06-.57l-1.6.16c0 .17 0 .35.06.53zM71 7.68c-.37-.17-.65-.41-.9-.39l-.62.51a4.57 4.57 0 0 0 .94.61c.1.03.35-.41.58-.73zM213.62 1.45h-1.31v.44l1.32-.06-.01-.38zM68.22 1.08l-1.82.92 2.08-.23-.26-.69zM66.33 2h.08zM326.72 7.64l.23.49.53-.21c-.07-.14-.13-.39-.24-.41l-.52.13zM96.31 8.12c.06 0 .27-.26.4-.39l-.41-.34c-.18.08-.35.17-.53.27a2.87 2.87 0 0 0 .54.46zM122.38 7.67c.1.13.23.34.33.33l.41-.32a3.34 3.34 0 0 0-.55-.2l-.19.19zM114.25 7.69c0 .08.13.23.18.23a2.33 2.33 0 0 0 .49-.21 2.65 2.65 0 0 0-.48-.23s-.19.13-.19.21zM329.55 3.81l.27.08.27-.15c-.07-.07-.19-.21-.22-.19a1.59 1.59 0 0 0-.32.26zM340 14.14h.33a.71.71 0 0 0-.06-.26h-.19s-.08.18-.08.26zM373.6 7.93c.07 0 .14-.11.21-.17s-.13-.19-.2-.19l-.21.17s.13.19.2.19zM219.26 13.07l-.22-.13-.01.23.23-.1zM29.81 13.63l-.23-.11v.48c.08 0 .18-.06.23-.12v-.25zM200.42 7.88l-.05-.22-.13.18.18.04zM295.56 6l-24.94 1c-.52 1.36.3 1.81 2.28 1.6a21.7 21.7 0 0 1 4.16-.27 1.77 1.77 0 0 1 0 .23l.92-.06a3.68 3.68 0 0 1 .47.15c4.85 2.08 9.43 2.89 13.66.29.11.23.26.51.41.88.63-1.09 1-1.45 1-1.76v-.06a16.25 16.25 0 0 0 2.04-2zM391.8.68c-7.8-.21-15.63-.77-23.44.18v1.4h23.39l.05-1.58zM138.3 8.17a4.33 4.33 0 0 0-.71-.45l-.18-.21a1.31 1.31 0 0 1-.12.11c-3.74-1.78-12.16-1.48-13.95.45 5.03 3.43 9.98-.56 14.96.1zM485.16 2.26c1.8-.18 3.62 0 5.43 0 0-.51 0-1-.08-1.54h-15.12l-.09.69 6 3.57c-.3-4.19 2.35-2.57 3.86-2.72zM476.28 8.79c.11-.11 1 .75 1.31.61a14.55 14.55 0 0 0 3-2c.1-.09-.54-1.06-.83-1.61a.83.83 0 0 0 0 .27l-.09-.18a3.25 3.25 0 0 0-.25-.45.33.33 0 0 0-.3 0c-1.78 2.2-4.11 1.85-6.53 1.58a47.35 47.35 0 0 0-5.33 0c2.92 1.87 5.47 5.44 9.02 1.78zM482 7c4 2.4 7.93 4.59 11.94.1a.94.94 0 0 0 .06-.1h-12zM465.77 6.88c-6.76-1.41-6.76-1.41-9 1.36 6.08 1.92 7.03 1.76 9-1.36zM230.76 9.14l.17-1.76c-2.18-.15-4.42-.7-6.51-.33-1.55.27-2.86 1.65-4.36-.13a9.61 9.61 0 0 0-1.67.93l.3 1.29zM84.71 8a1.55 1.55 0 0 0 1.29.89c2.75 0 5.51.07 8.25-.14.63-.05 1.19-1.08 1.79-1.66l1.17.16a1.09 1.09 0 0 1 0-.18h-1.21c-3.74-1.82-7.33-.5-11.29.93zM241.16 8.34v-.89c-1.35-.75-2.69-1.51-4.1-2.31l-5.44 2.43.35 1.54zM442.88 1.06c-3.48-1.65-7-.35-10.52-.23v1.17l10.48.52c-.01-.52.02-.97.04-1.46zM433.08 8.38h10c-.06-.65-.1-1.29-.15-1.93l-10 1c.07.32.12.63.15.93zM155.59 9.2a51.15 51.15 0 0 0 5.88-.77l-.16-1.36-5.64-.44 1.63-.89c-.08-.2-.16-.39-.25-.58-.73.41-2 .72-2.08 1.25a4.6 4.6 0 0 0 .62 2.79zM182.2 2.67h-.2l.12.08 5.65-1.66h-13.44v.66zM146 1.61h8.77v-.84h-13.7v.06c-1.64 0-3.29 0-4.94.06-.2 0-.38.77-.56 1.25h10.43zM201 6.29l-8.52.52-.18 1.24a7 7 0 0 0 2.11.4c2.19-.24 4.37-.63 6.55-.95-.02-.4.04-.8.04-1.21zM121.64 7.32h-6.34c1.78 2.58 3.61 3.48 6.34 0zM366 1.82l-.09-.93h-8.43l.13 1.55zM449.73 8.83a10.06 10.06 0 0 0 3.18.24c.71-4.66-3.85-1-5-2.8a3.6 3.6 0 0 0 1.82 2.56zM309.32.81h-9.19v1.21c3.05-.81 6.25 1.11 9.19-1.21zM420.18 7l-5.35.5c4.8 1.66 4.8 1.66 5.35-.5zM237.94 1.92h5.4v-.76c2.68 1 9.83 1.22 14 .41a.56.56 0 0 0 .34.16c.16 0 .33-.17.53-.36a6.5 6.5 0 0 0 1.56-.57v.78h2v-.69l-2-.13h-5.09v-.06l-.63.07h-11.47l.09.06h-4.35l.21-.67-3.95.66h-.58v1.1h1.9c1.19.91 1.61.95 2.04 0zM108.93 1.33h-5.88v.72l5.76-.25zM131.06 2v-.79h-4.85v.79zM395.71 8.21l.08.1.11-.25-.17.12-.89-1.85-2.78 1.67c.1.35.21.69.31 1 1.12-.26 2.23-.53 3.34-.79zM294.64 1.43l-.09-.06-.1.07zM298.77 0l-4.1 1.42c2.64 1.89 2.66 1.85 4.1-1.42zM428.35 8.12c-.08-.39-.19-1.14-.22-1.14-1.18.14-2.34.35-3.51.55.06.39.13.78.2 1.17zM369.7 6.3l-.26 1.15 4 .91v-1.07zM377.57 8.58l1.79-.22c-.16-.71-.33-1.41-.5-2.12l-1 .09c-.1.75-.2 1.5-.29 2.25zM44.89 1.62c0-.31-.07-.61-.11-.92l-3 .19c0 .38.05.77.08 1.15zM294.48 1.43h-2.17l.43 1.33zM307.18 7.11c-.17-.26-.34-.51-.5-.77l-1.3.78h-3.54v1.23c3.19 1.55 6.37.76 9.56 0a6.87 6.87 0 0 0 6 .39v.06h6.41c.15-.45.29-.92.43-1.38-1.13-.52-2.24-1.42-3.41-1.42s-2.51.93-3.77 1.44l.07.26c-2.3-.32-4.51-2.51-6.85-.59h-3.1zM14.84 1l-2.42-.17c0 .34-.05.68-.07 1l2.43.17c.03-.36.05-.7.06-1zM468.44 1.29l-.24-.66-2 .61.29.84zM134 2.69v.06l.12-.12.65-.65-.11.1-1.24-1.27v1.89h.25zM133.38 2.7h-.08v.1h.11zM264.52 1.19l-.34-.68-2.35 1.09.42.84zM43.27 7.92c-.58-.38-1.05-.87-1.22-.78-.37.2-.61.69-.89 1 .34.19.69.54 1 .53s.61-.36 1.11-.75zM268 8.17l.51-.11c0-.49-.08-1-.12-1.47l-.81.16c.15.47.28.95.42 1.42zM269.8 1.88l1.46.14.09-.77-2-.19c.11.3.22.59.34.88zM76.86 8.41c.33-.84.68-1.66 1-2.49l-.74-.22c-.12.9-.18 1.81-.26 2.71zM413.38 7.86c-.48-.18-.78-.39-1-.35s-.34.38-.51.6c.25.12.52.38.75.36s.38-.32.76-.61zM268.19 4.59l.48-.43-1-1.37-1 .86zM48.06 8.26c.22.19.45.37.68.55l.26-1.3-.29.24c-.13-.13-.28-.32-.37-.29a2.07 2.07 0 0 0-.55.41c.16.09.33.24.5.24zM49 7.42v-.08h-.1a.77.77 0 0 1 0 .15l.1-.06zM244.65 7.13c-.37-.42-.75-.84-1.13-1.25.08.56.15 1.13.22 1.69zM52.6 6.78l-1.35.39.11.33 1.35-.5c-.04 0-.07-.14-.11-.22zM350.64 6.85c.21-.3.36-.52.52-.72-.16-.12-.35-.34-.46-.31a2.86 2.86 0 0 0-.7.47zM278.11 1.56c.07 0 .1-.35.16-.54l-1.39-.25v.81a10.43 10.43 0 0 0 1.23-.02zM115.24 1.51a2.87 2.87 0 0 0-.64-.43c-.08 0-.26.28-.4.42l.5.31zM463.26 1.38a7.92 7.92 0 0 0-.46-1.38l-.59 1.62a3.74 3.74 0 0 0 .84.27.74.74 0 0 0 .21-.51zM122.77 1.41l-.38-.4c-.15.13-.38.23-.42.37l.18.51zM265.69 7.24c-.19-.18-.41-.44-.47-.41a4.21 4.21 0 0 0-.65.55q.26.25.51.54zM266.83 1.66l.43-.71-.56-.2c-.1.16-.31.34-.27.45l.4.46zM190.91 2l.42-.35c-.13-.15-.25-.39-.41-.42l-.57.22a4.14 4.14 0 0 0 .56.55zM321.8 3.71l.64.42c.07-.19.14-.38.2-.58-.15-.11-.34-.33-.41-.3a1.72 1.72 0 0 0-.43.46zM71.54 7.35a6.27 6.27 0 0 0 .62-.56l-.5-.41a4.55 4.55 0 0 0-.44.64c-.02.05.3.34.32.33zM403.73 7.79a2.89 2.89 0 0 0 .44-.27l-.3-.42a4.45 4.45 0 0 0-.32.48s.15.22.18.21zM446 9.46a2.38 2.38 0 0 0 .4-.31l-.39-.33a2.77 2.77 0 0 0-.22.46l.21.18zM76.85 8.41c-.57-.3-1.14-.6-1.73-.89l-.12-.29c0 .12 0 .23.06.35zM158.43 3.46a4.8 4.8 0 0 0 .44-.37l-.45-.32a3.17 3.17 0 0 0-.2.51c-.01.05.18.19.21.18zM328.77 7.12a2.25 2.25 0 0 0 .37-.31l-.13-.24s-.27 0-.27.06a4 4 0 0 0 .03.49zM347.84 7.91l.32-1.6h-.35v1.59zM156.32 2.9l-.32-.58c-.15.14-.38.25-.43.42s.14.32.23.48l.52-.32zM135.52 2.21a.36.36 0 0 1 0-.09h-.27.22zM134.61 2.09l-.55.55 1.25-.45zM134.61 2.09l.12-.11zM73.12 1.52c.15 0 .35-.09.53-.15a2 2 0 0 0-.45-.51c-.08 0-.3.15-.47.24.13.15.27.37.39.42zM397.24 5.64a3.37 3.37 0 0 0 0 .55l.52-.09a4.44 4.44 0 0 0-.24-.49s-.28.01-.28.03zM375.61 6.69c-.06.1.14.36.23.55l.72-.45-.34-.62a2.4 2.4 0 0 0-.61.52zM147.31 5.46a1.83 1.83 0 0 0-.35-.31c0 .2-.07.38-.09.55h.45c0-.07.03-.18-.01-.24zM460 1.65c-.07-.08-.16-.23-.21-.22a5.11 5.11 0 0 0-.48.22 2.24 2.24 0 0 0 .5.22s.19-.14.19-.22zM400 3.74l.32-1h-.6c.07.26.14.56.28 1zM399.62 2.74h.79l-.07-.09 5.11-1c-3.83-2.37-7.56-1.92-9.41 1h3.64zM210.24 4.51a3.52 3.52 0 0 0-.24-.51l-.22.17a4.25 4.25 0 0 0 .21.49c.1-.04.25-.12.25-.15zM112.56 1.5l-.18-.22c-.12.1-.34.22-.33.3l.3.39a4.84 4.84 0 0 0 .21-.47zM158.38 1.08c-.07-.06-.17-.19-.21-.18a1.83 1.83 0 0 0-.31.24l.27.1zM422.64 7a.28.28 0 0 1 0 .09l.09-.08h-.05c-.35-.07-.22 0 0 0l-.04-.01zM395.91 8.05zM448.17 1.27a1.9 1.9 0 0 0 .29-.37l-.5-.16a2.42 2.42 0 0 0 0 .47s.16.09.21.06zM422.64 7.43v-.37a.41.41 0 0 0-.12.14l.12.23zM167.58 7.72l.42.28.2-.22-.44-.28-.18.22zM414.57 9.7a.94.94 0 0 0-.23-.1l-.22.12.38.15a.59.59 0 0 0 .07-.17zM419 1.14l-.2-.23c-.08.06-.21.12-.22.19l.17.23.25-.19zM11.25 9.28c.07 0 .15-.13.23-.2a2.41 2.41 0 0 1-.24-.21l-.21.2c.08.07.14.21.22.21zM269.74 1.94l-.08.09.14-.15zM133.27 2.8l-.36.09.24.29zM445.49 6.54l.2-.21-.19-.2s-.19.13-.19.2l.18.21zM45.26 8c.07 0 .16-.13.24-.2l-.22-.23-.28.21c.11.08.18.22.26.22zM49.22 6.93l-.15.41.44-.11zM243.49 5.9v-.22999999999999998l-.08.06zM461.58 3.19c.06 0 .14-.1.21-.15s-.11-.19-.17-.2l-.22.15s.12.19.18.2zM482.26 15.61c-1.6-3.95-6.86-5.18-10.75-2.65l2.79 2.34-.37.77-6.19-.33 2.33-1.64c0-.33-.09-.66-.13-1-4.67-.24-9.32-.59-14-.68-4.91-.09-9.82.12-14.73.14-2.21 0-4.43-.27-6.63-.17-4.7.22-9.59 1.55-14 .67-5.05-1-9.87-.79-14.81-.49a14.15 14.15 0 0 0-3 .87l2.22 2.37-10.39.6c0-.24-.07-.47-.1-.71l1.91-1.54c-2.72-3.15-8.33-2.91-9.52.22l2.91 1.16-.19.69-4-.29c.75-3.39-.69-3.9-3.43-3.73-3 .18-6 .27-9.07.3-.69-2.39-2.8-3.8-6.41-4.06l.42 1.88h.23l-.13.06-1.41.57.19-.15-.14.05-2.21.82-.27-.5 1.8-1.41c-.46-.9-.82-1.58-1.12-2.08a8.88 8.88 0 0 0 .77-.82h-1.33c-.43-.48-.78-.43-1.32 0h-2.38c0-.14.07-.28.11-.41h-.5c0 .14.05.29.08.43h-1.09l-.09 1.11.73.35c-.38.4-.76.81-1.13 1.22l1 .49c.14-.53.28-1.06.43-1.58a4.2 4.2 0 0 0 2.9.3c.15.2.25.36.2.42-.83 1.19-1.69 2.87-2.86 3.19-1.62.43-3.53-.4-5.29-.29a2.77 2.77 0 0 0-1.36.59l-2.39-.06-1.89-1.33a8.14 8.14 0 0 1 .31-.91c.44-.89.9-1.78 1.35-2.67a9.08 9.08 0 0 0-1.31-.49c-.15.28-.32.57-.49.86l-.63-.17.44.58a4 4 0 0 0-.58 1.74c-.05 1.51-.46 2.29-1.21 2.51l-.8.07a5.15 5.15 0 0 1-1.41-.41c-.5-.2-1-.34-1.9-.63-.53 1.4-.85 3.64-1.5 3.74a23.45 23.45 0 0 1-3.66.24l-.33-1 1.7-1.38a1.71 1.71 0 0 0-.73-.35l-3.29-.03-.12-.78c-2.45 0-4.9-.12-7.35.05a7.11 7.11 0 0 0-1.81.47l-6.86-.14a27.36 27.36 0 0 0-3.49-.37c-8.16-.23-16.34-.35-24.51-.28a35.38 35.38 0 0 0-5.49.63c-5.05 0-10.12 0-15.18.09a1.9 1.9 0 0 0-.64.17h-9.09a20.1 20.1 0 0 0-4 0h-5.4l.56 2.08-.34.28c-.6-2.76-1.3-3.07-3.77-1.52l-3.85 2.46h-1l-.25-.36 1.72-1.89-1-.15c-.07-.13-.14-.25-.21-.26a1.14 1.14 0 0 0-.5.15c-1.29-.19-2.57-.41-3.83-.62v-.33l-.23.3c-5.1-.83-10-1.47-14.45 0h-3c.2.36.37.7.56 1a13.85 13.85 0 0 0-1.51.89c-.89-.47-1.57-1-2.17-1.26l.86-.72h-7.26a2.59 2.59 0 0 0-1.21-.4c-2.62 0-5.24.2-7.85.17v-.31h-11.55a16.1 16.1 0 0 0-3.47 0h-9.93a12.79 12.79 0 0 0-8.69 3.22 4.77 4.77 0 0 1-.74.52h-1.63a2.78 2.78 0 0 1-.79-1.47h.16c.06-.33.12-.65.17-1l-1.38-.11a2 2 0 0 0-1.16-.37 49.55 49.55 0 0 1-5 .44 10.07 10.07 0 0 0-7.22-.47c-1-.18-2.09-.4-3.14-.69-3.91-1.1-6 .27-5.74 3.58-1.72-1.13-3.17-2.74-4.84-3a10.22 10.22 0 0 0-3.17 0l-2.76-.25v.66l-.77.1c0 .35.08.69.11 1l.62.09a1.62 1.62 0 0 1-1.02 1.46l-3.54-.24v-.94l1.95-.62-.12-1.07a45.84 45.84 0 0 1-4.69 0c0-.25 0-.5-.07-.75-2 0-3.94-.07-5.89.07a.67.67 0 0 0-.36.26c-5.44-.44-11-.84-16.61.48a35.85 35.85 0 0 0-3.67-.4v-.23l-1.85.11a82.26 82.26 0 0 0-10 .17.59.59 0 0 0-.24-.09c-5-.22-10-.12-15.07-.12l-.21 1.2 5.37 1.47a8.88 8.88 0 0 1-2 .84l-1.94-.09a5.54 5.54 0 0 1-2.18-2.42 2.17 2.17 0 0 0-1.57-.87c-2.86-.08-5.73 0-8.83 0l.58 3.21-5.52-.32v-.71l2-.45c-1.63-2.39-5.71-3.55-8.69-2.28-.94.4-1.42 1.87-2.46 3.34h-2.22l-.09-.52 2.23-.69c-4.65-2.68-8-2.63-10.18 0l1.82.41v1l-4.24.36a1.65 1.65 0 0 1-1.11-2c-1.19.63-2.38 1.47-3.65 2 .71-1.2 1.13-1.92 2-3.5l-2.92.26c0-.06-.09-.1-.12-.1a1.46 1.46 0 0 0-.38.14l-4.58.4.27 2.73h-5.5a14.25 14.25 0 0 1 1.78-2.1c.3-.23.89-.1 1.36-.14-.41-.3-.81-.84-1.24-.86-5.5-.22-11-.38-16.53-.52a3.42 3.42 0 0 0-1.09.36v8h494.15v-8.06c-.74-.12-1.49-.26-2.23-.43-4-.88-7.18-.06-9.66 3.26zm-475.58.74h-.07l-.24-1.25c1.39-.24 2.79-.5 4.19-.67a6 6 0 0 1 .31 1.11zm54-.66c-.08.05-.34-.16-.52-.25l.37-.68.71.3a2.84 2.84 0 0 1-.53.63zm18.73.48c0-.25-.07-.5-.1-.76l2.28-.31.77.09v.66zm7.7-.22c-.21-.31-.4-.64-.58-1l3.33-.2v1.16zm6 0h-.36c0-.34-.06-.69-.1-1h2l.93.67zm7 0v-.56l.73-.18.51.74zm7.81.1l-2.68-.22v-.54l4-.19v.76c-.37.07-.8.14-1.24.21zm7.54-.28v-1.14l1.87.11a.75.75 0 0 0 .39.12h.32v.7zm48.55-.55a.73.73 0 0 1-.24-.07c0-.06 0-.16.08-.16a1 1 0 0 1 .23.05c.08.08.06.2.03.2zm6.8-.07l-.16-.11.19-.06zm5.74.87l-4-.28v-.61h6.16l.06.89zm31.23-.26l.12-.17.07.2zm3.3-.1h-.5l.34-.56.32.12c.04.17-.01.31-.06.46zm3 0h-.69l.35-.72.57.45zm59-.12h.13zm41.65.28l-2.45.14c0-.3 0-.6-.07-.9h1.25l1.34.48c.04.11.01.2-.01.3zm55.57-4.65l-.07-.19h.18zm39.17 4.9l-2.91-.55c0-.2.05-.39.08-.59h3c-.02.4-.06.78-.11 1.16zm15.68-.07c0-.18-.07-.37-.1-.55l2.46-.51.13.86zm10.34-.8l-1.29.82q-.12-.3-.21-.6l1.56-.26.15.14zm23.88.34c-.22 0-.39-.36-.59-.56.15-.13.33-.39.46-.38a4 4 0 0 1 1 .44c-.43.29-.68.58-.87.53zm1.92.28c-.05-.17-.2-.39-.14-.49l.48-.25.18.54zm23-.53c-.06 0-.13-.12-.19-.19l.21-.19.2.21c-.06.1-.14.21-.21.2zm4.89.47h-.22l-.09-.21h.36z"/></svg>