<svg viewBox="0 0 1851 462" xmlns="http://www.w3.org/2000/svg" fill="none"><path d="M1835.85 289.077c-8.68-6.32-19.49-6.57-28.87-1.69-9.55 4.98-15.74 14.07-21.86 22.67-6.15 8.63-13 14.87-22.82 18.83-9.61 3.88-19.7 6.31-29.12 10.71-18.17 8.48-32.01 25.85-37.07 45.47-5.19 20.18-1.11 42.97 19.73 51.34 3.81 1.53 7.78 2.72 11.84 3.6 6.68 1.67 13.67 2.23 20.66 1.85 10.99-.27 21.96-2.38 31.91-5.9 15.74-5.56 29.85-14.67 41.24-26.76 16.31-14.86 25.59-34.45 28.61-56.46 2.92-21.14 5.07-49.59-14.25-63.66zm2.49 48.1c-.88 18.02-4.63 35.96-15.24 50.53-1.2.45-2.32 1.27-3.21 2.57-2.06 2.98-4.31 5.8-6.71 8.48-12.34 11.52-27.81 19.72-43.53 25.08-6.33 2.16-13.11 3.77-19.89 4.4-4.48.17-8.97 0-13.42-.55-2.27-.28-4.71-.62-7.17-1.11-6.72-1.96-12.96-5.52-18.21-11.17-.43-.46-.87-.83-1.34-1.13-2.5-5.33-2.74-11.87-2.23-17.59 1.48-16.28 11.01-32 24.38-40.95 14.45-9.67 32.68-10.77 47.16-20.41 7.95-5.29 13.48-12.68 18.97-20.42 4.87-6.87 10.85-15.44 19.58-17.29 7.72-1.63 14.22 4.01 17.53 10.66 4.35 8.72 3.8 19.41 3.33 28.9z" fill="#FFD240"/><path d="M1576.54 122.043c-.11.808.1.938.6.469-.04.226-.19.445-.28.606.35-.372.92-1.051 1.2-1.94-.58.793-.46.405-1.11 1.366-.19.041-.12-.412.05-.743-.16.218-.15-.307-.46.242zM1579.9 122.035c-.08.008-.17.065-.27.146l.18-.017.09-.129zM1573.05 117.929l-.03.154c.04-.089.06-.145.03-.154zM1579.92 122.181l.13.072c-.04-.064-.08-.089-.13-.072zM1563.58 118.932c.13.21.24.46.33.703-.19-.574.19-.914-.33-.703zM1579.92 122.181l-.11-.017c-.07.105-.13.202-.15.283.12-.178.2-.258.26-.266zM1577.5 157.151c-.18.025-.37.017-.55.025.16.032.37.04.55-.025zM1548.68 134.974l-.08-.137c-.02.049 0 .089.08.137zM1575.42 157.661c-.15-.283-.27-.445-.39-.542l-.02.226.41.316zM1563.19 18.558l.21.126c.29-.461-.29-.959.03-1.375.88-.101.18.404.93.29-.04-.347-.31-.7-.54-1.035-.22-.334-.4-.643-.31-.959l-.09.12c-1.22.025.56-.511-.07-.77.1.063.7.013.56.006.07-.227-.04-.448-.22-.669l-.32-.341-.41-.366.33.006c.22-.309 0-.688.06-.99-.32.013-.31-.151-.73.082.75-.669.35-.997-.03-1.243-.39-.265-.83-.435-.32-1.098.04.076.35.069.32 0l-.55-.435c-.45.303-.25.233-.56.542-.32.082-.61.057-.68-.076.44.057.77-.423.97-.688l-.45.252c.68-.77-.96.505-.63-.183l.26-.132c-.21-.057-.6.025-.63-.158.48-.41.33-.025.77-.296-.16-.196-1.23.271-.84-.271l.48.095c.47-.624.3-.549.29-.77v-.524l-.09.208c-.75.372-.89.309-1.01.177-.1-.126-.17-.315-.7-.114 1.01-.372.49-.341 1.04-.788.08-.214.13-.498.31-.599-.55.227.08-.58-.73-.202.16-.17-.14-.17.3-.549-.32-.069-.23.334-.45.517-.42.132-.42-.202-.48-.536-.04-.347-.18-.662-.75-.423-.62.032-1.1.511-1.61.637l-.1-.076c.15-.328.54-.517.54-.517 0-.435-.21-.467-.54-.372.15-.145.2-.315.27-.574-.2-.05-.54.65-.58.233.17-.202.43-.53.64-.7-.31.057-.72.315-1.01.385.14-.385.41-.467.61-.65-.32.006-.78-.019-1.13.53l.03.208c.04-.139.24-.46.33-.517.44-.353.18.353.08.555l-.2.05c-.5 1.28.63.132.88.385l-.49.612c-.64-.404-1.33-.757-2.06-1.041h-.05c.15-.334.29-.669.42-.99 0 .069.02.12.07.107l.37-.694-.27.107c.13-.429.18-.858.05-1.274-.2.164-.39.334-.59.511l.05-.555.32.082c-.02-.542-.28-.164-.49.088.06-.284.06-.486.01-.612-.23.303-.45.606-.67.908.06-.429.4-.782.2-1.085-.3.429-.08.984-.44 1.217-.05-.536.09-.927-.22-.555.03-.284.12-.454.23-.555-.27.29-.55.032-.76.587-.07-.656-.67.038-.48-.99-.11.24-.46.763-.64.782.47-1.205-.66-.158-.46-1.476-.34 1.098-.94.429-1.39 1.06.03-.088.07-.271.11-.214-.24-.095-.31-.435-.47-.656-.03.927-.39 1.161-.56 1.741-.34-.883.12-1.104 0-1.962.04.751-.49.776-.35 1.4-.26-.542-.21-.252-.39-1.016.06 1.18-.2.233-.31.965-.38-.536-.2-1.072-.52-.681-.23-.334.05-.782.05-.782-.39.025-.07.877-.08 1.381-.39.315-.29-.606-.51-1.028-.24.278-.31 1.098-.51 1.11-.04-.139-.09-.183-.08-.372-.14.751-.85.208-.94 1.161l-.1-.202c.16.41.28.839.35 1.148-.14.057-.12.612-.33.076.1-.006.04-.233.03-.416l-.08.29c-.37-.751.13-.334-.03-.921-.24.347-.39 1.104-.68.965-.31-.751.45-.448-.07-1.022l.46.183c-.65-1.135.26.019-.39-1.211-.59-.069-.45.58-1.03.53l.3 1.072c-.36 1.016-1.28-1.672-1.39-.454.08.549.46 1.495-.1 1.167l-.27-.883c-.5.145.31 1.293-.42.997-.08-.36.21-.46.09-.517-.63-.473.02.574-.2.7l-.43-.681c-.21.183-.37.486-.52.795-.16.309-.31.612-.5.852-.1-.214-.16-.486-.41-.606-.41.763-1.36.896-2.25 1.085l.25.706c-.05.038-.3-.139-.34-.29-.39.025.29.328.38.624-.08.151-.43-.126-.5-.353.02.807-.05 1.911-.95 1.886l-.1-.214c-.48.189.85 1.236.11 1.161l-.05-.126c-.36.296-.57.738-.78 1.135-.11.196-.24.378-.42.517-.16.151-.39.259-.7.322.43.271.23.429.09.612-.13.189-.22.391.42.65-.82.265-1.01.038-1.66.675-.11.196.75.517.84.788l-.71-.151c.23.17.45.334.68.492l-.88.019.13.271c.07-.088.36-.145.56-.095.24.397-.61.807-.98.788.16.328.33.637.54.94-.21-.025-.33-.114-.44-.214.36.341-.83-.019-.23.423.17-.057.43.044.57.057-.44.202-.46.713-.24 1.066l-.49-.044c-.1.7.35 1.381.47 2.132.17-.322 1.03-.391 1.15-.208l-.73.227c.49.044.24-.271.86-.114-.03.278-.8.366-1.08.252l.33.284c-.22.069-.35.019-.64.063.25.019.09.215-.01.416-.1.195-.14.404.28.391l-.21.088c.22.795.62 1.041.91 1.621.6-.271.58.019 1.13-.069 0 .492-.17 1.205.19 1.653.5.12.52-.24.94-.334-.47.378-.1.788-.6.833.23.246.4.378.62.505.21.12.47.233.93.328.11-.24.11-.385.29-.498.17.025.06.404-.15.606l-.07.019c.62-.019.72.618.91 1.255.1.309.21.612.38.795.17.177.4.227.71.044l-.06.032c.32-.057.64-.139.96-.233.26.246-.38.322-.31.776.58-.271.84-.126 1.1.057.25.189.5.391.91.164.01.953.45 1.015.91 1.009l.07-.032.03-.038.07-.025c.01-.006.05.158-.03.448l.17-.397c.25-.334-.03.271-.05.385.15-.296.12-.385.26-.568.09-.006.18.013.25.044l.11.069.23.164c.3.24.58.53.85.852.58.587 1.17 1.299 1.88 1.735.54.309.96-1.949 1.34-.807l-.4.706c.69-.309 1.22-.139 1.8-.044.28.057.56.12.85.126.28-.013.57-.088.85-.271-.07.177-.08.41-.2.404.22.58.88.082.88-.397.16.044.03.416.15.65.25.328.57-.751.71-.189.03.095-.05.189-.09.233.14-.284.73.038.53-.612.44.265.74-.391 1.12-.057.08-.738.77.214.62-.82.19 1.06.91.669 1.02.12.01.341.31.246.34.713.29-.12.49-.404.27-.908.47.511.66.17.81-.114.15-.303.26-.542.75.133l.82-1.268.73-1.066c.6.908-.65.574-.03 1.501.22-.397.29-.845.37-1.243.09-.385.2-.688.57-.82.24-.006.22.423.27.606.17-.404.42-.662.69-.908.26-.246.51-.505.48-.965.08.069.11.196.13.303.05-.126.31-.145-.07-.441l.02.183c-.64-.309-.8-1.337-1.09-1.571.96 1.022.65-.259 1.83 1.06-.02-.126-.14-.347-.4-.523.15-.044.32.032.54.353.05-.549-.47-.7-.25-1.035.2.133.23.252.43.442-.26-.435-.54-.852-.2-1.035.12.088.29.151.23.233.28-.549-.59-1.451.06-1.804.84.593.39-.057 1.21.265l-.09-.429-.45-.032c.15-.271-.39-.757-.04-.896l.27.334.01-.593-.4.195c-.34-.423-1.06-.334-.72-.605.07.095.1-.252.64-.252-.22-.208-.47-.416-.23-.568.29.013.93.271 1.12.284-.68-.309-.06-.738-.79-1.053.17.088.62.177.71.17l-.56-.221c.21-.101.31-.107.66-.025.2-.404-1.08-.05-.54-.454zm-1.35-7.021c-.14.069-.33.158-.5.221l-.08-.189c.21-.076.42-.107.58-.032zm-3.78-5.242l-.29.473-.18-.151c.11-.107.26-.221.47-.322zm-1.32-1.072c-.04.151-.16.385-.28.555l-.24-.158.52-.397zm-17-.46l-.11.139.11-.139zm-.41.397c.16.17.27.378.21.41-.06-.145-.27-.164-.47-.252.09-.032.18-.088.26-.158zM1548.03 136.518l.16.137-.16-.137zM1577.76 122.86l-.02-.081.02.081zM1548.49 133.794l.2.041-.16-.129-.04.088zM1585.61 129.422l.16-.162-.16.162zM1584.67 127.547l.06-.42c-.06.202-.06.323-.06.42zM1583.98 126.003l-.29.219.29-.219zM1585.02 151.05l-.01.08c.01.235.04.105.01-.08zM1587.29 143.501c.1-.113.15-.21-.31-.348.13.122.25.243.31.348zM1577.56 157.143l-.06.008.06-.008zM1587.16 143.84c.2-.08.21-.202.12-.331-.08.081-.2.186-.12.331zM1578.61 121.138l-.07.121.12-.056-.05-.065zM1578.54 121.251l-.13.049c.04.024.07.032.13-.049zM1578.15 121.421l.26-.113c-.06-.033-.12-.089-.26.113zM1580.34 122.682l.19-.243c-.05.041-.11.121-.19.243zM1580.92 122.997c-.09-.146.06-.8-.24-.76l-.15.194c.35-.331-.02.905.39.566zM1588.29 140.018l.49-.186-.69-.154.2.34zM319.772 432.848c-.117.152-.081-.229-.331.17-.124.589 0 .681.376.344-.042.158-.166.313-.237.431.265-.263.709-.748.963-1.381-.457.565-.346.281-.857.972-.128.029-.051-.301.086-.536zM321.762 433.076l-.198.094.123-.004.075-.09zM317.314 430.064l.022-.114-.022.114zM321.766 433.179l.087.055-.087-.055zM310.959 430.382c.087.167.157.348.221.532-.135-.424.132-.644-.221-.532zM321.765 433.179l-.079-.013-.136.196c.106-.124.165-.178.215-.183zM317.026 456.152l-.38-.035c.113.045.25.057.38.035zM300.394 440.198l-.047-.101.047.101zM315.555 456.315c-.079-.223-.144-.354-.22-.435l-.039.165.259.27zM320.212 433.623l-.001-.06.001.06zM299.869 441.216l-.107-.107.107.107zM323.734 435.457c.166-.141-.102-.169.354-.471-.284-.088-.26.276-.488.427-.407.088-.351-.203-.354-.516.001-.15-.016-.308-.091-.405-.093-.09-.244-.119-.516-.025-.559 0-1.061.41-1.514.51l-.077-.067c.166-.291.532-.445.532-.445.066-.4-.124-.436-.423-.354.149-.127.215-.28.306-.519-.167-.053-.554.581-.533.199.166-.179.428-.471.64-.624-.283.047-.667.268-.924.326.157-.355.404-.416.606-.579-.282-.007-.684-.04-1.043.455l.008.191c.045-.13.248-.421.338-.472.414-.316.122.333.01.52l-.181.042c-.278.591-.158.617.073.532.225-.083.57-.273.658-.159l-.507.548c-.498-.377-1.05-.702-1.652-.984.126-.32.285-.631.419-.931-.012.065-.001.113.04.104l.377-.638-.241.097c.141-.393.228-.795.151-1.183l-.55.475.078-.518.279.076c.026-.504-.235-.153-.439.079.066-.266.086-.461.056-.576-.217.274-.425.552-.634.829.085-.407.397-.72.245-1.018-.282.39-.141.925-.466 1.13-.009-.498.139-.856-.155-.514.051-.267.132-.42.241-.516-.256.267-.477.019-.694.54-.024-.611-.572.02-.353-.95-.105.221-.44.685-.596.717.478-1.134-.556-.144-.306-1.396-.351 1.046-.834.35-1.242.947.026-.085.078-.255.107-.2-.204-.09-.25-.416-.382-.625-.055.883-.376 1.079-.533 1.62-.258-.854.142-1.037.06-1.856.011.713-.446.709-.338 1.309-.206-.531-.174-.259-.305-.977.017 1.108-.177.206-.292.895-.311-.518-.154-1.023-.434-.664-.183-.323.067-.737.067-.737-.332.013-.077.824-.095 1.309-.343.273-.237-.593-.419-1.006-.223.239-.288 1.021-.454 1.027-.038-.134-.077-.178-.064-.355-.126.701-.718.175-.815 1.044l-.082-.191c.14.4.24.809.297 1.108-.123.041-.101.556-.277.043.078-.008.032-.222.025-.391l-.075.262c-.311-.728.113-.315-.02-.868-.211.309-.326 1.036-.579.876-.257-.72.393-.389-.064-.962l.389.188c-.55-1.096.215.026-.332-1.161-.502-.083-.386.521-.879.442l.264 1.024c-.165.448-.427.037-.676-.342-.25-.379-.483-.734-.513-.169.077.523.406 1.431-.082 1.08l-.243-.837c-.432.098.278 1.212-.354.89-.083-.349.174-.407.075-.472-.55-.49.024.537-.165.635l-.382-.662c-.352.343-.543 1.025-.863 1.431-.096-.209-.15-.464-.369-.593-.168.344-.456.512-.81.601-.355.09-.746.142-1.141.166l.234.661c-.048.027-.268-.161-.305-.296-.351-.032.257.323.341.597-.072.118-.388-.167-.447-.375.021.717-.019 1.713-.84 1.548l-.084-.198c-.443.088.756 1.193.098 1.031l-.054-.121c-.331.208-.527.556-.74.858-.202.313-.462.552-1.042.552.377.291.181.392.049.527-.131.135-.216.296.355.613-.763.096-.919-.118-1.588.3-.131.135.655.553.724.787l-.643-.236c.194.177.387.354.582.515l-.821-.128.104.25c.064-.063.343-.062.527.014.204.374-.681.557-1.024.485.122.295.262.583.392.86-.198-.055-.285-.147-.375-.246.287.342-.782-.143-.275.312.161-.019.392.105.531.139-.435.092-.505.517-.374.838l-.456-.116c-.183.552.113 1.204.112 1.825.222-.223 1.039-.162 1.113.01l-.722.073c.445.105.277-.179.816.039-.08.212-.815.17-1.058.035l.261.277c-.211.025-.331-.039-.606-.049.455.095-.701.543.089.668l-.215.034c.061.649.33.907.471 1.404.613-.103.514.116 1.036.154-.123.385-.488.921-.301 1.347.4.199.532-.086.927-.072-.531.205-.327.617-.79.541.268.483.378.634 1.076 1.034.169-.172.225-.292.417-.346.139.056-.079.346-.326.467l-.067-.003c.282.066.378.237.401.468.029.227-.005.518-.028.819-.066.587.027 1.171.673 1.017l-.069.012c.294.039.614.031.909.033.153.282-.425.192-.498.611.59-.087.773.101.956.327.174.222.323.491.751.365-.241.837.183 1.078.618 1.158.448.097.922.087 1.067.71l.09-.395c.279-.322.116.282.216.407.073-.306-.067-.4.093-.576.717-.026 1.346.253 2.049.57.348.159.718.318 1.102.456.194.064.385.122.587.168l.295.061.149.023.062.028c.069.047.057-.479.035-.897-.016-.42.039-.734.102-.266-.025.258-.035.516-.048.768l.052-.283c.034-.103.078-.121.115-.121l.053.024.023.021.077.029c.406.174.842.276 1.321.054-.093.157-.142.371-.235.341.081.588.757.19.822-.248.138.072-.028.401.028.64.168.359.604-.601.659-.062.011.085-.076.165-.119.205.162-.245.642.124.55-.513.351.338.695-.256.978.117.161-.685.643.296.631-.687.045 1.029.728.763.869.235-.031.319.249.282.233.715.271-.057.473-.295.321-.802.361.536.56.232.713-.017.16-.251.268-.466.649.234.597-.771 1.05-1.423 1.498-1.954.471.895-.591.446-.096 1.384.433-.704.282-1.624.915-1.773.213.02.176.416.222.592.159-.348.413-.525.648-.716.246-.181.457-.393.467-.786.064.072.088.19.095.284.058-.098.288-.071-.036-.397l.007.169c-.566-.379-.658-1.3-.903-1.553.814 1.058.571-.139 1.586 1.212-.015-.114-.113-.329-.344-.528.133-.016.288.079.469.396.083-.468-.383-.685-.149-.935.165.143.186.254.363.445-.197-.415-.453-.829-.136-.94.096.096.252.175.197.242.12-.22.015-.567-.051-.87-.057-.299-.092-.561.209-.674.74.638.358.013 1.085.41l-.068-.384-.406-.099c.136-.219-.281-.688.047-.752l.22.323.059-.495-.387.103c-.286-.417-.952-.449-.617-.628.05.092.097-.203.593-.118-.193-.214-.405-.421-.143-.504.264.059.835.376 1.013.417-.582-.365.008-.624-.637-1.001.15.104.558.247.649.256l-.503-.277c.203-.044.294-.036.615.09.2-.298-1.031-.215-.485-.457l.178.138c.368-.319-.161-.833.196-1.125.838.06.134.365.843.395-.018-.292-.191-.627-.355-.935-.172-.313-.304-.597-.178-.841l-.1.084c-1.169-.174.63-.327.083-.639.086.07.65.121.523.097.191-.36-.274-.765-.648-1.274l.306.05c.252-.221.104-.565.223-.808-.306-.034-.27-.168-.699-.041.834-.446.528-.78.207-1.041-.332-.27-.655-.478-.072-.965.027.071.31.1.287.041l-.428-.442c-.474.198-.275.163-.62.391-.312.028-.574-.024-.611-.136.391.097.778-.267 1.017-.468l-.462.155c.771-.57-.972.315-.523-.231l.256-.08c-.184-.076-.559-.038-.545-.193.517-.297.308.018.763-.172-.124-.189-1.184.109-.724-.315l.422.122c.546-.488.373-.441.408-.635l.108-.462-.117.174c-.748.248-.875.186-.953.061-.076-.12-.104-.288-.616-.15.978-.242.495-.258 1.071-.609.105-.184.203-.425.381-.497-.572.155.156-.526-.65-.255zm-1.575-.199l-.333.41-.135-.14c.116-.099.265-.189.468-.27zm-1.019-1.02c-.058.135-.19.345-.322.495l-.181-.144.503-.351zm-14.187-1.151l-.093.12.093-.12zm-.348.334c.133.172.241.375.19.395-.055-.142-.234-.168-.406-.271l.216-.124zm18.004 6.667l-.505.12-.034-.166c.206-.037.398-.032.539.046zM300.33 439.408l.145.054-.107-.107-.038.053zM324.48 437.193l.116-.286c-.079.136-.105.221-.116.286zM324.208 436.075l-.238.125.238-.125zM322.502 452.595l-.017.052c.005.163.031.078.017-.052zM324.243 447.529c.08.094.167.187.206.268.079-.061.115-.121-.206-.268zM317.073 456.155l-.047-.004.047.004zM324.346 448.004c.15-.03.157-.108.104-.207-.069.05-.162.095-.104.207zM320.932 432.391l-.056.083.088-.036-.032-.047zM320.875 432.473l-.088.036.088-.036zM320.78 432.512c-.038-.023-.077-.067-.191.076l.191-.076zM322.01 433.545l.155-.167-.155.167zM322.386 433.797c-.042-.11.119-.563-.096-.552l-.125.133c.282-.218-.101.646.221.419zM325.459 445.68l.373-.06-.493-.192.12.252zM160.794 19.889c-.693.428-.469.173-1.273.713-.146-.016.062-.332.294-.529-.182.118.008-.265-.41.06-.353.568-.264.704.264.493-.109.156-.3.27-.415.369.384-.184 1.03-.525 1.54-1.104zM161.805 21.003c-.057-.015-.138.003-.238.028l.131.037.107-.065zM158.401 16.099l-.067.11.067-.11zM151.527 14.104c.034.203.048.429.051.645.01-.505.374-.666-.051-.645zM161.768 21.115l-.073-.038-.217.162c.153-.099.236-.132.29-.124zM150.773 45.002l-.394-.089c.114.066.258.098.394.089zM137.916 22.808l-.046-.117c-.027.026-.021.061.046.117zM149.227 45.031c-.061-.252-.127-.405-.195-.505l-.053.186.248.319zM159.964 21.045l.024-.07-.024.07zM163.594 23.764c-.276-.181-.374.21-.67.299-.454-.035-.309-.325-.208-.65.098-.316.145-.671-.501-.652-.595-.188-1.256.077-1.799.04l-.059-.096c.279-.247.737-.296.737-.296.184-.38.035-.5-.319-.523.201-.088.326-.221.513-.438-.155-.117-.787.413-.624.018.241-.134.628-.349.896-.434-.305-.049-.806.061-1.104.031.297-.314.588-.303.858-.403-.306-.087-.703-.279-1.259.108l-.073.209c.093-.12.423-.349.532-.37.537-.17.003.388-.185.546l-.213-.019c-1.037 1.021.541.299.648.63l-.745.411c-.389-.57-.836-1.116-1.352-1.635.255-.289.542-.554.801-.815-.04.068-.044.115.004.125l.648-.529-.287.018c.307-.363.553-.753.625-1.193-.26.089-.51.182-.758.281l.287-.511.265.193c.221-.53-.186-.254-.489-.088.175-.25.266-.451.285-.593-.334.201-.666.424-.992.644.245-.39.694-.615.652-.972-.454.309-.506.913-.929 1.016.184-.53.485-.853.05-.611.155-.264.304-.391.45-.45-.365.176-.49-.185-.92.279.21-.653-.61-.19-.01-1.126-.198.191-.734.571-.892.522.931-1.009-.513-.378.225-1.601-.761.956-1.012.062-1.663.524.056-.082.171-.241.184-.171-.174-.184-.1-.543-.162-.818-.396.914-.797.978-1.172 1.509.056-.995.542-1.048.774-1.948-.263.764-.743.604-.859 1.272-.019-.636-.085-.333.051-1.158-.396 1.176-.261.142-.638.817-.138-.678.222-1.152-.213-.872-.078-.41.351-.762.351-.762-.365-.108-.39.852-.59 1.359-.459.162-.029-.721-.075-1.219-.326.183-.687.978-.865.915.013-.155-.018-.217.059-.398-.392.696-.839-.098-1.252.808l-.016-.233c.008.476-.03.947-.075 1.287-.145.006-.299.576-.309-.041.083.026.111-.224.164-.41l-.173.256c-.073-.891.225-.292.282-.943-.346.266-.711.973-.921.713-.035-.869.553-.259.262-1.048l.357.351c-.206-1.384.226.111.044-1.364-.525-.276-.598.389-1.121.158l-.061 1.191c-.626.887-.67-2.17-1.141-.956-.088.589-.011 1.68-.434 1.154l-.001-.987c-.516-.025-.073 1.406-.67.867.016-.395.323-.399.227-.495-.465-.689-.138.594-.375.644l-.228-.836c-.512.235-.908 1.014-1.377 1.338-.055-.255-.049-.542-.261-.748-.558.665-1.51.501-2.434.467.036.263.08.529.129.787-.058.023-.279-.225-.289-.385-.403-.093.231.408.268.73-.104.131-.403-.243-.439-.49-.107.843-.35 1.905-1.223 1.642l-.069-.234c-.505.06.686 1.431-.031 1.172l-.04-.141c-.408.179-.651.575-.924.894-.28.321-.592.559-1.239.519.398.364.181.466.015.608-.166.141-.278.306.337.718-.863.047-1.04-.219-1.801.206-.154.152.702.676.753.94l-.703-.317c.2.212.406.421.615.621l-.915-.202.102.281c.076-.068.387-.043.593.054.196.43-.783.576-1.163.466.121.333.239.675.391.973-.203-.068-.299-.165-.391-.27.232.334-.878-.239-.336.27.181-.005.438.146.584.2-.121.011-.222.052-.3.098l-.127.014c-.042.024.003.066.074.135l-.49-.223-.065.116-.039.128-.068.259c-.083.355-.137.728-.277 1.069.323-.152 1.155.27 1.168.475l-.785-.224c.425.301.357-.083.847.386-.173.197-.928-.159-1.125-.402l.156.402c-.237-.062-.335-.18-.618-.306.441.287-.966.313-.174.765l-.238-.047c-.208.734.003 1.128-.043 1.73.699.116.506.321 1.051.551-.269.369-.856.807-.794 1.328.35.354.596.098 1.013.245-.641.033-.565.533-1.032.294.136.596.165.787.79 1.434.247-.121.341-.219.567-.205.123.108-.212.325-.522.359l-.075-.022c.543.321.16.849-.107 1.412-.141.281-.264.57-.265.795.014.226.153.395.53.438l-.079-.013c.304.14.59.272.89.384.033.331-.52.022-.786.398.652.128.733.394.781.689.052.286.087.586.541.658-.694.712-.41 1.085-.043 1.386.358.32.816.533.58 1.196l.314-.328c.437-.16-.056.329-.05.498.24-.253.178-.415.424-.499.667.339 1.05.948 1.444 1.643.391.688.79 1.471 1.354 2.038.435.402 1.373-1.882 1.452-.634l-.543.666c.358-.099.655-.091.923-.026.277.053.519.166.767.276.487.231 1.016.423 1.61.155-.11.171-.175.422-.27.385.07.653.81.214.895-.269.146.091-.054.448-.001.719.167.412.681-.669.701-.049.01.101-.09.186-.139.228.189-.27.673.164.615-.553.359.395.749-.248 1.027.187.221-.777.652.412.716-.713-.03 1.156.703.907.902.357-.055.351.239.353.176.834.285-.04.525-.293.41-.875.327.654.566.342.753.087.19-.27.334-.485.651.353l.975-1.049c.306-.31.588-.587.862-.847.371 1.093-.69.381-.299 1.504.279-.322.408-.785.561-1.13.153-.346.325-.602.671-.62.217.07.116.492.138.7.216-.371.529-.474.815-.626.28-.15.55-.325.648-.738.05.092.057.224.047.332.085-.086.323-.002.044-.437l-.025.182c-.529-.551-.454-1.591-.664-1.925.656 1.353.656.006 1.457 1.735.011-.124-.046-.385-.262-.658.149.023.299.164.428.554.189-.48-.268-.843.03-1.059.152.201.15.329.293.586-.14-.513-.302-1.008.075-1.04.081.132.232.259.157.311.369-.432-.18-1.566.525-1.624.649.899.389.113 1.082.748l.025-.429-.416-.222c.206-.188-.155-.836.223-.808l.161.414.191-.511-.453-.013c-.2-.518-.923-.752-.51-.843.03.115.166-.179.68.049-.156-.289-.333-.577-.037-.591.273.137.815.646.991.74-.549-.565.188-.652-.428-1.257.134.156.546.424.637.47l-.471-.439c.232.012.327.048.649.271.298-.254-1.068-.537-.406-.63.029.056.115.088.16.205l.513-1.141c.896.322.049.429.811.67.13-.651-.49-1.606-.102-2.046l-.131.06c-1.217-.544.768-.158.262-.651.074.097.668.323.533.258.316-.321-.058-.889-.35-1.55l.315.15c.351-.156.306-.557.495-.789-.323-.132-.248-.26-.748-.261 1.026-.216.81-.661.532-1.036-.261-.389-.604-.708.205-1.047.002.081.298.202.295.136-.109-.204-.199-.399-.32-.598-.576.067-.339.091-.795.222-.341-.065-.615-.202-.622-.334.401.221.924-.041 1.237-.182l-.548.025c1.004-.365-1.163.032-.5-.398l.305-.01c-.163-.137-.583-.215-.52-.375.652-.157.331.114.879.051-.071-.241-1.316-.25-.691-.553l.416.26c.742-.342.54-.351.636-.539l.251-.452-.185.149c-.883.032-.993-.081-1.035-.228-.043-.148-.001-.344-.614-.352 1.141.044.624-.115 1.358-.305.173-.159.343-.384.563-.405-.641-.005.349-.484-.58-.456.22-.096-.053-.211.533-.386zm-2.877-1.742c-.113.127-.33.304-.528.421l-.146-.226c.221-.074.448-.134.674-.195zm-14.608-6.166l.143-.087-.138.1-.005-.013zm-.334.179c.106.219.174.469.111.479-.028-.168-.218-.242-.386-.391.086-.005.182-.043.275-.088zm16.172 13.243l.016-.186c.246.029.452.088.583.215-.169 0-.395-.014-.599-.029zm-1.015-5.525l-.103-.191c.161-.057.353-.112.603-.13l-.5.32zM137.297 23.923l-.132-.15.132.15zM137.909 21.919l.16.071-.115-.127-.045.055zM163.29 26.205l.206-.262c-.114.121-.17.203-.206.262zM163.368 24.947l-.299.06.299-.06zM157.042 42.092l-.023.054c-.027.176.014.092.023-.054zM160.082 37.118c.069.122.132.246.163.346.092-.044.152-.098-.163-.346zM150.822 45.013l-.043-.013.043.013zM160.076 37.652c.167.015.201-.066.169-.187-.089.036-.207.053-.169.187zM161.188 20.016l-.091.067.101-.003-.01-.064zM161.097 20.082l-.102.003.102-.003zM160.771 20.093l.218-.005c-.024-.043-.047-.101-.218.005zM162.098 21.476l-.224.12.224-.12zM162.197 21.975c-.001-.134.313-.537.085-.595l-.183.096c.367-.132-.324.623.098.499zM161.877 35.494l.431.051-.485-.344.054.292zM90.358 330.885c-.428.261-.289.108-.784.442-.091-.009.039-.203.182-.328-.111.075.002-.165-.251.034-.218.349-.161.438.161.302-.066.094-.184.171-.256.23.234-.116.63-.327.949-.68zM90.977 331.572l-.147.022.082.02.065-.042zM88.879 328.546l-.04.068.04-.068zM84.644 327.319c.02.126.029.265.03.399.003-.315.228-.413-.03-.399zM90.953 331.642l-.047-.026-.132.098c.095-.061.152-.084.179-.072zM84.177 346.357l-.241-.053c.067.04.154.058.241.053zM76.254 332.68l-.028-.072.028.072zM83.223 346.38c-.039-.157-.083-.251-.12-.311l-.031.11.151.201zM89.848 331.599l.013-.043-.013.043zM20.462 326.827c-.168-.112-.229.129-.415.181-.28-.023-.188-.202-.131-.396.063-.198.091-.411-.309-.4-.367-.115-.774.048-1.107.025l-.038-.06c.176-.153.458-.184.458-.184.115-.233.02-.307-.196-.317.121-.049.202-.141.315-.269-.095-.074-.482.253-.385.012.151-.083.387-.215.557-.268l-.683.02c.182-.193.363-.183.528-.249-.189-.052-.433-.171-.776.064l-.045.13c.059-.076.261-.217.33-.23.334-.104.004.238-.112.337l-.131-.015c-.638.63.337.187.399.386l-.461.252c-.237-.346-.515-.684-.837-1.004l.495-.505.006.073.396-.324-.179.012c.185-.224.341-.466.383-.737l-.469.173.172-.315.162.114c.139-.325-.112-.157-.299-.052.109-.156.165-.275.176-.362l-.611.395c.15-.24.426-.38.399-.602-.28.188-.31.566-.573.627.117-.324.294-.53.03-.379.097-.166.186-.239.275-.275-.221.111-.303-.118-.564.174.13-.404-.376-.119-.004-.694-.124.117-.451.353-.55.325.575-.62-.318-.232.138-.99-.469.591-.623.04-1.028.322.032-.05.105-.147.113-.105-.11-.113-.063-.334-.1-.506-.245.562-.494.602-.725.934.035-.612.336-.651.475-1.2-.163.469-.459.37-.528.78-.012-.392-.05-.205.031-.716-.247.727-.158.086-.393.502-.08-.417.138-.706-.134-.537-.046-.251.216-.468.216-.468-.224-.067-.239.522-.367.835-.285.099-.017-.442-.042-.754-.2.11-.421.603-.531.565l.037-.247c-.243.434-.516-.062-.77.496l-.012-.145c.002.291-.023.585-.045.796-.086.005-.187.352-.194-.027.051.017.064-.138.101-.25l-.106.162c-.044-.551.144-.177.173-.578-.208.166-.436.601-.572.439-.024-.537.342-.16.163-.642l.217.22c-.129-.846.144.069.027-.841-.323-.17-.368.245-.69.097l-.039.734c-.391.545-.415-1.338-.707-.592-.056.366-.004 1.033-.27.706v-.606c-.321-.013-.045.871-.411.532.009-.243.199-.245.14-.303-.289-.423-.087.364-.234.4l-.14-.512c-.319.143-.56.621-.848.826-.032-.159-.026-.334-.163-.459-.342.407-.932.307-1.504.289l.078.485c-.038.016-.172-.14-.179-.235-.25-.057.141.251.167.45-.065.078-.248-.148-.271-.303-.07.522-.213 1.177-.754 1.013l-.042-.148c-.31.035.421.879-.023.72l-.026-.087c-.252.109-.399.355-.566.549-.174.197-.365.348-.764.321.248.223.11.285.011.37-.099.085-.17.188.207.44-.533.027-.641-.139-1.112.125-.097.091.433.417.459.579l-.434-.193.375.381-.563-.126.061.177c.043-.039.239-.028.365.034.124.264-.479.356-.718.288.071.203.148.419.239.599-.125-.039-.185-.098-.24-.165.145.203-.54-.143-.208.165.11.001.271.094.361.117l-.183.059-.077.008.048.086-.301-.134-.04.069-.028.078-.041.159c-.053.223-.085.445-.171.659.198-.094.71.165.717.297l-.485-.135c.263.186.222-.052.519.241-.108.118-.574-.099-.69-.247l.095.246-.38-.184c.273.174-.594.193-.111.471l-.145-.032c-.125.454.004.694-.028 1.066.432.073.311.197.646.339-.164.223-.528.496-.491.818.217.22.369.062.625.154-.397.017-.351.327-.635.18.084.37.099.484.488.881.148-.074.211-.137.348-.124.077.066-.134.203-.317.224l-.042-.013c.333.195.099.521-.066.872-.088.17-.165.35-.162.491.009.138.095.246.324.267l-.046-.004.547.237c.019.201-.317.015-.485.246.398.08.454.245.481.428.031.175.052.361.333.405-.425.44-.255.671-.028.857.216.198.502.33.357.732l.193-.204c.27-.101-.039.203-.029.303.152-.158.108-.252.263-.307.411.209.646.587.891 1.012.239.428.489.903.839 1.257.267.252.843-1.161.899-.391l-.333.411c.22-.058.404-.057.569-.011.166.031.319.104.476.168.298.143.628.257.992.096-.068.109-.105.259-.165.238.039.404.501.136.552-.169.087.055-.033.276.002.441.098.253.42-.415.435-.032.004.066-.059.113-.086.139.119-.168.414.103.382-.341.218.242.461-.155.631.114.137-.481.401.258.44-.438-.019.71.43.56.555.219-.034.215.144.219.112.516.18-.027.319-.18.255-.536.201.405.347.212.462.054.119-.167.207-.3.399.214l.602-.645c.185-.186.36-.361.533-.52.23.67-.423.236-.185.926.174-.196.254-.483.349-.693.092-.216.201-.372.417-.384.134.043.075.307.085.43.133-.226.326-.296.497-.387.177-.093.342-.197.396-.457.035.053.037.134.028.205.051-.058.199.003.027-.272l-.016.111c-.33-.339-.277-.981-.409-1.19.403.833.405.002.898 1.068.007-.077-.032-.234-.158-.408.094.015.185.098.265.343.114-.293-.164-.518.02-.651l.184.36c-.086-.317-.182-.622.046-.639.052.076.143.16.097.193.226-.27-.11-.966.323-1.005.397.551.239.069.663.46l.014-.267-.258-.136c.13-.12-.096-.515.138-.497l.098.252.12-.317-.282-.007c-.123-.317-.567-.46-.311-.518.019.067.105-.109.415.028-.098-.178-.205-.359-.024-.365.164.084.499.399.611.459-.341-.35.115-.405-.261-.771.081.095.336.262.392.292l-.296-.27c.143.009.203.03.396.17.182-.156-.658-.335-.245-.388l.1.125.316-.703c.554.197.029.265.504.411.081-.399-.304-.993-.062-1.261l-.08.039c-.754-.334.478-.094.161-.401.044.057.415.2.333.159.195-.198-.035-.547-.215-.954l.198.093c.22-.096.189-.346.306-.482-.201-.084-.151-.164-.465-.158.631-.133.496-.408.325-.639-.157-.236-.373-.433.124-.648.005.051.18.123.186.083l-.195-.371c-.351.043-.213.056-.49.137-.205-.038-.379-.125-.387-.204.246.141.57-.027.765-.112l-.339.016c.618-.225-.717.026-.31-.25l.188-.008c-.097-.08-.36-.132-.317-.231.404-.095.203.068.543.036-.043-.147-.809-.154-.425-.338l.253.16c.454-.212.335-.216.391-.336l.156-.28-.112.09c-.545.016-.613-.046-.635-.142-.029-.093 0-.209-.377-.215.7.026.384-.072.838-.187.103-.093.217-.236.344-.25-.396.002.216-.296-.359-.282.164-.051-.004-.126.358-.233zm-1.773-1.07c-.071.081-.206.187-.326.258l-.092-.143.418-.115zm-9.001-3.805l.088-.058-.085.064-.003-.006zm-.206.112c.068.138.11.285.07.294-.019-.105-.131-.149-.24-.24l.17-.054zm9.967 8.161l.007-.115c.152.014.278.053.36.132l-.367-.017zm-.632-3.397l-.06-.118c.102-.041.224-.068.372-.082l-.312.2zM75.875 333.37l-.082-.095.082.095zM76.248 332.135l.104.041-.073-.075-.03.034zM91.892 334.774l.128-.164-.128.164zM91.939 334l-.185.036.185-.036zM88.045 344.567l-.018.03.018-.03zM89.913 341.499l.098.216c.063-.025.1-.063-.098-.216zM89.909 341.83c.107.01.124-.042.103-.116-.051.021-.12.033-.103.116zM90.6 330.96l-.056.045.065-.003-.009-.042zM90.541 330.999l-.065.003.065-.003zM90.341 331.012l.138-.003c-.019-.03-.034-.069-.138.003zM91.161 331.858l-.139.078.139-.078zM91.222 332.17c-.002-.082.187-.33.056-.367l-.109.059c.216-.086-.21.383.053.308zM91.024 340.5l.261.03-.294-.211.033.181z" fill="#EBECF2"/><path d="M189.114 232.619c.131.107.181.295.24.412-.043-.373-.156-1.008-.591-1.515.187.687-.009.457.272 1.262-.072.154-.333-.044-.457-.274.061.179-.285.01-.09.42.48.328.652.225.626-.305zM190.517 230.587c-.042.05-.073.128-.082.225l.112-.113-.03-.112zM184.313 233.668l.07.083-.07-.083zM190.632 230.635l.133-.048-.133.048zM179.24 239.53c.163.065.327.156.485.252-.351-.237-.234-.632-.485-.252zM190.632 230.635l-.085.065.08.217c-.034-.154-.032-.236.005-.282zM192.759 256.205l-.244.257c.094-.053.183-.148.244-.257zM170.977 255.843l-.044-.12c-.02.033-.015.075.044.12zM192.119 257.431c-.217-.042-.354-.037-.459-.011l.122.105.337-.094zM170.34 257.157l.103.128-.103-.128zM199.089 233.547c-.318.386-.151.277-.33.648-.277.129-.573.148-.684.033.443-.012.566-.556.655-.868l-.34.332c.331-.911-.726.687-.679-.079l.188-.179c-.224-.028-.566.133-.674-.037.28-.511.318-.098.618-.461-.277-.159-1.075.538-.963-.069.193-.075.33.027.52-.027.164-.729.021-.611-.106-.82l-.286-.522.028.231c-1.097 1.123-.87-.159-1.651.598.768-.702.274-.47.542-1.07-.055-.22-.19-.487-.072-.64-.406.399-.311-.556-.879.093.034-.207-.266-.096-.089-.591-.38.073.002.377-.089.626-.639.541-1.194-1.119-1.946-.105-.575.411-.64 1.046-.961 1.489l-.141.026c-.147-.321.029-.599.048-.695-.343-.262-.572-.151-.769.171.001-.191-.091-.328-.245-.526-.21.124.088.771-.289.571-.036-.242-.095-.612-.058-.875-.221.267-.322.768-.493 1.042-.22-.3-.07-.577-.062-.845-.275.326-.644.643-.439 1.236l.199.065c-.088-.095-.214-.423-.194-.529.032-.547.444.014.535.197l-.116.205c.715 1.034.553-.501 1.02-.541l.104.732c-.858.292-1.624.731-2.352 1.321-.189-.271-.368-.549-.565-.805.061.034.111.042.134-.012l-.336-.637-.088.302c-.278-.294-.588-.535-.992-.615l.073.738-.404-.297.247-.242c-.438-.235-.277.165-.208.464-.187-.182-.344-.287-.468-.311l.3.999c-.287-.269-.356-.713-.7-.712.142.459.696.561.651.983-.435-.219-.628-.541-.555-.092-.192-.178-.262-.332-.266-.482.044.372-.318.458-.051.931-.521-.288-.409.564-1.027-.156.102.211.228.791.124.951-.518-1.066-.544.442-1.306-.511.512.926-.365.962-.276 1.698-.04-.078-.121-.224-.055-.22-.236.125-.501-.043-.752-.059.571.62.435 1.039.662 1.552-.793-.343-.578-.823-1.199-1.306l.593 1.181c-.518-.174-.312-.015-.9-.406.734.758-.021.286.316.877-.604-.099-.776-.599-.796-.106-.358-.079-.403-.586-.403-.586-.273.28.449.659.731 1.031-.136.491-.57-.233-.979-.391-.046.359.368 1.018.206 1.159-.107-.072-.172-.076-.264-.214.279.645-.553.718-.171 1.492-.395-.141-.154-.199.69.565-.091.141.2.561-.243.284.072-.072-.082-.208-.178-.351l.066.283c-.676-.342-.056-.354-.478-.699-.026.434.21 1.129-.111 1.211-.607-.404.188-.648-.535-.765l.472-.152c-1.089-.469.215-.154-.915-.692l-.598 1.032c.248.325.498.315.743.661.133 1.061-1.821-.598-1.377.453.307.406 1.02.99.39 1.037l-.591-.587c-.375.394.797.927.04 1.079-.211-.263.001-.506-.123-.493-.73-.066.247.48.097.711l-.636-.372c-.224.539-.121 1.354-.319 1.964-.168-.143-.305-.354-.564-.346-.108.867-.922 1.423-1.674 1.905l.412.561c-.039.056-.307-.019-.38-.143-.343.161.341.199.498.449-.034.171-.42.032-.536-.15.241.736.341 1.85-.471 2.071l-.121-.178c-.407.291.97.983.279 1.104l-.069-.119c-.638.747-.46 1.918-1.597 2.252.804.443-.683.745.479 1.231-.762.3-.937.073-1.555.679-.117.179.664.531.716.807l-.632-.186.564.526-.805-.046.094.272c.066-.078.339-.105.518-.043.179.414-.683.844-1.017.774.104.371.238.747.366 1.101-.192-.044-.273-.153-.358-.269.267.41-.767-.092-.267.456.159-.049.383.087.516.112-.423.196-.486.785-.319 1.216l-.467-.104c-.15.808.246 1.697.4 2.581.142-.361.934-.405 1.056-.191l-.662.233c.451.071.201-.306.783-.091-.014.317-.724.389-.986.237l.316.345c-.193.075-.321.01-.585.048.434.049-.465.922.323.945l-.191.091c.32.929.743 1.228 1.161 1.893.52-.305.575.022 1.09-.072.137.644.19 1.379.69 1.783.542.11.44-.281.823-.411-.356.443.199.813-.316.908.679.43.899.56 1.933.629.015-.245-.032-.381.104-.521.179-.01.221.373.087.601l-.065.032c1.136-.251 2.075 2.522 3.131 1.403l-.053.049c.327-.158.62-.363.909-.547.4.11-.25.407.045.759.968-.899 1.62.047 2.225-.684.913 1.532 1.929-.593 3.169-.112l-.218-.321c.031-.439.334.07.533.063-.167-.252-.379-.19-.349-.438 1.1-.999 2.204-1.317 3.777-2.757 1.625-1.778 1.196-1.857.515-2.348-.346-.206-.595-.377-.069-.552l.627.37c-.533-1.207.62-1.905.292-3.062.131.117.328.193.295.281.543-.008.29-.69-.087-.854.098-.119.365.111.593.108.349-.067-.408-.735.099-.625.084.017.13.117.153.172-.181-.223.308-.532-.286-.666.405-.209.041-.752.491-.851-.506-.472.554-.404-.249-.893.841.469.975-.192.691-.615.218.212.357-.02.668.258.113-.231.064-.527-.377-.742 1.234.197-.297-1.333 1.101-.756-.032-.923.097-1.724.339-2.431.75.61-.377.692.46 1.264.042-.762-.364-1.58.227-1.958.204-.047.264.349.355.496.109-.768.86-.916.875-1.702.062.06.092.173.103.273.056-.106.283-.098-.04-.393l.006.166c-.591-.298-.646-1.266-.863-1.525.756 1.029.639-.215 1.541 1.145-.004-.114-.081-.327-.306-.525.145-.02.288.078.441.395.121-.462-.302-.699-.022-.957.145.16.145.268.292.481-.151-.435-.295-.884.071-.965.07.109.214.207.138.273.363-.411-.027-1.484.715-1.571.444.834.35.103.877.712l.101-.393-.339-.22c.232-.167.115-.844.501-.85l.021.426c.133-.191.274-.362.395-.571-.156.029-.318.026-.481.033-.025-.54-.7-.712-.249-.857-.001.119.219-.22.69-.038-.071-.289-.175-.588.119-.658.238.107.661.587.823.662-.422-.562.369-.812-.154-1.379.106.145.459.372.547.395l-.394-.403c.23-.049.319-.036.592.154.325-.401-.946-.335-.313-.655l.139.201c.474-.451.119-1.164.51-1.596.82.043.057.524.761.529l-.417-2.567-.09.141c-.565-.057-.426-.181-.209-.356.212-.17.475-.415.198-.574.09.085.635.067.505.048.154-.586-.499-1.161-.962-1.683l.304.003c.185-.375-.114-.806-.104-1.165-.308.027-.337-.158-.68.112.563-.789.104-1.161-.337-1.412-.476-.25-.921-.398-.674-1.182.07.083.355.037.304-.032-.262-.152-.486-.288-.733-.407zm-5.931-2.031l.069.515-.266-.013c.02-.142.074-.309.197-.502zm-2.009.195c.089.121.174.345.212.541l-.318.098c.03-.212.06-.424.106-.639zm-14.612 13.266l-.051.183.051-.183zm-.242.562c.19.09.359.223.311.278-.097-.107-.291-.022-.496-.011.066-.068.126-.167.185-.267zm22.759-9.919l-.135-.195c.182-.102.368-.163.551-.094-.108.082-.262.198-.416.289zM189.708 232.33l-.063-.025.063.025zM170.939 254.935l.145.042-.107-.098-.038.056zM197.293 232.02l-.13-.334c.041.176.083.27.13.334zM196.05 231.028l-.124.229.124-.229zM195.853 250.614l-.013.054c.019.157.031.067.013-.054zM199.332 245.379c.033.128.061.251.055.364.121-.065.196-.132-.055-.364zM192.785 256.176l-.025.028.025-.028zM199.157 245.972c.173-.006.222-.107.231-.239-.099.057-.227.1-.231.239zM189.069 231.112l.039.088.045-.107-.084.019zM189.106 231.21l-.04.102.04-.102zM188.984 231.537l.082-.225c-.055.034-.129.054-.082.225zM191.259 230.608l-.02-.219.02.219zM191.894 230.423c-.159-.024-.476-.395-.679-.214l.015.178c.049-.344.582.431.664.036zM201.393 242.963l.388-.098-.445-.256.057.354z" fill="#6374FF"/></svg>